%TF.GenerationSoftware,KiCad,Pcbnew,8.0.8-8.0.8-0~ubuntu22.04.1*%
%TF.CreationDate,2025-03-05T01:13:39-05:00*%
%TF.ProjectId,Electronics V2,456c6563-7472-46f6-9e69-63732056322e,rev?*%
%TF.SameCoordinates,Original*%
%TF.FileFunction,Copper,L2,Bot*%
%TF.FilePolarity,Positive*%
%FSLAX46Y46*%
G04 Gerber Fmt 4.6, Leading zero omitted, Abs format (unit mm)*
G04 Created by KiCad (PCBNEW 8.0.8-8.0.8-0~ubuntu22.04.1) date 2025-03-05 01:13:39*
%MOMM*%
%LPD*%
G01*
G04 APERTURE LIST*
G04 Aperture macros list*
%AMRoundRect*
0 Rectangle with rounded corners*
0 $1 Rounding radius*
0 $2 $3 $4 $5 $6 $7 $8 $9 X,Y pos of 4 corners*
0 Add a 4 corners polygon primitive as box body*
4,1,4,$2,$3,$4,$5,$6,$7,$8,$9,$2,$3,0*
0 Add four circle primitives for the rounded corners*
1,1,$1+$1,$2,$3*
1,1,$1+$1,$4,$5*
1,1,$1+$1,$6,$7*
1,1,$1+$1,$8,$9*
0 Add four rect primitives between the rounded corners*
20,1,$1+$1,$2,$3,$4,$5,0*
20,1,$1+$1,$4,$5,$6,$7,0*
20,1,$1+$1,$6,$7,$8,$9,0*
20,1,$1+$1,$8,$9,$2,$3,0*%
G04 Aperture macros list end*
%TA.AperFunction,ComponentPad*%
%ADD10R,2.400000X2.400000*%
%TD*%
%TA.AperFunction,ComponentPad*%
%ADD11C,2.400000*%
%TD*%
%TA.AperFunction,ComponentPad*%
%ADD12R,1.500000X1.050000*%
%TD*%
%TA.AperFunction,ComponentPad*%
%ADD13O,1.500000X1.050000*%
%TD*%
%TA.AperFunction,ComponentPad*%
%ADD14R,1.700000X1.700000*%
%TD*%
%TA.AperFunction,ComponentPad*%
%ADD15O,1.700000X1.700000*%
%TD*%
%TA.AperFunction,HeatsinkPad*%
%ADD16C,0.600000*%
%TD*%
%TA.AperFunction,ComponentPad*%
%ADD17R,2.000000X2.000000*%
%TD*%
%TA.AperFunction,ComponentPad*%
%ADD18C,2.000000*%
%TD*%
%TA.AperFunction,ComponentPad*%
%ADD19RoundRect,0.250000X0.550000X0.550000X-0.550000X0.550000X-0.550000X-0.550000X0.550000X-0.550000X0*%
%TD*%
%TA.AperFunction,ComponentPad*%
%ADD20C,1.600000*%
%TD*%
%TA.AperFunction,ComponentPad*%
%ADD21O,4.100000X3.000000*%
%TD*%
%TA.AperFunction,SMDPad,CuDef*%
%ADD22R,2.000000X1.100000*%
%TD*%
%TA.AperFunction,SMDPad,CuDef*%
%ADD23R,1.000000X2.000000*%
%TD*%
%TA.AperFunction,SMDPad,CuDef*%
%ADD24R,2.000000X2.000000*%
%TD*%
%TA.AperFunction,ViaPad*%
%ADD25C,1.500000*%
%TD*%
%TA.AperFunction,ViaPad*%
%ADD26C,0.600000*%
%TD*%
%TA.AperFunction,Conductor*%
%ADD27C,0.700000*%
%TD*%
%TA.AperFunction,Conductor*%
%ADD28C,0.200000*%
%TD*%
%TA.AperFunction,Conductor*%
%ADD29C,0.250000*%
%TD*%
G04 APERTURE END LIST*
D10*
%TO.P,J6,1,Pin_1*%
%TO.N,Net-(J6-Pin_1)*%
X119650000Y-73900000D03*
D11*
%TO.P,J6,2,Pin_2*%
%TO.N,GND*%
X116150000Y-73900000D03*
%TD*%
D10*
%TO.P,BT1,1,+*%
%TO.N,Net-(BT1-+)*%
X196500000Y-86230000D03*
D11*
%TO.P,BT1,2,-*%
%TO.N,GND*%
X196500000Y-82730000D03*
%TD*%
D12*
%TO.P,Q1,1,C*%
%TO.N,+5V*%
X135300000Y-73510000D03*
D13*
%TO.P,Q1,2,B*%
%TO.N,/LASER*%
X135300000Y-74780000D03*
%TO.P,Q1,3,E*%
%TO.N,Net-(J6-Pin_1)*%
X135300000Y-76050000D03*
%TD*%
D10*
%TO.P,J7,1,Pin_1*%
%TO.N,Net-(J6-Pin_1)*%
X128200000Y-73900000D03*
D11*
%TO.P,J7,2,Pin_2*%
%TO.N,GND*%
X124700000Y-73900000D03*
%TD*%
D14*
%TO.P,J5,1,Pin_1*%
%TO.N,+5V*%
X197900000Y-104480000D03*
D15*
%TO.P,J5,2,Pin_2*%
%TO.N,+3V3*%
X197900000Y-101940000D03*
%TO.P,J5,3,Pin_3*%
%TO.N,GND*%
X197900000Y-99400000D03*
%TO.P,J5,4,Pin_4*%
X197900000Y-96860000D03*
%TD*%
D10*
%TO.P,J1,1,Pin_1*%
%TO.N,/Motor Driver_L/A2*%
X162400000Y-73700000D03*
D11*
%TO.P,J1,2,Pin_2*%
%TO.N,/Motor Driver_L/A1*%
X158900000Y-73700000D03*
%TO.P,J1,3,Pin_3*%
%TO.N,/Motor Driver_L/B1*%
X155400000Y-73700000D03*
%TO.P,J1,4,Pin_4*%
%TO.N,/Motor Driver_L/B2*%
X151900000Y-73700000D03*
%TD*%
D16*
%TO.P,U3,41,GND*%
%TO.N,GND*%
X168100000Y-122540000D03*
X168100000Y-121140000D03*
X167400000Y-123240000D03*
X167400000Y-121840000D03*
X167400000Y-120440000D03*
X166700000Y-122540000D03*
X166700000Y-121140000D03*
X166000000Y-123240000D03*
X166000000Y-121840000D03*
X166000000Y-120440000D03*
X165300000Y-122540000D03*
X165300000Y-121140000D03*
%TD*%
D17*
%TO.P,BZ1,1,+*%
%TO.N,/BUZZER*%
X120550000Y-122075000D03*
D18*
%TO.P,BZ1,2,-*%
%TO.N,GND*%
X112950000Y-122075000D03*
%TD*%
D19*
%TO.P,SW8,A,A*%
%TO.N,Net-(C27-Pad1)*%
X145725000Y-124475000D03*
D20*
%TO.P,SW8,B,B*%
%TO.N,Net-(C26-Pad1)*%
X145725000Y-119475000D03*
%TO.P,SW8,C,C*%
%TO.N,GND*%
X145725000Y-121975000D03*
D21*
%TO.P,SW8,GND*%
%TO.N,N/C*%
X138225000Y-127575000D03*
D20*
%TO.P,SW8,S1,S1*%
%TO.N,/INCR_BTN*%
X131225000Y-124475000D03*
%TO.P,SW8,S2,S2*%
%TO.N,+3V3*%
X131225000Y-119475000D03*
D21*
%TO.P,SW8,SH*%
%TO.N,GND*%
X138225000Y-116375000D03*
%TD*%
D10*
%TO.P,J2,1,Pin_1*%
%TO.N,/Motor Driver_R/A2*%
X182200000Y-73600000D03*
D11*
%TO.P,J2,2,Pin_2*%
%TO.N,/Motor Driver_R/A1*%
X178700000Y-73600000D03*
%TO.P,J2,3,Pin_3*%
%TO.N,/Motor Driver_R/B1*%
X175200000Y-73600000D03*
%TO.P,J2,4,Pin_4*%
%TO.N,/Motor Driver_R/B2*%
X171700000Y-73600000D03*
%TD*%
D14*
%TO.P,U8,1,GND*%
%TO.N,GND*%
X118300000Y-81300000D03*
D15*
%TO.P,U8,2,VCC*%
%TO.N,+3V3*%
X120840000Y-81300000D03*
%TO.P,U8,3,SCL*%
%TO.N,/SCL*%
X123380000Y-81300000D03*
%TO.P,U8,4,SDA*%
%TO.N,/SDA*%
X125920000Y-81300000D03*
%TD*%
D22*
%TO.P,J3,1,CD/DAT3*%
%TO.N,/CS_SD*%
X129600000Y-93625000D03*
%TO.P,J3,2,CMD*%
%TO.N,/MOSI*%
X129600000Y-96125000D03*
%TO.P,J3,3,VSS*%
%TO.N,GND*%
X129600000Y-98625000D03*
%TO.P,J3,4,VDD*%
%TO.N,+3V3*%
X129600000Y-101125000D03*
%TO.P,J3,5,CLK*%
%TO.N,/SCLK*%
X129600000Y-103625000D03*
%TO.P,J3,6,VSS*%
%TO.N,GND*%
X129600000Y-106125000D03*
%TO.P,J3,7,DAT0*%
%TO.N,/MISO*%
X129600000Y-108550000D03*
%TO.P,J3,8,DAT1*%
%TO.N,unconnected-(J3-DAT1-Pad8)*%
X129600000Y-110250000D03*
%TO.P,J3,9,DAT2*%
%TO.N,unconnected-(J3-DAT2-Pad9)*%
X129600000Y-91125000D03*
D23*
%TO.P,J3,CP*%
%TO.N,N/C*%
X118200000Y-113300000D03*
D24*
%TO.P,J3,SH*%
%TO.N,GND*%
X104200000Y-114200000D03*
%TO.N,N/C*%
X122850000Y-114200000D03*
X104200000Y-85200000D03*
%TO.N,GND*%
X122850000Y-85200000D03*
D23*
%TO.P,J3,SW*%
%TO.N,/SD_DETECT*%
X106650000Y-113300000D03*
%TO.P,J3,WP*%
%TO.N,N/C*%
X109250000Y-113300000D03*
%TD*%
D25*
%TO.N,VBAT*%
X150600000Y-80337500D03*
X170475000Y-80337500D03*
X154812500Y-80337500D03*
X174662500Y-80337500D03*
D26*
%TO.N,GND*%
X176700000Y-86350000D03*
X113062500Y-112387500D03*
X180000000Y-109500000D03*
X166700000Y-88500000D03*
X178100000Y-99000000D03*
X165900000Y-99100000D03*
X184200000Y-85700000D03*
X173812500Y-89937500D03*
X170700000Y-105600000D03*
X180400000Y-91200000D03*
X177800000Y-104100000D03*
X170100000Y-83800000D03*
X116800000Y-108350000D03*
X156350000Y-86350000D03*
X160600000Y-92800000D03*
X163200000Y-83200000D03*
%TO.N,/BUZZER*%
X143400000Y-123400000D03*
X159650000Y-121650000D03*
%TO.N,+3V3*%
X131450000Y-101125000D03*
X178900000Y-128700000D03*
X156650000Y-92075000D03*
X179650000Y-105850000D03*
X176145000Y-94955000D03*
X177600000Y-114600000D03*
X175975000Y-91575000D03*
X154400000Y-108300000D03*
X101450000Y-89350000D03*
X169125000Y-91575000D03*
%TO.N,/BTN_2*%
X161025000Y-107025000D03*
X167250000Y-114350000D03*
%TO.N,/BTN_3*%
X143475000Y-110225000D03*
X167100000Y-115575000D03*
%TO.N,/INCR_BTN*%
X133212500Y-125037500D03*
X172575000Y-124480000D03*
%TO.N,+5V*%
X168675000Y-89375000D03*
X191587500Y-71837500D03*
X150825000Y-90650000D03*
%TO.N,/Motor Driver_L/A2*%
X162400000Y-81200000D03*
%TO.N,/Motor Driver_L/B2*%
X149050000Y-83650000D03*
%TO.N,/Motor Driver_R/B2*%
X169050000Y-83675000D03*
%TO.N,/Motor Driver_R/A2*%
X182200000Y-81250000D03*
%TO.N,/SCLK*%
X152465568Y-117787598D03*
%TO.N,/MISO*%
X152417679Y-118588239D03*
%TO.N,/CS_SD*%
X154900000Y-121925000D03*
%TO.N,/MOSI*%
X153825000Y-120670000D03*
%TO.N,/SCL*%
X169125000Y-96525000D03*
X169125000Y-101750000D03*
X172550000Y-116860000D03*
X170050000Y-116860000D03*
%TO.N,/SDA*%
X168175000Y-102800000D03*
X168175000Y-96525000D03*
X172575000Y-118130000D03*
X168550000Y-116250000D03*
%TO.N,/SD_DETECT*%
X106650000Y-115200000D03*
%TO.N,/INCR_A*%
X172575000Y-120670000D03*
X152125000Y-124450000D03*
%TO.N,/INCR_B*%
X154650000Y-119450000D03*
X172600000Y-119450000D03*
%TO.N,/VREF*%
X157050000Y-87700000D03*
X176975000Y-87600000D03*
X170075000Y-90975000D03*
%TO.N,/~{EN}*%
X168450000Y-85600000D03*
X178175000Y-91325000D03*
X149195557Y-85229443D03*
%TO.N,/SPREAD*%
X158450000Y-89150000D03*
X149325000Y-89850000D03*
%TO.N,/Motor Driver_L/MS1_AD1*%
X158905388Y-90658771D03*
X152500000Y-95400000D03*
X152925000Y-91275000D03*
%TO.N,/LASER*%
X157800000Y-115625000D03*
%TO.N,/Motor Driver_L/MS1_AD0*%
X151337500Y-95312500D03*
X158250000Y-90200000D03*
X151981129Y-90693871D03*
%TD*%
D27*
%TO.N,VBAT*%
X170475000Y-80337500D02*
X174662500Y-80337500D01*
X150600000Y-80337500D02*
X154812500Y-80337500D01*
D28*
%TO.N,/BUZZER*%
X157925000Y-123375000D02*
X159650000Y-121650000D01*
X143425000Y-123375000D02*
X157925000Y-123375000D01*
X143400000Y-123400000D02*
X143425000Y-123375000D01*
%TO.N,+3V3*%
X175975000Y-91575000D02*
X169125000Y-91575000D01*
X176145000Y-91745000D02*
X176145000Y-94955000D01*
X157150000Y-91575000D02*
X169125000Y-91575000D01*
X120840000Y-83260000D02*
X120840000Y-81300000D01*
X177600000Y-107900000D02*
X179650000Y-105850000D01*
X154400000Y-108300000D02*
X155300000Y-108300000D01*
X180100000Y-128200000D02*
X180100000Y-117100000D01*
X178900000Y-128700000D02*
X179600000Y-128700000D01*
X156650000Y-92075000D02*
X157150000Y-91575000D01*
X175975000Y-91575000D02*
X176145000Y-91745000D01*
X155300000Y-108300000D02*
X156650000Y-106950000D01*
X129600000Y-101125000D02*
X131450000Y-101125000D01*
X180100000Y-117100000D02*
X177600000Y-114600000D01*
X179600000Y-128700000D02*
X180100000Y-128200000D01*
X101450000Y-89350000D02*
X114750000Y-89350000D01*
X156650000Y-106950000D02*
X156650000Y-92075000D01*
X114750000Y-89350000D02*
X120840000Y-83260000D01*
X177600000Y-114600000D02*
X177600000Y-107900000D01*
%TO.N,/BTN_2*%
X167250000Y-114350000D02*
X167250000Y-113250000D01*
X167250000Y-113250000D02*
X161025000Y-107025000D01*
%TO.N,/BTN_3*%
X148050000Y-114800000D02*
X143475000Y-110225000D01*
X167100000Y-115575000D02*
X166325000Y-114800000D01*
X166325000Y-114800000D02*
X148050000Y-114800000D01*
%TO.N,/INCR_BTN*%
X167950000Y-125675000D02*
X169145000Y-124480000D01*
X133850000Y-125675000D02*
X167950000Y-125675000D01*
X169145000Y-124480000D02*
X172575000Y-124480000D01*
X133212500Y-125037500D02*
X133850000Y-125675000D01*
X172575000Y-124480000D02*
X172545000Y-124450000D01*
%TO.N,+5V*%
X135300000Y-73510000D02*
X145460000Y-73510000D01*
D29*
X192750000Y-100750000D02*
X196480000Y-104480000D01*
D28*
X149076471Y-90650000D02*
X150825000Y-90650000D01*
D29*
X191587500Y-71837500D02*
X192750000Y-73000000D01*
D28*
X160015686Y-89200000D02*
X157915686Y-87100000D01*
X149050000Y-87100000D02*
X148450000Y-87700000D01*
X145460000Y-73510000D02*
X148450000Y-76500000D01*
X157915686Y-87100000D02*
X149050000Y-87100000D01*
X148450000Y-90023529D02*
X149076471Y-90650000D01*
X168500000Y-89200000D02*
X160015686Y-89200000D01*
D29*
X192750000Y-73000000D02*
X192750000Y-100750000D01*
X196480000Y-104480000D02*
X197900000Y-104480000D01*
D28*
X148450000Y-76500000D02*
X148450000Y-90023529D01*
X168675000Y-89375000D02*
X168500000Y-89200000D01*
X150800000Y-90675000D02*
X150825000Y-90650000D01*
D29*
%TO.N,/Motor Driver_L/A2*%
X162400000Y-81200000D02*
X162400000Y-73700000D01*
%TO.N,/Motor Driver_L/B2*%
X149050000Y-76550000D02*
X151900000Y-73700000D01*
X149050000Y-83650000D02*
X149050000Y-76550000D01*
%TO.N,/Motor Driver_R/B2*%
X169050000Y-76250000D02*
X171700000Y-73600000D01*
X169050000Y-83675000D02*
X169050000Y-76250000D01*
%TO.N,/Motor Driver_R/A2*%
X182200000Y-81250000D02*
X182200000Y-73600000D01*
D28*
%TO.N,/SCLK*%
X132200000Y-103625000D02*
X129600000Y-103625000D01*
X152002970Y-117325000D02*
X145900000Y-117325000D01*
X145900000Y-117325000D02*
X132200000Y-103625000D01*
X152465568Y-117787598D02*
X152002970Y-117325000D01*
%TO.N,/MISO*%
X152417679Y-118588239D02*
X152029440Y-118200000D01*
X151654440Y-117825000D02*
X145825000Y-117825000D01*
X151675000Y-117845560D02*
X151654440Y-117825000D01*
X152026471Y-118200000D02*
X151675000Y-117848529D01*
X152029440Y-118200000D02*
X152026471Y-118200000D01*
X136550000Y-108550000D02*
X129600000Y-108550000D01*
X151675000Y-117848529D02*
X151675000Y-117845560D01*
X145825000Y-117825000D02*
X136550000Y-108550000D01*
%TO.N,/CS_SD*%
X153750000Y-117657815D02*
X152617185Y-116525000D01*
X154475000Y-121500000D02*
X154475000Y-120471471D01*
X154070000Y-120070000D02*
X153750000Y-119750000D01*
X154900000Y-121925000D02*
X154475000Y-121500000D01*
X130850000Y-93625000D02*
X129600000Y-93625000D01*
X132800000Y-95575000D02*
X130850000Y-93625000D01*
X154475000Y-120471471D02*
X154073529Y-120070000D01*
X152617185Y-116525000D02*
X146231372Y-116525000D01*
X146231372Y-116525000D02*
X132800000Y-103093628D01*
X132800000Y-103093628D02*
X132800000Y-95575000D01*
X153750000Y-119750000D02*
X153750000Y-117657815D01*
X154073529Y-120070000D02*
X154070000Y-120070000D01*
%TO.N,/MOSI*%
X132365686Y-103225000D02*
X132365686Y-97665686D01*
X146065686Y-116925000D02*
X132365686Y-103225000D01*
X152451499Y-116925000D02*
X146065686Y-116925000D01*
X153825000Y-120670000D02*
X153350000Y-120195000D01*
X153350000Y-117823501D02*
X152451499Y-116925000D01*
X153350000Y-120195000D02*
X153350000Y-117823501D01*
X132365686Y-97665686D02*
X130825000Y-96125000D01*
X130825000Y-96125000D02*
X129600000Y-96125000D01*
%TO.N,/SCL*%
X123380000Y-82730000D02*
X123380000Y-81300000D01*
X172210000Y-116860000D02*
X169125000Y-113775000D01*
X153507871Y-116850000D02*
X152782871Y-116125000D01*
X169125000Y-101750000D02*
X169125000Y-96525000D01*
X152782871Y-116125000D02*
X146425000Y-116125000D01*
X170040000Y-116850000D02*
X153507871Y-116850000D01*
X133200000Y-102900000D02*
X133200000Y-92550000D01*
X169125000Y-113775000D02*
X169125000Y-101750000D01*
X146425000Y-116125000D02*
X133200000Y-102900000D01*
X133200000Y-92550000D02*
X123380000Y-82730000D01*
X172550000Y-116860000D02*
X172210000Y-116860000D01*
X170050000Y-116860000D02*
X170040000Y-116850000D01*
%TO.N,/SDA*%
X172575000Y-118130000D02*
X172230000Y-118130000D01*
X153473557Y-116250000D02*
X152948557Y-115725000D01*
X146590686Y-115725000D02*
X133600000Y-102734314D01*
X172230000Y-118130000D02*
X168175000Y-114075000D01*
X168550000Y-116250000D02*
X153473557Y-116250000D01*
X125920000Y-84604314D02*
X125920000Y-81300000D01*
X152948557Y-115725000D02*
X146590686Y-115725000D01*
X133600000Y-102734314D02*
X133600000Y-92284314D01*
X168175000Y-114075000D02*
X168175000Y-102800000D01*
X133600000Y-92284314D02*
X125920000Y-84604314D01*
X168175000Y-102800000D02*
X168175000Y-96525000D01*
%TO.N,/SD_DETECT*%
X106650000Y-115200000D02*
X106650000Y-113300000D01*
%TO.N,/INCR_A*%
X171125000Y-120675000D02*
X167350000Y-124450000D01*
X172570000Y-120675000D02*
X171125000Y-120675000D01*
X172575000Y-120670000D02*
X172570000Y-120675000D01*
X167350000Y-124450000D02*
X152125000Y-124450000D01*
%TO.N,/INCR_B*%
X154650000Y-119450000D02*
X172600000Y-119450000D01*
%TO.N,/VREF*%
X177250000Y-87875000D02*
X176975000Y-87600000D01*
X175700000Y-90975000D02*
X177250000Y-89425000D01*
X170075000Y-90975000D02*
X175700000Y-90975000D01*
X177250000Y-89425000D02*
X177250000Y-87875000D01*
X157950000Y-87700000D02*
X161225000Y-90975000D01*
X157050000Y-87700000D02*
X157950000Y-87700000D01*
X161225000Y-90975000D02*
X170075000Y-90975000D01*
%TO.N,/~{EN}*%
X178175000Y-91325000D02*
X178175000Y-90825000D01*
X176798529Y-85600000D02*
X168450000Y-85600000D01*
X177650000Y-86451471D02*
X176798529Y-85600000D01*
X168450000Y-85600000D02*
X167475000Y-84625000D01*
X149800000Y-84625000D02*
X149195557Y-85229443D01*
X178175000Y-90825000D02*
X177650000Y-90300000D01*
X167475000Y-84625000D02*
X149800000Y-84625000D01*
X177650000Y-90300000D02*
X177650000Y-86451471D01*
%TO.N,/SPREAD*%
X157175000Y-90025000D02*
X158050000Y-89150000D01*
X149675000Y-89850000D02*
X149875000Y-90050000D01*
X149900000Y-90025000D02*
X157175000Y-90025000D01*
X149875000Y-90050000D02*
X149900000Y-90025000D01*
X149325000Y-89850000D02*
X149675000Y-89850000D01*
X158050000Y-89150000D02*
X158450000Y-89150000D01*
%TO.N,/Motor Driver_L/MS1_AD1*%
X152925000Y-91275000D02*
X152925000Y-94975000D01*
X158739159Y-90825000D02*
X158905388Y-90658771D01*
X152925000Y-94975000D02*
X152500000Y-95400000D01*
X152925000Y-91275000D02*
X153375000Y-90825000D01*
X153375000Y-90825000D02*
X158739159Y-90825000D01*
%TO.N,/LASER*%
X146731372Y-115300000D02*
X134003186Y-102571814D01*
X157800000Y-115625000D02*
X157475000Y-115300000D01*
X134370000Y-74780000D02*
X135300000Y-74780000D01*
X157475000Y-115300000D02*
X146731372Y-115300000D01*
X134003186Y-102571814D02*
X134003186Y-75146814D01*
X134003186Y-75146814D02*
X134370000Y-74780000D01*
%TO.N,/Motor Driver_L/MS1_AD0*%
X158025000Y-90425000D02*
X158250000Y-90200000D01*
X152250000Y-90425000D02*
X158025000Y-90425000D01*
X152250000Y-94400000D02*
X151337500Y-95312500D01*
X152250000Y-90962743D02*
X152250000Y-94400000D01*
X151981129Y-90693871D02*
X151981129Y-90693872D01*
X151981129Y-90693872D02*
X152250000Y-90962743D01*
X151981129Y-90693871D02*
X152250000Y-90425000D01*
%TD*%
%TA.AperFunction,Conductor*%
%TO.N,GND*%
G36*
X167367712Y-84944407D02*
G01*
X167379525Y-84954496D01*
X167919453Y-85494424D01*
X167947230Y-85548941D01*
X167947442Y-85578515D01*
X167944353Y-85600002D01*
X167964834Y-85742456D01*
X168024622Y-85873371D01*
X168024623Y-85873373D01*
X168077736Y-85934669D01*
X168118873Y-85982144D01*
X168118875Y-85982145D01*
X168239947Y-86059953D01*
X168346403Y-86091211D01*
X168378035Y-86100499D01*
X168378036Y-86100499D01*
X168378039Y-86100500D01*
X168378041Y-86100500D01*
X168521959Y-86100500D01*
X168521961Y-86100500D01*
X168660053Y-86059953D01*
X168781128Y-85982143D01*
X168822264Y-85934668D01*
X168874660Y-85903073D01*
X168897083Y-85900500D01*
X176633050Y-85900500D01*
X176691241Y-85919407D01*
X176703054Y-85929496D01*
X177320504Y-86546946D01*
X177348281Y-86601463D01*
X177349500Y-86616950D01*
X177349500Y-87064425D01*
X177330593Y-87122616D01*
X177281093Y-87158580D01*
X177219907Y-87158580D01*
X177196979Y-87147711D01*
X177185056Y-87140049D01*
X177185053Y-87140047D01*
X177185050Y-87140046D01*
X177046964Y-87099500D01*
X177046961Y-87099500D01*
X176903039Y-87099500D01*
X176903035Y-87099500D01*
X176764949Y-87140046D01*
X176764942Y-87140049D01*
X176643873Y-87217855D01*
X176549622Y-87326628D01*
X176489834Y-87457543D01*
X176469353Y-87599997D01*
X176469353Y-87600002D01*
X176489834Y-87742456D01*
X176535504Y-87842457D01*
X176549623Y-87873373D01*
X176636271Y-87973371D01*
X176643873Y-87982144D01*
X176725604Y-88034669D01*
X176764947Y-88059953D01*
X176878392Y-88093263D01*
X176928898Y-88127797D01*
X176949460Y-88185424D01*
X176949500Y-88188252D01*
X176949500Y-89259521D01*
X176930593Y-89317712D01*
X176920504Y-89329525D01*
X175604525Y-90645504D01*
X175550008Y-90673281D01*
X175534521Y-90674500D01*
X170522083Y-90674500D01*
X170463892Y-90655593D01*
X170447264Y-90640331D01*
X170406128Y-90592857D01*
X170347615Y-90555253D01*
X170285057Y-90515049D01*
X170285054Y-90515047D01*
X170285053Y-90515047D01*
X170285050Y-90515046D01*
X170146964Y-90474500D01*
X170146961Y-90474500D01*
X170003039Y-90474500D01*
X170003035Y-90474500D01*
X169864949Y-90515046D01*
X169864942Y-90515049D01*
X169743876Y-90592854D01*
X169743871Y-90592858D01*
X169702736Y-90640331D01*
X169650340Y-90671927D01*
X169627917Y-90674500D01*
X161390479Y-90674500D01*
X161332288Y-90655593D01*
X161320475Y-90645504D01*
X160344475Y-89669504D01*
X160316698Y-89614987D01*
X160326269Y-89554555D01*
X160369534Y-89511290D01*
X160414479Y-89500500D01*
X168118468Y-89500500D01*
X168176659Y-89519407D01*
X168208521Y-89558374D01*
X168249621Y-89648370D01*
X168249622Y-89648371D01*
X168249623Y-89648373D01*
X168338091Y-89750471D01*
X168343873Y-89757144D01*
X168423410Y-89808259D01*
X168464947Y-89834953D01*
X168571403Y-89866211D01*
X168603035Y-89875499D01*
X168603036Y-89875499D01*
X168603039Y-89875500D01*
X168603041Y-89875500D01*
X168746959Y-89875500D01*
X168746961Y-89875500D01*
X168885053Y-89834953D01*
X169006128Y-89757143D01*
X169100377Y-89648373D01*
X169160165Y-89517457D01*
X169173692Y-89423373D01*
X169180647Y-89375002D01*
X169180647Y-89374997D01*
X169160165Y-89232543D01*
X169104799Y-89111310D01*
X169100377Y-89101627D01*
X169006128Y-88992857D01*
X169006127Y-88992856D01*
X169006126Y-88992855D01*
X168885057Y-88915049D01*
X168885054Y-88915047D01*
X168885053Y-88915047D01*
X168866298Y-88909540D01*
X168746964Y-88874500D01*
X168746961Y-88874500D01*
X168603039Y-88874500D01*
X168603037Y-88874500D01*
X168556358Y-88888206D01*
X168531551Y-88895490D01*
X168503662Y-88899500D01*
X160181165Y-88899500D01*
X160122974Y-88880593D01*
X160111161Y-88870504D01*
X159106136Y-87865479D01*
X158100197Y-86859540D01*
X158100194Y-86859538D01*
X158031678Y-86819980D01*
X158031674Y-86819978D01*
X157955250Y-86799500D01*
X157955248Y-86799500D01*
X149010438Y-86799500D01*
X149010435Y-86799500D01*
X148934011Y-86819978D01*
X148934007Y-86819980D01*
X148899000Y-86840192D01*
X148839152Y-86852914D01*
X148783256Y-86828028D01*
X148752663Y-86775040D01*
X148750500Y-86754456D01*
X148750500Y-85719673D01*
X148769407Y-85661482D01*
X148818907Y-85625518D01*
X148880093Y-85625518D01*
X148903024Y-85636389D01*
X148985504Y-85689396D01*
X149088619Y-85719673D01*
X149123592Y-85729942D01*
X149123593Y-85729942D01*
X149123596Y-85729943D01*
X149123598Y-85729943D01*
X149267516Y-85729943D01*
X149267518Y-85729943D01*
X149405610Y-85689396D01*
X149526685Y-85611586D01*
X149620934Y-85502816D01*
X149680722Y-85371900D01*
X149688187Y-85319978D01*
X149701204Y-85229445D01*
X149701204Y-85229441D01*
X149698115Y-85207959D01*
X149708548Y-85147670D01*
X149726100Y-85123869D01*
X149895475Y-84954496D01*
X149949992Y-84926719D01*
X149965478Y-84925500D01*
X167309521Y-84925500D01*
X167367712Y-84944407D01*
G37*
%TD.AperFunction*%
%TA.AperFunction,Conductor*%
G36*
X197002421Y-69500619D02*
G01*
X197031158Y-69502030D01*
X197338173Y-69517113D01*
X197347815Y-69518063D01*
X197677915Y-69567029D01*
X197687421Y-69568919D01*
X198011144Y-69650008D01*
X198020415Y-69652820D01*
X198334625Y-69765246D01*
X198343594Y-69768961D01*
X198645263Y-69911640D01*
X198653826Y-69916218D01*
X198940049Y-70087773D01*
X198948127Y-70093171D01*
X199216150Y-70291951D01*
X199223660Y-70298114D01*
X199470921Y-70522218D01*
X199477781Y-70529078D01*
X199603484Y-70667770D01*
X199701885Y-70776339D01*
X199708048Y-70783849D01*
X199906828Y-71051872D01*
X199912226Y-71059950D01*
X200083781Y-71346173D01*
X200088361Y-71354741D01*
X200231036Y-71656402D01*
X200234754Y-71665378D01*
X200347175Y-71979571D01*
X200349995Y-71988868D01*
X200431077Y-72312567D01*
X200432972Y-72322096D01*
X200481934Y-72652170D01*
X200482887Y-72661838D01*
X200499381Y-72997577D01*
X200499500Y-73002435D01*
X200499500Y-126997564D01*
X200499381Y-127002422D01*
X200482887Y-127338161D01*
X200481934Y-127347829D01*
X200432972Y-127677903D01*
X200431077Y-127687432D01*
X200349995Y-128011131D01*
X200347175Y-128020428D01*
X200234754Y-128334621D01*
X200231036Y-128343597D01*
X200088361Y-128645258D01*
X200083781Y-128653826D01*
X199912226Y-128940049D01*
X199906828Y-128948127D01*
X199708048Y-129216150D01*
X199701885Y-129223660D01*
X199477786Y-129470916D01*
X199470916Y-129477786D01*
X199223660Y-129701885D01*
X199216150Y-129708048D01*
X198948127Y-129906828D01*
X198940049Y-129912226D01*
X198653826Y-130083781D01*
X198645258Y-130088361D01*
X198343597Y-130231036D01*
X198334621Y-130234754D01*
X198020428Y-130347175D01*
X198011131Y-130349995D01*
X197687432Y-130431077D01*
X197677903Y-130432972D01*
X197347829Y-130481934D01*
X197338161Y-130482887D01*
X197002422Y-130499381D01*
X196997564Y-130499500D01*
X103002436Y-130499500D01*
X102997578Y-130499381D01*
X102661838Y-130482887D01*
X102652170Y-130481934D01*
X102322096Y-130432972D01*
X102312567Y-130431077D01*
X101988868Y-130349995D01*
X101979571Y-130347175D01*
X101665378Y-130234754D01*
X101656402Y-130231036D01*
X101354741Y-130088361D01*
X101346173Y-130083781D01*
X101059950Y-129912226D01*
X101051872Y-129906828D01*
X100783849Y-129708048D01*
X100776339Y-129701885D01*
X100529083Y-129477786D01*
X100522218Y-129470921D01*
X100298114Y-129223660D01*
X100291951Y-129216150D01*
X100093171Y-128948127D01*
X100087773Y-128940049D01*
X100037545Y-128856249D01*
X99916216Y-128653823D01*
X99911638Y-128645258D01*
X99853234Y-128521774D01*
X99768961Y-128343594D01*
X99765245Y-128334621D01*
X99763136Y-128328726D01*
X99652820Y-128020415D01*
X99650008Y-128011144D01*
X99568919Y-127687421D01*
X99567029Y-127677915D01*
X99518063Y-127347815D01*
X99517113Y-127338173D01*
X99500619Y-127002421D01*
X99500560Y-127000000D01*
X100994390Y-127000000D01*
X101014803Y-127285422D01*
X101014803Y-127285425D01*
X101014804Y-127285428D01*
X101053551Y-127463544D01*
X101075632Y-127565050D01*
X101175633Y-127833162D01*
X101175634Y-127833164D01*
X101277889Y-128020428D01*
X101312774Y-128084315D01*
X101484261Y-128313395D01*
X101686605Y-128515739D01*
X101915685Y-128687226D01*
X102166839Y-128824367D01*
X102434954Y-128924369D01*
X102714572Y-128985196D01*
X103000000Y-129005610D01*
X103285428Y-128985196D01*
X103565046Y-128924369D01*
X103833161Y-128824367D01*
X104084315Y-128687226D01*
X104313395Y-128515739D01*
X104515739Y-128313395D01*
X104687226Y-128084315D01*
X104824367Y-127833161D01*
X104924369Y-127565046D01*
X104985196Y-127285428D01*
X105005610Y-127000000D01*
X104985196Y-126714572D01*
X104924369Y-126434954D01*
X104824367Y-126166839D01*
X104818442Y-126155989D01*
X104719929Y-125975576D01*
X104687226Y-125915685D01*
X104515739Y-125686605D01*
X104313395Y-125484261D01*
X104308158Y-125480341D01*
X104205930Y-125403814D01*
X104084315Y-125312774D01*
X104084310Y-125312771D01*
X103833164Y-125175634D01*
X103833162Y-125175633D01*
X103565050Y-125075632D01*
X103565046Y-125075631D01*
X103285428Y-125014804D01*
X103285425Y-125014803D01*
X103285422Y-125014803D01*
X103000000Y-124994390D01*
X102714577Y-125014803D01*
X102434949Y-125075632D01*
X102166837Y-125175633D01*
X102166835Y-125175634D01*
X101915689Y-125312771D01*
X101686609Y-125484257D01*
X101484257Y-125686609D01*
X101312771Y-125915689D01*
X101175634Y-126166835D01*
X101175633Y-126166837D01*
X101075632Y-126434949D01*
X101014803Y-126714577D01*
X100994390Y-127000000D01*
X99500560Y-127000000D01*
X99500500Y-126997564D01*
X99500500Y-124474996D01*
X130219659Y-124474996D01*
X130219659Y-124475003D01*
X130238974Y-124671126D01*
X130238975Y-124671129D01*
X130238976Y-124671132D01*
X130287818Y-124832143D01*
X130296187Y-124859730D01*
X130296188Y-124859732D01*
X130344705Y-124950500D01*
X130389090Y-125033538D01*
X130389092Y-125033540D01*
X130389093Y-125033542D01*
X130514112Y-125185878D01*
X130514121Y-125185887D01*
X130666414Y-125310871D01*
X130666462Y-125310910D01*
X130840273Y-125403814D01*
X131028868Y-125461024D01*
X131028870Y-125461024D01*
X131028873Y-125461025D01*
X131224997Y-125480341D01*
X131225000Y-125480341D01*
X131225003Y-125480341D01*
X131421126Y-125461025D01*
X131421127Y-125461024D01*
X131421132Y-125461024D01*
X131609727Y-125403814D01*
X131783538Y-125310910D01*
X131935883Y-125185883D01*
X132057661Y-125037497D01*
X132706853Y-125037497D01*
X132706853Y-125037502D01*
X132727334Y-125179956D01*
X132756036Y-125242803D01*
X132787123Y-125310873D01*
X132867656Y-125403814D01*
X132881373Y-125419644D01*
X133002442Y-125497450D01*
X133002447Y-125497453D01*
X133108903Y-125528711D01*
X133140535Y-125537999D01*
X133140536Y-125537999D01*
X133140539Y-125538000D01*
X133140541Y-125538000D01*
X133247021Y-125538000D01*
X133305212Y-125556907D01*
X133317025Y-125566996D01*
X133609540Y-125859511D01*
X133609539Y-125859511D01*
X133665489Y-125915460D01*
X133734007Y-125955019D01*
X133734011Y-125955021D01*
X133810435Y-125975499D01*
X133810437Y-125975500D01*
X133810438Y-125975500D01*
X133889562Y-125975500D01*
X136675075Y-125975500D01*
X136733266Y-125994407D01*
X136769230Y-126043907D01*
X136769230Y-126105093D01*
X136733266Y-126154593D01*
X136730078Y-126156814D01*
X136728228Y-126158049D01*
X136551379Y-126293750D01*
X136393750Y-126451379D01*
X136258050Y-126628228D01*
X136146595Y-126821272D01*
X136146592Y-126821277D01*
X136061290Y-127027217D01*
X136003595Y-127242539D01*
X136003595Y-127242544D01*
X135974500Y-127463542D01*
X135974500Y-127686457D01*
X136003595Y-127907455D01*
X136003595Y-127907460D01*
X136061290Y-128122782D01*
X136146592Y-128328722D01*
X136146595Y-128328727D01*
X136254569Y-128515742D01*
X136258052Y-128521774D01*
X136393753Y-128698624D01*
X136551376Y-128856247D01*
X136728226Y-128991948D01*
X136824750Y-129047676D01*
X136921272Y-129103404D01*
X136921277Y-129103407D01*
X137057786Y-129159950D01*
X137127219Y-129188710D01*
X137342537Y-129246404D01*
X137563543Y-129275500D01*
X137563544Y-129275500D01*
X138886456Y-129275500D01*
X138886457Y-129275500D01*
X139107463Y-129246404D01*
X139322781Y-129188710D01*
X139452647Y-129134917D01*
X139528722Y-129103407D01*
X139528723Y-129103405D01*
X139528726Y-129103405D01*
X139721774Y-128991948D01*
X139898624Y-128856247D01*
X140056247Y-128698624D01*
X140191948Y-128521774D01*
X140303405Y-128328726D01*
X140307909Y-128317854D01*
X140373112Y-128160438D01*
X140388710Y-128122781D01*
X140446404Y-127907463D01*
X140475500Y-127686457D01*
X140475500Y-127463543D01*
X140446404Y-127242537D01*
X140388710Y-127027219D01*
X140372953Y-126989179D01*
X140303407Y-126821277D01*
X140303404Y-126821272D01*
X140191949Y-126628228D01*
X140191948Y-126628226D01*
X140056247Y-126451376D01*
X139898624Y-126293753D01*
X139882650Y-126281496D01*
X139721771Y-126158049D01*
X139719922Y-126156814D01*
X139719556Y-126156350D01*
X139719203Y-126156079D01*
X139719271Y-126155989D01*
X139682043Y-126108764D01*
X139679642Y-126047626D01*
X139713636Y-125996752D01*
X139771040Y-125975576D01*
X139774925Y-125975500D01*
X167989563Y-125975500D01*
X167989563Y-125975499D01*
X168065989Y-125955021D01*
X168134511Y-125915460D01*
X168190460Y-125859511D01*
X169240475Y-124809496D01*
X169294992Y-124781719D01*
X169310479Y-124780500D01*
X172127917Y-124780500D01*
X172186108Y-124799407D01*
X172202733Y-124814667D01*
X172243872Y-124862143D01*
X172364947Y-124939953D01*
X172471403Y-124971211D01*
X172503035Y-124980499D01*
X172503036Y-124980499D01*
X172503039Y-124980500D01*
X172503041Y-124980500D01*
X172646959Y-124980500D01*
X172646961Y-124980500D01*
X172785053Y-124939953D01*
X172906128Y-124862143D01*
X173000377Y-124753373D01*
X173060165Y-124622457D01*
X173080647Y-124480000D01*
X173079928Y-124475000D01*
X173060165Y-124337543D01*
X173033371Y-124278873D01*
X173000377Y-124206627D01*
X172906128Y-124097857D01*
X172906127Y-124097856D01*
X172906126Y-124097855D01*
X172785057Y-124020049D01*
X172785054Y-124020047D01*
X172785053Y-124020047D01*
X172785050Y-124020046D01*
X172646964Y-123979500D01*
X172646961Y-123979500D01*
X172503039Y-123979500D01*
X172503035Y-123979500D01*
X172364949Y-124020046D01*
X172364942Y-124020049D01*
X172243876Y-124097854D01*
X172243871Y-124097858D01*
X172202736Y-124145331D01*
X172150340Y-124176927D01*
X172127917Y-124179500D01*
X169105435Y-124179500D01*
X169029011Y-124199978D01*
X169029007Y-124199980D01*
X168960491Y-124239538D01*
X167854525Y-125345504D01*
X167800008Y-125373281D01*
X167784521Y-125374500D01*
X146769516Y-125374500D01*
X146711325Y-125355593D01*
X146675361Y-125306093D01*
X146675361Y-125244907D01*
X146676071Y-125242803D01*
X146677793Y-125237882D01*
X146722646Y-125109699D01*
X146725499Y-125079273D01*
X146725500Y-125079273D01*
X146725500Y-124449997D01*
X151619353Y-124449997D01*
X151619353Y-124450002D01*
X151639834Y-124592456D01*
X151675765Y-124671132D01*
X151699623Y-124723373D01*
X151778731Y-124814669D01*
X151793873Y-124832144D01*
X151914942Y-124909950D01*
X151914947Y-124909953D01*
X152017109Y-124939950D01*
X152053035Y-124950499D01*
X152053036Y-124950499D01*
X152053039Y-124950500D01*
X152053041Y-124950500D01*
X152196959Y-124950500D01*
X152196961Y-124950500D01*
X152335053Y-124909953D01*
X152456128Y-124832143D01*
X152497264Y-124784668D01*
X152549660Y-124753073D01*
X152572083Y-124750500D01*
X167389563Y-124750500D01*
X167389563Y-124750499D01*
X167465989Y-124730021D01*
X167534511Y-124690460D01*
X167590460Y-124634511D01*
X171220475Y-121004496D01*
X171274992Y-120976719D01*
X171290479Y-120975500D01*
X172132249Y-120975500D01*
X172190440Y-120994407D01*
X172207065Y-121009666D01*
X172225500Y-121030940D01*
X172243873Y-121052144D01*
X172364942Y-121129950D01*
X172364947Y-121129953D01*
X172466908Y-121159891D01*
X172503035Y-121170499D01*
X172503036Y-121170499D01*
X172503039Y-121170500D01*
X172503041Y-121170500D01*
X172646959Y-121170500D01*
X172646961Y-121170500D01*
X172785053Y-121129953D01*
X172906128Y-121052143D01*
X173000377Y-120943373D01*
X173060165Y-120812457D01*
X173080647Y-120670000D01*
X173079148Y-120659576D01*
X173060165Y-120527543D01*
X173020185Y-120440000D01*
X173000377Y-120396627D01*
X172906128Y-120287857D01*
X172906127Y-120287856D01*
X172906126Y-120287855D01*
X172785057Y-120210049D01*
X172785054Y-120210047D01*
X172785053Y-120210047D01*
X172785050Y-120210046D01*
X172646964Y-120169500D01*
X172646961Y-120169500D01*
X172503039Y-120169500D01*
X172503035Y-120169500D01*
X172364949Y-120210046D01*
X172364942Y-120210049D01*
X172243873Y-120287855D01*
X172223828Y-120310989D01*
X172198402Y-120340331D01*
X172146008Y-120371927D01*
X172123584Y-120374500D01*
X171085435Y-120374500D01*
X171009014Y-120394977D01*
X170996362Y-120402281D01*
X170949149Y-120429540D01*
X170949146Y-120429542D01*
X170940489Y-120434539D01*
X168817672Y-122557355D01*
X168763155Y-122585132D01*
X168702723Y-122575561D01*
X168659458Y-122532296D01*
X168649515Y-122500273D01*
X168635843Y-122396421D01*
X168580423Y-122262626D01*
X168569016Y-122247759D01*
X167107759Y-123709016D01*
X167122626Y-123720423D01*
X167256421Y-123775843D01*
X167360274Y-123789515D01*
X167415499Y-123815856D01*
X167444694Y-123869626D01*
X167436708Y-123930288D01*
X167417356Y-123957671D01*
X167254526Y-124120503D01*
X167200010Y-124148281D01*
X167184522Y-124149500D01*
X152572083Y-124149500D01*
X152513892Y-124130593D01*
X152497264Y-124115331D01*
X152456128Y-124067857D01*
X152423182Y-124046684D01*
X152335057Y-123990049D01*
X152335054Y-123990047D01*
X152335053Y-123990047D01*
X152335050Y-123990046D01*
X152196964Y-123949500D01*
X152196961Y-123949500D01*
X152053039Y-123949500D01*
X152053035Y-123949500D01*
X151914949Y-123990046D01*
X151914942Y-123990049D01*
X151793873Y-124067855D01*
X151699622Y-124176628D01*
X151639834Y-124307543D01*
X151619353Y-124449997D01*
X146725500Y-124449997D01*
X146725500Y-123870727D01*
X146725499Y-123870725D01*
X146724489Y-123859953D01*
X146722646Y-123840301D01*
X146711063Y-123807198D01*
X146709690Y-123746028D01*
X146735332Y-123709015D01*
X165707759Y-123709015D01*
X165722626Y-123720423D01*
X165856423Y-123775843D01*
X165856420Y-123775843D01*
X166000000Y-123794746D01*
X166143579Y-123775843D01*
X166143579Y-123775842D01*
X166277370Y-123720425D01*
X166277375Y-123720422D01*
X166292239Y-123709016D01*
X165999999Y-123416776D01*
X165707759Y-123709015D01*
X146735332Y-123709015D01*
X146744534Y-123695733D01*
X146802285Y-123675525D01*
X146804507Y-123675500D01*
X157964563Y-123675500D01*
X157964563Y-123675499D01*
X158040989Y-123655021D01*
X158109511Y-123615460D01*
X158165460Y-123559511D01*
X158715955Y-123009015D01*
X165007759Y-123009015D01*
X165022626Y-123020423D01*
X165156423Y-123075843D01*
X165156420Y-123075843D01*
X165299998Y-123094745D01*
X165339359Y-123089563D01*
X165399520Y-123100712D01*
X165441638Y-123145093D01*
X165450436Y-123200638D01*
X165445254Y-123239999D01*
X165445254Y-123240000D01*
X165464156Y-123383578D01*
X165519576Y-123517373D01*
X165530983Y-123532239D01*
X165823224Y-123239999D01*
X165803334Y-123220109D01*
X165900000Y-123220109D01*
X165900000Y-123259891D01*
X165915224Y-123296645D01*
X165943355Y-123324776D01*
X165980109Y-123340000D01*
X166019891Y-123340000D01*
X166056645Y-123324776D01*
X166084776Y-123296645D01*
X166100000Y-123259891D01*
X166100000Y-123239999D01*
X166176776Y-123239999D01*
X166469016Y-123532239D01*
X166480422Y-123517375D01*
X166480425Y-123517370D01*
X166535842Y-123383579D01*
X166535843Y-123383579D01*
X166554745Y-123240001D01*
X166549563Y-123200640D01*
X166560712Y-123140479D01*
X166605094Y-123098361D01*
X166660640Y-123089563D01*
X166699999Y-123094745D01*
X166739359Y-123089563D01*
X166799520Y-123100712D01*
X166841638Y-123145093D01*
X166850436Y-123200638D01*
X166845254Y-123239999D01*
X166845254Y-123240000D01*
X166864156Y-123383578D01*
X166919576Y-123517373D01*
X166930983Y-123532239D01*
X167223224Y-123239999D01*
X167203334Y-123220109D01*
X167300000Y-123220109D01*
X167300000Y-123259891D01*
X167315224Y-123296645D01*
X167343355Y-123324776D01*
X167380109Y-123340000D01*
X167419891Y-123340000D01*
X167456645Y-123324776D01*
X167484776Y-123296645D01*
X167500000Y-123259891D01*
X167500000Y-123220109D01*
X167484776Y-123183355D01*
X167456645Y-123155224D01*
X167419891Y-123140000D01*
X167380109Y-123140000D01*
X167343355Y-123155224D01*
X167315224Y-123183355D01*
X167300000Y-123220109D01*
X167203334Y-123220109D01*
X167074768Y-123091543D01*
X166700000Y-122716776D01*
X166325232Y-123091543D01*
X166176776Y-123239999D01*
X166100000Y-123239999D01*
X166100000Y-123220109D01*
X166084776Y-123183355D01*
X166056645Y-123155224D01*
X166019891Y-123140000D01*
X165980109Y-123140000D01*
X165943355Y-123155224D01*
X165915224Y-123183355D01*
X165900000Y-123220109D01*
X165803334Y-123220109D01*
X165674768Y-123091543D01*
X165300000Y-122716776D01*
X165007759Y-123009015D01*
X158715955Y-123009015D01*
X159184971Y-122539999D01*
X164745254Y-122539999D01*
X164745254Y-122540000D01*
X164764156Y-122683578D01*
X164819576Y-122817373D01*
X164830983Y-122832239D01*
X165123223Y-122540000D01*
X165103332Y-122520109D01*
X165200000Y-122520109D01*
X165200000Y-122559891D01*
X165215224Y-122596645D01*
X165243355Y-122624776D01*
X165280109Y-122640000D01*
X165319891Y-122640000D01*
X165356645Y-122624776D01*
X165384776Y-122596645D01*
X165400000Y-122559891D01*
X165400000Y-122539999D01*
X165476776Y-122539999D01*
X165476776Y-122540000D01*
X165625232Y-122688457D01*
X166000000Y-123063224D01*
X166374768Y-122688457D01*
X166523224Y-122540000D01*
X166523224Y-122539999D01*
X166503334Y-122520109D01*
X166600000Y-122520109D01*
X166600000Y-122559891D01*
X166615224Y-122596645D01*
X166643355Y-122624776D01*
X166680109Y-122640000D01*
X166719891Y-122640000D01*
X166756645Y-122624776D01*
X166784776Y-122596645D01*
X166800000Y-122559891D01*
X166800000Y-122539999D01*
X166876776Y-122539999D01*
X166876776Y-122540000D01*
X167025232Y-122688457D01*
X167400000Y-123063224D01*
X167774768Y-122688457D01*
X167923224Y-122540000D01*
X167923224Y-122539999D01*
X167903334Y-122520109D01*
X168000000Y-122520109D01*
X168000000Y-122559891D01*
X168015224Y-122596645D01*
X168043355Y-122624776D01*
X168080109Y-122640000D01*
X168119891Y-122640000D01*
X168156645Y-122624776D01*
X168184776Y-122596645D01*
X168200000Y-122559891D01*
X168200000Y-122520109D01*
X168184776Y-122483355D01*
X168156645Y-122455224D01*
X168119891Y-122440000D01*
X168080109Y-122440000D01*
X168043355Y-122455224D01*
X168015224Y-122483355D01*
X168000000Y-122520109D01*
X167903334Y-122520109D01*
X167774768Y-122391543D01*
X167400000Y-122016776D01*
X167025232Y-122391543D01*
X166876776Y-122539999D01*
X166800000Y-122539999D01*
X166800000Y-122520109D01*
X166784776Y-122483355D01*
X166756645Y-122455224D01*
X166719891Y-122440000D01*
X166680109Y-122440000D01*
X166643355Y-122455224D01*
X166615224Y-122483355D01*
X166600000Y-122520109D01*
X166503334Y-122520109D01*
X166374768Y-122391543D01*
X166000000Y-122016776D01*
X165625232Y-122391543D01*
X165476776Y-122539999D01*
X165400000Y-122539999D01*
X165400000Y-122520109D01*
X165384776Y-122483355D01*
X165356645Y-122455224D01*
X165319891Y-122440000D01*
X165280109Y-122440000D01*
X165243355Y-122455224D01*
X165215224Y-122483355D01*
X165200000Y-122520109D01*
X165103332Y-122520109D01*
X164830982Y-122247759D01*
X164819575Y-122262628D01*
X164819574Y-122262629D01*
X164764157Y-122396420D01*
X164764156Y-122396420D01*
X164745254Y-122539999D01*
X159184971Y-122539999D01*
X159545474Y-122179495D01*
X159599991Y-122151719D01*
X159615478Y-122150500D01*
X159721959Y-122150500D01*
X159721961Y-122150500D01*
X159860053Y-122109953D01*
X159981128Y-122032143D01*
X160075377Y-121923373D01*
X160135165Y-121792457D01*
X160150685Y-121684511D01*
X160155647Y-121650002D01*
X160155647Y-121649997D01*
X160149755Y-121609015D01*
X165007759Y-121609015D01*
X165022626Y-121620423D01*
X165156423Y-121675843D01*
X165156420Y-121675843D01*
X165299998Y-121694745D01*
X165339359Y-121689563D01*
X165399520Y-121700712D01*
X165441638Y-121745093D01*
X165450436Y-121800638D01*
X165445254Y-121839999D01*
X165445254Y-121840000D01*
X165450436Y-121879361D01*
X165439286Y-121939522D01*
X165394904Y-121981639D01*
X165339361Y-121990436D01*
X165300000Y-121985254D01*
X165156420Y-122004156D01*
X165156420Y-122004157D01*
X165022629Y-122059574D01*
X165022628Y-122059575D01*
X165007759Y-122070982D01*
X165300000Y-122363223D01*
X165674768Y-121988457D01*
X165823224Y-121840000D01*
X165823224Y-121839999D01*
X165803334Y-121820109D01*
X165900000Y-121820109D01*
X165900000Y-121859891D01*
X165915224Y-121896645D01*
X165943355Y-121924776D01*
X165980109Y-121940000D01*
X166019891Y-121940000D01*
X166056645Y-121924776D01*
X166084776Y-121896645D01*
X166100000Y-121859891D01*
X166100000Y-121839999D01*
X166176776Y-121839999D01*
X166176776Y-121840000D01*
X166325232Y-121988457D01*
X166700000Y-122363224D01*
X167074768Y-121988457D01*
X167223224Y-121840000D01*
X167223224Y-121839999D01*
X167203334Y-121820109D01*
X167300000Y-121820109D01*
X167300000Y-121859891D01*
X167315224Y-121896645D01*
X167343355Y-121924776D01*
X167380109Y-121940000D01*
X167419891Y-121940000D01*
X167456645Y-121924776D01*
X167484776Y-121896645D01*
X167500000Y-121859891D01*
X167500000Y-121839999D01*
X167576776Y-121839999D01*
X167576776Y-121840000D01*
X167725232Y-121988457D01*
X168099999Y-122363223D01*
X168392239Y-122070983D01*
X168377373Y-122059576D01*
X168243576Y-122004156D01*
X168243579Y-122004156D01*
X168100000Y-121985254D01*
X168099999Y-121985254D01*
X168060638Y-121990436D01*
X168000477Y-121979286D01*
X167958360Y-121934904D01*
X167949563Y-121879359D01*
X167954745Y-121839999D01*
X167949563Y-121800640D01*
X167960712Y-121740479D01*
X168005094Y-121698361D01*
X168060640Y-121689563D01*
X168100001Y-121694745D01*
X168243579Y-121675843D01*
X168243579Y-121675842D01*
X168377370Y-121620425D01*
X168377375Y-121620422D01*
X168392239Y-121609016D01*
X168099999Y-121316776D01*
X167576776Y-121839999D01*
X167500000Y-121839999D01*
X167500000Y-121820109D01*
X167484776Y-121783355D01*
X167456645Y-121755224D01*
X167419891Y-121740000D01*
X167380109Y-121740000D01*
X167343355Y-121755224D01*
X167315224Y-121783355D01*
X167300000Y-121820109D01*
X167203334Y-121820109D01*
X167074768Y-121691543D01*
X166700000Y-121316776D01*
X166325232Y-121691543D01*
X166176776Y-121839999D01*
X166100000Y-121839999D01*
X166100000Y-121820109D01*
X166084776Y-121783355D01*
X166056645Y-121755224D01*
X166019891Y-121740000D01*
X165980109Y-121740000D01*
X165943355Y-121755224D01*
X165915224Y-121783355D01*
X165900000Y-121820109D01*
X165803334Y-121820109D01*
X165674768Y-121691543D01*
X165300000Y-121316776D01*
X165007759Y-121609015D01*
X160149755Y-121609015D01*
X160135165Y-121507543D01*
X160115758Y-121465049D01*
X160075377Y-121376627D01*
X159981128Y-121267857D01*
X159981127Y-121267856D01*
X159981126Y-121267855D01*
X159860057Y-121190049D01*
X159860054Y-121190047D01*
X159860053Y-121190047D01*
X159860050Y-121190046D01*
X159721964Y-121149500D01*
X159721961Y-121149500D01*
X159578039Y-121149500D01*
X159578035Y-121149500D01*
X159439949Y-121190046D01*
X159439942Y-121190049D01*
X159318873Y-121267855D01*
X159224622Y-121376628D01*
X159164834Y-121507543D01*
X159144353Y-121649997D01*
X159144353Y-121650002D01*
X159147441Y-121671482D01*
X159137007Y-121731771D01*
X159119453Y-121755574D01*
X157829525Y-123045504D01*
X157775008Y-123073281D01*
X157759521Y-123074500D01*
X146290636Y-123074500D01*
X146232445Y-123055593D01*
X146196481Y-123006093D01*
X146196481Y-122944907D01*
X146232445Y-122895407D01*
X146243968Y-122888190D01*
X146311165Y-122852272D01*
X146311171Y-122852268D01*
X146373960Y-122800738D01*
X145978952Y-122405730D01*
X146032007Y-122375099D01*
X146125099Y-122282007D01*
X146155730Y-122228952D01*
X146550738Y-122623960D01*
X146602268Y-122561171D01*
X146602272Y-122561165D01*
X146699765Y-122378767D01*
X146699767Y-122378762D01*
X146759808Y-122180836D01*
X146759809Y-122180830D01*
X146780081Y-121975004D01*
X146780081Y-121974995D01*
X146759809Y-121769169D01*
X146759808Y-121769163D01*
X146699767Y-121571237D01*
X146699765Y-121571232D01*
X146602271Y-121388834D01*
X146602265Y-121388824D01*
X146550738Y-121326038D01*
X146155729Y-121721046D01*
X146125099Y-121667993D01*
X146032007Y-121574901D01*
X145978950Y-121544269D01*
X146373960Y-121149260D01*
X146311175Y-121097734D01*
X146311165Y-121097728D01*
X146128767Y-121000234D01*
X146128762Y-121000232D01*
X145930836Y-120940191D01*
X145930830Y-120940190D01*
X145725004Y-120919919D01*
X145724996Y-120919919D01*
X145519169Y-120940190D01*
X145519163Y-120940191D01*
X145321237Y-121000232D01*
X145321232Y-121000234D01*
X145138834Y-121097728D01*
X145138824Y-121097734D01*
X145076038Y-121149260D01*
X145471047Y-121544269D01*
X145417993Y-121574901D01*
X145324901Y-121667993D01*
X145294269Y-121721047D01*
X144899260Y-121326038D01*
X144847734Y-121388824D01*
X144847728Y-121388834D01*
X144750234Y-121571232D01*
X144750232Y-121571237D01*
X144690191Y-121769163D01*
X144690190Y-121769169D01*
X144669919Y-121974995D01*
X144669919Y-121975004D01*
X144690190Y-122180830D01*
X144690191Y-122180836D01*
X144750232Y-122378762D01*
X144750234Y-122378767D01*
X144847728Y-122561165D01*
X144847734Y-122561175D01*
X144899260Y-122623960D01*
X145294269Y-122228950D01*
X145324901Y-122282007D01*
X145417993Y-122375099D01*
X145471046Y-122405729D01*
X145076038Y-122800738D01*
X145138824Y-122852265D01*
X145138834Y-122852271D01*
X145206033Y-122888190D01*
X145248440Y-122932295D01*
X145256823Y-122992903D01*
X145227981Y-123046864D01*
X145172930Y-123073566D01*
X145159365Y-123074500D01*
X143825421Y-123074500D01*
X143767230Y-123055593D01*
X143750601Y-123040330D01*
X143731128Y-123017857D01*
X143731127Y-123017856D01*
X143610057Y-122940049D01*
X143610054Y-122940047D01*
X143610053Y-122940047D01*
X143610050Y-122940046D01*
X143471964Y-122899500D01*
X143471961Y-122899500D01*
X143328039Y-122899500D01*
X143328035Y-122899500D01*
X143189949Y-122940046D01*
X143189942Y-122940049D01*
X143068873Y-123017855D01*
X142974622Y-123126628D01*
X142914834Y-123257543D01*
X142894353Y-123399997D01*
X142894353Y-123400002D01*
X142914834Y-123542456D01*
X142966241Y-123655019D01*
X142974623Y-123673373D01*
X143053248Y-123764112D01*
X143068873Y-123782144D01*
X143159374Y-123840305D01*
X143189947Y-123859953D01*
X143296403Y-123891211D01*
X143328035Y-123900499D01*
X143328036Y-123900499D01*
X143328039Y-123900500D01*
X143328041Y-123900500D01*
X143471959Y-123900500D01*
X143471961Y-123900500D01*
X143610053Y-123859953D01*
X143731128Y-123782143D01*
X143793927Y-123709668D01*
X143846322Y-123678073D01*
X143868746Y-123675500D01*
X144645493Y-123675500D01*
X144703684Y-123694407D01*
X144739648Y-123743907D01*
X144739648Y-123805093D01*
X144738937Y-123807198D01*
X144727355Y-123840296D01*
X144727353Y-123840305D01*
X144724500Y-123870725D01*
X144724500Y-125079274D01*
X144727353Y-125109694D01*
X144727354Y-125109698D01*
X144773929Y-125242803D01*
X144775301Y-125303973D01*
X144740457Y-125354267D01*
X144682705Y-125374475D01*
X144680484Y-125374500D01*
X134015479Y-125374500D01*
X133957288Y-125355593D01*
X133945475Y-125345504D01*
X133743046Y-125143075D01*
X133715269Y-125088558D01*
X133715058Y-125058982D01*
X133718147Y-125037500D01*
X133717577Y-125033538D01*
X133697665Y-124895043D01*
X133681538Y-124859730D01*
X133637877Y-124764127D01*
X133543628Y-124655357D01*
X133543627Y-124655356D01*
X133543626Y-124655355D01*
X133422557Y-124577549D01*
X133422554Y-124577547D01*
X133422553Y-124577547D01*
X133422550Y-124577546D01*
X133284464Y-124537000D01*
X133284461Y-124537000D01*
X133140539Y-124537000D01*
X133140535Y-124537000D01*
X133002449Y-124577546D01*
X133002442Y-124577549D01*
X132881373Y-124655355D01*
X132787122Y-124764128D01*
X132727334Y-124895043D01*
X132706853Y-125037497D01*
X132057661Y-125037497D01*
X132060910Y-125033538D01*
X132153814Y-124859727D01*
X132211024Y-124671132D01*
X132220242Y-124577547D01*
X132230341Y-124475003D01*
X132230341Y-124474996D01*
X132211025Y-124278873D01*
X132211024Y-124278870D01*
X132211024Y-124278868D01*
X132153814Y-124090273D01*
X132060910Y-123916462D01*
X132047810Y-123900500D01*
X131935887Y-123764121D01*
X131935878Y-123764112D01*
X131783542Y-123639093D01*
X131783540Y-123639092D01*
X131783538Y-123639090D01*
X131739329Y-123615460D01*
X131609732Y-123546188D01*
X131609730Y-123546187D01*
X131421129Y-123488975D01*
X131421126Y-123488974D01*
X131225003Y-123469659D01*
X131224997Y-123469659D01*
X131028873Y-123488974D01*
X131028870Y-123488975D01*
X130840269Y-123546187D01*
X130840267Y-123546188D01*
X130666467Y-123639087D01*
X130666457Y-123639093D01*
X130514121Y-123764112D01*
X130514112Y-123764121D01*
X130389093Y-123916457D01*
X130389087Y-123916467D01*
X130296188Y-124090267D01*
X130296187Y-124090269D01*
X130238975Y-124278870D01*
X130238974Y-124278873D01*
X130219659Y-124474996D01*
X99500500Y-124474996D01*
X99500500Y-122074996D01*
X111695225Y-122074996D01*
X111695225Y-122075003D01*
X111714286Y-122292881D01*
X111770897Y-122504157D01*
X111863332Y-122702386D01*
X111979677Y-122868544D01*
X112519269Y-122328951D01*
X112549901Y-122382007D01*
X112642993Y-122475099D01*
X112696046Y-122505729D01*
X112156454Y-123045321D01*
X112322610Y-123161666D01*
X112520842Y-123254102D01*
X112732118Y-123310713D01*
X112949997Y-123329775D01*
X112950003Y-123329775D01*
X113167881Y-123310713D01*
X113379157Y-123254102D01*
X113577386Y-123161667D01*
X113743544Y-123045320D01*
X113203953Y-122505729D01*
X113257007Y-122475099D01*
X113350099Y-122382007D01*
X113380729Y-122328953D01*
X113920320Y-122868544D01*
X114036667Y-122702386D01*
X114129102Y-122504157D01*
X114185713Y-122292881D01*
X114204775Y-122075003D01*
X114204775Y-122074996D01*
X114185713Y-121857118D01*
X114129102Y-121645842D01*
X114036667Y-121447614D01*
X113920321Y-121281454D01*
X113380729Y-121821046D01*
X113350099Y-121767993D01*
X113257007Y-121674901D01*
X113203951Y-121644269D01*
X113743544Y-121104677D01*
X113672959Y-121055253D01*
X119349500Y-121055253D01*
X119349500Y-123094746D01*
X119349501Y-123094758D01*
X119361132Y-123153227D01*
X119361134Y-123153233D01*
X119392810Y-123200638D01*
X119405448Y-123219552D01*
X119471769Y-123263867D01*
X119516231Y-123272711D01*
X119530241Y-123275498D01*
X119530246Y-123275498D01*
X119530252Y-123275500D01*
X119530253Y-123275500D01*
X121569747Y-123275500D01*
X121569748Y-123275500D01*
X121628231Y-123263867D01*
X121694552Y-123219552D01*
X121738867Y-123153231D01*
X121750500Y-123094748D01*
X121750500Y-121055252D01*
X121750494Y-121055224D01*
X121739556Y-121000234D01*
X121738867Y-120996769D01*
X121694552Y-120930448D01*
X121694548Y-120930445D01*
X121628233Y-120886134D01*
X121628231Y-120886133D01*
X121628228Y-120886132D01*
X121628227Y-120886132D01*
X121569758Y-120874501D01*
X121569748Y-120874500D01*
X119530252Y-120874500D01*
X119530251Y-120874500D01*
X119530241Y-120874501D01*
X119471772Y-120886132D01*
X119471766Y-120886134D01*
X119405451Y-120930445D01*
X119405445Y-120930451D01*
X119361134Y-120996766D01*
X119361132Y-120996772D01*
X119349501Y-121055241D01*
X119349500Y-121055253D01*
X113672959Y-121055253D01*
X113577386Y-120988332D01*
X113379157Y-120895897D01*
X113167881Y-120839286D01*
X112950003Y-120820225D01*
X112949997Y-120820225D01*
X112732118Y-120839286D01*
X112520842Y-120895897D01*
X112322614Y-120988332D01*
X112156454Y-121104677D01*
X112696047Y-121644270D01*
X112642993Y-121674901D01*
X112549901Y-121767993D01*
X112519270Y-121821047D01*
X111979677Y-121281454D01*
X111863332Y-121447614D01*
X111770897Y-121645842D01*
X111714286Y-121857118D01*
X111695225Y-122074996D01*
X99500500Y-122074996D01*
X99500500Y-119474996D01*
X130219659Y-119474996D01*
X130219659Y-119475003D01*
X130238974Y-119671126D01*
X130238975Y-119671129D01*
X130238976Y-119671132D01*
X130287818Y-119832143D01*
X130296187Y-119859730D01*
X130296188Y-119859732D01*
X130355653Y-119970982D01*
X130389090Y-120033538D01*
X130389092Y-120033540D01*
X130389093Y-120033542D01*
X130514112Y-120185878D01*
X130514121Y-120185887D01*
X130638372Y-120287857D01*
X130666462Y-120310910D01*
X130794805Y-120379511D01*
X130826819Y-120396623D01*
X130840273Y-120403814D01*
X131028868Y-120461024D01*
X131028870Y-120461024D01*
X131028873Y-120461025D01*
X131224997Y-120480341D01*
X131225000Y-120480341D01*
X131225003Y-120480341D01*
X131421126Y-120461025D01*
X131421127Y-120461024D01*
X131421132Y-120461024D01*
X131609727Y-120403814D01*
X131783538Y-120310910D01*
X131935883Y-120185883D01*
X132060910Y-120033538D01*
X132153814Y-119859727D01*
X132211024Y-119671132D01*
X132215516Y-119625529D01*
X132230341Y-119475003D01*
X132230341Y-119474996D01*
X144719659Y-119474996D01*
X144719659Y-119475003D01*
X144738974Y-119671126D01*
X144738975Y-119671129D01*
X144738976Y-119671132D01*
X144787818Y-119832143D01*
X144796187Y-119859730D01*
X144796188Y-119859732D01*
X144855653Y-119970982D01*
X144889090Y-120033538D01*
X144889092Y-120033540D01*
X144889093Y-120033542D01*
X145014112Y-120185878D01*
X145014121Y-120185887D01*
X145138372Y-120287857D01*
X145166462Y-120310910D01*
X145294805Y-120379511D01*
X145326819Y-120396623D01*
X145340273Y-120403814D01*
X145528868Y-120461024D01*
X145528870Y-120461024D01*
X145528873Y-120461025D01*
X145724997Y-120480341D01*
X145725000Y-120480341D01*
X145725003Y-120480341D01*
X145921126Y-120461025D01*
X145921127Y-120461024D01*
X145921132Y-120461024D01*
X146109727Y-120403814D01*
X146283538Y-120310910D01*
X146435883Y-120185883D01*
X146560910Y-120033538D01*
X146653814Y-119859727D01*
X146711024Y-119671132D01*
X146715516Y-119625529D01*
X146730341Y-119475003D01*
X146730341Y-119474996D01*
X146711025Y-119278873D01*
X146711024Y-119278870D01*
X146711024Y-119278868D01*
X146653814Y-119090273D01*
X146560910Y-118916462D01*
X146560906Y-118916457D01*
X146435887Y-118764121D01*
X146435878Y-118764112D01*
X146283542Y-118639093D01*
X146283540Y-118639092D01*
X146283538Y-118639090D01*
X146242618Y-118617218D01*
X146109732Y-118546188D01*
X146109730Y-118546187D01*
X145921129Y-118488975D01*
X145921126Y-118488974D01*
X145725003Y-118469659D01*
X145724997Y-118469659D01*
X145528873Y-118488974D01*
X145528870Y-118488975D01*
X145340269Y-118546187D01*
X145340267Y-118546188D01*
X145166467Y-118639087D01*
X145166457Y-118639093D01*
X145014121Y-118764112D01*
X145014112Y-118764121D01*
X144889093Y-118916457D01*
X144889087Y-118916467D01*
X144796188Y-119090267D01*
X144796187Y-119090269D01*
X144738975Y-119278870D01*
X144738974Y-119278873D01*
X144719659Y-119474996D01*
X132230341Y-119474996D01*
X132211025Y-119278873D01*
X132211024Y-119278870D01*
X132211024Y-119278868D01*
X132153814Y-119090273D01*
X132060910Y-118916462D01*
X132060906Y-118916457D01*
X131935887Y-118764121D01*
X131935878Y-118764112D01*
X131783542Y-118639093D01*
X131783540Y-118639092D01*
X131783538Y-118639090D01*
X131742618Y-118617218D01*
X131609732Y-118546188D01*
X131609730Y-118546187D01*
X131421129Y-118488975D01*
X131421126Y-118488974D01*
X131225003Y-118469659D01*
X131224997Y-118469659D01*
X131028873Y-118488974D01*
X131028870Y-118488975D01*
X130840269Y-118546187D01*
X130840267Y-118546188D01*
X130666467Y-118639087D01*
X130666457Y-118639093D01*
X130514121Y-118764112D01*
X130514112Y-118764121D01*
X130389093Y-118916457D01*
X130389087Y-118916467D01*
X130296188Y-119090267D01*
X130296187Y-119090269D01*
X130238975Y-119278870D01*
X130238974Y-119278873D01*
X130219659Y-119474996D01*
X99500500Y-119474996D01*
X99500500Y-116249999D01*
X135926356Y-116249999D01*
X135926356Y-116250000D01*
X136680273Y-116250000D01*
X136675000Y-116276509D01*
X136675000Y-116473491D01*
X136680273Y-116500000D01*
X135926356Y-116500000D01*
X135954942Y-116717133D01*
X135954942Y-116717138D01*
X136014315Y-116938718D01*
X136014319Y-116938731D01*
X136102101Y-117150658D01*
X136216808Y-117349337D01*
X136356451Y-117531324D01*
X136518675Y-117693548D01*
X136700662Y-117833191D01*
X136899341Y-117947898D01*
X137111268Y-118035680D01*
X137111281Y-118035684D01*
X137332863Y-118095057D01*
X137560297Y-118124999D01*
X137560300Y-118125000D01*
X138099999Y-118125000D01*
X138100000Y-118124999D01*
X138100000Y-117375000D01*
X138350000Y-117375000D01*
X138350000Y-118124999D01*
X138350001Y-118125000D01*
X138889700Y-118125000D01*
X138889702Y-118124999D01*
X139117133Y-118095057D01*
X139117138Y-118095057D01*
X139338718Y-118035684D01*
X139338731Y-118035680D01*
X139550658Y-117947898D01*
X139749337Y-117833191D01*
X139931324Y-117693548D01*
X140093548Y-117531324D01*
X140233191Y-117349337D01*
X140347898Y-117150658D01*
X140435680Y-116938731D01*
X140435684Y-116938718D01*
X140495057Y-116717138D01*
X140495057Y-116717133D01*
X140523644Y-116500000D01*
X139769727Y-116500000D01*
X139775000Y-116473491D01*
X139775000Y-116276509D01*
X139769727Y-116250000D01*
X140523644Y-116250000D01*
X140523643Y-116249999D01*
X140495057Y-116032866D01*
X140495057Y-116032861D01*
X140435684Y-115811281D01*
X140435680Y-115811268D01*
X140347898Y-115599341D01*
X140233191Y-115400662D01*
X140093548Y-115218675D01*
X139931324Y-115056451D01*
X139749337Y-114916808D01*
X139550658Y-114802101D01*
X139338731Y-114714319D01*
X139338718Y-114714315D01*
X139117136Y-114654942D01*
X138889702Y-114625000D01*
X138350001Y-114625000D01*
X138350000Y-114625001D01*
X138350000Y-115375000D01*
X138100000Y-115375000D01*
X138100000Y-114625001D01*
X138099999Y-114625000D01*
X137560297Y-114625000D01*
X137332866Y-114654942D01*
X137332861Y-114654942D01*
X137111281Y-114714315D01*
X137111268Y-114714319D01*
X136899341Y-114802101D01*
X136700662Y-114916808D01*
X136518675Y-115056451D01*
X136356451Y-115218675D01*
X136216808Y-115400662D01*
X136102101Y-115599341D01*
X136014319Y-115811268D01*
X136014315Y-115811281D01*
X135954942Y-116032861D01*
X135954942Y-116032866D01*
X135926356Y-116249999D01*
X99500500Y-116249999D01*
X99500500Y-114325001D01*
X102950000Y-114325001D01*
X102950000Y-115224624D01*
X102964506Y-115297546D01*
X102964507Y-115297548D01*
X103019758Y-115380237D01*
X103019762Y-115380241D01*
X103102451Y-115435492D01*
X103102453Y-115435493D01*
X103175375Y-115449999D01*
X103175377Y-115450000D01*
X104074999Y-115450000D01*
X104075000Y-115449999D01*
X104075000Y-114325001D01*
X104325000Y-114325001D01*
X104325000Y-115449999D01*
X104325001Y-115450000D01*
X105224623Y-115450000D01*
X105224624Y-115449999D01*
X105297546Y-115435493D01*
X105297548Y-115435492D01*
X105380237Y-115380241D01*
X105380241Y-115380237D01*
X105435492Y-115297548D01*
X105435493Y-115297546D01*
X105449999Y-115224624D01*
X105450000Y-115224622D01*
X105450000Y-114325001D01*
X105449999Y-114325000D01*
X104325001Y-114325000D01*
X104325000Y-114325001D01*
X104075000Y-114325001D01*
X104074999Y-114325000D01*
X102950001Y-114325000D01*
X102950000Y-114325001D01*
X99500500Y-114325001D01*
X99500500Y-113175375D01*
X102950000Y-113175375D01*
X102950000Y-114074999D01*
X102950001Y-114075000D01*
X104074999Y-114075000D01*
X104075000Y-114074999D01*
X104075000Y-112950001D01*
X104325000Y-112950001D01*
X104325000Y-114074999D01*
X104325001Y-114075000D01*
X105449999Y-114075000D01*
X105450000Y-114074999D01*
X105450000Y-113175377D01*
X105449999Y-113175375D01*
X105435493Y-113102453D01*
X105435492Y-113102451D01*
X105380241Y-113019762D01*
X105380237Y-113019758D01*
X105297548Y-112964507D01*
X105297546Y-112964506D01*
X105224624Y-112950000D01*
X104325001Y-112950000D01*
X104325000Y-112950001D01*
X104075000Y-112950001D01*
X104074999Y-112950000D01*
X103175375Y-112950000D01*
X103102453Y-112964506D01*
X103102451Y-112964507D01*
X103019762Y-113019758D01*
X103019758Y-113019762D01*
X102964507Y-113102451D01*
X102964506Y-113102453D01*
X102950000Y-113175375D01*
X99500500Y-113175375D01*
X99500500Y-112280253D01*
X105949500Y-112280253D01*
X105949500Y-114319746D01*
X105949501Y-114319758D01*
X105961132Y-114378227D01*
X105961133Y-114378231D01*
X106005448Y-114444552D01*
X106071769Y-114488867D01*
X106116231Y-114497711D01*
X106130241Y-114500498D01*
X106130246Y-114500498D01*
X106130252Y-114500500D01*
X106250500Y-114500500D01*
X106308691Y-114519407D01*
X106344655Y-114568907D01*
X106349500Y-114599500D01*
X106349500Y-114746105D01*
X106330593Y-114804296D01*
X106323258Y-114812289D01*
X106323509Y-114812506D01*
X106318872Y-114817856D01*
X106318872Y-114817857D01*
X106250915Y-114896283D01*
X106224622Y-114926628D01*
X106164834Y-115057543D01*
X106144353Y-115199997D01*
X106144353Y-115200002D01*
X106164834Y-115342456D01*
X106224622Y-115473371D01*
X106224623Y-115473373D01*
X106318872Y-115582143D01*
X106318873Y-115582144D01*
X106439942Y-115659950D01*
X106439947Y-115659953D01*
X106526650Y-115685411D01*
X106578035Y-115700499D01*
X106578036Y-115700499D01*
X106578039Y-115700500D01*
X106578041Y-115700500D01*
X106721959Y-115700500D01*
X106721961Y-115700500D01*
X106860053Y-115659953D01*
X106981128Y-115582143D01*
X107075377Y-115473373D01*
X107135165Y-115342457D01*
X107155647Y-115200000D01*
X107135165Y-115057543D01*
X107075377Y-114926627D01*
X106981128Y-114817857D01*
X106981127Y-114817856D01*
X106976491Y-114812506D01*
X106978524Y-114810743D01*
X106953067Y-114768505D01*
X106950500Y-114746105D01*
X106950500Y-114599500D01*
X106969407Y-114541309D01*
X107018907Y-114505345D01*
X107049500Y-114500500D01*
X107169747Y-114500500D01*
X107169748Y-114500500D01*
X107228231Y-114488867D01*
X107294552Y-114444552D01*
X107338867Y-114378231D01*
X107350500Y-114319748D01*
X107350500Y-112280253D01*
X108549500Y-112280253D01*
X108549500Y-114319746D01*
X108549501Y-114319758D01*
X108561132Y-114378227D01*
X108561133Y-114378231D01*
X108605448Y-114444552D01*
X108671769Y-114488867D01*
X108716231Y-114497711D01*
X108730241Y-114500498D01*
X108730246Y-114500498D01*
X108730252Y-114500500D01*
X108730253Y-114500500D01*
X109769747Y-114500500D01*
X109769748Y-114500500D01*
X109828231Y-114488867D01*
X109894552Y-114444552D01*
X109938867Y-114378231D01*
X109950500Y-114319748D01*
X109950500Y-112280253D01*
X117499500Y-112280253D01*
X117499500Y-114319746D01*
X117499501Y-114319758D01*
X117511132Y-114378227D01*
X117511133Y-114378231D01*
X117555448Y-114444552D01*
X117621769Y-114488867D01*
X117666231Y-114497711D01*
X117680241Y-114500498D01*
X117680246Y-114500498D01*
X117680252Y-114500500D01*
X117680253Y-114500500D01*
X118719747Y-114500500D01*
X118719748Y-114500500D01*
X118778231Y-114488867D01*
X118844552Y-114444552D01*
X118888867Y-114378231D01*
X118900500Y-114319748D01*
X118900500Y-113180253D01*
X121649500Y-113180253D01*
X121649500Y-115219746D01*
X121649501Y-115219758D01*
X121661132Y-115278227D01*
X121661134Y-115278233D01*
X121704047Y-115342456D01*
X121705448Y-115344552D01*
X121705451Y-115344554D01*
X121758853Y-115380237D01*
X121771769Y-115388867D01*
X121816231Y-115397711D01*
X121830241Y-115400498D01*
X121830246Y-115400498D01*
X121830252Y-115400500D01*
X121830253Y-115400500D01*
X123869747Y-115400500D01*
X123869748Y-115400500D01*
X123928231Y-115388867D01*
X123994552Y-115344552D01*
X124038867Y-115278231D01*
X124050500Y-115219748D01*
X124050500Y-113180252D01*
X124038867Y-113121769D01*
X123994552Y-113055448D01*
X123994548Y-113055445D01*
X123928233Y-113011134D01*
X123928231Y-113011133D01*
X123928228Y-113011132D01*
X123928227Y-113011132D01*
X123869758Y-112999501D01*
X123869748Y-112999500D01*
X121830252Y-112999500D01*
X121830251Y-112999500D01*
X121830241Y-112999501D01*
X121771772Y-113011132D01*
X121771766Y-113011134D01*
X121705451Y-113055445D01*
X121705445Y-113055451D01*
X121661134Y-113121766D01*
X121661132Y-113121772D01*
X121649501Y-113180241D01*
X121649500Y-113180253D01*
X118900500Y-113180253D01*
X118900500Y-112280252D01*
X118888867Y-112221769D01*
X118844552Y-112155448D01*
X118844548Y-112155445D01*
X118778233Y-112111134D01*
X118778231Y-112111133D01*
X118778228Y-112111132D01*
X118778227Y-112111132D01*
X118719758Y-112099501D01*
X118719748Y-112099500D01*
X117680252Y-112099500D01*
X117680251Y-112099500D01*
X117680241Y-112099501D01*
X117621772Y-112111132D01*
X117621766Y-112111134D01*
X117555451Y-112155445D01*
X117555445Y-112155451D01*
X117511134Y-112221766D01*
X117511132Y-112221772D01*
X117499501Y-112280241D01*
X117499500Y-112280253D01*
X109950500Y-112280253D01*
X109950500Y-112280252D01*
X109938867Y-112221769D01*
X109894552Y-112155448D01*
X109894548Y-112155445D01*
X109828233Y-112111134D01*
X109828231Y-112111133D01*
X109828228Y-112111132D01*
X109828227Y-112111132D01*
X109769758Y-112099501D01*
X109769748Y-112099500D01*
X108730252Y-112099500D01*
X108730251Y-112099500D01*
X108730241Y-112099501D01*
X108671772Y-112111132D01*
X108671766Y-112111134D01*
X108605451Y-112155445D01*
X108605445Y-112155451D01*
X108561134Y-112221766D01*
X108561132Y-112221772D01*
X108549501Y-112280241D01*
X108549500Y-112280253D01*
X107350500Y-112280253D01*
X107350500Y-112280252D01*
X107338867Y-112221769D01*
X107294552Y-112155448D01*
X107294548Y-112155445D01*
X107228233Y-112111134D01*
X107228231Y-112111133D01*
X107228228Y-112111132D01*
X107228227Y-112111132D01*
X107169758Y-112099501D01*
X107169748Y-112099500D01*
X106130252Y-112099500D01*
X106130251Y-112099500D01*
X106130241Y-112099501D01*
X106071772Y-112111132D01*
X106071766Y-112111134D01*
X106005451Y-112155445D01*
X106005445Y-112155451D01*
X105961134Y-112221766D01*
X105961132Y-112221772D01*
X105949501Y-112280241D01*
X105949500Y-112280253D01*
X99500500Y-112280253D01*
X99500500Y-111511306D01*
X126499500Y-111511306D01*
X126499500Y-111688693D01*
X126534106Y-111862665D01*
X126534106Y-111862667D01*
X126601985Y-112026544D01*
X126601985Y-112026545D01*
X126688114Y-112155445D01*
X126700536Y-112174035D01*
X126825965Y-112299464D01*
X126973453Y-112398013D01*
X127137334Y-112465894D01*
X127311309Y-112500500D01*
X127311310Y-112500500D01*
X127488690Y-112500500D01*
X127488691Y-112500500D01*
X127662666Y-112465894D01*
X127826547Y-112398013D01*
X127974035Y-112299464D01*
X128099464Y-112174035D01*
X128198013Y-112026547D01*
X128265894Y-111862666D01*
X128300500Y-111688691D01*
X128300500Y-111511309D01*
X128265894Y-111337334D01*
X128198014Y-111173455D01*
X128198014Y-111173454D01*
X128099464Y-111025965D01*
X127974034Y-110900535D01*
X127826544Y-110801985D01*
X127662666Y-110734106D01*
X127488693Y-110699500D01*
X127488691Y-110699500D01*
X127311309Y-110699500D01*
X127311306Y-110699500D01*
X127137334Y-110734106D01*
X127137332Y-110734106D01*
X126973455Y-110801985D01*
X126973454Y-110801985D01*
X126825965Y-110900535D01*
X126700535Y-111025965D01*
X126601985Y-111173454D01*
X126601985Y-111173455D01*
X126534106Y-111337332D01*
X126534106Y-111337334D01*
X126499500Y-111511306D01*
X99500500Y-111511306D01*
X99500500Y-111450000D01*
X112200000Y-111450000D01*
X112200001Y-111450000D01*
X115399999Y-111450000D01*
X115400000Y-111450000D01*
X115400000Y-109680253D01*
X128399500Y-109680253D01*
X128399500Y-110819746D01*
X128399501Y-110819758D01*
X128411132Y-110878227D01*
X128411133Y-110878231D01*
X128455448Y-110944552D01*
X128521769Y-110988867D01*
X128566231Y-110997711D01*
X128580241Y-111000498D01*
X128580246Y-111000498D01*
X128580252Y-111000500D01*
X128580253Y-111000500D01*
X130619747Y-111000500D01*
X130619748Y-111000500D01*
X130678231Y-110988867D01*
X130744552Y-110944552D01*
X130788867Y-110878231D01*
X130800500Y-110819748D01*
X130800500Y-109680252D01*
X130788867Y-109621769D01*
X130744552Y-109555448D01*
X130744548Y-109555445D01*
X130678233Y-109511134D01*
X130678231Y-109511133D01*
X130678228Y-109511132D01*
X130678227Y-109511132D01*
X130619758Y-109499501D01*
X130619748Y-109499500D01*
X128580252Y-109499500D01*
X128580251Y-109499500D01*
X128580241Y-109499501D01*
X128521772Y-109511132D01*
X128521766Y-109511134D01*
X128455451Y-109555445D01*
X128455445Y-109555451D01*
X128411134Y-109621766D01*
X128411132Y-109621772D01*
X128399501Y-109680241D01*
X128399500Y-109680253D01*
X115400000Y-109680253D01*
X115400000Y-107750000D01*
X112200000Y-107750000D01*
X112200000Y-111450000D01*
X99500500Y-111450000D01*
X99500500Y-106250001D01*
X128350000Y-106250001D01*
X128350000Y-106699624D01*
X128364506Y-106772546D01*
X128364507Y-106772548D01*
X128419758Y-106855237D01*
X128419762Y-106855241D01*
X128502451Y-106910492D01*
X128502453Y-106910493D01*
X128575375Y-106924999D01*
X128575377Y-106925000D01*
X129474999Y-106925000D01*
X129475000Y-106924999D01*
X129475000Y-106250001D01*
X129725000Y-106250001D01*
X129725000Y-106924999D01*
X129725001Y-106925000D01*
X130624623Y-106925000D01*
X130624624Y-106924999D01*
X130697546Y-106910493D01*
X130697548Y-106910492D01*
X130780237Y-106855241D01*
X130780241Y-106855237D01*
X130835492Y-106772548D01*
X130835493Y-106772546D01*
X130849999Y-106699624D01*
X130850000Y-106699622D01*
X130850000Y-106250001D01*
X130849999Y-106250000D01*
X129725001Y-106250000D01*
X129725000Y-106250001D01*
X129475000Y-106250001D01*
X129474999Y-106250000D01*
X128350001Y-106250000D01*
X128350000Y-106250001D01*
X99500500Y-106250001D01*
X99500500Y-105550375D01*
X128350000Y-105550375D01*
X128350000Y-105999999D01*
X128350001Y-106000000D01*
X129474999Y-106000000D01*
X129475000Y-105999999D01*
X129475000Y-105325001D01*
X129725000Y-105325001D01*
X129725000Y-105999999D01*
X129725001Y-106000000D01*
X130849999Y-106000000D01*
X130850000Y-105999999D01*
X130850000Y-105550377D01*
X130849999Y-105550375D01*
X130835493Y-105477453D01*
X130835492Y-105477451D01*
X130780241Y-105394762D01*
X130780237Y-105394758D01*
X130697548Y-105339507D01*
X130697546Y-105339506D01*
X130624624Y-105325000D01*
X129725001Y-105325000D01*
X129725000Y-105325001D01*
X129475000Y-105325001D01*
X129474999Y-105325000D01*
X128575375Y-105325000D01*
X128502453Y-105339506D01*
X128502451Y-105339507D01*
X128419762Y-105394758D01*
X128419758Y-105394762D01*
X128364507Y-105477451D01*
X128364506Y-105477453D01*
X128350000Y-105550375D01*
X99500500Y-105550375D01*
X99500500Y-98750001D01*
X128350000Y-98750001D01*
X128350000Y-99199624D01*
X128364506Y-99272546D01*
X128364507Y-99272548D01*
X128419758Y-99355237D01*
X128419762Y-99355241D01*
X128502451Y-99410492D01*
X128502453Y-99410493D01*
X128575375Y-99424999D01*
X128575377Y-99425000D01*
X129474999Y-99425000D01*
X129475000Y-99424999D01*
X129475000Y-98750001D01*
X129725000Y-98750001D01*
X129725000Y-99424999D01*
X129725001Y-99425000D01*
X130624623Y-99425000D01*
X130624624Y-99424999D01*
X130697546Y-99410493D01*
X130697548Y-99410492D01*
X130780237Y-99355241D01*
X130780241Y-99355237D01*
X130835492Y-99272548D01*
X130835493Y-99272546D01*
X130849999Y-99199624D01*
X130850000Y-99199622D01*
X130850000Y-98750001D01*
X130849999Y-98750000D01*
X129725001Y-98750000D01*
X129725000Y-98750001D01*
X129475000Y-98750001D01*
X129474999Y-98750000D01*
X128350001Y-98750000D01*
X128350000Y-98750001D01*
X99500500Y-98750001D01*
X99500500Y-98050375D01*
X128350000Y-98050375D01*
X128350000Y-98499999D01*
X128350001Y-98500000D01*
X129474999Y-98500000D01*
X129475000Y-98499999D01*
X129475000Y-97825001D01*
X129725000Y-97825001D01*
X129725000Y-98499999D01*
X129725001Y-98500000D01*
X130849999Y-98500000D01*
X130850000Y-98499999D01*
X130850000Y-98050377D01*
X130849999Y-98050375D01*
X130835493Y-97977453D01*
X130835492Y-97977451D01*
X130780241Y-97894762D01*
X130780237Y-97894758D01*
X130697548Y-97839507D01*
X130697546Y-97839506D01*
X130624624Y-97825000D01*
X129725001Y-97825000D01*
X129725000Y-97825001D01*
X129475000Y-97825001D01*
X129474999Y-97825000D01*
X128575375Y-97825000D01*
X128502453Y-97839506D01*
X128502451Y-97839507D01*
X128419762Y-97894758D01*
X128419758Y-97894762D01*
X128364507Y-97977451D01*
X128364506Y-97977453D01*
X128350000Y-98050375D01*
X99500500Y-98050375D01*
X99500500Y-89349997D01*
X100944353Y-89349997D01*
X100944353Y-89350002D01*
X100964834Y-89492456D01*
X101018493Y-89609950D01*
X101024623Y-89623373D01*
X101118870Y-89732141D01*
X101118873Y-89732144D01*
X101184057Y-89774035D01*
X101239947Y-89809953D01*
X101346403Y-89841211D01*
X101378035Y-89850499D01*
X101378036Y-89850499D01*
X101378039Y-89850500D01*
X101378041Y-89850500D01*
X101521959Y-89850500D01*
X101521961Y-89850500D01*
X101660053Y-89809953D01*
X101781128Y-89732143D01*
X101822264Y-89684668D01*
X101874660Y-89653073D01*
X101897083Y-89650500D01*
X114789563Y-89650500D01*
X114789563Y-89650499D01*
X114865989Y-89630021D01*
X114934511Y-89590460D01*
X114990460Y-89534511D01*
X115413665Y-89111306D01*
X126499500Y-89111306D01*
X126499500Y-89288693D01*
X126534106Y-89462665D01*
X126534106Y-89462667D01*
X126601985Y-89626544D01*
X126601985Y-89626545D01*
X126691754Y-89760892D01*
X126700536Y-89774035D01*
X126825965Y-89899464D01*
X126973453Y-89998013D01*
X127137334Y-90065894D01*
X127311309Y-90100500D01*
X127311310Y-90100500D01*
X127488690Y-90100500D01*
X127488691Y-90100500D01*
X127662666Y-90065894D01*
X127826547Y-89998013D01*
X127974035Y-89899464D01*
X128099464Y-89774035D01*
X128198013Y-89626547D01*
X128265894Y-89462666D01*
X128300500Y-89288691D01*
X128300500Y-89111309D01*
X128265894Y-88937334D01*
X128198014Y-88773455D01*
X128198014Y-88773454D01*
X128099464Y-88625965D01*
X127974034Y-88500535D01*
X127826544Y-88401985D01*
X127662666Y-88334106D01*
X127488693Y-88299500D01*
X127488691Y-88299500D01*
X127311309Y-88299500D01*
X127311306Y-88299500D01*
X127137334Y-88334106D01*
X127137332Y-88334106D01*
X126973455Y-88401985D01*
X126973454Y-88401985D01*
X126825965Y-88500535D01*
X126700535Y-88625965D01*
X126601985Y-88773454D01*
X126601985Y-88773455D01*
X126534106Y-88937332D01*
X126534106Y-88937334D01*
X126499500Y-89111306D01*
X115413665Y-89111306D01*
X119199970Y-85325001D01*
X121600000Y-85325001D01*
X121600000Y-86224624D01*
X121614506Y-86297546D01*
X121614507Y-86297548D01*
X121669758Y-86380237D01*
X121669762Y-86380241D01*
X121752451Y-86435492D01*
X121752453Y-86435493D01*
X121825375Y-86449999D01*
X121825377Y-86450000D01*
X122724999Y-86450000D01*
X122725000Y-86449999D01*
X122725000Y-85325001D01*
X122975000Y-85325001D01*
X122975000Y-86449999D01*
X122975001Y-86450000D01*
X123874623Y-86450000D01*
X123874624Y-86449999D01*
X123947546Y-86435493D01*
X123947548Y-86435492D01*
X124030237Y-86380241D01*
X124030241Y-86380237D01*
X124085492Y-86297548D01*
X124085493Y-86297546D01*
X124099999Y-86224624D01*
X124100000Y-86224622D01*
X124100000Y-85325001D01*
X124099999Y-85325000D01*
X122975001Y-85325000D01*
X122975000Y-85325001D01*
X122725000Y-85325001D01*
X122724999Y-85325000D01*
X121600001Y-85325000D01*
X121600000Y-85325001D01*
X119199970Y-85325001D01*
X120349596Y-84175375D01*
X121600000Y-84175375D01*
X121600000Y-85074999D01*
X121600001Y-85075000D01*
X122724999Y-85075000D01*
X122725000Y-85074999D01*
X122725000Y-83950001D01*
X122724999Y-83950000D01*
X121825375Y-83950000D01*
X121752453Y-83964506D01*
X121752451Y-83964507D01*
X121669762Y-84019758D01*
X121669758Y-84019762D01*
X121614507Y-84102451D01*
X121614506Y-84102453D01*
X121600000Y-84175375D01*
X120349596Y-84175375D01*
X121080460Y-83444511D01*
X121105219Y-83401627D01*
X121120020Y-83375992D01*
X121120020Y-83375990D01*
X121120022Y-83375988D01*
X121140500Y-83299562D01*
X121140500Y-83220438D01*
X121140500Y-82380037D01*
X121159407Y-82321846D01*
X121208907Y-82285882D01*
X121210739Y-82285307D01*
X121243954Y-82275232D01*
X121426450Y-82177685D01*
X121586410Y-82046410D01*
X121717685Y-81886450D01*
X121815232Y-81703954D01*
X121875300Y-81505934D01*
X121875301Y-81505929D01*
X121895583Y-81300003D01*
X121895583Y-81299996D01*
X122324417Y-81299996D01*
X122324417Y-81300003D01*
X122344698Y-81505929D01*
X122344699Y-81505934D01*
X122404768Y-81703954D01*
X122502316Y-81886452D01*
X122626283Y-82037506D01*
X122633590Y-82046410D01*
X122633595Y-82046414D01*
X122793547Y-82177683D01*
X122793548Y-82177683D01*
X122793550Y-82177685D01*
X122976046Y-82275232D01*
X123009237Y-82285300D01*
X123059434Y-82320284D01*
X123079481Y-82378092D01*
X123079500Y-82380037D01*
X123079500Y-82769564D01*
X123099978Y-82845988D01*
X123099980Y-82845992D01*
X123135074Y-82906776D01*
X123139540Y-82914511D01*
X124018851Y-83793822D01*
X124046627Y-83848337D01*
X124037056Y-83908769D01*
X123993791Y-83952034D01*
X123933359Y-83961605D01*
X123929532Y-83960922D01*
X123874626Y-83950000D01*
X122975001Y-83950000D01*
X122975000Y-83950001D01*
X122975000Y-85074999D01*
X122975001Y-85075000D01*
X124099999Y-85075000D01*
X124100000Y-85074999D01*
X124100000Y-84175377D01*
X124099999Y-84175367D01*
X124089078Y-84120469D01*
X124096268Y-84059707D01*
X124137800Y-84014777D01*
X124197809Y-84002839D01*
X124253375Y-84028454D01*
X124256153Y-84031124D01*
X127347645Y-87122616D01*
X130430525Y-90205496D01*
X130458302Y-90260013D01*
X130448731Y-90320445D01*
X130405466Y-90363710D01*
X130360521Y-90374500D01*
X128580252Y-90374500D01*
X128580251Y-90374500D01*
X128580241Y-90374501D01*
X128521772Y-90386132D01*
X128521766Y-90386134D01*
X128455451Y-90430445D01*
X128455445Y-90430451D01*
X128411134Y-90496766D01*
X128411132Y-90496772D01*
X128399501Y-90555241D01*
X128399500Y-90555253D01*
X128399500Y-91694746D01*
X128399501Y-91694758D01*
X128411132Y-91753227D01*
X128411134Y-91753233D01*
X128443471Y-91801628D01*
X128455448Y-91819552D01*
X128521769Y-91863867D01*
X128566231Y-91872711D01*
X128580241Y-91875498D01*
X128580246Y-91875498D01*
X128580252Y-91875500D01*
X128580253Y-91875500D01*
X130619747Y-91875500D01*
X130619748Y-91875500D01*
X130678231Y-91863867D01*
X130744552Y-91819552D01*
X130788867Y-91753231D01*
X130800500Y-91694748D01*
X130800500Y-90814479D01*
X130819407Y-90756288D01*
X130868907Y-90720324D01*
X130930093Y-90720324D01*
X130969504Y-90744475D01*
X132870504Y-92645475D01*
X132898281Y-92699992D01*
X132899500Y-92715479D01*
X132899500Y-95010521D01*
X132880593Y-95068712D01*
X132831093Y-95104676D01*
X132769907Y-95104676D01*
X132730496Y-95080525D01*
X131884491Y-94234520D01*
X131034511Y-93384540D01*
X131034508Y-93384538D01*
X130965992Y-93344980D01*
X130965988Y-93344978D01*
X130889565Y-93324500D01*
X130886577Y-93324107D01*
X130884628Y-93323177D01*
X130883294Y-93322820D01*
X130883360Y-93322572D01*
X130831352Y-93297765D01*
X130802158Y-93243994D01*
X130800500Y-93225954D01*
X130800500Y-93055253D01*
X130800498Y-93055241D01*
X130797711Y-93041231D01*
X130788867Y-92996769D01*
X130744552Y-92930448D01*
X130744548Y-92930445D01*
X130678233Y-92886134D01*
X130678231Y-92886133D01*
X130678228Y-92886132D01*
X130678227Y-92886132D01*
X130619758Y-92874501D01*
X130619748Y-92874500D01*
X128580252Y-92874500D01*
X128580251Y-92874500D01*
X128580241Y-92874501D01*
X128521772Y-92886132D01*
X128521766Y-92886134D01*
X128455451Y-92930445D01*
X128455445Y-92930451D01*
X128411134Y-92996766D01*
X128411132Y-92996772D01*
X128399501Y-93055241D01*
X128399500Y-93055253D01*
X128399500Y-94194746D01*
X128399501Y-94194758D01*
X128403401Y-94214361D01*
X128411133Y-94253231D01*
X128455448Y-94319552D01*
X128521769Y-94363867D01*
X128566231Y-94372711D01*
X128580241Y-94375498D01*
X128580246Y-94375498D01*
X128580252Y-94375500D01*
X128580253Y-94375500D01*
X130619747Y-94375500D01*
X130619748Y-94375500D01*
X130678231Y-94363867D01*
X130744552Y-94319552D01*
X130788867Y-94253231D01*
X130796599Y-94214358D01*
X130826495Y-94160977D01*
X130882060Y-94135361D01*
X130942070Y-94147298D01*
X130963700Y-94163671D01*
X132470504Y-95670475D01*
X132498281Y-95724992D01*
X132499500Y-95740479D01*
X132499500Y-97135521D01*
X132480593Y-97193712D01*
X132431093Y-97229676D01*
X132369907Y-97229676D01*
X132330496Y-97205525D01*
X131677964Y-96552993D01*
X131009511Y-95884540D01*
X131009508Y-95884538D01*
X130993853Y-95875499D01*
X130993853Y-95875500D01*
X130940989Y-95844979D01*
X130940988Y-95844978D01*
X130940987Y-95844978D01*
X130873876Y-95826995D01*
X130822562Y-95793671D01*
X130800636Y-95736549D01*
X130800500Y-95731369D01*
X130800500Y-95555253D01*
X130800498Y-95555241D01*
X130797711Y-95541231D01*
X130788867Y-95496769D01*
X130744552Y-95430448D01*
X130725158Y-95417489D01*
X130678233Y-95386134D01*
X130678231Y-95386133D01*
X130678228Y-95386132D01*
X130678227Y-95386132D01*
X130619758Y-95374501D01*
X130619748Y-95374500D01*
X128580252Y-95374500D01*
X128580251Y-95374500D01*
X128580241Y-95374501D01*
X128521772Y-95386132D01*
X128521766Y-95386134D01*
X128455451Y-95430445D01*
X128455445Y-95430451D01*
X128411134Y-95496766D01*
X128411132Y-95496772D01*
X128399501Y-95555241D01*
X128399500Y-95555253D01*
X128399500Y-96694746D01*
X128399501Y-96694758D01*
X128411132Y-96753227D01*
X128411134Y-96753233D01*
X128455445Y-96819548D01*
X128455448Y-96819552D01*
X128521769Y-96863867D01*
X128566231Y-96872711D01*
X128580241Y-96875498D01*
X128580246Y-96875498D01*
X128580252Y-96875500D01*
X128580253Y-96875500D01*
X130619747Y-96875500D01*
X130619748Y-96875500D01*
X130678231Y-96863867D01*
X130744552Y-96819552D01*
X130788867Y-96753231D01*
X130792451Y-96735211D01*
X130822346Y-96681830D01*
X130877911Y-96656213D01*
X130937921Y-96668150D01*
X130959552Y-96684523D01*
X132036190Y-97761161D01*
X132063967Y-97815678D01*
X132065186Y-97831165D01*
X132065186Y-100812155D01*
X132046279Y-100870346D01*
X131996779Y-100906310D01*
X131935593Y-100906310D01*
X131886093Y-100870346D01*
X131876133Y-100853282D01*
X131875378Y-100851628D01*
X131781126Y-100742855D01*
X131660057Y-100665049D01*
X131660054Y-100665047D01*
X131660053Y-100665047D01*
X131660050Y-100665046D01*
X131521964Y-100624500D01*
X131521961Y-100624500D01*
X131378039Y-100624500D01*
X131378035Y-100624500D01*
X131239949Y-100665046D01*
X131239942Y-100665049D01*
X131118876Y-100742854D01*
X131118871Y-100742858D01*
X131077736Y-100790331D01*
X131025340Y-100821927D01*
X131002917Y-100824500D01*
X130899500Y-100824500D01*
X130841309Y-100805593D01*
X130805345Y-100756093D01*
X130800500Y-100725500D01*
X130800500Y-100555253D01*
X130800498Y-100555241D01*
X130797711Y-100541231D01*
X130788867Y-100496769D01*
X130744552Y-100430448D01*
X130744548Y-100430445D01*
X130678233Y-100386134D01*
X130678231Y-100386133D01*
X130678228Y-100386132D01*
X130678227Y-100386132D01*
X130619758Y-100374501D01*
X130619748Y-100374500D01*
X128580252Y-100374500D01*
X128580251Y-100374500D01*
X128580241Y-100374501D01*
X128521772Y-100386132D01*
X128521766Y-100386134D01*
X128455451Y-100430445D01*
X128455445Y-100430451D01*
X128411134Y-100496766D01*
X128411132Y-100496772D01*
X128399501Y-100555241D01*
X128399500Y-100555253D01*
X128399500Y-101694746D01*
X128399501Y-101694758D01*
X128411132Y-101753227D01*
X128411133Y-101753231D01*
X128455448Y-101819552D01*
X128521769Y-101863867D01*
X128566231Y-101872711D01*
X128580241Y-101875498D01*
X128580246Y-101875498D01*
X128580252Y-101875500D01*
X128580253Y-101875500D01*
X130619747Y-101875500D01*
X130619748Y-101875500D01*
X130678231Y-101863867D01*
X130744552Y-101819552D01*
X130788867Y-101753231D01*
X130800500Y-101694748D01*
X130800500Y-101524500D01*
X130819407Y-101466309D01*
X130868907Y-101430345D01*
X130899500Y-101425500D01*
X131002917Y-101425500D01*
X131061108Y-101444407D01*
X131077733Y-101459667D01*
X131118872Y-101507143D01*
X131239947Y-101584953D01*
X131346403Y-101616211D01*
X131378035Y-101625499D01*
X131378036Y-101625499D01*
X131378039Y-101625500D01*
X131378041Y-101625500D01*
X131521959Y-101625500D01*
X131521961Y-101625500D01*
X131660053Y-101584953D01*
X131781128Y-101507143D01*
X131875377Y-101398373D01*
X131876131Y-101396720D01*
X131877158Y-101395601D01*
X131879205Y-101392417D01*
X131879755Y-101392771D01*
X131917502Y-101351642D01*
X131977468Y-101339489D01*
X132033125Y-101364904D01*
X132063214Y-101418180D01*
X132065186Y-101437844D01*
X132065186Y-103225500D01*
X132046279Y-103283691D01*
X131996779Y-103319655D01*
X131966186Y-103324500D01*
X130899500Y-103324500D01*
X130841309Y-103305593D01*
X130805345Y-103256093D01*
X130800500Y-103225500D01*
X130800500Y-103055253D01*
X130800498Y-103055241D01*
X130797010Y-103037708D01*
X130788867Y-102996769D01*
X130744552Y-102930448D01*
X130744548Y-102930445D01*
X130678233Y-102886134D01*
X130678231Y-102886133D01*
X130678228Y-102886132D01*
X130678227Y-102886132D01*
X130619758Y-102874501D01*
X130619748Y-102874500D01*
X128580252Y-102874500D01*
X128580251Y-102874500D01*
X128580241Y-102874501D01*
X128521772Y-102886132D01*
X128521766Y-102886134D01*
X128455451Y-102930445D01*
X128455445Y-102930451D01*
X128411134Y-102996766D01*
X128411132Y-102996772D01*
X128399501Y-103055241D01*
X128399500Y-103055253D01*
X128399500Y-104194746D01*
X128399501Y-104194758D01*
X128411132Y-104253227D01*
X128411133Y-104253231D01*
X128455448Y-104319552D01*
X128521769Y-104363867D01*
X128566231Y-104372711D01*
X128580241Y-104375498D01*
X128580246Y-104375498D01*
X128580252Y-104375500D01*
X128580253Y-104375500D01*
X130619747Y-104375500D01*
X130619748Y-104375500D01*
X130678231Y-104363867D01*
X130744552Y-104319552D01*
X130788867Y-104253231D01*
X130800500Y-104194748D01*
X130800500Y-104024500D01*
X130819407Y-103966309D01*
X130868907Y-103930345D01*
X130899500Y-103925500D01*
X132034521Y-103925500D01*
X132092712Y-103944407D01*
X132104525Y-103954496D01*
X136230525Y-108080496D01*
X136258302Y-108135013D01*
X136248731Y-108195445D01*
X136205466Y-108238710D01*
X136160521Y-108249500D01*
X130899500Y-108249500D01*
X130841309Y-108230593D01*
X130805345Y-108181093D01*
X130800500Y-108150500D01*
X130800500Y-107980253D01*
X130800498Y-107980241D01*
X130797532Y-107965331D01*
X130788867Y-107921769D01*
X130744552Y-107855448D01*
X130744548Y-107855445D01*
X130678233Y-107811134D01*
X130678231Y-107811133D01*
X130678228Y-107811132D01*
X130678227Y-107811132D01*
X130619758Y-107799501D01*
X130619748Y-107799500D01*
X128580252Y-107799500D01*
X128580251Y-107799500D01*
X128580241Y-107799501D01*
X128521772Y-107811132D01*
X128521766Y-107811134D01*
X128455451Y-107855445D01*
X128455445Y-107855451D01*
X128411134Y-107921766D01*
X128411132Y-107921772D01*
X128399501Y-107980241D01*
X128399500Y-107980253D01*
X128399500Y-109119746D01*
X128399501Y-109119758D01*
X128411132Y-109178227D01*
X128411133Y-109178231D01*
X128455448Y-109244552D01*
X128521769Y-109288867D01*
X128566231Y-109297711D01*
X128580241Y-109300498D01*
X128580246Y-109300498D01*
X128580252Y-109300500D01*
X128580253Y-109300500D01*
X130619747Y-109300500D01*
X130619748Y-109300500D01*
X130678231Y-109288867D01*
X130744552Y-109244552D01*
X130788867Y-109178231D01*
X130800500Y-109119748D01*
X130800500Y-108949500D01*
X130819407Y-108891309D01*
X130868907Y-108855345D01*
X130899500Y-108850500D01*
X136384521Y-108850500D01*
X136442712Y-108869407D01*
X136454525Y-108879496D01*
X145640489Y-118065460D01*
X145640491Y-118065461D01*
X145640492Y-118065462D01*
X145640493Y-118065463D01*
X145709008Y-118105020D01*
X145709006Y-118105020D01*
X145709010Y-118105021D01*
X145709012Y-118105022D01*
X145785438Y-118125500D01*
X145864562Y-118125500D01*
X151485992Y-118125500D01*
X151544183Y-118144407D01*
X151555996Y-118154496D01*
X151786011Y-118384511D01*
X151786010Y-118384511D01*
X151818102Y-118416602D01*
X151841960Y-118440460D01*
X151841963Y-118440462D01*
X151847111Y-118444412D01*
X151846719Y-118444922D01*
X151858200Y-118453731D01*
X151887132Y-118482663D01*
X151914909Y-118537180D01*
X151915121Y-118566754D01*
X151912032Y-118588241D01*
X151932513Y-118730695D01*
X151960383Y-118791721D01*
X151992302Y-118861612D01*
X152039834Y-118916467D01*
X152086552Y-118970383D01*
X152207621Y-119048189D01*
X152207626Y-119048192D01*
X152314082Y-119079450D01*
X152345714Y-119088738D01*
X152345715Y-119088738D01*
X152345718Y-119088739D01*
X152345720Y-119088739D01*
X152489638Y-119088739D01*
X152489640Y-119088739D01*
X152627732Y-119048192D01*
X152748807Y-118970382D01*
X152843056Y-118861612D01*
X152860447Y-118823530D01*
X152901818Y-118778454D01*
X152961785Y-118766303D01*
X153017441Y-118791721D01*
X153047528Y-118844997D01*
X153049500Y-118864658D01*
X153049500Y-120234564D01*
X153069977Y-120310985D01*
X153069978Y-120310987D01*
X153069979Y-120310989D01*
X153103760Y-120369500D01*
X153106647Y-120374500D01*
X153109540Y-120379511D01*
X153294453Y-120564425D01*
X153322230Y-120618941D01*
X153322441Y-120648514D01*
X153319354Y-120669997D01*
X153319353Y-120670002D01*
X153339834Y-120812456D01*
X153377941Y-120895897D01*
X153399623Y-120943373D01*
X153475500Y-121030940D01*
X153493873Y-121052144D01*
X153614942Y-121129950D01*
X153614947Y-121129953D01*
X153716908Y-121159891D01*
X153753035Y-121170499D01*
X153753036Y-121170499D01*
X153753039Y-121170500D01*
X153753041Y-121170500D01*
X153896959Y-121170500D01*
X153896961Y-121170500D01*
X154035053Y-121129953D01*
X154035053Y-121129952D01*
X154041847Y-121127958D01*
X154042258Y-121129359D01*
X154095152Y-121123286D01*
X154148432Y-121153369D01*
X154173854Y-121209023D01*
X154174500Y-121220316D01*
X154174500Y-121539564D01*
X154194977Y-121615985D01*
X154194981Y-121615993D01*
X154214613Y-121649999D01*
X154214614Y-121649999D01*
X154234538Y-121684509D01*
X154234540Y-121684511D01*
X154369453Y-121819425D01*
X154397230Y-121873941D01*
X154397441Y-121903514D01*
X154394354Y-121924997D01*
X154394353Y-121925002D01*
X154414834Y-122067456D01*
X154453343Y-122151777D01*
X154474623Y-122198373D01*
X154517416Y-122247759D01*
X154568873Y-122307144D01*
X154680321Y-122378767D01*
X154689947Y-122384953D01*
X154796403Y-122416211D01*
X154828035Y-122425499D01*
X154828036Y-122425499D01*
X154828039Y-122425500D01*
X154828041Y-122425500D01*
X154971959Y-122425500D01*
X154971961Y-122425500D01*
X155110053Y-122384953D01*
X155231128Y-122307143D01*
X155325377Y-122198373D01*
X155385165Y-122067457D01*
X155398459Y-121974995D01*
X155405647Y-121925002D01*
X155405647Y-121924997D01*
X155385165Y-121782543D01*
X155378520Y-121767993D01*
X155325377Y-121651627D01*
X155231128Y-121542857D01*
X155231127Y-121542856D01*
X155231126Y-121542855D01*
X155110057Y-121465049D01*
X155110054Y-121465047D01*
X155110053Y-121465047D01*
X155110050Y-121465046D01*
X154971964Y-121424500D01*
X154971961Y-121424500D01*
X154874500Y-121424500D01*
X154816309Y-121405593D01*
X154780345Y-121356093D01*
X154775500Y-121325500D01*
X154775500Y-121139999D01*
X164745254Y-121139999D01*
X164745254Y-121140000D01*
X164764156Y-121283578D01*
X164819576Y-121417373D01*
X164830983Y-121432239D01*
X165123223Y-121140000D01*
X165103332Y-121120109D01*
X165200000Y-121120109D01*
X165200000Y-121159891D01*
X165215224Y-121196645D01*
X165243355Y-121224776D01*
X165280109Y-121240000D01*
X165319891Y-121240000D01*
X165356645Y-121224776D01*
X165384776Y-121196645D01*
X165400000Y-121159891D01*
X165400000Y-121139999D01*
X165476776Y-121139999D01*
X165476776Y-121140000D01*
X165625232Y-121288457D01*
X166000000Y-121663224D01*
X166374768Y-121288457D01*
X166523224Y-121140000D01*
X166523224Y-121139999D01*
X166503334Y-121120109D01*
X166600000Y-121120109D01*
X166600000Y-121159891D01*
X166615224Y-121196645D01*
X166643355Y-121224776D01*
X166680109Y-121240000D01*
X166719891Y-121240000D01*
X166756645Y-121224776D01*
X166784776Y-121196645D01*
X166800000Y-121159891D01*
X166800000Y-121139999D01*
X166876776Y-121139999D01*
X166876776Y-121140000D01*
X167025232Y-121288457D01*
X167400000Y-121663224D01*
X167774768Y-121288457D01*
X167923224Y-121140000D01*
X167923224Y-121139999D01*
X167903334Y-121120109D01*
X168000000Y-121120109D01*
X168000000Y-121159891D01*
X168015224Y-121196645D01*
X168043355Y-121224776D01*
X168080109Y-121240000D01*
X168119891Y-121240000D01*
X168156645Y-121224776D01*
X168184776Y-121196645D01*
X168200000Y-121159891D01*
X168200000Y-121139999D01*
X168276776Y-121139999D01*
X168569016Y-121432239D01*
X168580422Y-121417375D01*
X168580425Y-121417370D01*
X168635842Y-121283579D01*
X168635843Y-121283579D01*
X168654746Y-121140000D01*
X168654746Y-121139999D01*
X168635843Y-120996421D01*
X168580423Y-120862626D01*
X168569015Y-120847759D01*
X168276776Y-121139999D01*
X168200000Y-121139999D01*
X168200000Y-121120109D01*
X168184776Y-121083355D01*
X168156645Y-121055224D01*
X168119891Y-121040000D01*
X168080109Y-121040000D01*
X168043355Y-121055224D01*
X168015224Y-121083355D01*
X168000000Y-121120109D01*
X167903334Y-121120109D01*
X167774768Y-120991543D01*
X167400000Y-120616776D01*
X167025232Y-120991543D01*
X166876776Y-121139999D01*
X166800000Y-121139999D01*
X166800000Y-121120109D01*
X166784776Y-121083355D01*
X166756645Y-121055224D01*
X166719891Y-121040000D01*
X166680109Y-121040000D01*
X166643355Y-121055224D01*
X166615224Y-121083355D01*
X166600000Y-121120109D01*
X166503334Y-121120109D01*
X166374768Y-120991543D01*
X166000000Y-120616776D01*
X165625232Y-120991543D01*
X165476776Y-121139999D01*
X165400000Y-121139999D01*
X165400000Y-121120109D01*
X165384776Y-121083355D01*
X165356645Y-121055224D01*
X165319891Y-121040000D01*
X165280109Y-121040000D01*
X165243355Y-121055224D01*
X165215224Y-121083355D01*
X165200000Y-121120109D01*
X165103332Y-121120109D01*
X164830982Y-120847759D01*
X164819575Y-120862628D01*
X164819574Y-120862629D01*
X164764157Y-120996420D01*
X164764156Y-120996420D01*
X164745254Y-121139999D01*
X154775500Y-121139999D01*
X154775500Y-120670982D01*
X165007759Y-120670982D01*
X165300000Y-120963223D01*
X165674768Y-120588457D01*
X165823223Y-120440000D01*
X165803332Y-120420109D01*
X165900000Y-120420109D01*
X165900000Y-120459891D01*
X165915224Y-120496645D01*
X165943355Y-120524776D01*
X165980109Y-120540000D01*
X166019891Y-120540000D01*
X166056645Y-120524776D01*
X166084776Y-120496645D01*
X166100000Y-120459891D01*
X166100000Y-120439999D01*
X166176776Y-120439999D01*
X166176776Y-120440000D01*
X166325232Y-120588457D01*
X166700000Y-120963224D01*
X167074768Y-120588457D01*
X167223223Y-120440000D01*
X167203332Y-120420109D01*
X167300000Y-120420109D01*
X167300000Y-120459891D01*
X167315224Y-120496645D01*
X167343355Y-120524776D01*
X167380109Y-120540000D01*
X167419891Y-120540000D01*
X167456645Y-120524776D01*
X167484776Y-120496645D01*
X167500000Y-120459891D01*
X167500000Y-120439999D01*
X167576776Y-120439999D01*
X167576776Y-120440000D01*
X167725232Y-120588457D01*
X168099999Y-120963223D01*
X168392239Y-120670983D01*
X168377373Y-120659576D01*
X168243576Y-120604156D01*
X168243579Y-120604156D01*
X168100000Y-120585254D01*
X168099999Y-120585254D01*
X168060638Y-120590436D01*
X168000477Y-120579286D01*
X167958360Y-120534904D01*
X167949563Y-120479359D01*
X167954745Y-120439998D01*
X167935843Y-120296421D01*
X167880423Y-120162626D01*
X167869015Y-120147759D01*
X167576776Y-120439999D01*
X167500000Y-120439999D01*
X167500000Y-120420109D01*
X167484776Y-120383355D01*
X167456645Y-120355224D01*
X167419891Y-120340000D01*
X167380109Y-120340000D01*
X167343355Y-120355224D01*
X167315224Y-120383355D01*
X167300000Y-120420109D01*
X167203332Y-120420109D01*
X166930982Y-120147759D01*
X166919575Y-120162628D01*
X166919574Y-120162629D01*
X166864157Y-120296420D01*
X166864156Y-120296420D01*
X166845254Y-120439999D01*
X166845254Y-120440000D01*
X166850436Y-120479361D01*
X166839286Y-120539522D01*
X166794904Y-120581639D01*
X166739361Y-120590436D01*
X166700000Y-120585254D01*
X166699999Y-120585254D01*
X166660638Y-120590436D01*
X166600477Y-120579286D01*
X166558360Y-120534904D01*
X166549563Y-120479359D01*
X166554745Y-120439998D01*
X166535843Y-120296421D01*
X166480423Y-120162626D01*
X166469015Y-120147759D01*
X166176776Y-120439999D01*
X166100000Y-120439999D01*
X166100000Y-120420109D01*
X166084776Y-120383355D01*
X166056645Y-120355224D01*
X166019891Y-120340000D01*
X165980109Y-120340000D01*
X165943355Y-120355224D01*
X165915224Y-120383355D01*
X165900000Y-120420109D01*
X165803332Y-120420109D01*
X165530982Y-120147759D01*
X165519575Y-120162628D01*
X165519574Y-120162629D01*
X165464157Y-120296420D01*
X165464156Y-120296420D01*
X165445254Y-120439999D01*
X165445254Y-120440000D01*
X165450436Y-120479361D01*
X165439286Y-120539522D01*
X165394904Y-120581639D01*
X165339361Y-120590436D01*
X165300000Y-120585254D01*
X165156420Y-120604156D01*
X165156420Y-120604157D01*
X165022629Y-120659574D01*
X165022628Y-120659575D01*
X165007759Y-120670982D01*
X154775500Y-120670982D01*
X154775500Y-120431908D01*
X154766046Y-120396625D01*
X154766045Y-120396623D01*
X154755024Y-120355489D01*
X154755023Y-120355486D01*
X154755022Y-120355485D01*
X154755022Y-120355483D01*
X154715460Y-120286960D01*
X154548001Y-120119501D01*
X154520226Y-120064987D01*
X154529797Y-120004555D01*
X154573062Y-119961290D01*
X154618007Y-119950500D01*
X154721959Y-119950500D01*
X154721961Y-119950500D01*
X154860053Y-119909953D01*
X154981128Y-119832143D01*
X155022264Y-119784668D01*
X155074660Y-119753073D01*
X155097083Y-119750500D01*
X165729674Y-119750500D01*
X165787865Y-119769407D01*
X165823829Y-119818907D01*
X165823829Y-119880093D01*
X165787865Y-119929593D01*
X165767559Y-119940964D01*
X165722629Y-119959574D01*
X165722628Y-119959575D01*
X165707759Y-119970982D01*
X166000000Y-120263223D01*
X166292239Y-119970983D01*
X166277373Y-119959576D01*
X166232439Y-119940964D01*
X166185914Y-119901227D01*
X166171630Y-119841733D01*
X166195045Y-119785205D01*
X166247214Y-119753235D01*
X166270325Y-119750500D01*
X167129674Y-119750500D01*
X167187865Y-119769407D01*
X167223829Y-119818907D01*
X167223829Y-119880093D01*
X167187865Y-119929593D01*
X167167559Y-119940964D01*
X167122629Y-119959574D01*
X167122628Y-119959575D01*
X167107759Y-119970982D01*
X167400000Y-120263223D01*
X167692239Y-119970983D01*
X167677373Y-119959576D01*
X167632439Y-119940964D01*
X167585914Y-119901227D01*
X167571630Y-119841733D01*
X167595045Y-119785205D01*
X167647214Y-119753235D01*
X167670325Y-119750500D01*
X172152917Y-119750500D01*
X172211108Y-119769407D01*
X172227733Y-119784667D01*
X172268872Y-119832143D01*
X172389947Y-119909953D01*
X172495562Y-119940964D01*
X172528035Y-119950499D01*
X172528036Y-119950499D01*
X172528039Y-119950500D01*
X172528041Y-119950500D01*
X172671959Y-119950500D01*
X172671961Y-119950500D01*
X172810053Y-119909953D01*
X172931128Y-119832143D01*
X173025377Y-119723373D01*
X173085165Y-119592457D01*
X173105647Y-119450000D01*
X173085165Y-119307543D01*
X173025377Y-119176627D01*
X172931128Y-119067857D01*
X172931127Y-119067856D01*
X172931126Y-119067855D01*
X172810057Y-118990049D01*
X172810054Y-118990047D01*
X172810053Y-118990047D01*
X172810050Y-118990046D01*
X172671964Y-118949500D01*
X172671961Y-118949500D01*
X172528039Y-118949500D01*
X172528035Y-118949500D01*
X172389949Y-118990046D01*
X172389942Y-118990049D01*
X172268876Y-119067854D01*
X172268873Y-119067856D01*
X172268872Y-119067857D01*
X172230496Y-119112146D01*
X172227736Y-119115331D01*
X172175340Y-119146927D01*
X172152917Y-119149500D01*
X155097083Y-119149500D01*
X155038892Y-119130593D01*
X155022264Y-119115331D01*
X154981128Y-119067857D01*
X154948182Y-119046684D01*
X154860057Y-118990049D01*
X154860054Y-118990047D01*
X154860053Y-118990047D01*
X154860050Y-118990046D01*
X154721964Y-118949500D01*
X154721961Y-118949500D01*
X154578039Y-118949500D01*
X154578035Y-118949500D01*
X154439949Y-118990046D01*
X154439942Y-118990049D01*
X154318872Y-119067856D01*
X154318870Y-119067858D01*
X154224319Y-119176977D01*
X154171924Y-119208573D01*
X154110963Y-119203337D01*
X154064722Y-119163270D01*
X154050500Y-119112146D01*
X154050500Y-117618252D01*
X154050499Y-117618250D01*
X154049971Y-117616281D01*
X154030021Y-117541826D01*
X153990460Y-117473304D01*
X153934511Y-117417354D01*
X153934511Y-117417355D01*
X153836660Y-117319504D01*
X153808883Y-117264987D01*
X153818454Y-117204555D01*
X153861719Y-117161290D01*
X153906664Y-117150500D01*
X169594251Y-117150500D01*
X169652442Y-117169407D01*
X169669070Y-117184669D01*
X169718870Y-117242141D01*
X169718872Y-117242143D01*
X169812221Y-117302135D01*
X169839947Y-117319953D01*
X169940021Y-117349337D01*
X169978035Y-117360499D01*
X169978036Y-117360499D01*
X169978039Y-117360500D01*
X169978041Y-117360500D01*
X170121959Y-117360500D01*
X170121961Y-117360500D01*
X170260053Y-117319953D01*
X170381128Y-117242143D01*
X170475377Y-117133373D01*
X170520551Y-117034454D01*
X170561922Y-116989379D01*
X170621889Y-116977228D01*
X170677545Y-117002646D01*
X170680608Y-117005579D01*
X171989540Y-118314511D01*
X171989539Y-118314511D01*
X172045486Y-118370457D01*
X172045489Y-118370460D01*
X172114011Y-118410021D01*
X172138575Y-118416603D01*
X172187770Y-118447398D01*
X172207060Y-118469659D01*
X172243871Y-118512142D01*
X172243872Y-118512143D01*
X172328848Y-118566754D01*
X172364947Y-118589953D01*
X172471403Y-118621211D01*
X172503035Y-118630499D01*
X172503036Y-118630499D01*
X172503039Y-118630500D01*
X172503041Y-118630500D01*
X172646959Y-118630500D01*
X172646961Y-118630500D01*
X172785053Y-118589953D01*
X172906128Y-118512143D01*
X173000377Y-118403373D01*
X173060165Y-118272457D01*
X173080647Y-118130000D01*
X173079928Y-118125000D01*
X173060165Y-117987543D01*
X173042093Y-117947972D01*
X173000377Y-117856627D01*
X172906128Y-117747857D01*
X172906127Y-117747856D01*
X172906126Y-117747855D01*
X172785057Y-117670049D01*
X172785054Y-117670047D01*
X172785053Y-117670047D01*
X172785050Y-117670046D01*
X172646964Y-117629500D01*
X172646961Y-117629500D01*
X172503039Y-117629500D01*
X172503035Y-117629500D01*
X172364948Y-117670046D01*
X172328613Y-117693397D01*
X172269437Y-117708950D01*
X172212421Y-117686751D01*
X172205087Y-117680116D01*
X168504496Y-113979525D01*
X168476719Y-113925008D01*
X168475500Y-113909521D01*
X168475500Y-103253893D01*
X168494407Y-103195702D01*
X168501741Y-103187711D01*
X168501491Y-103187494D01*
X168600377Y-103073373D01*
X168600378Y-103073371D01*
X168635447Y-102996582D01*
X168676819Y-102951504D01*
X168736785Y-102939353D01*
X168792441Y-102964771D01*
X168822528Y-103018048D01*
X168824500Y-103037708D01*
X168824500Y-113814564D01*
X168844977Y-113890985D01*
X168844979Y-113890990D01*
X168875877Y-113944507D01*
X168875878Y-113944508D01*
X168884540Y-113959511D01*
X171969540Y-117044511D01*
X171969539Y-117044511D01*
X172025486Y-117100457D01*
X172025489Y-117100460D01*
X172094011Y-117140021D01*
X172112062Y-117144857D01*
X172161258Y-117175653D01*
X172186302Y-117204555D01*
X172218871Y-117242142D01*
X172218872Y-117242143D01*
X172312221Y-117302135D01*
X172339947Y-117319953D01*
X172440021Y-117349337D01*
X172478035Y-117360499D01*
X172478036Y-117360499D01*
X172478039Y-117360500D01*
X172478041Y-117360500D01*
X172621959Y-117360500D01*
X172621961Y-117360500D01*
X172760053Y-117319953D01*
X172881128Y-117242143D01*
X172975377Y-117133373D01*
X173035165Y-117002457D01*
X173047669Y-116915489D01*
X173055647Y-116860002D01*
X173055647Y-116859997D01*
X173035165Y-116717543D01*
X172975377Y-116586628D01*
X172975377Y-116586627D01*
X172881128Y-116477857D01*
X172881127Y-116477856D01*
X172881126Y-116477855D01*
X172760057Y-116400049D01*
X172760054Y-116400047D01*
X172760053Y-116400047D01*
X172760050Y-116400046D01*
X172621964Y-116359500D01*
X172621961Y-116359500D01*
X172478039Y-116359500D01*
X172478035Y-116359500D01*
X172339948Y-116400046D01*
X172306657Y-116421441D01*
X172247482Y-116436994D01*
X172190466Y-116414795D01*
X172183131Y-116408160D01*
X170374968Y-114599997D01*
X177094353Y-114599997D01*
X177094353Y-114600002D01*
X177114834Y-114742456D01*
X177160534Y-114842523D01*
X177174623Y-114873373D01*
X177247495Y-114957472D01*
X177268873Y-114982144D01*
X177386197Y-115057543D01*
X177389947Y-115059953D01*
X177496403Y-115091211D01*
X177528035Y-115100499D01*
X177528036Y-115100499D01*
X177528039Y-115100500D01*
X177528041Y-115100500D01*
X177634521Y-115100500D01*
X177692712Y-115119407D01*
X177704525Y-115129496D01*
X179770504Y-117195475D01*
X179798281Y-117249992D01*
X179799500Y-117265479D01*
X179799500Y-128034521D01*
X179780593Y-128092712D01*
X179770504Y-128104525D01*
X179504525Y-128370504D01*
X179450008Y-128398281D01*
X179434521Y-128399500D01*
X179347083Y-128399500D01*
X179288892Y-128380593D01*
X179272264Y-128365331D01*
X179231128Y-128317857D01*
X179198182Y-128296684D01*
X179110057Y-128240049D01*
X179110054Y-128240047D01*
X179110053Y-128240047D01*
X179110050Y-128240046D01*
X178971964Y-128199500D01*
X178971961Y-128199500D01*
X178828039Y-128199500D01*
X178828035Y-128199500D01*
X178689949Y-128240046D01*
X178689942Y-128240049D01*
X178568873Y-128317855D01*
X178474622Y-128426628D01*
X178414834Y-128557543D01*
X178394353Y-128699997D01*
X178394353Y-128700002D01*
X178414834Y-128842456D01*
X178452242Y-128924367D01*
X178474623Y-128973373D01*
X178568870Y-129082141D01*
X178568873Y-129082144D01*
X178689942Y-129159950D01*
X178689947Y-129159953D01*
X178796403Y-129191211D01*
X178828035Y-129200499D01*
X178828036Y-129200499D01*
X178828039Y-129200500D01*
X178828041Y-129200500D01*
X178971959Y-129200500D01*
X178971961Y-129200500D01*
X179110053Y-129159953D01*
X179231128Y-129082143D01*
X179272264Y-129034668D01*
X179324660Y-129003073D01*
X179347083Y-129000500D01*
X179639563Y-129000500D01*
X179639563Y-129000499D01*
X179715989Y-128980021D01*
X179784511Y-128940460D01*
X179840460Y-128884511D01*
X180340460Y-128384511D01*
X180372670Y-128328722D01*
X180380020Y-128315992D01*
X180380020Y-128315990D01*
X180380022Y-128315988D01*
X180400500Y-128239562D01*
X180400500Y-128160438D01*
X180400500Y-127000000D01*
X194994390Y-127000000D01*
X195014803Y-127285422D01*
X195014803Y-127285425D01*
X195014804Y-127285428D01*
X195053551Y-127463544D01*
X195075632Y-127565050D01*
X195175633Y-127833162D01*
X195175634Y-127833164D01*
X195277889Y-128020428D01*
X195312774Y-128084315D01*
X195484261Y-128313395D01*
X195686605Y-128515739D01*
X195915685Y-128687226D01*
X196166839Y-128824367D01*
X196434954Y-128924369D01*
X196714572Y-128985196D01*
X197000000Y-129005610D01*
X197285428Y-128985196D01*
X197565046Y-128924369D01*
X197833161Y-128824367D01*
X198084315Y-128687226D01*
X198313395Y-128515739D01*
X198515739Y-128313395D01*
X198687226Y-128084315D01*
X198824367Y-127833161D01*
X198924369Y-127565046D01*
X198985196Y-127285428D01*
X199005610Y-127000000D01*
X198985196Y-126714572D01*
X198924369Y-126434954D01*
X198824367Y-126166839D01*
X198818442Y-126155989D01*
X198719929Y-125975576D01*
X198687226Y-125915685D01*
X198515739Y-125686605D01*
X198313395Y-125484261D01*
X198308158Y-125480341D01*
X198205930Y-125403814D01*
X198084315Y-125312774D01*
X198084310Y-125312771D01*
X197833164Y-125175634D01*
X197833162Y-125175633D01*
X197565050Y-125075632D01*
X197565046Y-125075631D01*
X197285428Y-125014804D01*
X197285425Y-125014803D01*
X197285422Y-125014803D01*
X197000000Y-124994390D01*
X196714577Y-125014803D01*
X196434949Y-125075632D01*
X196166837Y-125175633D01*
X196166835Y-125175634D01*
X195915689Y-125312771D01*
X195686609Y-125484257D01*
X195484257Y-125686609D01*
X195312771Y-125915689D01*
X195175634Y-126166835D01*
X195175633Y-126166837D01*
X195075632Y-126434949D01*
X195014803Y-126714577D01*
X194994390Y-127000000D01*
X180400500Y-127000000D01*
X180400500Y-117060438D01*
X180385440Y-117004234D01*
X194194500Y-117004234D01*
X194194500Y-117155766D01*
X194222748Y-117261189D01*
X194233720Y-117302139D01*
X194309481Y-117433360D01*
X194309483Y-117433362D01*
X194309485Y-117433365D01*
X194416635Y-117540515D01*
X194416637Y-117540516D01*
X194416639Y-117540518D01*
X194547861Y-117616279D01*
X194547859Y-117616279D01*
X194547863Y-117616280D01*
X194547865Y-117616281D01*
X194694234Y-117655500D01*
X194694236Y-117655500D01*
X194845764Y-117655500D01*
X194845766Y-117655500D01*
X194992135Y-117616281D01*
X194992137Y-117616279D01*
X194992139Y-117616279D01*
X195123360Y-117540518D01*
X195123360Y-117540517D01*
X195123365Y-117540515D01*
X195230515Y-117433365D01*
X195230518Y-117433360D01*
X195306279Y-117302139D01*
X195306279Y-117302137D01*
X195306281Y-117302135D01*
X195345500Y-117155766D01*
X195345500Y-117004234D01*
X195306281Y-116857865D01*
X195306279Y-116857862D01*
X195306279Y-116857860D01*
X195230518Y-116726639D01*
X195230516Y-116726637D01*
X195230515Y-116726635D01*
X195123365Y-116619485D01*
X195123362Y-116619483D01*
X195123360Y-116619481D01*
X194992138Y-116543720D01*
X194992140Y-116543720D01*
X194935347Y-116528503D01*
X194845766Y-116504500D01*
X194694234Y-116504500D01*
X194604652Y-116528503D01*
X194547860Y-116543720D01*
X194416639Y-116619481D01*
X194309481Y-116726639D01*
X194233720Y-116857860D01*
X194233147Y-116860000D01*
X194194500Y-117004234D01*
X180385440Y-117004234D01*
X180380021Y-116984011D01*
X180340460Y-116915489D01*
X180284511Y-116859539D01*
X180284511Y-116859540D01*
X178130546Y-114705575D01*
X178102769Y-114651058D01*
X178102558Y-114621482D01*
X178105647Y-114600000D01*
X178105575Y-114599500D01*
X178085165Y-114457543D01*
X178036051Y-114350000D01*
X178025377Y-114326627D01*
X177931128Y-114217857D01*
X177931127Y-114217856D01*
X177926491Y-114212506D01*
X177928524Y-114210743D01*
X177903067Y-114168505D01*
X177900500Y-114146105D01*
X177900500Y-111224234D01*
X194194500Y-111224234D01*
X194194500Y-111375766D01*
X194214391Y-111450000D01*
X194233720Y-111522139D01*
X194309481Y-111653360D01*
X194309483Y-111653362D01*
X194309485Y-111653365D01*
X194416635Y-111760515D01*
X194416637Y-111760516D01*
X194416639Y-111760518D01*
X194547861Y-111836279D01*
X194547859Y-111836279D01*
X194547863Y-111836280D01*
X194547865Y-111836281D01*
X194694234Y-111875500D01*
X194694236Y-111875500D01*
X194845764Y-111875500D01*
X194845766Y-111875500D01*
X194992135Y-111836281D01*
X194992137Y-111836279D01*
X194992139Y-111836279D01*
X195123360Y-111760518D01*
X195123360Y-111760517D01*
X195123365Y-111760515D01*
X195230515Y-111653365D01*
X195306281Y-111522135D01*
X195345500Y-111375766D01*
X195345500Y-111224234D01*
X195306281Y-111077865D01*
X195306279Y-111077862D01*
X195306279Y-111077860D01*
X195230518Y-110946639D01*
X195230516Y-110946637D01*
X195230515Y-110946635D01*
X195123365Y-110839485D01*
X195123362Y-110839483D01*
X195123360Y-110839481D01*
X194992138Y-110763720D01*
X194992140Y-110763720D01*
X194935347Y-110748503D01*
X194845766Y-110724500D01*
X194694234Y-110724500D01*
X194604652Y-110748503D01*
X194547860Y-110763720D01*
X194416639Y-110839481D01*
X194309481Y-110946639D01*
X194233720Y-111077860D01*
X194233719Y-111077865D01*
X194194500Y-111224234D01*
X177900500Y-111224234D01*
X177900500Y-108065478D01*
X177919407Y-108007287D01*
X177929490Y-107995480D01*
X179545474Y-106379495D01*
X179599991Y-106351719D01*
X179615478Y-106350500D01*
X179721959Y-106350500D01*
X179721961Y-106350500D01*
X179860053Y-106309953D01*
X179981128Y-106232143D01*
X180075377Y-106123373D01*
X180135165Y-105992457D01*
X180145506Y-105920534D01*
X180155647Y-105850002D01*
X180155647Y-105849997D01*
X180135165Y-105707543D01*
X180075377Y-105576628D01*
X180075377Y-105576627D01*
X179981128Y-105467857D01*
X179981127Y-105467856D01*
X179981126Y-105467855D01*
X179860057Y-105390049D01*
X179860054Y-105390047D01*
X179860053Y-105390047D01*
X179860050Y-105390046D01*
X179721964Y-105349500D01*
X179721961Y-105349500D01*
X179578039Y-105349500D01*
X179578035Y-105349500D01*
X179439949Y-105390046D01*
X179439942Y-105390049D01*
X179318873Y-105467855D01*
X179224622Y-105576628D01*
X179164834Y-105707543D01*
X179144353Y-105849997D01*
X179144353Y-105850003D01*
X179147441Y-105871482D01*
X179137007Y-105931771D01*
X179119453Y-105955574D01*
X177415489Y-107659540D01*
X177415488Y-107659539D01*
X177359539Y-107715489D01*
X177319980Y-107784007D01*
X177319978Y-107784011D01*
X177299500Y-107860435D01*
X177299500Y-114146105D01*
X177280593Y-114204296D01*
X177273258Y-114212289D01*
X177273509Y-114212506D01*
X177174622Y-114326628D01*
X177114834Y-114457543D01*
X177094353Y-114599997D01*
X170374968Y-114599997D01*
X169454496Y-113679525D01*
X169426719Y-113625008D01*
X169425500Y-113609521D01*
X169425500Y-103600000D01*
X172600000Y-103600000D01*
X172600001Y-103600000D01*
X175799999Y-103600000D01*
X175800000Y-103600000D01*
X175800000Y-99900000D01*
X172600000Y-99900000D01*
X172600000Y-103600000D01*
X169425500Y-103600000D01*
X169425500Y-102203893D01*
X169444407Y-102145702D01*
X169451741Y-102137711D01*
X169451491Y-102137494D01*
X169456128Y-102132143D01*
X169550377Y-102023373D01*
X169610165Y-101892457D01*
X169630182Y-101753233D01*
X169630647Y-101750002D01*
X169630647Y-101749997D01*
X169610165Y-101607543D01*
X169599847Y-101584950D01*
X169550377Y-101476627D01*
X169456128Y-101367857D01*
X169456127Y-101367856D01*
X169451491Y-101362506D01*
X169453524Y-101360743D01*
X169428067Y-101318505D01*
X169425500Y-101296105D01*
X169425500Y-96978893D01*
X169444407Y-96920702D01*
X169451741Y-96912711D01*
X169451491Y-96912494D01*
X169456128Y-96907143D01*
X169550377Y-96798373D01*
X169610165Y-96667457D01*
X169626622Y-96552993D01*
X169630647Y-96525002D01*
X169630647Y-96524997D01*
X169610165Y-96382543D01*
X169550377Y-96251628D01*
X169550377Y-96251627D01*
X169456128Y-96142857D01*
X169456127Y-96142856D01*
X169456126Y-96142855D01*
X169335057Y-96065049D01*
X169335054Y-96065047D01*
X169335053Y-96065047D01*
X169335050Y-96065046D01*
X169196964Y-96024500D01*
X169196961Y-96024500D01*
X169053039Y-96024500D01*
X169053035Y-96024500D01*
X168914949Y-96065046D01*
X168914942Y-96065049D01*
X168793872Y-96142856D01*
X168793870Y-96142858D01*
X168724819Y-96222548D01*
X168672423Y-96254144D01*
X168611462Y-96248908D01*
X168575181Y-96222548D01*
X168506129Y-96142858D01*
X168506127Y-96142856D01*
X168385057Y-96065049D01*
X168385054Y-96065047D01*
X168385053Y-96065047D01*
X168385050Y-96065046D01*
X168246964Y-96024500D01*
X168246961Y-96024500D01*
X168103039Y-96024500D01*
X168103035Y-96024500D01*
X167964949Y-96065046D01*
X167964942Y-96065049D01*
X167843873Y-96142855D01*
X167749622Y-96251628D01*
X167689834Y-96382543D01*
X167669353Y-96524997D01*
X167669353Y-96525002D01*
X167689834Y-96667456D01*
X167720681Y-96735000D01*
X167749623Y-96798373D01*
X167816453Y-96875500D01*
X167848509Y-96912494D01*
X167846471Y-96914259D01*
X167871925Y-96956458D01*
X167874500Y-96978893D01*
X167874500Y-102346105D01*
X167855593Y-102404296D01*
X167848258Y-102412289D01*
X167848509Y-102412506D01*
X167843872Y-102417856D01*
X167843872Y-102417857D01*
X167775915Y-102496283D01*
X167749622Y-102526628D01*
X167689834Y-102657543D01*
X167669353Y-102799997D01*
X167669353Y-102800002D01*
X167689834Y-102942456D01*
X167749623Y-103073373D01*
X167848509Y-103187494D01*
X167846471Y-103189259D01*
X167871925Y-103231458D01*
X167874500Y-103253893D01*
X167874500Y-114057549D01*
X167855593Y-114115740D01*
X167806093Y-114151704D01*
X167744907Y-114151704D01*
X167695407Y-114115740D01*
X167685447Y-114098676D01*
X167675378Y-114076628D01*
X167576491Y-113962506D01*
X167578524Y-113960743D01*
X167553067Y-113918505D01*
X167550500Y-113896105D01*
X167550500Y-113210437D01*
X167550499Y-113210435D01*
X167542411Y-113180252D01*
X167530021Y-113134011D01*
X167522951Y-113121766D01*
X167490460Y-113065489D01*
X167434511Y-113009539D01*
X167434511Y-113009540D01*
X161555546Y-107130575D01*
X161527769Y-107076058D01*
X161527558Y-107046482D01*
X161530647Y-107025000D01*
X161514183Y-106910492D01*
X161510165Y-106882543D01*
X161497369Y-106854525D01*
X161450377Y-106751627D01*
X161356128Y-106642857D01*
X161356127Y-106642856D01*
X161356126Y-106642855D01*
X161235057Y-106565049D01*
X161235054Y-106565047D01*
X161235053Y-106565047D01*
X161235050Y-106565046D01*
X161096964Y-106524500D01*
X161096961Y-106524500D01*
X160953039Y-106524500D01*
X160953035Y-106524500D01*
X160814949Y-106565046D01*
X160814942Y-106565049D01*
X160693873Y-106642855D01*
X160599622Y-106751628D01*
X160539834Y-106882543D01*
X160519353Y-107024997D01*
X160519353Y-107025002D01*
X160539834Y-107167456D01*
X160599622Y-107298371D01*
X160599623Y-107298373D01*
X160693872Y-107407143D01*
X160693873Y-107407144D01*
X160814942Y-107484950D01*
X160814947Y-107484953D01*
X160921403Y-107516211D01*
X160953035Y-107525499D01*
X160953036Y-107525499D01*
X160953039Y-107525500D01*
X160953041Y-107525500D01*
X161059521Y-107525500D01*
X161117712Y-107544407D01*
X161129525Y-107554496D01*
X166920504Y-113345475D01*
X166948281Y-113399992D01*
X166949500Y-113415479D01*
X166949500Y-113896105D01*
X166930593Y-113954296D01*
X166923258Y-113962289D01*
X166923509Y-113962506D01*
X166824622Y-114076628D01*
X166764834Y-114207543D01*
X166744353Y-114349997D01*
X166744353Y-114350002D01*
X166764834Y-114492456D01*
X166764834Y-114492458D01*
X166807888Y-114586731D01*
X166814863Y-114647517D01*
X166784777Y-114700794D01*
X166729121Y-114726212D01*
X166669154Y-114714061D01*
X166647835Y-114697864D01*
X166509511Y-114559540D01*
X166477934Y-114541309D01*
X166466158Y-114534510D01*
X166466157Y-114534510D01*
X166440988Y-114519978D01*
X166364564Y-114499500D01*
X166364562Y-114499500D01*
X148215479Y-114499500D01*
X148157288Y-114480593D01*
X148145475Y-114470504D01*
X144005546Y-110330575D01*
X143977769Y-110276058D01*
X143977558Y-110246482D01*
X143980647Y-110225000D01*
X143960165Y-110082543D01*
X143900377Y-109951627D01*
X143806128Y-109842857D01*
X143806127Y-109842856D01*
X143806126Y-109842855D01*
X143685057Y-109765049D01*
X143685054Y-109765047D01*
X143685053Y-109765047D01*
X143685050Y-109765046D01*
X143546964Y-109724500D01*
X143546961Y-109724500D01*
X143403039Y-109724500D01*
X143403035Y-109724500D01*
X143264949Y-109765046D01*
X143264942Y-109765049D01*
X143143873Y-109842855D01*
X143049622Y-109951628D01*
X142989834Y-110082543D01*
X142969353Y-110224997D01*
X142969353Y-110225002D01*
X142989834Y-110367456D01*
X143049622Y-110498371D01*
X143049623Y-110498373D01*
X143143872Y-110607143D01*
X143143873Y-110607144D01*
X143264942Y-110684950D01*
X143264947Y-110684953D01*
X143371403Y-110716211D01*
X143403035Y-110725499D01*
X143403036Y-110725499D01*
X143403039Y-110725500D01*
X143403041Y-110725500D01*
X143509521Y-110725500D01*
X143567712Y-110744407D01*
X143579525Y-110754496D01*
X147655525Y-114830496D01*
X147683302Y-114885013D01*
X147673731Y-114945445D01*
X147630466Y-114988710D01*
X147585521Y-114999500D01*
X146896851Y-114999500D01*
X146838660Y-114980593D01*
X146826847Y-114970504D01*
X134332682Y-102476339D01*
X134304905Y-102421822D01*
X134303686Y-102406335D01*
X134303686Y-76527870D01*
X134322593Y-76469679D01*
X134372093Y-76433715D01*
X134433279Y-76433715D01*
X134482779Y-76469679D01*
X134484995Y-76472860D01*
X134511468Y-76512479D01*
X134612521Y-76613532D01*
X134675823Y-76655829D01*
X134731340Y-76692925D01*
X134731351Y-76692931D01*
X134780121Y-76713132D01*
X134863380Y-76747619D01*
X135003545Y-76775500D01*
X135003546Y-76775500D01*
X135596454Y-76775500D01*
X135596455Y-76775500D01*
X135736620Y-76747619D01*
X135868653Y-76692929D01*
X135987479Y-76613532D01*
X136088532Y-76512479D01*
X136167929Y-76393653D01*
X136222619Y-76261620D01*
X136250500Y-76121455D01*
X136250500Y-75978545D01*
X136222619Y-75838380D01*
X136167929Y-75706347D01*
X136167928Y-75706345D01*
X136167925Y-75706340D01*
X136114999Y-75627132D01*
X136088532Y-75587521D01*
X136088527Y-75587516D01*
X136088524Y-75587512D01*
X135986015Y-75485004D01*
X135958237Y-75430487D01*
X135967808Y-75370055D01*
X135986015Y-75344996D01*
X136088524Y-75242487D01*
X136088532Y-75242479D01*
X136167929Y-75123653D01*
X136222619Y-74991620D01*
X136250500Y-74851455D01*
X136250500Y-74708545D01*
X136222619Y-74568380D01*
X136183269Y-74473381D01*
X136167931Y-74436351D01*
X136167925Y-74436340D01*
X136122828Y-74368849D01*
X136112523Y-74353427D01*
X136095915Y-74294540D01*
X136117092Y-74237136D01*
X136139832Y-74216114D01*
X136194552Y-74179552D01*
X136238867Y-74113231D01*
X136250500Y-74054748D01*
X136250500Y-73909500D01*
X136269407Y-73851309D01*
X136318907Y-73815345D01*
X136349500Y-73810500D01*
X145294521Y-73810500D01*
X145352712Y-73829407D01*
X145364525Y-73839496D01*
X148120504Y-76595475D01*
X148148281Y-76649992D01*
X148149500Y-76665479D01*
X148149500Y-90063093D01*
X148169978Y-90139517D01*
X148169979Y-90139518D01*
X148199151Y-90190045D01*
X148199152Y-90190049D01*
X148199153Y-90190049D01*
X148209537Y-90208036D01*
X148209538Y-90208037D01*
X148209540Y-90208040D01*
X148891960Y-90890460D01*
X148891962Y-90890461D01*
X148891964Y-90890463D01*
X148960479Y-90930020D01*
X148960477Y-90930020D01*
X148960481Y-90930021D01*
X148960483Y-90930022D01*
X149036909Y-90950500D01*
X149116033Y-90950500D01*
X150377917Y-90950500D01*
X150436108Y-90969407D01*
X150452733Y-90984667D01*
X150493872Y-91032143D01*
X150571524Y-91082047D01*
X150608011Y-91105496D01*
X150614947Y-91109953D01*
X150721403Y-91141211D01*
X150753035Y-91150499D01*
X150753036Y-91150499D01*
X150753039Y-91150500D01*
X150753041Y-91150500D01*
X150896959Y-91150500D01*
X150896961Y-91150500D01*
X151035053Y-91109953D01*
X151156128Y-91032143D01*
X151250377Y-90923373D01*
X151306616Y-90800227D01*
X151347986Y-90755152D01*
X151407953Y-90743001D01*
X151463609Y-90768419D01*
X151493696Y-90821696D01*
X151494660Y-90827264D01*
X151495963Y-90836327D01*
X151541366Y-90935743D01*
X151555752Y-90967244D01*
X151611987Y-91032143D01*
X151650002Y-91076015D01*
X151771071Y-91153821D01*
X151771076Y-91153824D01*
X151878391Y-91185334D01*
X151928898Y-91219870D01*
X151949460Y-91277497D01*
X151949500Y-91280324D01*
X151949500Y-94234520D01*
X151930593Y-94292711D01*
X151920504Y-94304524D01*
X151442024Y-94783004D01*
X151387507Y-94810781D01*
X151372020Y-94812000D01*
X151265535Y-94812000D01*
X151127449Y-94852546D01*
X151127442Y-94852549D01*
X151006373Y-94930355D01*
X150912122Y-95039128D01*
X150852334Y-95170043D01*
X150831853Y-95312497D01*
X150831853Y-95312502D01*
X150852334Y-95454956D01*
X150898139Y-95555252D01*
X150912123Y-95585873D01*
X150987940Y-95673371D01*
X151006373Y-95694644D01*
X151114779Y-95764312D01*
X151127447Y-95772453D01*
X151233903Y-95803711D01*
X151265535Y-95812999D01*
X151265536Y-95812999D01*
X151265539Y-95813000D01*
X151265541Y-95813000D01*
X151409459Y-95813000D01*
X151409461Y-95813000D01*
X151547553Y-95772453D01*
X151668628Y-95694643D01*
X151762877Y-95585873D01*
X151806842Y-95489604D01*
X151819190Y-95462567D01*
X151860562Y-95417489D01*
X151920528Y-95405338D01*
X151976185Y-95430756D01*
X152006271Y-95484033D01*
X152007235Y-95489604D01*
X152014834Y-95542455D01*
X152073300Y-95670475D01*
X152074623Y-95673373D01*
X152160473Y-95772450D01*
X152168873Y-95782144D01*
X152238663Y-95826995D01*
X152289947Y-95859953D01*
X152373677Y-95884538D01*
X152428035Y-95900499D01*
X152428036Y-95900499D01*
X152428039Y-95900500D01*
X152428041Y-95900500D01*
X152571959Y-95900500D01*
X152571961Y-95900500D01*
X152710053Y-95859953D01*
X152831128Y-95782143D01*
X152925377Y-95673373D01*
X152985165Y-95542457D01*
X152996651Y-95462567D01*
X153005647Y-95400002D01*
X153005647Y-95400000D01*
X153002558Y-95378518D01*
X153012990Y-95318228D01*
X153030547Y-95294423D01*
X153083006Y-95241965D01*
X153165460Y-95159511D01*
X153205022Y-95090988D01*
X153225500Y-95014562D01*
X153225500Y-94935438D01*
X153225500Y-91728893D01*
X153244407Y-91670702D01*
X153251741Y-91662711D01*
X153251491Y-91662494D01*
X153292602Y-91615049D01*
X153350377Y-91548373D01*
X153410165Y-91417457D01*
X153430647Y-91275000D01*
X153427558Y-91253517D01*
X153437990Y-91193228D01*
X153455549Y-91169421D01*
X153470477Y-91154494D01*
X153524994Y-91126718D01*
X153540478Y-91125500D01*
X156958083Y-91125500D01*
X157016274Y-91144407D01*
X157052238Y-91193907D01*
X157052238Y-91255093D01*
X157016274Y-91304593D01*
X157007583Y-91310236D01*
X156965493Y-91334536D01*
X156965488Y-91334540D01*
X156754524Y-91545504D01*
X156700008Y-91573281D01*
X156684521Y-91574500D01*
X156578035Y-91574500D01*
X156439949Y-91615046D01*
X156439942Y-91615049D01*
X156318873Y-91692855D01*
X156224622Y-91801628D01*
X156164834Y-91932543D01*
X156144353Y-92074997D01*
X156144353Y-92075002D01*
X156164834Y-92217456D01*
X156224623Y-92348373D01*
X156323509Y-92462494D01*
X156321471Y-92464259D01*
X156346925Y-92506458D01*
X156349500Y-92528893D01*
X156349500Y-106784521D01*
X156330593Y-106842712D01*
X156320504Y-106854525D01*
X155204525Y-107970504D01*
X155150008Y-107998281D01*
X155134521Y-107999500D01*
X154847083Y-107999500D01*
X154788892Y-107980593D01*
X154772264Y-107965331D01*
X154734520Y-107921772D01*
X154731128Y-107917857D01*
X154698182Y-107896684D01*
X154610057Y-107840049D01*
X154610054Y-107840047D01*
X154610053Y-107840047D01*
X154610050Y-107840046D01*
X154471964Y-107799500D01*
X154471961Y-107799500D01*
X154328039Y-107799500D01*
X154328035Y-107799500D01*
X154189949Y-107840046D01*
X154189942Y-107840049D01*
X154068873Y-107917855D01*
X153974622Y-108026628D01*
X153914834Y-108157543D01*
X153894353Y-108299997D01*
X153894353Y-108300002D01*
X153914834Y-108442456D01*
X153959592Y-108540460D01*
X153974623Y-108573373D01*
X154027736Y-108634669D01*
X154068873Y-108682144D01*
X154068875Y-108682145D01*
X154189947Y-108759953D01*
X154296403Y-108791211D01*
X154328035Y-108800499D01*
X154328036Y-108800499D01*
X154328039Y-108800500D01*
X154328041Y-108800500D01*
X154471959Y-108800500D01*
X154471961Y-108800500D01*
X154610053Y-108759953D01*
X154731128Y-108682143D01*
X154772264Y-108634668D01*
X154824660Y-108603073D01*
X154847083Y-108600500D01*
X155339563Y-108600500D01*
X155339563Y-108600499D01*
X155415989Y-108580021D01*
X155484511Y-108540460D01*
X155540460Y-108484511D01*
X156890460Y-107134511D01*
X156930021Y-107065989D01*
X156950500Y-106989562D01*
X156950500Y-92528893D01*
X156969407Y-92470702D01*
X156976741Y-92462711D01*
X156976491Y-92462494D01*
X156981128Y-92457143D01*
X157075377Y-92348373D01*
X157135165Y-92217457D01*
X157155575Y-92075500D01*
X157155647Y-92075002D01*
X157155647Y-92075000D01*
X157152558Y-92053518D01*
X157162990Y-91993228D01*
X157180547Y-91969423D01*
X157245475Y-91904496D01*
X157299992Y-91876719D01*
X157315478Y-91875500D01*
X168677917Y-91875500D01*
X168736108Y-91894407D01*
X168752733Y-91909667D01*
X168793872Y-91957143D01*
X168914947Y-92034953D01*
X168994498Y-92058311D01*
X169053035Y-92075499D01*
X169053036Y-92075499D01*
X169053039Y-92075500D01*
X169053041Y-92075500D01*
X169196959Y-92075500D01*
X169196961Y-92075500D01*
X169335053Y-92034953D01*
X169456128Y-91957143D01*
X169497264Y-91909668D01*
X169549660Y-91878073D01*
X169572083Y-91875500D01*
X175527917Y-91875500D01*
X175586108Y-91894407D01*
X175602733Y-91909667D01*
X175643872Y-91957143D01*
X175764947Y-92034953D01*
X175764949Y-92034953D01*
X175764950Y-92034954D01*
X175773390Y-92037432D01*
X175823897Y-92071967D01*
X175844460Y-92129593D01*
X175844500Y-92132422D01*
X175844500Y-94501105D01*
X175825593Y-94559296D01*
X175818258Y-94567289D01*
X175818509Y-94567506D01*
X175719622Y-94681628D01*
X175659834Y-94812543D01*
X175639353Y-94954997D01*
X175639353Y-94955002D01*
X175659834Y-95097456D01*
X175688174Y-95159511D01*
X175719623Y-95228373D01*
X175792519Y-95312500D01*
X175813873Y-95337144D01*
X175934942Y-95414950D01*
X175934947Y-95414953D01*
X176041403Y-95446211D01*
X176073035Y-95455499D01*
X176073036Y-95455499D01*
X176073039Y-95455500D01*
X176073041Y-95455500D01*
X176216959Y-95455500D01*
X176216961Y-95455500D01*
X176355053Y-95414953D01*
X176476128Y-95337143D01*
X176570377Y-95228373D01*
X176630165Y-95097457D01*
X176638551Y-95039128D01*
X176650647Y-94955002D01*
X176650647Y-94954997D01*
X176630165Y-94812543D01*
X176570377Y-94681628D01*
X176570377Y-94681627D01*
X176476128Y-94572857D01*
X176476127Y-94572856D01*
X176471491Y-94567506D01*
X176473524Y-94565743D01*
X176448067Y-94523505D01*
X176445500Y-94501105D01*
X176445500Y-91771104D01*
X176454448Y-91729975D01*
X176454942Y-91728893D01*
X176460165Y-91717457D01*
X176474889Y-91615046D01*
X176480647Y-91575002D01*
X176480647Y-91574997D01*
X176460165Y-91432543D01*
X176411051Y-91325000D01*
X176400377Y-91301627D01*
X176306128Y-91192857D01*
X176306127Y-91192856D01*
X176306126Y-91192855D01*
X176185057Y-91115049D01*
X176178612Y-91112106D01*
X176179849Y-91109396D01*
X176139903Y-91082047D01*
X176119377Y-91024407D01*
X176136650Y-90965711D01*
X176148329Y-90951641D01*
X177180496Y-89919475D01*
X177235013Y-89891698D01*
X177295445Y-89901269D01*
X177338710Y-89944534D01*
X177349500Y-89989479D01*
X177349500Y-90339564D01*
X177369978Y-90415988D01*
X177369979Y-90415989D01*
X177398557Y-90465487D01*
X177398558Y-90465491D01*
X177398559Y-90465491D01*
X177409538Y-90484508D01*
X177409539Y-90484510D01*
X177789844Y-90864816D01*
X177817621Y-90919332D01*
X177808050Y-90979764D01*
X177794660Y-90999649D01*
X177749623Y-91051626D01*
X177689834Y-91182543D01*
X177669353Y-91324997D01*
X177669353Y-91325002D01*
X177689834Y-91467456D01*
X177738164Y-91573281D01*
X177749623Y-91598373D01*
X177843872Y-91707143D01*
X177843873Y-91707144D01*
X177943397Y-91771104D01*
X177964947Y-91784953D01*
X178071403Y-91816211D01*
X178103035Y-91825499D01*
X178103036Y-91825499D01*
X178103039Y-91825500D01*
X178103041Y-91825500D01*
X178246959Y-91825500D01*
X178246961Y-91825500D01*
X178385053Y-91784953D01*
X178506128Y-91707143D01*
X178600377Y-91598373D01*
X178660165Y-91467457D01*
X178667354Y-91417456D01*
X178680647Y-91325002D01*
X178680647Y-91324997D01*
X178660165Y-91182543D01*
X178649876Y-91160013D01*
X178600377Y-91051627D01*
X178506128Y-90942857D01*
X178506127Y-90942856D01*
X178501491Y-90937506D01*
X178503524Y-90935743D01*
X178478067Y-90893505D01*
X178475500Y-90871105D01*
X178475500Y-90785437D01*
X178475499Y-90785435D01*
X178455021Y-90709011D01*
X178455019Y-90709007D01*
X178415460Y-90640489D01*
X178359511Y-90584539D01*
X178359511Y-90584540D01*
X177979496Y-90204525D01*
X177951719Y-90150008D01*
X177950500Y-90134521D01*
X177950500Y-86411908D01*
X177950499Y-86411906D01*
X177930021Y-86335482D01*
X177930019Y-86335478D01*
X177890460Y-86266960D01*
X177834511Y-86211010D01*
X177834511Y-86211011D01*
X176983040Y-85359540D01*
X176958602Y-85345431D01*
X176958601Y-85345430D01*
X176958600Y-85345430D01*
X176930651Y-85329294D01*
X176914517Y-85319978D01*
X176838093Y-85299500D01*
X176838091Y-85299500D01*
X168897083Y-85299500D01*
X168838892Y-85280593D01*
X168822264Y-85265331D01*
X168781128Y-85217857D01*
X168748182Y-85196684D01*
X168660057Y-85140049D01*
X168660054Y-85140047D01*
X168660053Y-85140047D01*
X168660050Y-85140046D01*
X168521964Y-85099500D01*
X168521961Y-85099500D01*
X168415479Y-85099500D01*
X168357288Y-85080593D01*
X168345475Y-85070504D01*
X168002695Y-84727724D01*
X167659511Y-84384540D01*
X167659508Y-84384538D01*
X167590992Y-84344980D01*
X167590988Y-84344978D01*
X167514564Y-84324500D01*
X167514562Y-84324500D01*
X149760438Y-84324500D01*
X149760435Y-84324500D01*
X149684011Y-84344978D01*
X149684007Y-84344980D01*
X149615489Y-84384539D01*
X149300081Y-84699947D01*
X149245565Y-84727724D01*
X149230078Y-84728943D01*
X149123592Y-84728943D01*
X148985506Y-84769489D01*
X148985504Y-84769490D01*
X148903023Y-84822497D01*
X148843847Y-84838050D01*
X148786831Y-84815852D01*
X148753752Y-84764379D01*
X148750500Y-84739212D01*
X148750500Y-84215937D01*
X148769407Y-84157746D01*
X148818907Y-84121782D01*
X148877389Y-84120947D01*
X148978039Y-84150500D01*
X148978041Y-84150500D01*
X149121959Y-84150500D01*
X149121961Y-84150500D01*
X149260053Y-84109953D01*
X149381128Y-84032143D01*
X149475377Y-83923373D01*
X149535165Y-83792457D01*
X149541992Y-83744971D01*
X149552053Y-83674997D01*
X168544353Y-83674997D01*
X168544353Y-83675002D01*
X168564834Y-83817456D01*
X168624475Y-83948050D01*
X168624623Y-83948373D01*
X168714822Y-84052469D01*
X168718873Y-84057144D01*
X168819432Y-84121769D01*
X168839947Y-84134953D01*
X168917574Y-84157746D01*
X168978035Y-84175499D01*
X168978036Y-84175499D01*
X168978039Y-84175500D01*
X168978041Y-84175500D01*
X169121959Y-84175500D01*
X169121961Y-84175500D01*
X169260053Y-84134953D01*
X169381128Y-84057143D01*
X169475377Y-83948373D01*
X169535165Y-83817457D01*
X169555647Y-83675000D01*
X169554085Y-83664137D01*
X169535165Y-83532543D01*
X169523748Y-83507543D01*
X169475377Y-83401627D01*
X169399680Y-83314267D01*
X169375863Y-83257907D01*
X169375500Y-83249436D01*
X169375500Y-80654708D01*
X169394407Y-80596517D01*
X169443907Y-80560553D01*
X169505093Y-80560553D01*
X169554593Y-80596517D01*
X169569236Y-80625968D01*
X169592604Y-80703001D01*
X169592606Y-80703006D01*
X169680859Y-80868117D01*
X169680862Y-80868122D01*
X169680864Y-80868125D01*
X169706942Y-80899901D01*
X169799638Y-81012852D01*
X169799647Y-81012861D01*
X169854093Y-81057543D01*
X169944375Y-81131636D01*
X169944380Y-81131638D01*
X169944382Y-81131640D01*
X170109493Y-81219893D01*
X170109499Y-81219896D01*
X170288669Y-81274247D01*
X170288671Y-81274247D01*
X170288674Y-81274248D01*
X170474996Y-81292599D01*
X170475000Y-81292599D01*
X170475004Y-81292599D01*
X170661325Y-81274248D01*
X170661326Y-81274247D01*
X170661331Y-81274247D01*
X170840501Y-81219896D01*
X171005625Y-81131636D01*
X171150357Y-81012857D01*
X171180090Y-80976628D01*
X171223121Y-80924195D01*
X171274652Y-80891208D01*
X171299649Y-80888000D01*
X173837851Y-80888000D01*
X173896042Y-80906907D01*
X173914379Y-80924195D01*
X173987138Y-81012852D01*
X173987147Y-81012861D01*
X174041593Y-81057543D01*
X174131875Y-81131636D01*
X174131880Y-81131638D01*
X174131882Y-81131640D01*
X174296993Y-81219893D01*
X174296999Y-81219896D01*
X174476169Y-81274247D01*
X174476171Y-81274247D01*
X174476174Y-81274248D01*
X174662496Y-81292599D01*
X174662500Y-81292599D01*
X174662504Y-81292599D01*
X174848825Y-81274248D01*
X174848826Y-81274247D01*
X174848831Y-81274247D01*
X175028001Y-81219896D01*
X175193125Y-81131636D01*
X175337857Y-81012857D01*
X175456636Y-80868125D01*
X175544896Y-80703001D01*
X175599247Y-80523831D01*
X175609246Y-80422316D01*
X175617599Y-80337504D01*
X175617599Y-80337495D01*
X175599248Y-80151174D01*
X175599247Y-80151171D01*
X175599247Y-80151169D01*
X175544896Y-79971999D01*
X175456636Y-79806875D01*
X175393255Y-79729645D01*
X175337861Y-79662147D01*
X175337852Y-79662138D01*
X175253478Y-79592895D01*
X175193125Y-79543364D01*
X175193122Y-79543362D01*
X175193117Y-79543359D01*
X175028006Y-79455106D01*
X175028004Y-79455105D01*
X174848828Y-79400752D01*
X174848825Y-79400751D01*
X174662504Y-79382401D01*
X174662496Y-79382401D01*
X174476174Y-79400751D01*
X174476171Y-79400752D01*
X174296995Y-79455105D01*
X174296993Y-79455106D01*
X174131882Y-79543359D01*
X174131876Y-79543363D01*
X173987147Y-79662138D01*
X173987138Y-79662147D01*
X173914379Y-79750805D01*
X173862848Y-79783792D01*
X173837851Y-79787000D01*
X171299649Y-79787000D01*
X171241458Y-79768093D01*
X171223121Y-79750805D01*
X171150361Y-79662147D01*
X171150352Y-79662138D01*
X171065978Y-79592895D01*
X171005625Y-79543364D01*
X171005622Y-79543362D01*
X171005617Y-79543359D01*
X170840506Y-79455106D01*
X170840504Y-79455105D01*
X170661328Y-79400752D01*
X170661325Y-79400751D01*
X170475004Y-79382401D01*
X170474996Y-79382401D01*
X170288674Y-79400751D01*
X170288671Y-79400752D01*
X170109495Y-79455105D01*
X170109493Y-79455106D01*
X169944382Y-79543359D01*
X169944376Y-79543363D01*
X169799647Y-79662138D01*
X169799638Y-79662147D01*
X169680863Y-79806876D01*
X169680859Y-79806882D01*
X169592606Y-79971993D01*
X169592605Y-79971995D01*
X169569237Y-80049030D01*
X169534252Y-80099226D01*
X169476443Y-80119272D01*
X169417893Y-80101510D01*
X169380964Y-80052726D01*
X169375500Y-80020291D01*
X169375500Y-76425834D01*
X169394407Y-76367643D01*
X169404490Y-76355836D01*
X170913229Y-74847096D01*
X170967744Y-74819321D01*
X171028176Y-74828892D01*
X171030349Y-74830034D01*
X171135489Y-74886932D01*
X171135492Y-74886934D01*
X171135495Y-74886935D01*
X171135497Y-74886936D01*
X171355019Y-74962298D01*
X171583951Y-75000500D01*
X171816049Y-75000500D01*
X172044981Y-74962298D01*
X172264503Y-74886936D01*
X172468626Y-74776470D01*
X172651784Y-74633913D01*
X172808979Y-74463153D01*
X172935924Y-74268849D01*
X173029157Y-74056300D01*
X173086134Y-73831305D01*
X173105300Y-73600000D01*
X173794700Y-73600000D01*
X173813865Y-73831303D01*
X173831262Y-73899999D01*
X173870843Y-74056300D01*
X173964076Y-74268849D01*
X174091021Y-74463153D01*
X174248216Y-74633913D01*
X174431374Y-74776470D01*
X174537933Y-74834137D01*
X174635489Y-74886932D01*
X174635497Y-74886936D01*
X174855019Y-74962298D01*
X175083951Y-75000500D01*
X175316049Y-75000500D01*
X175544981Y-74962298D01*
X175764503Y-74886936D01*
X175968626Y-74776470D01*
X176151784Y-74633913D01*
X176308979Y-74463153D01*
X176435924Y-74268849D01*
X176529157Y-74056300D01*
X176586134Y-73831305D01*
X176605300Y-73600000D01*
X177294700Y-73600000D01*
X177313865Y-73831303D01*
X177331262Y-73899999D01*
X177370843Y-74056300D01*
X177464076Y-74268849D01*
X177591021Y-74463153D01*
X177748216Y-74633913D01*
X177931374Y-74776470D01*
X178037933Y-74834137D01*
X178135489Y-74886932D01*
X178135497Y-74886936D01*
X178355019Y-74962298D01*
X178583951Y-75000500D01*
X178816049Y-75000500D01*
X179044981Y-74962298D01*
X179264503Y-74886936D01*
X179468626Y-74776470D01*
X179651784Y-74633913D01*
X179808979Y-74463153D01*
X179935924Y-74268849D01*
X180029157Y-74056300D01*
X180086134Y-73831305D01*
X180105300Y-73600000D01*
X180086134Y-73368695D01*
X180029157Y-73143700D01*
X179935924Y-72931151D01*
X179808979Y-72736847D01*
X179651784Y-72566087D01*
X179566233Y-72499500D01*
X179468629Y-72423532D01*
X179468626Y-72423530D01*
X179388658Y-72380253D01*
X180799500Y-72380253D01*
X180799500Y-74819746D01*
X180799501Y-74819758D01*
X180811132Y-74878227D01*
X180811134Y-74878233D01*
X180855445Y-74944548D01*
X180855448Y-74944552D01*
X180921769Y-74988867D01*
X180966231Y-74997711D01*
X180980241Y-75000498D01*
X180980246Y-75000498D01*
X180980252Y-75000500D01*
X181775500Y-75000500D01*
X181833691Y-75019407D01*
X181869655Y-75068907D01*
X181874500Y-75099500D01*
X181874500Y-80824436D01*
X181855593Y-80882627D01*
X181850320Y-80889267D01*
X181774622Y-80976628D01*
X181714834Y-81107543D01*
X181694353Y-81249997D01*
X181694353Y-81250002D01*
X181714834Y-81392456D01*
X181766659Y-81505934D01*
X181774623Y-81523373D01*
X181825548Y-81582144D01*
X181868873Y-81632144D01*
X181980612Y-81703954D01*
X181989947Y-81709953D01*
X182096403Y-81741211D01*
X182128035Y-81750499D01*
X182128036Y-81750499D01*
X182128039Y-81750500D01*
X182128041Y-81750500D01*
X182271959Y-81750500D01*
X182271961Y-81750500D01*
X182410053Y-81709953D01*
X182531128Y-81632143D01*
X182625377Y-81523373D01*
X182685165Y-81392457D01*
X182705647Y-81250000D01*
X182701318Y-81219894D01*
X182685165Y-81107543D01*
X182679010Y-81094065D01*
X182625377Y-80976627D01*
X182549680Y-80889267D01*
X182525863Y-80832907D01*
X182525500Y-80824436D01*
X182525500Y-75099500D01*
X182544407Y-75041309D01*
X182593907Y-75005345D01*
X182624500Y-75000500D01*
X183419747Y-75000500D01*
X183419748Y-75000500D01*
X183478231Y-74988867D01*
X183544552Y-74944552D01*
X183588867Y-74878231D01*
X183600500Y-74819748D01*
X183600500Y-72380252D01*
X183588867Y-72321769D01*
X183544552Y-72255448D01*
X183517994Y-72237702D01*
X183478233Y-72211134D01*
X183478231Y-72211133D01*
X183478228Y-72211132D01*
X183478227Y-72211132D01*
X183419758Y-72199501D01*
X183419748Y-72199500D01*
X180980252Y-72199500D01*
X180980251Y-72199500D01*
X180980241Y-72199501D01*
X180921772Y-72211132D01*
X180921766Y-72211134D01*
X180855451Y-72255445D01*
X180855445Y-72255451D01*
X180811134Y-72321766D01*
X180811132Y-72321772D01*
X180799501Y-72380241D01*
X180799500Y-72380253D01*
X179388658Y-72380253D01*
X179264506Y-72313065D01*
X179206778Y-72293247D01*
X179044981Y-72237702D01*
X179044978Y-72237701D01*
X179044977Y-72237701D01*
X178816049Y-72199500D01*
X178583951Y-72199500D01*
X178355022Y-72237701D01*
X178135493Y-72313065D01*
X177931373Y-72423530D01*
X177931370Y-72423532D01*
X177748219Y-72566084D01*
X177748216Y-72566086D01*
X177748216Y-72566087D01*
X177656163Y-72666084D01*
X177591020Y-72736848D01*
X177552287Y-72796134D01*
X177464076Y-72931151D01*
X177431095Y-73006341D01*
X177370843Y-73143701D01*
X177313865Y-73368696D01*
X177294700Y-73600000D01*
X176605300Y-73600000D01*
X176586134Y-73368695D01*
X176529157Y-73143700D01*
X176435924Y-72931151D01*
X176308979Y-72736847D01*
X176151784Y-72566087D01*
X176066233Y-72499500D01*
X175968629Y-72423532D01*
X175968626Y-72423530D01*
X175764506Y-72313065D01*
X175706778Y-72293247D01*
X175544981Y-72237702D01*
X175544978Y-72237701D01*
X175544977Y-72237701D01*
X175316049Y-72199500D01*
X175083951Y-72199500D01*
X174855022Y-72237701D01*
X174635493Y-72313065D01*
X174431373Y-72423530D01*
X174431370Y-72423532D01*
X174248219Y-72566084D01*
X174248216Y-72566086D01*
X174248216Y-72566087D01*
X174156163Y-72666084D01*
X174091020Y-72736848D01*
X174052287Y-72796134D01*
X173964076Y-72931151D01*
X173931095Y-73006341D01*
X173870843Y-73143701D01*
X173813865Y-73368696D01*
X173794700Y-73600000D01*
X173105300Y-73600000D01*
X173086134Y-73368695D01*
X173029157Y-73143700D01*
X172935924Y-72931151D01*
X172808979Y-72736847D01*
X172651784Y-72566087D01*
X172566233Y-72499500D01*
X172468629Y-72423532D01*
X172468626Y-72423530D01*
X172264506Y-72313065D01*
X172206778Y-72293247D01*
X172044981Y-72237702D01*
X172044978Y-72237701D01*
X172044977Y-72237701D01*
X171816049Y-72199500D01*
X171583951Y-72199500D01*
X171355022Y-72237701D01*
X171135493Y-72313065D01*
X170931373Y-72423530D01*
X170931370Y-72423532D01*
X170748219Y-72566084D01*
X170748216Y-72566086D01*
X170748216Y-72566087D01*
X170656163Y-72666084D01*
X170591020Y-72736848D01*
X170552287Y-72796134D01*
X170464076Y-72931151D01*
X170431095Y-73006341D01*
X170370843Y-73143701D01*
X170313865Y-73368696D01*
X170294700Y-73600000D01*
X170313865Y-73831303D01*
X170331262Y-73899999D01*
X170370843Y-74056300D01*
X170414707Y-74156300D01*
X170464075Y-74268848D01*
X170466023Y-74272446D01*
X170464271Y-74273394D01*
X170478282Y-74325215D01*
X170456484Y-74382386D01*
X170449410Y-74390261D01*
X168789532Y-76050141D01*
X168789531Y-76050142D01*
X168746682Y-76124360D01*
X168746681Y-76124360D01*
X168746682Y-76124361D01*
X168724500Y-76207147D01*
X168724500Y-83249436D01*
X168705593Y-83307627D01*
X168700320Y-83314267D01*
X168624622Y-83401628D01*
X168564834Y-83532543D01*
X168544353Y-83674997D01*
X149552053Y-83674997D01*
X149555647Y-83650002D01*
X149555647Y-83649997D01*
X149535165Y-83507543D01*
X149506377Y-83444507D01*
X149475377Y-83376627D01*
X149408599Y-83299560D01*
X149399680Y-83289267D01*
X149375863Y-83232907D01*
X149375500Y-83224436D01*
X149375500Y-80337495D01*
X149644901Y-80337495D01*
X149644901Y-80337504D01*
X149663251Y-80523825D01*
X149663252Y-80523828D01*
X149717605Y-80703004D01*
X149717606Y-80703006D01*
X149805859Y-80868117D01*
X149805862Y-80868122D01*
X149805864Y-80868125D01*
X149831942Y-80899901D01*
X149924638Y-81012852D01*
X149924647Y-81012861D01*
X149979093Y-81057543D01*
X150069375Y-81131636D01*
X150069380Y-81131638D01*
X150069382Y-81131640D01*
X150234493Y-81219893D01*
X150234499Y-81219896D01*
X150413669Y-81274247D01*
X150413671Y-81274247D01*
X150413674Y-81274248D01*
X150599996Y-81292599D01*
X150600000Y-81292599D01*
X150600004Y-81292599D01*
X150786325Y-81274248D01*
X150786326Y-81274247D01*
X150786331Y-81274247D01*
X150965501Y-81219896D01*
X151130625Y-81131636D01*
X151275357Y-81012857D01*
X151305090Y-80976628D01*
X151348121Y-80924195D01*
X151399652Y-80891208D01*
X151424649Y-80888000D01*
X153987851Y-80888000D01*
X154046042Y-80906907D01*
X154064379Y-80924195D01*
X154137138Y-81012852D01*
X154137147Y-81012861D01*
X154191593Y-81057543D01*
X154281875Y-81131636D01*
X154281880Y-81131638D01*
X154281882Y-81131640D01*
X154446993Y-81219893D01*
X154446999Y-81219896D01*
X154626169Y-81274247D01*
X154626171Y-81274247D01*
X154626174Y-81274248D01*
X154812496Y-81292599D01*
X154812500Y-81292599D01*
X154812504Y-81292599D01*
X154998825Y-81274248D01*
X154998826Y-81274247D01*
X154998831Y-81274247D01*
X155178001Y-81219896D01*
X155343125Y-81131636D01*
X155487857Y-81012857D01*
X155606636Y-80868125D01*
X155694896Y-80703001D01*
X155749247Y-80523831D01*
X155759246Y-80422316D01*
X155767599Y-80337504D01*
X155767599Y-80337495D01*
X155749248Y-80151174D01*
X155749247Y-80151171D01*
X155749247Y-80151169D01*
X155694896Y-79971999D01*
X155606636Y-79806875D01*
X155543255Y-79729645D01*
X155487861Y-79662147D01*
X155487852Y-79662138D01*
X155403478Y-79592895D01*
X155343125Y-79543364D01*
X155343122Y-79543362D01*
X155343117Y-79543359D01*
X155178006Y-79455106D01*
X155178004Y-79455105D01*
X154998828Y-79400752D01*
X154998825Y-79400751D01*
X154812504Y-79382401D01*
X154812496Y-79382401D01*
X154626174Y-79400751D01*
X154626171Y-79400752D01*
X154446995Y-79455105D01*
X154446993Y-79455106D01*
X154281882Y-79543359D01*
X154281876Y-79543363D01*
X154137147Y-79662138D01*
X154137138Y-79662147D01*
X154064379Y-79750805D01*
X154012848Y-79783792D01*
X153987851Y-79787000D01*
X151424649Y-79787000D01*
X151366458Y-79768093D01*
X151348121Y-79750805D01*
X151275361Y-79662147D01*
X151275352Y-79662138D01*
X151190978Y-79592895D01*
X151130625Y-79543364D01*
X151130622Y-79543362D01*
X151130617Y-79543359D01*
X150965506Y-79455106D01*
X150965504Y-79455105D01*
X150786328Y-79400752D01*
X150786325Y-79400751D01*
X150600004Y-79382401D01*
X150599996Y-79382401D01*
X150413674Y-79400751D01*
X150413671Y-79400752D01*
X150234495Y-79455105D01*
X150234493Y-79455106D01*
X150069382Y-79543359D01*
X150069376Y-79543363D01*
X149924647Y-79662138D01*
X149924638Y-79662147D01*
X149805863Y-79806876D01*
X149805859Y-79806882D01*
X149717606Y-79971993D01*
X149717605Y-79971995D01*
X149663252Y-80151171D01*
X149663251Y-80151174D01*
X149644901Y-80337495D01*
X149375500Y-80337495D01*
X149375500Y-76725833D01*
X149394407Y-76667642D01*
X149404490Y-76655835D01*
X151113229Y-74947095D01*
X151167744Y-74919320D01*
X151228176Y-74928891D01*
X151230350Y-74930033D01*
X151332281Y-74985196D01*
X151335497Y-74986936D01*
X151555019Y-75062298D01*
X151783951Y-75100500D01*
X152016049Y-75100500D01*
X152244981Y-75062298D01*
X152464503Y-74986936D01*
X152668626Y-74876470D01*
X152851784Y-74733913D01*
X153008979Y-74563153D01*
X153135924Y-74368849D01*
X153229157Y-74156300D01*
X153286134Y-73931305D01*
X153305300Y-73700000D01*
X153994700Y-73700000D01*
X154013865Y-73931303D01*
X154013866Y-73931305D01*
X154070843Y-74156300D01*
X154164076Y-74368849D01*
X154291021Y-74563153D01*
X154448216Y-74733913D01*
X154631374Y-74876470D01*
X154730350Y-74930033D01*
X154832281Y-74985196D01*
X154835497Y-74986936D01*
X155055019Y-75062298D01*
X155283951Y-75100500D01*
X155516049Y-75100500D01*
X155744981Y-75062298D01*
X155964503Y-74986936D01*
X156168626Y-74876470D01*
X156351784Y-74733913D01*
X156508979Y-74563153D01*
X156635924Y-74368849D01*
X156729157Y-74156300D01*
X156786134Y-73931305D01*
X156805300Y-73700000D01*
X157494700Y-73700000D01*
X157513865Y-73931303D01*
X157513866Y-73931305D01*
X157570843Y-74156300D01*
X157664076Y-74368849D01*
X157791021Y-74563153D01*
X157948216Y-74733913D01*
X158131374Y-74876470D01*
X158230350Y-74930033D01*
X158332281Y-74985196D01*
X158335497Y-74986936D01*
X158555019Y-75062298D01*
X158783951Y-75100500D01*
X159016049Y-75100500D01*
X159244981Y-75062298D01*
X159464503Y-74986936D01*
X159668626Y-74876470D01*
X159851784Y-74733913D01*
X160008979Y-74563153D01*
X160135924Y-74368849D01*
X160229157Y-74156300D01*
X160286134Y-73931305D01*
X160305300Y-73700000D01*
X160286134Y-73468695D01*
X160229157Y-73243700D01*
X160135924Y-73031151D01*
X160008979Y-72836847D01*
X159851784Y-72666087D01*
X159789369Y-72617508D01*
X159668629Y-72523532D01*
X159668626Y-72523530D01*
X159588658Y-72480253D01*
X160999500Y-72480253D01*
X160999500Y-74919746D01*
X160999501Y-74919758D01*
X161011132Y-74978227D01*
X161011134Y-74978233D01*
X161053281Y-75041309D01*
X161055448Y-75044552D01*
X161121769Y-75088867D01*
X161166231Y-75097711D01*
X161180241Y-75100498D01*
X161180246Y-75100498D01*
X161180252Y-75100500D01*
X161975500Y-75100500D01*
X162033691Y-75119407D01*
X162069655Y-75168907D01*
X162074500Y-75199500D01*
X162074500Y-80774436D01*
X162055593Y-80832627D01*
X162050320Y-80839267D01*
X161974622Y-80926628D01*
X161914834Y-81057543D01*
X161894353Y-81199997D01*
X161894353Y-81200002D01*
X161914834Y-81342456D01*
X161952532Y-81425001D01*
X161974623Y-81473373D01*
X162017948Y-81523373D01*
X162068873Y-81582144D01*
X162146675Y-81632144D01*
X162189947Y-81659953D01*
X162296403Y-81691211D01*
X162328035Y-81700499D01*
X162328036Y-81700499D01*
X162328039Y-81700500D01*
X162328041Y-81700500D01*
X162471959Y-81700500D01*
X162471961Y-81700500D01*
X162610053Y-81659953D01*
X162731128Y-81582143D01*
X162825377Y-81473373D01*
X162885165Y-81342457D01*
X162900734Y-81234174D01*
X162905647Y-81200002D01*
X162905647Y-81199997D01*
X162885165Y-81057543D01*
X162864755Y-81012852D01*
X162825377Y-80926627D01*
X162749680Y-80839267D01*
X162725863Y-80782907D01*
X162725500Y-80774436D01*
X162725500Y-75199500D01*
X162744407Y-75141309D01*
X162793907Y-75105345D01*
X162824500Y-75100500D01*
X163619747Y-75100500D01*
X163619748Y-75100500D01*
X163678231Y-75088867D01*
X163744552Y-75044552D01*
X163788867Y-74978231D01*
X163800500Y-74919748D01*
X163800500Y-72480252D01*
X163788867Y-72421769D01*
X163744552Y-72355448D01*
X163718440Y-72338000D01*
X163678233Y-72311134D01*
X163678231Y-72311133D01*
X163678228Y-72311132D01*
X163678227Y-72311132D01*
X163619758Y-72299501D01*
X163619748Y-72299500D01*
X161180252Y-72299500D01*
X161180251Y-72299500D01*
X161180241Y-72299501D01*
X161121772Y-72311132D01*
X161121766Y-72311134D01*
X161055451Y-72355445D01*
X161055445Y-72355451D01*
X161011134Y-72421766D01*
X161011132Y-72421772D01*
X160999501Y-72480241D01*
X160999500Y-72480253D01*
X159588658Y-72480253D01*
X159464506Y-72413065D01*
X159448221Y-72407474D01*
X159244981Y-72337702D01*
X159244978Y-72337701D01*
X159244977Y-72337701D01*
X159016049Y-72299500D01*
X158783951Y-72299500D01*
X158555022Y-72337701D01*
X158335493Y-72413065D01*
X158131373Y-72523530D01*
X158131370Y-72523532D01*
X157948219Y-72666084D01*
X157948216Y-72666086D01*
X157948216Y-72666087D01*
X157791021Y-72836847D01*
X157664076Y-73031151D01*
X157570843Y-73243700D01*
X157560276Y-73285428D01*
X157513865Y-73468696D01*
X157494700Y-73700000D01*
X156805300Y-73700000D01*
X156786134Y-73468695D01*
X156729157Y-73243700D01*
X156635924Y-73031151D01*
X156508979Y-72836847D01*
X156351784Y-72666087D01*
X156289369Y-72617508D01*
X156168629Y-72523532D01*
X156168626Y-72523530D01*
X155964506Y-72413065D01*
X155948221Y-72407474D01*
X155744981Y-72337702D01*
X155744978Y-72337701D01*
X155744977Y-72337701D01*
X155516049Y-72299500D01*
X155283951Y-72299500D01*
X155055022Y-72337701D01*
X154835493Y-72413065D01*
X154631373Y-72523530D01*
X154631370Y-72523532D01*
X154448219Y-72666084D01*
X154448216Y-72666086D01*
X154448216Y-72666087D01*
X154291021Y-72836847D01*
X154164076Y-73031151D01*
X154070843Y-73243700D01*
X154060276Y-73285428D01*
X154013865Y-73468696D01*
X153994700Y-73700000D01*
X153305300Y-73700000D01*
X153286134Y-73468695D01*
X153229157Y-73243700D01*
X153135924Y-73031151D01*
X153008979Y-72836847D01*
X152851784Y-72666087D01*
X152789369Y-72617508D01*
X152668629Y-72523532D01*
X152668626Y-72523530D01*
X152464506Y-72413065D01*
X152448221Y-72407474D01*
X152244981Y-72337702D01*
X152244978Y-72337701D01*
X152244977Y-72337701D01*
X152016049Y-72299500D01*
X151783951Y-72299500D01*
X151555022Y-72337701D01*
X151335493Y-72413065D01*
X151131373Y-72523530D01*
X151131370Y-72523532D01*
X150948219Y-72666084D01*
X150948216Y-72666086D01*
X150948216Y-72666087D01*
X150791021Y-72836847D01*
X150664076Y-73031151D01*
X150570843Y-73243700D01*
X150560276Y-73285428D01*
X150513865Y-73468696D01*
X150494700Y-73700000D01*
X150513865Y-73931303D01*
X150513866Y-73931305D01*
X150570843Y-74156300D01*
X150620211Y-74268848D01*
X150664075Y-74368848D01*
X150666023Y-74372446D01*
X150664271Y-74373394D01*
X150678282Y-74425215D01*
X150656484Y-74482386D01*
X150649410Y-74490261D01*
X148827325Y-76312347D01*
X148772808Y-76340124D01*
X148712376Y-76330553D01*
X148687320Y-76312349D01*
X145644511Y-73269540D01*
X145644508Y-73269538D01*
X145575992Y-73229980D01*
X145575988Y-73229978D01*
X145499564Y-73209500D01*
X145499562Y-73209500D01*
X136349500Y-73209500D01*
X136291309Y-73190593D01*
X136255345Y-73141093D01*
X136250500Y-73110500D01*
X136250500Y-72965253D01*
X136250498Y-72965241D01*
X136243717Y-72931151D01*
X136238867Y-72906769D01*
X136194552Y-72840448D01*
X136194548Y-72840445D01*
X136128233Y-72796134D01*
X136128231Y-72796133D01*
X136128228Y-72796132D01*
X136128227Y-72796132D01*
X136069758Y-72784501D01*
X136069748Y-72784500D01*
X134530252Y-72784500D01*
X134530251Y-72784500D01*
X134530241Y-72784501D01*
X134471772Y-72796132D01*
X134471766Y-72796134D01*
X134405451Y-72840445D01*
X134405445Y-72840451D01*
X134361134Y-72906766D01*
X134361132Y-72906772D01*
X134349501Y-72965241D01*
X134349500Y-72965253D01*
X134349500Y-74054746D01*
X134349501Y-74054758D01*
X134355380Y-74084310D01*
X134361133Y-74113231D01*
X134405448Y-74179552D01*
X134460162Y-74216111D01*
X134498041Y-74264161D01*
X134500443Y-74325299D01*
X134487476Y-74353427D01*
X134477174Y-74368846D01*
X134432635Y-74435502D01*
X134384587Y-74473381D01*
X134350321Y-74479500D01*
X134330435Y-74479500D01*
X134254011Y-74499978D01*
X134254007Y-74499980D01*
X134185489Y-74539539D01*
X133762725Y-74962303D01*
X133723166Y-75030821D01*
X133723164Y-75030825D01*
X133702686Y-75107249D01*
X133702686Y-91723021D01*
X133683779Y-91781212D01*
X133634279Y-91817176D01*
X133573093Y-91817176D01*
X133533682Y-91793025D01*
X126249496Y-84508839D01*
X126221719Y-84454322D01*
X126220500Y-84438835D01*
X126220500Y-82380037D01*
X126239407Y-82321846D01*
X126288907Y-82285882D01*
X126290739Y-82285307D01*
X126323954Y-82275232D01*
X126506450Y-82177685D01*
X126666410Y-82046410D01*
X126797685Y-81886450D01*
X126895232Y-81703954D01*
X126955300Y-81505934D01*
X126955301Y-81505929D01*
X126975583Y-81300003D01*
X126975583Y-81299996D01*
X126955301Y-81094070D01*
X126955300Y-81094065D01*
X126919676Y-80976628D01*
X126895232Y-80896046D01*
X126797685Y-80713550D01*
X126789030Y-80703004D01*
X126666414Y-80553595D01*
X126666410Y-80553590D01*
X126666404Y-80553585D01*
X126506452Y-80422316D01*
X126323954Y-80324768D01*
X126125934Y-80264699D01*
X126125929Y-80264698D01*
X125920003Y-80244417D01*
X125919997Y-80244417D01*
X125714070Y-80264698D01*
X125714065Y-80264699D01*
X125516045Y-80324768D01*
X125333547Y-80422316D01*
X125173595Y-80553585D01*
X125173585Y-80553595D01*
X125042316Y-80713547D01*
X124944768Y-80896045D01*
X124884699Y-81094065D01*
X124884698Y-81094070D01*
X124864417Y-81299996D01*
X124864417Y-81300003D01*
X124884698Y-81505929D01*
X124884699Y-81505934D01*
X124944768Y-81703954D01*
X125042316Y-81886452D01*
X125166283Y-82037506D01*
X125173590Y-82046410D01*
X125173595Y-82046414D01*
X125333547Y-82177683D01*
X125333548Y-82177683D01*
X125333550Y-82177685D01*
X125516046Y-82275232D01*
X125549237Y-82285300D01*
X125599434Y-82320284D01*
X125619481Y-82378092D01*
X125619500Y-82380037D01*
X125619500Y-84305521D01*
X125600593Y-84363712D01*
X125551093Y-84399676D01*
X125489907Y-84399676D01*
X125450496Y-84375525D01*
X123709496Y-82634525D01*
X123681719Y-82580008D01*
X123680500Y-82564521D01*
X123680500Y-82380037D01*
X123699407Y-82321846D01*
X123748907Y-82285882D01*
X123750739Y-82285307D01*
X123783954Y-82275232D01*
X123966450Y-82177685D01*
X124126410Y-82046410D01*
X124257685Y-81886450D01*
X124355232Y-81703954D01*
X124415300Y-81505934D01*
X124415301Y-81505929D01*
X124435583Y-81300003D01*
X124435583Y-81299996D01*
X124415301Y-81094070D01*
X124415300Y-81094065D01*
X124379676Y-80976628D01*
X124355232Y-80896046D01*
X124257685Y-80713550D01*
X124249030Y-80703004D01*
X124126414Y-80553595D01*
X124126410Y-80553590D01*
X124126404Y-80553585D01*
X123966452Y-80422316D01*
X123783954Y-80324768D01*
X123585934Y-80264699D01*
X123585929Y-80264698D01*
X123380003Y-80244417D01*
X123379997Y-80244417D01*
X123174070Y-80264698D01*
X123174065Y-80264699D01*
X122976045Y-80324768D01*
X122793547Y-80422316D01*
X122633595Y-80553585D01*
X122633585Y-80553595D01*
X122502316Y-80713547D01*
X122404768Y-80896045D01*
X122344699Y-81094065D01*
X122344698Y-81094070D01*
X122324417Y-81299996D01*
X121895583Y-81299996D01*
X121875301Y-81094070D01*
X121875300Y-81094065D01*
X121839676Y-80976628D01*
X121815232Y-80896046D01*
X121717685Y-80713550D01*
X121709030Y-80703004D01*
X121586414Y-80553595D01*
X121586410Y-80553590D01*
X121586404Y-80553585D01*
X121426452Y-80422316D01*
X121243954Y-80324768D01*
X121045934Y-80264699D01*
X121045929Y-80264698D01*
X120840003Y-80244417D01*
X120839997Y-80244417D01*
X120634070Y-80264698D01*
X120634065Y-80264699D01*
X120436045Y-80324768D01*
X120253547Y-80422316D01*
X120093595Y-80553585D01*
X120093585Y-80553595D01*
X119962316Y-80713547D01*
X119864768Y-80896045D01*
X119804699Y-81094065D01*
X119804698Y-81094070D01*
X119784417Y-81299996D01*
X119784417Y-81300003D01*
X119804698Y-81505929D01*
X119804699Y-81505934D01*
X119864768Y-81703954D01*
X119962316Y-81886452D01*
X120086283Y-82037506D01*
X120093590Y-82046410D01*
X120093595Y-82046414D01*
X120253547Y-82177683D01*
X120253548Y-82177683D01*
X120253550Y-82177685D01*
X120436046Y-82275232D01*
X120469237Y-82285300D01*
X120519434Y-82320284D01*
X120539481Y-82378092D01*
X120539500Y-82380037D01*
X120539500Y-83094521D01*
X120520593Y-83152712D01*
X120510504Y-83164525D01*
X114654525Y-89020504D01*
X114600008Y-89048281D01*
X114584521Y-89049500D01*
X101897083Y-89049500D01*
X101838892Y-89030593D01*
X101822264Y-89015331D01*
X101781128Y-88967857D01*
X101698954Y-88915047D01*
X101660057Y-88890049D01*
X101660054Y-88890047D01*
X101660053Y-88890047D01*
X101660050Y-88890046D01*
X101521964Y-88849500D01*
X101521961Y-88849500D01*
X101378039Y-88849500D01*
X101378035Y-88849500D01*
X101239949Y-88890046D01*
X101239942Y-88890049D01*
X101118873Y-88967855D01*
X101024622Y-89076628D01*
X100964834Y-89207543D01*
X100944353Y-89349997D01*
X99500500Y-89349997D01*
X99500500Y-84180253D01*
X102999500Y-84180253D01*
X102999500Y-86219746D01*
X102999501Y-86219758D01*
X103011132Y-86278227D01*
X103011134Y-86278233D01*
X103055445Y-86344548D01*
X103055448Y-86344552D01*
X103055451Y-86344554D01*
X103108853Y-86380237D01*
X103121769Y-86388867D01*
X103166231Y-86397711D01*
X103180241Y-86400498D01*
X103180246Y-86400498D01*
X103180252Y-86400500D01*
X103180253Y-86400500D01*
X105219747Y-86400500D01*
X105219748Y-86400500D01*
X105278231Y-86388867D01*
X105344552Y-86344552D01*
X105388867Y-86278231D01*
X105400500Y-86219748D01*
X105400500Y-84180252D01*
X105388867Y-84121769D01*
X105344552Y-84055448D01*
X105309676Y-84032144D01*
X105278233Y-84011134D01*
X105278231Y-84011133D01*
X105278228Y-84011132D01*
X105278227Y-84011132D01*
X105219758Y-83999501D01*
X105219748Y-83999500D01*
X103180252Y-83999500D01*
X103180251Y-83999500D01*
X103180241Y-83999501D01*
X103121772Y-84011132D01*
X103121766Y-84011134D01*
X103055451Y-84055445D01*
X103055445Y-84055451D01*
X103011134Y-84121766D01*
X103011132Y-84121772D01*
X102999501Y-84180241D01*
X102999500Y-84180253D01*
X99500500Y-84180253D01*
X99500500Y-80425375D01*
X117200000Y-80425375D01*
X117200000Y-81174999D01*
X117200001Y-81175000D01*
X117815856Y-81175000D01*
X117800000Y-81234174D01*
X117800000Y-81365826D01*
X117815856Y-81425000D01*
X117200001Y-81425000D01*
X117200000Y-81425001D01*
X117200000Y-82174624D01*
X117214506Y-82247546D01*
X117214507Y-82247548D01*
X117269758Y-82330237D01*
X117269762Y-82330241D01*
X117352451Y-82385492D01*
X117352453Y-82385493D01*
X117425375Y-82399999D01*
X117425377Y-82400000D01*
X118174999Y-82400000D01*
X118175000Y-82399999D01*
X118175000Y-81784144D01*
X118234174Y-81800000D01*
X118365826Y-81800000D01*
X118425000Y-81784144D01*
X118425000Y-82399999D01*
X118425001Y-82400000D01*
X119174623Y-82400000D01*
X119174624Y-82399999D01*
X119247546Y-82385493D01*
X119247548Y-82385492D01*
X119330237Y-82330241D01*
X119330241Y-82330237D01*
X119385492Y-82247548D01*
X119385493Y-82247546D01*
X119399999Y-82174624D01*
X119400000Y-82174622D01*
X119400000Y-81425001D01*
X119399999Y-81425000D01*
X118784144Y-81425000D01*
X118800000Y-81365826D01*
X118800000Y-81234174D01*
X118784144Y-81175000D01*
X119399999Y-81175000D01*
X119400000Y-81174999D01*
X119400000Y-80425377D01*
X119399999Y-80425375D01*
X119385493Y-80352453D01*
X119385492Y-80352451D01*
X119330241Y-80269762D01*
X119330237Y-80269758D01*
X119247548Y-80214507D01*
X119247546Y-80214506D01*
X119174624Y-80200000D01*
X118425001Y-80200000D01*
X118425000Y-80200001D01*
X118425000Y-80815855D01*
X118365826Y-80800000D01*
X118234174Y-80800000D01*
X118175000Y-80815855D01*
X118175000Y-80200001D01*
X118174999Y-80200000D01*
X117425375Y-80200000D01*
X117352453Y-80214506D01*
X117352451Y-80214507D01*
X117269762Y-80269758D01*
X117269758Y-80269762D01*
X117214507Y-80352451D01*
X117214506Y-80352453D01*
X117200000Y-80425375D01*
X99500500Y-80425375D01*
X99500500Y-73002435D01*
X99500560Y-73000000D01*
X100994390Y-73000000D01*
X101014803Y-73285422D01*
X101014803Y-73285425D01*
X101014804Y-73285428D01*
X101068354Y-73531592D01*
X101075632Y-73565050D01*
X101175633Y-73833162D01*
X101175634Y-73833164D01*
X101308657Y-74076776D01*
X101312774Y-74084315D01*
X101411435Y-74216111D01*
X101450913Y-74268848D01*
X101484261Y-74313395D01*
X101686605Y-74515739D01*
X101915685Y-74687226D01*
X101915689Y-74687228D01*
X102112872Y-74794899D01*
X102166839Y-74824367D01*
X102434954Y-74924369D01*
X102714572Y-74985196D01*
X103000000Y-75005610D01*
X103285428Y-74985196D01*
X103565046Y-74924369D01*
X103833161Y-74824367D01*
X104084315Y-74687226D01*
X104313395Y-74515739D01*
X104515739Y-74313395D01*
X104687226Y-74084315D01*
X104787870Y-73900000D01*
X114695031Y-73900000D01*
X114714874Y-74139478D01*
X114773865Y-74372428D01*
X114870392Y-74592488D01*
X114870395Y-74592493D01*
X115001823Y-74793658D01*
X115039085Y-74834136D01*
X115646064Y-74227156D01*
X115669881Y-74268408D01*
X115781592Y-74380119D01*
X115822840Y-74403934D01*
X115216166Y-75010609D01*
X115354203Y-75118048D01*
X115354206Y-75118050D01*
X115565542Y-75232420D01*
X115792829Y-75310447D01*
X116029850Y-75350000D01*
X116270150Y-75350000D01*
X116507170Y-75310447D01*
X116734457Y-75232420D01*
X116945793Y-75118050D01*
X116945797Y-75118047D01*
X117083832Y-75010609D01*
X116477157Y-74403934D01*
X116518408Y-74380119D01*
X116630119Y-74268408D01*
X116653934Y-74227157D01*
X117260914Y-74834137D01*
X117260914Y-74834136D01*
X117298172Y-74793663D01*
X117298175Y-74793660D01*
X117429604Y-74592493D01*
X117429607Y-74592488D01*
X117526134Y-74372428D01*
X117585125Y-74139478D01*
X117604968Y-73900000D01*
X117585125Y-73660521D01*
X117526134Y-73427571D01*
X117429607Y-73207511D01*
X117429604Y-73207506D01*
X117298176Y-73006341D01*
X117260913Y-72965862D01*
X116653934Y-73572840D01*
X116630119Y-73531592D01*
X116518408Y-73419881D01*
X116477157Y-73396064D01*
X117083832Y-72789390D01*
X117083832Y-72789389D01*
X116945796Y-72681951D01*
X116945793Y-72681949D01*
X116942659Y-72680253D01*
X118249500Y-72680253D01*
X118249500Y-75119746D01*
X118249501Y-75119758D01*
X118261132Y-75178227D01*
X118261134Y-75178233D01*
X118299393Y-75235490D01*
X118305448Y-75244552D01*
X118371769Y-75288867D01*
X118416231Y-75297711D01*
X118430241Y-75300498D01*
X118430246Y-75300498D01*
X118430252Y-75300500D01*
X118430253Y-75300500D01*
X120869747Y-75300500D01*
X120869748Y-75300500D01*
X120928231Y-75288867D01*
X120994552Y-75244552D01*
X121038867Y-75178231D01*
X121050500Y-75119748D01*
X121050500Y-73900000D01*
X123245031Y-73900000D01*
X123264874Y-74139478D01*
X123323865Y-74372428D01*
X123420392Y-74592488D01*
X123420395Y-74592493D01*
X123551823Y-74793658D01*
X123589085Y-74834136D01*
X124196064Y-74227156D01*
X124219881Y-74268408D01*
X124331592Y-74380119D01*
X124372840Y-74403934D01*
X123766165Y-75010609D01*
X123904203Y-75118048D01*
X123904206Y-75118050D01*
X124115542Y-75232420D01*
X124342829Y-75310447D01*
X124579850Y-75350000D01*
X124820150Y-75350000D01*
X125057170Y-75310447D01*
X125284457Y-75232420D01*
X125495793Y-75118050D01*
X125495797Y-75118047D01*
X125633832Y-75010609D01*
X125027157Y-74403934D01*
X125068408Y-74380119D01*
X125180119Y-74268408D01*
X125203934Y-74227157D01*
X125810914Y-74834137D01*
X125810914Y-74834136D01*
X125848172Y-74793663D01*
X125848175Y-74793660D01*
X125979604Y-74592493D01*
X125979607Y-74592488D01*
X126076134Y-74372428D01*
X126135125Y-74139478D01*
X126154968Y-73900000D01*
X126135125Y-73660521D01*
X126076134Y-73427571D01*
X125979607Y-73207511D01*
X125979604Y-73207506D01*
X125848176Y-73006341D01*
X125810913Y-72965862D01*
X125203934Y-73572840D01*
X125180119Y-73531592D01*
X125068408Y-73419881D01*
X125027157Y-73396064D01*
X125633832Y-72789390D01*
X125633832Y-72789389D01*
X125495796Y-72681951D01*
X125495793Y-72681949D01*
X125492659Y-72680253D01*
X126799500Y-72680253D01*
X126799500Y-75119746D01*
X126799501Y-75119758D01*
X126811132Y-75178227D01*
X126811134Y-75178233D01*
X126849393Y-75235490D01*
X126855448Y-75244552D01*
X126921769Y-75288867D01*
X126966231Y-75297711D01*
X126980241Y-75300498D01*
X126980246Y-75300498D01*
X126980252Y-75300500D01*
X126980253Y-75300500D01*
X129419747Y-75300500D01*
X129419748Y-75300500D01*
X129478231Y-75288867D01*
X129544552Y-75244552D01*
X129588867Y-75178231D01*
X129600500Y-75119748D01*
X129600500Y-72680252D01*
X129588867Y-72621769D01*
X129544552Y-72555448D01*
X129544548Y-72555445D01*
X129478233Y-72511134D01*
X129478231Y-72511133D01*
X129478228Y-72511132D01*
X129478227Y-72511132D01*
X129419758Y-72499501D01*
X129419748Y-72499500D01*
X126980252Y-72499500D01*
X126980251Y-72499500D01*
X126980241Y-72499501D01*
X126921772Y-72511132D01*
X126921766Y-72511134D01*
X126855451Y-72555445D01*
X126855445Y-72555451D01*
X126811134Y-72621766D01*
X126811132Y-72621772D01*
X126799501Y-72680241D01*
X126799500Y-72680253D01*
X125492659Y-72680253D01*
X125284457Y-72567579D01*
X125057170Y-72489552D01*
X124820150Y-72450000D01*
X124579850Y-72450000D01*
X124342829Y-72489552D01*
X124115542Y-72567579D01*
X123904206Y-72681949D01*
X123904203Y-72681951D01*
X123766166Y-72789389D01*
X124372841Y-73396065D01*
X124331592Y-73419881D01*
X124219881Y-73531592D01*
X124196065Y-73572842D01*
X123589085Y-72965862D01*
X123551828Y-73006336D01*
X123551824Y-73006341D01*
X123420395Y-73207506D01*
X123420392Y-73207511D01*
X123323865Y-73427571D01*
X123264874Y-73660521D01*
X123245031Y-73900000D01*
X121050500Y-73900000D01*
X121050500Y-72680252D01*
X121038867Y-72621769D01*
X120994552Y-72555448D01*
X120994548Y-72555445D01*
X120928233Y-72511134D01*
X120928231Y-72511133D01*
X120928228Y-72511132D01*
X120928227Y-72511132D01*
X120869758Y-72499501D01*
X120869748Y-72499500D01*
X118430252Y-72499500D01*
X118430251Y-72499500D01*
X118430241Y-72499501D01*
X118371772Y-72511132D01*
X118371766Y-72511134D01*
X118305451Y-72555445D01*
X118305445Y-72555451D01*
X118261134Y-72621766D01*
X118261132Y-72621772D01*
X118249501Y-72680241D01*
X118249500Y-72680253D01*
X116942659Y-72680253D01*
X116734457Y-72567579D01*
X116507170Y-72489552D01*
X116270150Y-72450000D01*
X116029850Y-72450000D01*
X115792829Y-72489552D01*
X115565542Y-72567579D01*
X115354206Y-72681949D01*
X115354203Y-72681951D01*
X115216166Y-72789389D01*
X115822841Y-73396065D01*
X115781592Y-73419881D01*
X115669881Y-73531592D01*
X115646065Y-73572842D01*
X115039085Y-72965862D01*
X115001828Y-73006336D01*
X115001824Y-73006341D01*
X114870395Y-73207506D01*
X114870392Y-73207511D01*
X114773865Y-73427571D01*
X114714874Y-73660521D01*
X114695031Y-73900000D01*
X104787870Y-73900000D01*
X104824367Y-73833161D01*
X104924369Y-73565046D01*
X104985196Y-73285428D01*
X105005610Y-73000000D01*
X104985196Y-72714572D01*
X104924369Y-72434954D01*
X104824367Y-72166839D01*
X104687226Y-71915685D01*
X104628695Y-71837497D01*
X191081853Y-71837497D01*
X191081853Y-71837502D01*
X191102334Y-71979956D01*
X191162122Y-72110871D01*
X191162123Y-72110873D01*
X191238918Y-72199500D01*
X191256373Y-72219644D01*
X191312090Y-72255451D01*
X191377447Y-72297453D01*
X191483903Y-72328711D01*
X191515535Y-72337999D01*
X191515536Y-72337999D01*
X191515539Y-72338000D01*
X191586665Y-72338000D01*
X191644856Y-72356907D01*
X191656669Y-72366996D01*
X192395504Y-73105831D01*
X192423281Y-73160348D01*
X192424500Y-73175835D01*
X192424500Y-100707147D01*
X192424500Y-100792853D01*
X192440692Y-100853282D01*
X192446683Y-100875643D01*
X192489531Y-100949857D01*
X192489533Y-100949859D01*
X192489535Y-100949862D01*
X196219533Y-104679859D01*
X196219535Y-104679862D01*
X196280138Y-104740465D01*
X196280140Y-104740466D01*
X196354358Y-104783316D01*
X196354362Y-104783318D01*
X196437144Y-104805500D01*
X196437146Y-104805501D01*
X196437147Y-104805501D01*
X196528916Y-104805501D01*
X196528932Y-104805500D01*
X196750500Y-104805500D01*
X196808691Y-104824407D01*
X196844655Y-104873907D01*
X196849500Y-104904500D01*
X196849500Y-105349746D01*
X196849501Y-105349758D01*
X196861132Y-105408227D01*
X196861133Y-105408231D01*
X196905448Y-105474552D01*
X196971769Y-105518867D01*
X197016231Y-105527711D01*
X197030241Y-105530498D01*
X197030246Y-105530498D01*
X197030252Y-105530500D01*
X197030253Y-105530500D01*
X198769747Y-105530500D01*
X198769748Y-105530500D01*
X198828231Y-105518867D01*
X198894552Y-105474552D01*
X198938867Y-105408231D01*
X198950500Y-105349748D01*
X198950500Y-103610252D01*
X198938867Y-103551769D01*
X198894552Y-103485448D01*
X198894548Y-103485445D01*
X198828233Y-103441134D01*
X198828231Y-103441133D01*
X198828228Y-103441132D01*
X198828227Y-103441132D01*
X198769758Y-103429501D01*
X198769748Y-103429500D01*
X197030252Y-103429500D01*
X197030251Y-103429500D01*
X197030241Y-103429501D01*
X196971772Y-103441132D01*
X196971766Y-103441134D01*
X196905451Y-103485445D01*
X196905445Y-103485451D01*
X196861134Y-103551766D01*
X196861132Y-103551772D01*
X196849501Y-103610241D01*
X196849500Y-103610253D01*
X196849500Y-104055500D01*
X196830593Y-104113691D01*
X196781093Y-104149655D01*
X196750500Y-104154500D01*
X196655834Y-104154500D01*
X196597643Y-104135593D01*
X196585830Y-104125504D01*
X194400323Y-101939996D01*
X196844417Y-101939996D01*
X196844417Y-101940003D01*
X196864698Y-102145929D01*
X196864699Y-102145934D01*
X196924768Y-102343954D01*
X197022316Y-102526452D01*
X197153585Y-102686404D01*
X197153590Y-102686410D01*
X197153595Y-102686414D01*
X197313547Y-102817683D01*
X197313548Y-102817683D01*
X197313550Y-102817685D01*
X197496046Y-102915232D01*
X197615620Y-102951504D01*
X197694065Y-102975300D01*
X197694070Y-102975301D01*
X197899997Y-102995583D01*
X197900000Y-102995583D01*
X197900003Y-102995583D01*
X198105929Y-102975301D01*
X198105934Y-102975300D01*
X198303954Y-102915232D01*
X198486450Y-102817685D01*
X198646410Y-102686410D01*
X198777685Y-102526450D01*
X198875232Y-102343954D01*
X198935300Y-102145934D01*
X198935301Y-102145929D01*
X198955583Y-101940003D01*
X198955583Y-101939996D01*
X198935301Y-101734070D01*
X198935300Y-101734065D01*
X198890151Y-101585228D01*
X198875232Y-101536046D01*
X198777685Y-101353550D01*
X198776119Y-101351642D01*
X198646414Y-101193595D01*
X198646410Y-101193590D01*
X198646404Y-101193585D01*
X198486452Y-101062316D01*
X198303954Y-100964768D01*
X198105934Y-100904699D01*
X198105929Y-100904698D01*
X197900003Y-100884417D01*
X197899997Y-100884417D01*
X197694070Y-100904698D01*
X197694065Y-100904699D01*
X197496045Y-100964768D01*
X197313547Y-101062316D01*
X197153595Y-101193585D01*
X197153585Y-101193595D01*
X197022316Y-101353547D01*
X196924768Y-101536045D01*
X196864699Y-101734065D01*
X196864698Y-101734070D01*
X196844417Y-101939996D01*
X194400323Y-101939996D01*
X193104496Y-100644169D01*
X193076719Y-100589652D01*
X193075500Y-100574165D01*
X193075500Y-99275000D01*
X196806871Y-99275000D01*
X197415856Y-99275000D01*
X197400000Y-99334174D01*
X197400000Y-99465826D01*
X197415856Y-99525000D01*
X196806871Y-99525000D01*
X196814097Y-99602989D01*
X196869887Y-99799070D01*
X196960750Y-99981548D01*
X196960755Y-99981557D01*
X197083608Y-100144240D01*
X197234266Y-100281582D01*
X197407581Y-100388895D01*
X197407586Y-100388898D01*
X197597683Y-100462541D01*
X197774999Y-100495687D01*
X197775000Y-100495687D01*
X197775000Y-99884144D01*
X197834174Y-99900000D01*
X197965826Y-99900000D01*
X198025000Y-99884144D01*
X198025000Y-100495687D01*
X198202316Y-100462541D01*
X198392413Y-100388898D01*
X198392418Y-100388895D01*
X198565733Y-100281582D01*
X198716391Y-100144240D01*
X198839244Y-99981557D01*
X198839249Y-99981548D01*
X198930112Y-99799070D01*
X198985902Y-99602989D01*
X198993129Y-99525000D01*
X198384144Y-99525000D01*
X198400000Y-99465826D01*
X198400000Y-99334174D01*
X198384144Y-99275000D01*
X198993129Y-99275000D01*
X198985902Y-99197010D01*
X198930112Y-99000929D01*
X198839249Y-98818451D01*
X198839244Y-98818442D01*
X198716391Y-98655759D01*
X198565733Y-98518417D01*
X198392418Y-98411104D01*
X198392413Y-98411101D01*
X198202316Y-98337458D01*
X198025000Y-98304311D01*
X198025000Y-98915855D01*
X197965826Y-98900000D01*
X197834174Y-98900000D01*
X197775000Y-98915855D01*
X197775000Y-98304312D01*
X197774999Y-98304311D01*
X197597683Y-98337458D01*
X197407586Y-98411101D01*
X197407581Y-98411104D01*
X197234266Y-98518417D01*
X197083608Y-98655759D01*
X196960755Y-98818442D01*
X196960750Y-98818451D01*
X196869887Y-99000929D01*
X196814097Y-99197010D01*
X196806871Y-99275000D01*
X193075500Y-99275000D01*
X193075500Y-96735000D01*
X196806871Y-96735000D01*
X197415856Y-96735000D01*
X197400000Y-96794174D01*
X197400000Y-96925826D01*
X197415856Y-96985000D01*
X196806871Y-96985000D01*
X196814097Y-97062989D01*
X196869887Y-97259070D01*
X196960750Y-97441548D01*
X196960755Y-97441557D01*
X197083608Y-97604240D01*
X197234266Y-97741582D01*
X197407581Y-97848895D01*
X197407586Y-97848898D01*
X197597683Y-97922541D01*
X197774999Y-97955687D01*
X197775000Y-97955687D01*
X197775000Y-97344144D01*
X197834174Y-97360000D01*
X197965826Y-97360000D01*
X198025000Y-97344144D01*
X198025000Y-97955687D01*
X198202316Y-97922541D01*
X198392413Y-97848898D01*
X198392418Y-97848895D01*
X198565733Y-97741582D01*
X198716391Y-97604240D01*
X198839244Y-97441557D01*
X198839249Y-97441548D01*
X198930112Y-97259070D01*
X198985902Y-97062989D01*
X198993129Y-96985000D01*
X198384144Y-96985000D01*
X198400000Y-96925826D01*
X198400000Y-96794174D01*
X198384144Y-96735000D01*
X198993129Y-96735000D01*
X198985902Y-96657010D01*
X198930112Y-96460929D01*
X198839249Y-96278451D01*
X198839244Y-96278442D01*
X198716391Y-96115759D01*
X198565733Y-95978417D01*
X198392418Y-95871104D01*
X198392413Y-95871101D01*
X198202316Y-95797458D01*
X198025000Y-95764311D01*
X198025000Y-96375855D01*
X197965826Y-96360000D01*
X197834174Y-96360000D01*
X197775000Y-96375855D01*
X197775000Y-95764312D01*
X197774999Y-95764311D01*
X197597683Y-95797458D01*
X197407586Y-95871101D01*
X197407581Y-95871104D01*
X197234266Y-95978417D01*
X197083608Y-96115759D01*
X196960755Y-96278442D01*
X196960750Y-96278451D01*
X196869887Y-96460929D01*
X196814097Y-96657010D01*
X196806871Y-96735000D01*
X193075500Y-96735000D01*
X193075500Y-85010253D01*
X195099500Y-85010253D01*
X195099500Y-87449746D01*
X195099501Y-87449758D01*
X195111132Y-87508227D01*
X195111134Y-87508233D01*
X195155445Y-87574548D01*
X195155448Y-87574552D01*
X195221769Y-87618867D01*
X195266231Y-87627711D01*
X195280241Y-87630498D01*
X195280246Y-87630498D01*
X195280252Y-87630500D01*
X195280253Y-87630500D01*
X197719747Y-87630500D01*
X197719748Y-87630500D01*
X197778231Y-87618867D01*
X197844552Y-87574552D01*
X197888867Y-87508231D01*
X197900500Y-87449748D01*
X197900500Y-85010252D01*
X197888867Y-84951769D01*
X197844552Y-84885448D01*
X197844548Y-84885445D01*
X197778233Y-84841134D01*
X197778231Y-84841133D01*
X197778228Y-84841132D01*
X197778227Y-84841132D01*
X197719758Y-84829501D01*
X197719748Y-84829500D01*
X195280252Y-84829500D01*
X195280251Y-84829500D01*
X195280241Y-84829501D01*
X195221772Y-84841132D01*
X195221766Y-84841134D01*
X195155451Y-84885445D01*
X195155445Y-84885451D01*
X195111134Y-84951766D01*
X195111132Y-84951772D01*
X195099501Y-85010241D01*
X195099500Y-85010253D01*
X193075500Y-85010253D01*
X193075500Y-82730000D01*
X195045031Y-82730000D01*
X195064874Y-82969478D01*
X195123865Y-83202428D01*
X195220392Y-83422488D01*
X195220395Y-83422493D01*
X195351823Y-83623658D01*
X195389085Y-83664136D01*
X195996064Y-83057156D01*
X196019881Y-83098408D01*
X196131592Y-83210119D01*
X196172840Y-83233934D01*
X195566166Y-83840609D01*
X195704203Y-83948048D01*
X195704206Y-83948050D01*
X195915542Y-84062420D01*
X196142829Y-84140447D01*
X196379850Y-84180000D01*
X196620150Y-84180000D01*
X196857170Y-84140447D01*
X197084457Y-84062420D01*
X197295793Y-83948050D01*
X197295797Y-83948047D01*
X197433832Y-83840609D01*
X196827157Y-83233934D01*
X196868408Y-83210119D01*
X196980119Y-83098408D01*
X197003934Y-83057157D01*
X197610914Y-83664137D01*
X197610914Y-83664136D01*
X197648172Y-83623663D01*
X197648175Y-83623660D01*
X197779604Y-83422493D01*
X197779607Y-83422488D01*
X197876134Y-83202428D01*
X197935125Y-82969478D01*
X197954968Y-82730000D01*
X197935125Y-82490521D01*
X197876134Y-82257571D01*
X197779607Y-82037511D01*
X197779604Y-82037506D01*
X197648176Y-81836341D01*
X197610913Y-81795862D01*
X197003934Y-82402840D01*
X196980119Y-82361592D01*
X196868408Y-82249881D01*
X196827157Y-82226064D01*
X197433832Y-81619390D01*
X197433832Y-81619389D01*
X197295796Y-81511951D01*
X197295793Y-81511949D01*
X197084457Y-81397579D01*
X196857170Y-81319552D01*
X196620150Y-81280000D01*
X196379850Y-81280000D01*
X196142829Y-81319552D01*
X195915542Y-81397579D01*
X195704206Y-81511949D01*
X195704203Y-81511951D01*
X195566166Y-81619389D01*
X196172841Y-82226065D01*
X196131592Y-82249881D01*
X196019881Y-82361592D01*
X195996065Y-82402842D01*
X195389085Y-81795862D01*
X195351828Y-81836336D01*
X195351824Y-81836341D01*
X195220395Y-82037506D01*
X195220392Y-82037511D01*
X195123865Y-82257571D01*
X195064874Y-82490521D01*
X195045031Y-82730000D01*
X193075500Y-82730000D01*
X193075500Y-73000000D01*
X194994390Y-73000000D01*
X195014803Y-73285422D01*
X195014803Y-73285425D01*
X195014804Y-73285428D01*
X195068354Y-73531592D01*
X195075632Y-73565050D01*
X195175633Y-73833162D01*
X195175634Y-73833164D01*
X195308657Y-74076776D01*
X195312774Y-74084315D01*
X195411435Y-74216111D01*
X195450913Y-74268848D01*
X195484261Y-74313395D01*
X195686605Y-74515739D01*
X195915685Y-74687226D01*
X195915689Y-74687228D01*
X196112872Y-74794899D01*
X196166839Y-74824367D01*
X196434954Y-74924369D01*
X196714572Y-74985196D01*
X197000000Y-75005610D01*
X197285428Y-74985196D01*
X197565046Y-74924369D01*
X197833161Y-74824367D01*
X198084315Y-74687226D01*
X198313395Y-74515739D01*
X198515739Y-74313395D01*
X198687226Y-74084315D01*
X198824367Y-73833161D01*
X198924369Y-73565046D01*
X198985196Y-73285428D01*
X199005610Y-73000000D01*
X198985196Y-72714572D01*
X198924369Y-72434954D01*
X198824367Y-72166839D01*
X198687226Y-71915685D01*
X198515739Y-71686605D01*
X198313395Y-71484261D01*
X198084315Y-71312774D01*
X198084310Y-71312771D01*
X197833164Y-71175634D01*
X197833162Y-71175633D01*
X197565050Y-71075632D01*
X197565046Y-71075631D01*
X197285428Y-71014804D01*
X197285425Y-71014803D01*
X197285422Y-71014803D01*
X197000000Y-70994390D01*
X196714577Y-71014803D01*
X196434949Y-71075632D01*
X196166837Y-71175633D01*
X196166835Y-71175634D01*
X195915689Y-71312771D01*
X195686609Y-71484257D01*
X195484257Y-71686609D01*
X195312771Y-71915689D01*
X195175634Y-72166835D01*
X195175633Y-72166837D01*
X195075632Y-72434949D01*
X195014803Y-72714577D01*
X194994390Y-73000000D01*
X193075500Y-73000000D01*
X193075500Y-72957148D01*
X193075500Y-72957147D01*
X193069327Y-72934108D01*
X193053318Y-72874361D01*
X193053316Y-72874358D01*
X193053316Y-72874356D01*
X193010468Y-72800142D01*
X193010467Y-72800141D01*
X193010466Y-72800140D01*
X193010465Y-72800138D01*
X192122143Y-71911816D01*
X192094366Y-71857299D01*
X192093147Y-71841812D01*
X192093147Y-71837497D01*
X192072665Y-71695043D01*
X192012877Y-71564128D01*
X192012877Y-71564127D01*
X191918628Y-71455357D01*
X191918627Y-71455356D01*
X191918626Y-71455355D01*
X191797557Y-71377549D01*
X191797554Y-71377547D01*
X191797553Y-71377547D01*
X191797550Y-71377546D01*
X191659464Y-71337000D01*
X191659461Y-71337000D01*
X191515539Y-71337000D01*
X191515535Y-71337000D01*
X191377449Y-71377546D01*
X191377442Y-71377549D01*
X191256373Y-71455355D01*
X191162122Y-71564128D01*
X191102334Y-71695043D01*
X191081853Y-71837497D01*
X104628695Y-71837497D01*
X104515739Y-71686605D01*
X104313395Y-71484261D01*
X104084315Y-71312774D01*
X104084310Y-71312771D01*
X103833164Y-71175634D01*
X103833162Y-71175633D01*
X103565050Y-71075632D01*
X103565046Y-71075631D01*
X103285428Y-71014804D01*
X103285425Y-71014803D01*
X103285422Y-71014803D01*
X103000000Y-70994390D01*
X102714577Y-71014803D01*
X102434949Y-71075632D01*
X102166837Y-71175633D01*
X102166835Y-71175634D01*
X101915689Y-71312771D01*
X101686609Y-71484257D01*
X101484257Y-71686609D01*
X101312771Y-71915689D01*
X101175634Y-72166835D01*
X101175633Y-72166837D01*
X101075632Y-72434949D01*
X101014803Y-72714577D01*
X100994390Y-73000000D01*
X99500560Y-73000000D01*
X99500619Y-72997578D01*
X99510318Y-72800141D01*
X99517113Y-72661824D01*
X99518063Y-72652186D01*
X99567029Y-72322080D01*
X99568918Y-72312582D01*
X99650009Y-71988849D01*
X99652818Y-71979590D01*
X99765249Y-71665367D01*
X99768958Y-71656412D01*
X99911644Y-71354728D01*
X99916211Y-71346185D01*
X100087780Y-71059938D01*
X100093163Y-71051883D01*
X100291957Y-70783841D01*
X100298107Y-70776346D01*
X100522228Y-70529067D01*
X100529067Y-70522228D01*
X100776346Y-70298107D01*
X100783841Y-70291957D01*
X101051883Y-70093163D01*
X101059938Y-70087780D01*
X101346185Y-69916211D01*
X101354728Y-69911644D01*
X101656412Y-69768958D01*
X101665367Y-69765249D01*
X101979590Y-69652818D01*
X101988849Y-69650009D01*
X102312582Y-69568918D01*
X102322080Y-69567029D01*
X102652186Y-69518063D01*
X102661824Y-69517113D01*
X102970606Y-69501944D01*
X102997579Y-69500619D01*
X103002436Y-69500500D01*
X103065892Y-69500500D01*
X196934108Y-69500500D01*
X196997564Y-69500500D01*
X197002421Y-69500619D01*
G37*
%TD.AperFunction*%
%TD*%
M02*
