M48
; DRILL file {KiCad 8.0.8-8.0.8-0~ubuntu22.04.1} date 2025-03-05T01:13:52-0500
; FORMAT={-:-/ absolute / inch / decimal}
; #@! TF.CreationDate,2025-03-05T01:13:52-05:00
; #@! TF.GenerationSoftware,Kicad,Pcbnew,8.0.8-8.0.8-0~ubuntu22.04.1
; #@! TF.FileFunction,Plated,1,2,PTH
FMAT,2
INCH
; #@! TA.AperFunction,Plated,PTH,ComponentDrill
T1C0.0079
; #@! TA.AperFunction,Plated,PTH,ViaDrill
T2C0.0118
; #@! TA.AperFunction,Plated,PTH,ViaDrill
T3C0.0295
; #@! TA.AperFunction,Plated,PTH,ComponentDrill
T4C0.0295
; #@! TA.AperFunction,Plated,PTH,ComponentDrill
T5C0.0394
; #@! TA.AperFunction,Plated,PTH,ComponentDrill
T6C0.0472
; #@! TA.AperFunction,Plated,PTH,ComponentDrill
T7C0.0787
%
G90
G05
T1
X6.5079Y-4.7693
X6.5079Y-4.8244
X6.5354Y-4.7417
X6.5354Y-4.7969
X6.5354Y-4.852
X6.563Y-4.7693
X6.563Y-4.8244
X6.5906Y-4.7417
X6.5906Y-4.7969
X6.5906Y-4.852
X6.6181Y-4.7693
X6.6181Y-4.8244
T2
X3.9941Y-3.5177
X4.1988Y-4.5354
X4.4513Y-4.4247
X4.5984Y-4.2657
X5.1752Y-3.9813
X5.2446Y-4.9227
X5.6457Y-4.8583
X5.6486Y-4.3396
X5.8681Y-3.2933
X5.8738Y-3.3555
X5.8789Y-3.5374
X5.938Y-3.5689
X5.9582Y-3.7525
X5.9835Y-3.5706
X5.9892Y-4.8996
X6.0007Y-4.6688
X6.0026Y-4.6373
X6.0039Y-3.7559
X6.0207Y-3.5935
X6.0561Y-4.7508
X6.0787Y-4.2638
X6.0886Y-4.7028
X6.0984Y-4.8002
X6.1555Y-3.3996
X6.1673Y-3.625
X6.1831Y-3.4528
X6.2126Y-4.5522
X6.2303Y-3.5512
X6.2382Y-3.5098
X6.2561Y-3.5692
X6.2854Y-4.7894
X6.3228Y-3.6535
X6.3396Y-4.2136
X6.3937Y-3.1969
X6.4252Y-3.2756
X6.5315Y-3.9016
X6.563Y-3.4843
X6.5787Y-4.5502
X6.5846Y-4.502
X6.6211Y-3.8002
X6.6211Y-4.0472
X6.6319Y-3.3701
X6.6358Y-4.5768
X6.6407Y-3.5187
X6.6555Y-3.2943
X6.6585Y-3.6053
X6.6585Y-3.8002
X6.6585Y-4.0059
X6.6949Y-4.6008
X6.6959Y-3.5817
X6.6969Y-3.2992
X6.7205Y-4.1575
X6.7933Y-4.6008
X6.7943Y-4.6508
X6.7943Y-4.7508
X6.7943Y-4.9008
X6.7953Y-4.7028
X6.843Y-3.5408
X6.9281Y-3.6053
X6.9348Y-3.7384
X6.9567Y-3.3996
X6.9675Y-3.4488
X6.9921Y-4.5118
X7.0Y-4.0984
X7.0118Y-3.8976
X7.0148Y-3.5955
X7.0433Y-5.0669
X7.0728Y-4.1673
X7.0866Y-4.311
X7.1024Y-3.5906
X7.1732Y-3.1988
X7.252Y-3.374
X7.5428Y-2.8282
T3
X5.9291Y-3.1629
X6.095Y-3.1629
X6.7116Y-3.1629
X6.8765Y-3.1629
T4
X5.3268Y-2.8941
X5.3268Y-2.9441
X5.3268Y-2.9941
T5
X4.4469Y-4.8061
X4.6575Y-3.2008
X4.7461Y-4.8061
X4.7575Y-3.2008
X4.8575Y-3.2008
X4.9575Y-3.2008
X5.1663Y-4.7037
X5.1663Y-4.9006
X5.7372Y-4.7037
X5.7372Y-4.8022
X5.7372Y-4.9006
X7.7913Y-3.8134
X7.7913Y-3.9134
X7.7913Y-4.0134
X7.7913Y-4.1134
T6
X4.5728Y-2.9094
X4.7106Y-2.9094
X4.9094Y-2.9094
X5.0472Y-2.9094
X5.9803Y-2.9016
X6.1181Y-2.9016
X6.2559Y-2.9016
X6.3937Y-2.9016
X6.7598Y-2.8976
X6.8976Y-2.8976
X7.0354Y-2.8976
X7.1732Y-2.8976
X7.7362Y-3.2571
X7.7362Y-3.3949
T7
G00X5.4636Y-4.5817
M15
G01X5.4203Y-4.5817
M16
G05
G00X5.4636Y-5.0226
M15
G01X5.4203Y-5.0226
M16
G05
M30
