%TF.GenerationSoftware,KiCad,Pcbnew,8.0.8-8.0.8-0~ubuntu22.04.1*%
%TF.CreationDate,2025-03-05T01:13:40-05:00*%
%TF.ProjectId,Electronics V2,456c6563-7472-46f6-9e69-63732056322e,rev?*%
%TF.SameCoordinates,Original*%
%TF.FileFunction,Soldermask,Bot*%
%TF.FilePolarity,Negative*%
%FSLAX46Y46*%
G04 Gerber Fmt 4.6, Leading zero omitted, Abs format (unit mm)*
G04 Created by KiCad (PCBNEW 8.0.8-8.0.8-0~ubuntu22.04.1) date 2025-03-05 01:13:40*
%MOMM*%
%LPD*%
G01*
G04 APERTURE LIST*
G04 Aperture macros list*
%AMRoundRect*
0 Rectangle with rounded corners*
0 $1 Rounding radius*
0 $2 $3 $4 $5 $6 $7 $8 $9 X,Y pos of 4 corners*
0 Add a 4 corners polygon primitive as box body*
4,1,4,$2,$3,$4,$5,$6,$7,$8,$9,$2,$3,0*
0 Add four circle primitives for the rounded corners*
1,1,$1+$1,$2,$3*
1,1,$1+$1,$4,$5*
1,1,$1+$1,$6,$7*
1,1,$1+$1,$8,$9*
0 Add four rect primitives between the rounded corners*
20,1,$1+$1,$2,$3,$4,$5,0*
20,1,$1+$1,$4,$5,$6,$7,0*
20,1,$1+$1,$6,$7,$8,$9,0*
20,1,$1+$1,$8,$9,$2,$3,0*%
G04 Aperture macros list end*
%ADD10R,2.400000X2.400000*%
%ADD11C,2.400000*%
%ADD12R,1.500000X1.050000*%
%ADD13O,1.500000X1.050000*%
%ADD14R,1.700000X1.700000*%
%ADD15O,1.700000X1.700000*%
%ADD16C,0.650000*%
%ADD17R,2.000000X2.000000*%
%ADD18C,2.000000*%
%ADD19RoundRect,0.250000X0.550000X0.550000X-0.550000X0.550000X-0.550000X-0.550000X0.550000X-0.550000X0*%
%ADD20C,1.600000*%
%ADD21O,4.100000X3.000000*%
%ADD22C,1.300000*%
%ADD23R,2.000000X1.100000*%
%ADD24R,1.000000X2.000000*%
G04 APERTURE END LIST*
D10*
%TO.C,J6*%
X119650000Y-73900000D03*
D11*
X116150000Y-73900000D03*
%TD*%
D10*
%TO.C,BT1*%
X196500000Y-86230000D03*
D11*
X196500000Y-82730000D03*
%TD*%
D12*
%TO.C,Q1*%
X135300000Y-73510000D03*
D13*
X135300000Y-74780000D03*
X135300000Y-76050000D03*
%TD*%
D10*
%TO.C,J7*%
X128200000Y-73900000D03*
D11*
X124700000Y-73900000D03*
%TD*%
D14*
%TO.C,J5*%
X197900000Y-104480000D03*
D15*
X197900000Y-101940000D03*
X197900000Y-99400000D03*
X197900000Y-96860000D03*
%TD*%
D10*
%TO.C,J1*%
X162400000Y-73700000D03*
D11*
X158900000Y-73700000D03*
X155400000Y-73700000D03*
X151900000Y-73700000D03*
%TD*%
D16*
%TO.C,J4*%
X194770000Y-117080000D03*
X194770000Y-111300000D03*
%TD*%
D17*
%TO.C,BZ1*%
X120550000Y-122075000D03*
D18*
X112950000Y-122075000D03*
%TD*%
D19*
%TO.C,SW8*%
X145725000Y-124475000D03*
D20*
X145725000Y-119475000D03*
X145725000Y-121975000D03*
D21*
X138225000Y-127575000D03*
D20*
X131225000Y-124475000D03*
X131225000Y-119475000D03*
D21*
X138225000Y-116375000D03*
%TD*%
D10*
%TO.C,J2*%
X182200000Y-73600000D03*
D11*
X178700000Y-73600000D03*
X175200000Y-73600000D03*
X171700000Y-73600000D03*
%TD*%
D14*
%TO.C,U8*%
X118300000Y-81300000D03*
D15*
X120840000Y-81300000D03*
X123380000Y-81300000D03*
X125920000Y-81300000D03*
%TD*%
D22*
%TO.C,J3*%
X127400000Y-111600000D03*
X127400000Y-89200000D03*
D23*
X129600000Y-93625000D03*
X129600000Y-96125000D03*
X129600000Y-98625000D03*
X129600000Y-101125000D03*
X129600000Y-103625000D03*
X129600000Y-106125000D03*
X129600000Y-108550000D03*
X129600000Y-110250000D03*
X129600000Y-91125000D03*
D24*
X118200000Y-113300000D03*
D17*
X104200000Y-114200000D03*
X122850000Y-114200000D03*
X104200000Y-85200000D03*
X122850000Y-85200000D03*
D24*
X106650000Y-113300000D03*
X109250000Y-113300000D03*
%TD*%
M02*
