%TF.GenerationSoftware,KiCad,Pcbnew,8.0.8-8.0.8-0~ubuntu22.04.1*%
%TF.CreationDate,2025-03-05T01:13:40-05:00*%
%TF.ProjectId,Electronics V2,456c6563-7472-46f6-9e69-63732056322e,rev?*%
%TF.SameCoordinates,Original*%
%TF.FileFunction,Soldermask,Top*%
%TF.FilePolarity,Negative*%
%FSLAX46Y46*%
G04 Gerber Fmt 4.6, Leading zero omitted, Abs format (unit mm)*
G04 Created by KiCad (PCBNEW 8.0.8-8.0.8-0~ubuntu22.04.1) date 2025-03-05 01:13:40*
%MOMM*%
%LPD*%
G01*
G04 APERTURE LIST*
G04 Aperture macros list*
%AMRoundRect*
0 Rectangle with rounded corners*
0 $1 Rounding radius*
0 $2 $3 $4 $5 $6 $7 $8 $9 X,Y pos of 4 corners*
0 Add a 4 corners polygon primitive as box body*
4,1,4,$2,$3,$4,$5,$6,$7,$8,$9,$2,$3,0*
0 Add four circle primitives for the rounded corners*
1,1,$1+$1,$2,$3*
1,1,$1+$1,$4,$5*
1,1,$1+$1,$6,$7*
1,1,$1+$1,$8,$9*
0 Add four rect primitives between the rounded corners*
20,1,$1+$1,$2,$3,$4,$5,0*
20,1,$1+$1,$4,$5,$6,$7,0*
20,1,$1+$1,$6,$7,$8,$9,0*
20,1,$1+$1,$8,$9,$2,$3,0*%
G04 Aperture macros list end*
%ADD10RoundRect,0.375000X0.375000X-0.625000X0.375000X0.625000X-0.375000X0.625000X-0.375000X-0.625000X0*%
%ADD11RoundRect,0.500000X1.400000X-0.500000X1.400000X0.500000X-1.400000X0.500000X-1.400000X-0.500000X0*%
%ADD12RoundRect,0.218750X0.256250X-0.218750X0.256250X0.218750X-0.256250X0.218750X-0.256250X-0.218750X0*%
%ADD13RoundRect,0.200000X-0.200000X-0.275000X0.200000X-0.275000X0.200000X0.275000X-0.200000X0.275000X0*%
%ADD14R,0.250000X0.675000*%
%ADD15R,0.675000X0.250000*%
%ADD16RoundRect,0.225000X-0.250000X0.225000X-0.250000X-0.225000X0.250000X-0.225000X0.250000X0.225000X0*%
%ADD17RoundRect,0.200000X-0.275000X0.200000X-0.275000X-0.200000X0.275000X-0.200000X0.275000X0.200000X0*%
%ADD18R,2.400000X2.400000*%
%ADD19C,2.400000*%
%ADD20RoundRect,0.200000X0.200000X0.275000X-0.200000X0.275000X-0.200000X-0.275000X0.200000X-0.275000X0*%
%ADD21RoundRect,0.225000X0.250000X-0.225000X0.250000X0.225000X-0.250000X0.225000X-0.250000X-0.225000X0*%
%ADD22RoundRect,0.093750X-0.106250X0.093750X-0.106250X-0.093750X0.106250X-0.093750X0.106250X0.093750X0*%
%ADD23R,1.600000X1.000000*%
%ADD24R,1.300000X1.550000*%
%ADD25RoundRect,0.250000X-1.025000X0.787500X-1.025000X-0.787500X1.025000X-0.787500X1.025000X0.787500X0*%
%ADD26R,1.500000X1.050000*%
%ADD27O,1.500000X1.050000*%
%ADD28RoundRect,0.225000X0.225000X0.250000X-0.225000X0.250000X-0.225000X-0.250000X0.225000X-0.250000X0*%
%ADD29RoundRect,0.225000X-0.225000X-0.250000X0.225000X-0.250000X0.225000X0.250000X-0.225000X0.250000X0*%
%ADD30R,1.700000X1.700000*%
%ADD31O,1.700000X1.700000*%
%ADD32RoundRect,0.218750X-0.218750X-0.256250X0.218750X-0.256250X0.218750X0.256250X-0.218750X0.256250X0*%
%ADD33RoundRect,0.062500X-0.325000X-0.062500X0.325000X-0.062500X0.325000X0.062500X-0.325000X0.062500X0*%
%ADD34RoundRect,0.062500X-0.062500X-0.325000X0.062500X-0.325000X0.062500X0.325000X-0.062500X0.325000X0*%
%ADD35R,3.750000X3.750000*%
%ADD36RoundRect,0.317500X0.317500X-0.382500X0.317500X0.382500X-0.317500X0.382500X-0.317500X-0.382500X0*%
%ADD37R,4.720000X4.800000*%
%ADD38R,0.900000X1.000000*%
%ADD39RoundRect,0.200000X0.275000X-0.200000X0.275000X0.200000X-0.275000X0.200000X-0.275000X-0.200000X0*%
%ADD40RoundRect,0.218750X0.218750X0.256250X-0.218750X0.256250X-0.218750X-0.256250X0.218750X-0.256250X0*%
%ADD41RoundRect,0.375000X0.625000X0.375000X-0.625000X0.375000X-0.625000X-0.375000X0.625000X-0.375000X0*%
%ADD42RoundRect,0.500000X0.500000X1.400000X-0.500000X1.400000X-0.500000X-1.400000X0.500000X-1.400000X0*%
%ADD43RoundRect,0.093750X0.106250X-0.093750X0.106250X0.093750X-0.106250X0.093750X-0.106250X-0.093750X0*%
%ADD44C,0.650000*%
%ADD45RoundRect,0.150000X0.425000X-0.150000X0.425000X0.150000X-0.425000X0.150000X-0.425000X-0.150000X0*%
%ADD46RoundRect,0.075000X0.500000X-0.075000X0.500000X0.075000X-0.500000X0.075000X-0.500000X-0.075000X0*%
%ADD47RoundRect,0.250000X0.750000X-0.840000X0.750000X0.840000X-0.750000X0.840000X-0.750000X-0.840000X0*%
%ADD48R,1.500000X0.900000*%
%ADD49R,0.900000X1.500000*%
%ADD50C,0.600000*%
%ADD51R,3.900000X3.900000*%
%ADD52R,2.000000X2.000000*%
%ADD53C,2.000000*%
%ADD54RoundRect,0.250000X0.550000X0.550000X-0.550000X0.550000X-0.550000X-0.550000X0.550000X-0.550000X0*%
%ADD55C,1.600000*%
%ADD56O,4.100000X3.000000*%
%ADD57RoundRect,0.150000X-0.150000X0.512500X-0.150000X-0.512500X0.150000X-0.512500X0.150000X0.512500X0*%
%ADD58R,1.120000X2.160000*%
%ADD59C,1.300000*%
G04 APERTURE END LIST*
D10*
%TO.C,U1*%
X181700000Y-111780000D03*
X184000000Y-111780000D03*
D11*
X184000000Y-105480000D03*
D10*
X186300000Y-111780000D03*
%TD*%
D12*
%TO.C,D4*%
X106650000Y-121337500D03*
X106650000Y-119762500D03*
%TD*%
D13*
%TO.C,R23*%
X193593750Y-101950000D03*
X195243750Y-101950000D03*
%TD*%
D14*
%TO.C,U5*%
X113062500Y-110862500D03*
X113562500Y-110862500D03*
X114062500Y-110862500D03*
X114562500Y-110862500D03*
D15*
X114825000Y-110100000D03*
X114825000Y-109600000D03*
X114825000Y-109100000D03*
D14*
X114562500Y-108337500D03*
X114062500Y-108337500D03*
X113562500Y-108337500D03*
X113062500Y-108337500D03*
D15*
X112800000Y-109100000D03*
X112800000Y-109600000D03*
X112800000Y-110100000D03*
%TD*%
D16*
%TO.C,C3*%
X120600000Y-110100000D03*
X120600000Y-111650000D03*
%TD*%
D17*
%TO.C,R17*%
X129225000Y-124450000D03*
X129225000Y-126100000D03*
%TD*%
D18*
%TO.C,J6*%
X119650000Y-73900000D03*
D19*
X116150000Y-73900000D03*
%TD*%
D16*
%TO.C,C18*%
X127600000Y-124500000D03*
X127600000Y-126050000D03*
%TD*%
D20*
%TO.C,R15*%
X143525000Y-89700000D03*
X141875000Y-89700000D03*
%TD*%
D21*
%TO.C,C13*%
X180175000Y-102250000D03*
X180175000Y-100700000D03*
%TD*%
D22*
%TO.C,U11*%
X191300000Y-109925000D03*
X190650000Y-109925000D03*
X190000000Y-109925000D03*
X190000000Y-111700000D03*
X190650000Y-111700000D03*
X191300000Y-111700000D03*
D23*
X190650000Y-110812500D03*
%TD*%
D21*
%TO.C,C22*%
X178200000Y-94955000D03*
X178200000Y-93405000D03*
%TD*%
D18*
%TO.C,BT1*%
X196500000Y-86230000D03*
D19*
X196500000Y-82730000D03*
%TD*%
D24*
%TO.C,SW7*%
X138990000Y-105590000D03*
X138990000Y-97630000D03*
X143490000Y-105590000D03*
X143490000Y-97630000D03*
%TD*%
D20*
%TO.C,R14*%
X105200000Y-107500000D03*
X103550000Y-107500000D03*
%TD*%
D24*
%TO.C,SW5*%
X100690000Y-105530000D03*
X100690000Y-97570000D03*
X105190000Y-105530000D03*
X105190000Y-97570000D03*
%TD*%
D16*
%TO.C,C24*%
X164675000Y-85775000D03*
X164675000Y-87325000D03*
%TD*%
D25*
%TO.C,C9*%
X159375000Y-80337500D03*
X159375000Y-86562500D03*
%TD*%
D26*
%TO.C,Q1*%
X135300000Y-73510000D03*
D27*
X135300000Y-74780000D03*
X135300000Y-76050000D03*
%TD*%
D16*
%TO.C,C11*%
X154375000Y-113050000D03*
X154375000Y-114600000D03*
%TD*%
D18*
%TO.C,J7*%
X128200000Y-73900000D03*
D19*
X124700000Y-73900000D03*
%TD*%
D24*
%TO.C,SW1*%
X100740000Y-87610000D03*
X100740000Y-79650000D03*
X105240000Y-87610000D03*
X105240000Y-79650000D03*
%TD*%
D28*
%TO.C,C5*%
X170775000Y-82350000D03*
X169225000Y-82350000D03*
%TD*%
D13*
%TO.C,R25*%
X149325000Y-124450000D03*
X150975000Y-124450000D03*
%TD*%
D29*
%TO.C,C10*%
X154475000Y-82375000D03*
X156025000Y-82375000D03*
%TD*%
D17*
%TO.C,R18*%
X147775000Y-117800000D03*
X147775000Y-119450000D03*
%TD*%
D25*
%TO.C,C4*%
X179350000Y-80337500D03*
X179350000Y-86562500D03*
%TD*%
D30*
%TO.C,J5*%
X197900000Y-104480000D03*
D31*
X197900000Y-101940000D03*
X197900000Y-99400000D03*
X197900000Y-96860000D03*
%TD*%
D16*
%TO.C,C7*%
X145625000Y-85800000D03*
X145625000Y-87350000D03*
%TD*%
D29*
%TO.C,C6*%
X174375000Y-82350000D03*
X175925000Y-82350000D03*
%TD*%
D28*
%TO.C,C16*%
X143475000Y-91350000D03*
X141925000Y-91350000D03*
%TD*%
D20*
%TO.C,R11*%
X177625000Y-118450000D03*
X175975000Y-118450000D03*
%TD*%
D16*
%TO.C,C21*%
X188900000Y-92830000D03*
X188900000Y-94380000D03*
%TD*%
D13*
%TO.C,R26*%
X149325000Y-119450000D03*
X150975000Y-119450000D03*
%TD*%
D32*
%TO.C,D5*%
X190481250Y-101950000D03*
X192056250Y-101950000D03*
%TD*%
D33*
%TO.C,U9*%
X170087500Y-84850000D03*
X170087500Y-85350000D03*
X170087500Y-85850000D03*
X170087500Y-86350000D03*
X170087500Y-86850000D03*
X170087500Y-87350000D03*
X170087500Y-87850000D03*
D34*
X171050000Y-88812500D03*
X171550000Y-88812500D03*
X172050000Y-88812500D03*
X172550000Y-88812500D03*
X173050000Y-88812500D03*
X173550000Y-88812500D03*
X174050000Y-88812500D03*
D33*
X175012500Y-87850000D03*
X175012500Y-87350000D03*
X175012500Y-86850000D03*
X175012500Y-86350000D03*
X175012500Y-85850000D03*
X175012500Y-85350000D03*
X175012500Y-84850000D03*
D34*
X174050000Y-83887500D03*
X173550000Y-83887500D03*
X173050000Y-83887500D03*
X172550000Y-83887500D03*
X172050000Y-83887500D03*
X171550000Y-83887500D03*
X171050000Y-83887500D03*
D35*
X172550000Y-86350000D03*
%TD*%
D36*
%TO.C,D2*%
X193785000Y-92820000D03*
X193785000Y-90740000D03*
D37*
X197590000Y-91780000D03*
%TD*%
D38*
%TO.C,SW4*%
X146925000Y-111400000D03*
X151025000Y-111400000D03*
X146925000Y-113000000D03*
X151025000Y-113000000D03*
%TD*%
D16*
%TO.C,C1*%
X118875000Y-107425000D03*
X118875000Y-108975000D03*
%TD*%
D20*
%TO.C,R3*%
X151000000Y-96400000D03*
X149350000Y-96400000D03*
%TD*%
%TO.C,R1*%
X177625000Y-116700000D03*
X175975000Y-116700000D03*
%TD*%
D29*
%TO.C,C26*%
X147750000Y-121125000D03*
X149300000Y-121125000D03*
%TD*%
D20*
%TO.C,R5*%
X151400000Y-78150000D03*
X149750000Y-78150000D03*
%TD*%
D14*
%TO.C,U6*%
X173462500Y-103012500D03*
X173962500Y-103012500D03*
X174462500Y-103012500D03*
X174962500Y-103012500D03*
D15*
X175225000Y-102250000D03*
X175225000Y-101750000D03*
X175225000Y-101250000D03*
D14*
X174962500Y-100487500D03*
X174462500Y-100487500D03*
X173962500Y-100487500D03*
X173462500Y-100487500D03*
D15*
X173200000Y-101250000D03*
X173200000Y-101750000D03*
X173200000Y-102250000D03*
%TD*%
D29*
%TO.C,C27*%
X147750000Y-126100000D03*
X149300000Y-126100000D03*
%TD*%
D13*
%TO.C,R4*%
X153950000Y-78150000D03*
X155600000Y-78150000D03*
%TD*%
D39*
%TO.C,R22*%
X106650000Y-118175000D03*
X106650000Y-116525000D03*
%TD*%
D32*
%TO.C,D6*%
X190475000Y-104450000D03*
X192050000Y-104450000D03*
%TD*%
D17*
%TO.C,R19*%
X147775000Y-122800000D03*
X147775000Y-124450000D03*
%TD*%
D20*
%TO.C,R21*%
X177600000Y-121700000D03*
X175950000Y-121700000D03*
%TD*%
D39*
%TO.C,R9*%
X177700000Y-128700000D03*
X177700000Y-127050000D03*
%TD*%
D28*
%TO.C,C14*%
X105205000Y-91180000D03*
X103655000Y-91180000D03*
%TD*%
D38*
%TO.C,SW3*%
X179350000Y-125475000D03*
X183450000Y-125475000D03*
X179350000Y-127075000D03*
X183450000Y-127075000D03*
%TD*%
D18*
%TO.C,J1*%
X162400000Y-73700000D03*
D19*
X158900000Y-73700000D03*
X155400000Y-73700000D03*
X151900000Y-73700000D03*
%TD*%
D33*
%TO.C,U2*%
X150212500Y-84850000D03*
X150212500Y-85350000D03*
X150212500Y-85850000D03*
X150212500Y-86350000D03*
X150212500Y-86850000D03*
X150212500Y-87350000D03*
X150212500Y-87850000D03*
D34*
X151175000Y-88812500D03*
X151675000Y-88812500D03*
X152175000Y-88812500D03*
X152675000Y-88812500D03*
X153175000Y-88812500D03*
X153675000Y-88812500D03*
X154175000Y-88812500D03*
D33*
X155137500Y-87850000D03*
X155137500Y-87350000D03*
X155137500Y-86850000D03*
X155137500Y-86350000D03*
X155137500Y-85850000D03*
X155137500Y-85350000D03*
X155137500Y-84850000D03*
D34*
X154175000Y-83887500D03*
X153675000Y-83887500D03*
X153175000Y-83887500D03*
X152675000Y-83887500D03*
X152175000Y-83887500D03*
X151675000Y-83887500D03*
X151175000Y-83887500D03*
D35*
X152675000Y-86350000D03*
%TD*%
D20*
%TO.C,R20*%
X171275000Y-78100000D03*
X169625000Y-78100000D03*
%TD*%
D28*
%TO.C,C17*%
X143475000Y-109150000D03*
X141925000Y-109150000D03*
%TD*%
D40*
%TO.C,D3*%
X180750000Y-121700000D03*
X179175000Y-121700000D03*
%TD*%
D28*
%TO.C,C20*%
X184075000Y-103280000D03*
X182525000Y-103280000D03*
%TD*%
D21*
%TO.C,C19*%
X188500000Y-111780000D03*
X188500000Y-110230000D03*
%TD*%
D41*
%TO.C,U7*%
X186700000Y-97380000D03*
X186700000Y-95080000D03*
D42*
X180400000Y-95080000D03*
D41*
X186700000Y-92780000D03*
%TD*%
D43*
%TO.C,U10*%
X190600000Y-94775000D03*
X191250000Y-94775000D03*
X191900000Y-94775000D03*
X191900000Y-93000000D03*
X191250000Y-93000000D03*
X190600000Y-93000000D03*
D23*
X191250000Y-93887500D03*
%TD*%
D20*
%TO.C,R13*%
X105250000Y-89550000D03*
X103600000Y-89550000D03*
%TD*%
D44*
%TO.C,J4*%
X194770000Y-117080000D03*
X194770000Y-111300000D03*
D45*
X193695000Y-117390000D03*
X193695000Y-116590000D03*
D46*
X193695000Y-115440000D03*
X193695000Y-114440000D03*
X193695000Y-113940000D03*
X193695000Y-112940000D03*
D45*
X193695000Y-111790000D03*
X193695000Y-110990000D03*
X193695000Y-110990000D03*
X193695000Y-111790000D03*
D46*
X193695000Y-112440000D03*
X193695000Y-113440000D03*
X193695000Y-114940000D03*
X193695000Y-115940000D03*
D45*
X193695000Y-116590000D03*
X193695000Y-117390000D03*
D47*
X194270000Y-119300000D03*
X198200000Y-119300000D03*
X194270000Y-109080000D03*
X198200000Y-109080000D03*
%TD*%
D48*
%TO.C,U3*%
X173950000Y-129560000D03*
X173950000Y-128290000D03*
X173950000Y-127020000D03*
X173950000Y-125750000D03*
X173950000Y-124480000D03*
X173950000Y-123210000D03*
X173950000Y-121940000D03*
X173950000Y-120670000D03*
X173950000Y-119400000D03*
X173950000Y-118130000D03*
X173950000Y-116860000D03*
X173950000Y-115590000D03*
X173950000Y-114320000D03*
X173950000Y-113050000D03*
D49*
X172185000Y-111800000D03*
X170915000Y-111800000D03*
X169645000Y-111800000D03*
X168375000Y-111800000D03*
X167105000Y-111800000D03*
X165835000Y-111800000D03*
X164565000Y-111800000D03*
X163295000Y-111800000D03*
X162025000Y-111800000D03*
X160755000Y-111800000D03*
X159485000Y-111800000D03*
X158215000Y-111800000D03*
D48*
X156450000Y-113050000D03*
X156450000Y-114320000D03*
X156450000Y-115590000D03*
X156450000Y-116860000D03*
X156450000Y-118130000D03*
X156450000Y-119400000D03*
X156450000Y-120670000D03*
X156450000Y-121940000D03*
X156450000Y-123210000D03*
X156450000Y-124480000D03*
X156450000Y-125750000D03*
X156450000Y-127020000D03*
X156450000Y-128290000D03*
X156450000Y-129560000D03*
D50*
X168100000Y-122540000D03*
X168100000Y-121140000D03*
X167400000Y-123240000D03*
X167400000Y-121840000D03*
X167400000Y-120440000D03*
X166700000Y-122540000D03*
D51*
X166700000Y-121840000D03*
D50*
X166700000Y-121140000D03*
X166000000Y-123240000D03*
X166000000Y-121840000D03*
X166000000Y-120440000D03*
X165300000Y-122540000D03*
X165300000Y-121140000D03*
%TD*%
D13*
%TO.C,R8*%
X173825000Y-78125000D03*
X175475000Y-78125000D03*
%TD*%
D39*
%TO.C,R10*%
X152675000Y-114650000D03*
X152675000Y-113000000D03*
%TD*%
D16*
%TO.C,C25*%
X166275000Y-85000000D03*
X166275000Y-86550000D03*
%TD*%
D13*
%TO.C,R2*%
X153575000Y-96400000D03*
X155225000Y-96400000D03*
%TD*%
D52*
%TO.C,BZ1*%
X120550000Y-122075000D03*
D53*
X112950000Y-122075000D03*
%TD*%
D40*
%TO.C,D1*%
X180750000Y-123500000D03*
X179175000Y-123500000D03*
%TD*%
D20*
%TO.C,R16*%
X143500000Y-107550000D03*
X141850000Y-107550000D03*
%TD*%
D54*
%TO.C,SW8*%
X145725000Y-124475000D03*
D55*
X145725000Y-119475000D03*
X145725000Y-121975000D03*
D56*
X138225000Y-127575000D03*
D55*
X131225000Y-124475000D03*
X131225000Y-119475000D03*
D56*
X138225000Y-116375000D03*
%TD*%
D20*
%TO.C,R12*%
X177600000Y-123500000D03*
X175950000Y-123500000D03*
%TD*%
D29*
%TO.C,C2*%
X174950000Y-96725000D03*
X176500000Y-96725000D03*
%TD*%
D18*
%TO.C,J2*%
X182200000Y-73600000D03*
D19*
X178700000Y-73600000D03*
X175200000Y-73600000D03*
X171700000Y-73600000D03*
%TD*%
D13*
%TO.C,R24*%
X193600000Y-104450000D03*
X195250000Y-104450000D03*
%TD*%
D28*
%TO.C,C15*%
X105150000Y-109100000D03*
X103600000Y-109100000D03*
%TD*%
D57*
%TO.C,U4*%
X170075000Y-92900000D03*
X169125000Y-92900000D03*
X168175000Y-92900000D03*
X168175000Y-95175000D03*
X169125000Y-95175000D03*
X170075000Y-95175000D03*
%TD*%
D28*
%TO.C,C23*%
X150875000Y-82375000D03*
X149325000Y-82375000D03*
%TD*%
D30*
%TO.C,U8*%
X118300000Y-81300000D03*
D31*
X120840000Y-81300000D03*
X123380000Y-81300000D03*
X125920000Y-81300000D03*
%TD*%
D21*
%TO.C,C12*%
X176025000Y-127025000D03*
X176025000Y-125475000D03*
%TD*%
D24*
%TO.C,SW6*%
X139040000Y-87710000D03*
X139040000Y-79750000D03*
X143540000Y-87710000D03*
X143540000Y-79750000D03*
%TD*%
D16*
%TO.C,C8*%
X147225000Y-85000000D03*
X147225000Y-86550000D03*
%TD*%
D58*
%TO.C,SW2*%
X151030000Y-105415000D03*
X153570000Y-105415000D03*
X153570000Y-98685000D03*
X151030000Y-98685000D03*
%TD*%
D59*
%TO.C,J3*%
X127400000Y-111600000D03*
X127400000Y-89200000D03*
%TD*%
M02*
