%TF.GenerationSoftware,KiCad,Pcbnew,8.0.8-8.0.8-0~ubuntu22.04.1*%
%TF.CreationDate,2025-02-02T20:21:50-05:00*%
%TF.ProjectId,Electronics,456c6563-7472-46f6-9e69-63732e6b6963,rev?*%
%TF.SameCoordinates,Original*%
%TF.FileFunction,Copper,L2,Bot*%
%TF.FilePolarity,Positive*%
%FSLAX46Y46*%
G04 Gerber Fmt 4.6, Leading zero omitted, Abs format (unit mm)*
G04 Created by KiCad (PCBNEW 8.0.8-8.0.8-0~ubuntu22.04.1) date 2025-02-02 20:21:50*
%MOMM*%
%LPD*%
G01*
G04 APERTURE LIST*
%TA.AperFunction,ComponentPad*%
%ADD10R,1.700000X1.700000*%
%TD*%
%TA.AperFunction,ComponentPad*%
%ADD11O,1.700000X1.700000*%
%TD*%
%TA.AperFunction,ComponentPad*%
%ADD12R,2.400000X2.400000*%
%TD*%
%TA.AperFunction,ComponentPad*%
%ADD13C,2.400000*%
%TD*%
%TA.AperFunction,HeatsinkPad*%
%ADD14C,0.600000*%
%TD*%
%TA.AperFunction,ComponentPad*%
%ADD15R,2.000000X2.000000*%
%TD*%
%TA.AperFunction,ComponentPad*%
%ADD16C,2.000000*%
%TD*%
%TA.AperFunction,ViaPad*%
%ADD17C,0.600000*%
%TD*%
%TA.AperFunction,Conductor*%
%ADD18C,0.200000*%
%TD*%
%TA.AperFunction,Conductor*%
%ADD19C,0.300000*%
%TD*%
G04 APERTURE END LIST*
D10*
%TO.P,U5,1,GND*%
%TO.N,GND*%
X177420000Y-77500000D03*
D11*
%TO.P,U5,2,VCC*%
%TO.N,VCC*%
X179960000Y-77500000D03*
%TO.P,U5,3,SDA*%
%TO.N,/SCL*%
X182500000Y-77500000D03*
%TO.P,U5,4,SCL*%
%TO.N,/SDA*%
X185040000Y-77500000D03*
%TD*%
D12*
%TO.P,J1,1,Pin_1*%
%TO.N,Net-(J1-Pin_1)*%
X164000000Y-75000000D03*
D13*
%TO.P,J1,2,Pin_2*%
%TO.N,Net-(J1-Pin_2)*%
X160500000Y-75000000D03*
%TO.P,J1,3,Pin_3*%
%TO.N,Net-(J1-Pin_3)*%
X157000000Y-75000000D03*
%TO.P,J1,4,Pin_4*%
%TO.N,Net-(J1-Pin_4)*%
X153500000Y-75000000D03*
%TD*%
D12*
%TO.P,BT1,1,+*%
%TO.N,/BAT*%
X195300000Y-118600000D03*
D13*
%TO.P,BT1,2,-*%
%TO.N,GND*%
X195300000Y-115100000D03*
%TD*%
D10*
%TO.P,U9,1,GND*%
%TO.N,GND*%
X114920000Y-77500000D03*
D11*
%TO.P,U9,2,VCC*%
%TO.N,VCC*%
X117460000Y-77500000D03*
%TO.P,U9,3,SDA*%
%TO.N,/SCL*%
X120000000Y-77500000D03*
%TO.P,U9,4,SCL*%
%TO.N,/SDA*%
X122540000Y-77500000D03*
%TD*%
D14*
%TO.P,U1,41,GND*%
%TO.N,GND*%
X153000000Y-114600000D03*
X153000000Y-113200000D03*
X152300000Y-115300000D03*
X152300000Y-113900000D03*
X152300000Y-112500000D03*
X151600000Y-114600000D03*
X151600000Y-113200000D03*
X150900000Y-115300000D03*
X150900000Y-113900000D03*
X150900000Y-112500000D03*
X150200000Y-114600000D03*
X150200000Y-113200000D03*
%TD*%
D12*
%TO.P,J3,1,Pin_1*%
%TO.N,Net-(J3-Pin_1)*%
X146500000Y-75000000D03*
D13*
%TO.P,J3,2,Pin_2*%
%TO.N,Net-(J3-Pin_2)*%
X143000000Y-75000000D03*
%TO.P,J3,3,Pin_3*%
%TO.N,Net-(J3-Pin_3)*%
X139500000Y-75000000D03*
%TO.P,J3,4,Pin_4*%
%TO.N,Net-(J3-Pin_4)*%
X136000000Y-75000000D03*
%TD*%
D15*
%TO.P,BZ1,1,+*%
%TO.N,/BUZZ*%
X136300000Y-115000000D03*
D16*
%TO.P,BZ1,2,-*%
%TO.N,GND*%
X128700000Y-115000000D03*
%TD*%
D17*
%TO.N,GND*%
X145900000Y-84600000D03*
X155650000Y-87700000D03*
X162000000Y-105700000D03*
X157600000Y-99600000D03*
X155100000Y-98500000D03*
X137000000Y-91200000D03*
X157400000Y-105700000D03*
X141000000Y-103700000D03*
X177300000Y-114000000D03*
X165200000Y-86000000D03*
X154800000Y-121400000D03*
X165200000Y-88200000D03*
X141550000Y-84500000D03*
X153800000Y-98500000D03*
X164000000Y-111200000D03*
X162600000Y-84800000D03*
X140200000Y-88400000D03*
X162400000Y-115500000D03*
X159500000Y-80800000D03*
X164750000Y-118300000D03*
X156800000Y-80700000D03*
X140300000Y-80700000D03*
X142850000Y-80750000D03*
X139000000Y-102400000D03*
X179200000Y-116900000D03*
X167500000Y-100800000D03*
X158050000Y-84512500D03*
X164800000Y-120100000D03*
X162100000Y-113100000D03*
%TO.N,/BAT*%
X155300000Y-79900000D03*
X140000000Y-79800000D03*
X144200000Y-79700000D03*
X161250000Y-80000000D03*
X155000000Y-89200000D03*
X138600000Y-89300000D03*
%TO.N,/STEP_CURR*%
X148700000Y-88500000D03*
X145500000Y-99100000D03*
%TO.N,VCC*%
X133787500Y-99887500D03*
X150400000Y-91200000D03*
X161650000Y-102350000D03*
X143800000Y-88200000D03*
X141500000Y-88600000D03*
X167300000Y-94900000D03*
X166500000Y-87250000D03*
X185400000Y-110600000D03*
X189900000Y-107000000D03*
X166500000Y-91800000D03*
X161300000Y-118400000D03*
X139300000Y-120700000D03*
X161200000Y-87250000D03*
X156900000Y-88400000D03*
X161300000Y-120100000D03*
X160200000Y-102200000D03*
X168300000Y-117900000D03*
%TO.N,Net-(J1-Pin_2)*%
X161900000Y-82300000D03*
%TO.N,Net-(J3-Pin_2)*%
X145500000Y-82300000D03*
%TO.N,/D-*%
X181400000Y-120400000D03*
X160700000Y-106400000D03*
%TO.N,/D+*%
X181260000Y-121346193D03*
X160700000Y-105100000D03*
%TO.N,/STEP_L_UART*%
X142873000Y-97173000D03*
X142600000Y-113900000D03*
%TO.N,/STEP_R_UART*%
X159500000Y-88200000D03*
X160200000Y-90900000D03*
%TO.N,/SDA*%
X169300000Y-88900000D03*
X140100000Y-97900000D03*
X162400000Y-97100000D03*
X159300000Y-100800000D03*
X135775735Y-95824265D03*
X120200000Y-80300000D03*
X170350000Y-87850000D03*
%TO.N,/SCL*%
X155900000Y-108300000D03*
X155900000Y-106200000D03*
X143400000Y-105200000D03*
X157200000Y-109700000D03*
X170000000Y-90000000D03*
X142950000Y-99350000D03*
%TO.N,/BTN5*%
X154500000Y-105300000D03*
X171600000Y-107300000D03*
%TO.N,/BTN6*%
X171800000Y-117300000D03*
X153200000Y-105300000D03*
%TO.N,/BTN7*%
X138200000Y-118100000D03*
X152000000Y-105300000D03*
%TO.N,/BTN8*%
X150700000Y-105300000D03*
X139000000Y-117000000D03*
%TO.N,/BTN9*%
X135751470Y-119100000D03*
X149400000Y-105300000D03*
%TO.N,/STEP_R_STEP*%
X144900000Y-110190000D03*
X157209389Y-89200000D03*
%TO.N,/~{STEP_EN}*%
X152700000Y-83800000D03*
X144400000Y-98500000D03*
%TO.N,/STEP_L_DIR*%
X146800000Y-84200000D03*
X143800000Y-106900000D03*
%TO.N,/SPREAD*%
X141000000Y-97100000D03*
X149400000Y-91100000D03*
X139600000Y-112900000D03*
X140975735Y-90024265D03*
X143700000Y-91100000D03*
X154300000Y-87900000D03*
%TO.N,/STEP_R_DIR*%
X151900000Y-96900000D03*
X144900000Y-111500000D03*
%TO.N,/STEP_L_DIAG*%
X142073641Y-97205069D03*
X142800000Y-108300000D03*
%TO.N,/STEP_L_STEP*%
X143925735Y-105925735D03*
X145100000Y-85800000D03*
%TO.N,/STEP_R_DIAG*%
X144875735Y-112375735D03*
X152800000Y-96900000D03*
X158700000Y-88800000D03*
X158000000Y-90900000D03*
%TD*%
D18*
%TO.N,GND*%
X164800000Y-120100000D02*
X164750000Y-120050000D01*
X162000000Y-105700000D02*
X157400000Y-105700000D01*
X162400000Y-115500000D02*
X164000000Y-113900000D01*
X158400000Y-99600000D02*
X165200000Y-92800000D01*
X157600000Y-99600000D02*
X158400000Y-99600000D01*
X152300000Y-118900000D02*
X152300000Y-115300000D01*
X139700000Y-102400000D02*
X141000000Y-103700000D01*
X139000000Y-102400000D02*
X139700000Y-102400000D01*
X164750000Y-120050000D02*
X164750000Y-118300000D01*
X154800000Y-121400000D02*
X152300000Y-118900000D01*
X165200000Y-92800000D02*
X165200000Y-88200000D01*
X164000000Y-113900000D02*
X164000000Y-111200000D01*
X164800000Y-120100000D02*
X164900000Y-120100000D01*
D19*
%TO.N,/BAT*%
X155000000Y-89200000D02*
X155000000Y-83500000D01*
X144200000Y-79700000D02*
X144850000Y-80350000D01*
X161250000Y-80000000D02*
X155400000Y-80000000D01*
X140000000Y-79800000D02*
X140100000Y-79700000D01*
X144850000Y-80350000D02*
X144850000Y-82569239D01*
X155300000Y-79900000D02*
X154550000Y-80650000D01*
X138600000Y-89300000D02*
X138600000Y-89400000D01*
X145330761Y-83050000D02*
X154550000Y-83050000D01*
X155400000Y-80000000D02*
X155300000Y-79900000D01*
X140000000Y-79800000D02*
X138600000Y-81200000D01*
X144850000Y-82569239D02*
X145330761Y-83050000D01*
X154550000Y-80650000D02*
X154550000Y-83050000D01*
X140100000Y-79700000D02*
X144200000Y-79700000D01*
X155000000Y-83500000D02*
X154550000Y-83050000D01*
X138600000Y-81200000D02*
X138600000Y-89300000D01*
D18*
%TO.N,/STEP_CURR*%
X145500000Y-99100000D02*
X145500000Y-95500000D01*
X145500000Y-95500000D02*
X148700000Y-92300000D01*
X148700000Y-92300000D02*
X148700000Y-88500000D01*
%TO.N,VCC*%
X141500000Y-88600000D02*
X143400000Y-88600000D01*
X139300000Y-120700000D02*
X140600000Y-122000000D01*
X168300000Y-119100000D02*
X166500000Y-120900000D01*
X133400000Y-96700000D02*
X133400000Y-99500000D01*
X117460000Y-77500000D02*
X117460000Y-81260000D01*
X189900000Y-107000000D02*
X186300000Y-110600000D01*
X158251471Y-88400000D02*
X159051471Y-87600000D01*
X141500000Y-88600000D02*
X133400000Y-96700000D01*
X160500000Y-87600000D02*
X160850000Y-87250000D01*
X160200000Y-102200000D02*
X161500000Y-102200000D01*
X186300000Y-110600000D02*
X185400000Y-110600000D01*
X140600000Y-122000000D02*
X159400000Y-122000000D01*
X173050000Y-87250000D02*
X179960000Y-80340000D01*
X156400000Y-88900000D02*
X156400000Y-89160860D01*
X133400000Y-99500000D02*
X133787500Y-99887500D01*
X160850000Y-87250000D02*
X161200000Y-87250000D01*
X156900000Y-88400000D02*
X156400000Y-88900000D01*
X117460000Y-81260000D02*
X132900000Y-96700000D01*
X154060860Y-91500000D02*
X150700000Y-91500000D01*
X156900000Y-88400000D02*
X158251471Y-88400000D01*
X166500000Y-120900000D02*
X162100000Y-120900000D01*
X161500000Y-102200000D02*
X161650000Y-102350000D01*
X167300000Y-94900000D02*
X167300000Y-92600000D01*
X156400000Y-89160860D02*
X154060860Y-91500000D01*
X168300000Y-117900000D02*
X168300000Y-119100000D01*
X162100000Y-120900000D02*
X161300000Y-120100000D01*
X150700000Y-91500000D02*
X150400000Y-91200000D01*
X143400000Y-88600000D02*
X143800000Y-88200000D01*
X179960000Y-80340000D02*
X179960000Y-77500000D01*
X166500000Y-87250000D02*
X173050000Y-87250000D01*
X161200000Y-87250000D02*
X166500000Y-87250000D01*
X167300000Y-92600000D02*
X166500000Y-91800000D01*
X159051471Y-87600000D02*
X160500000Y-87600000D01*
X161300000Y-118400000D02*
X161300000Y-120100000D01*
X159400000Y-122000000D02*
X161300000Y-120100000D01*
X132900000Y-96700000D02*
X133400000Y-96700000D01*
D19*
%TO.N,Net-(J1-Pin_2)*%
X161900000Y-82300000D02*
X161900000Y-76400000D01*
X161900000Y-76400000D02*
X160500000Y-75000000D01*
%TO.N,Net-(J3-Pin_2)*%
X145900000Y-81900000D02*
X145900000Y-77900000D01*
X145500000Y-82300000D02*
X145900000Y-81900000D01*
X145900000Y-77900000D02*
X143000000Y-75000000D01*
D18*
%TO.N,/D-*%
X160700000Y-106400000D02*
X163547469Y-106400000D01*
X163787469Y-106160000D02*
X163787469Y-105690000D01*
X165643861Y-106400000D02*
X165038883Y-106400000D01*
X166716138Y-106640000D02*
X166716138Y-106710000D01*
X164387469Y-105690000D02*
X164387469Y-106160000D01*
X166476138Y-106950000D02*
X166356138Y-106950000D01*
X180900000Y-115751471D02*
X171548529Y-106400000D01*
X164027469Y-105450000D02*
X164147469Y-105450000D01*
X164627469Y-106400000D02*
X164747469Y-106400000D01*
X180900000Y-117065021D02*
X180900000Y-116684304D01*
X180900000Y-116391444D02*
X180900000Y-115751471D01*
X181400000Y-120400000D02*
X180900000Y-119900000D01*
X165876138Y-106400000D02*
X165756138Y-106400000D01*
X171548529Y-106400000D02*
X166956138Y-106400000D01*
X165756138Y-106400000D02*
X165643861Y-106400000D01*
X164747469Y-106400000D02*
X165038883Y-106400000D01*
X166116138Y-106710000D02*
X166116138Y-106640000D01*
X180900000Y-119900000D02*
X180900000Y-117065021D01*
X180900000Y-116391444D02*
X180900000Y-116684304D01*
X164387469Y-106160000D02*
G75*
G03*
X164627469Y-106400031I240031J0D01*
G01*
X164147469Y-105450000D02*
G75*
G02*
X164387500Y-105690000I31J-240000D01*
G01*
X166116138Y-106640000D02*
G75*
G03*
X165876138Y-106399962I-240038J0D01*
G01*
X166956138Y-106400000D02*
G75*
G03*
X166716100Y-106640000I-38J-240000D01*
G01*
X163787469Y-105690000D02*
G75*
G02*
X164027469Y-105449969I240031J0D01*
G01*
X163547469Y-106400000D02*
G75*
G03*
X163787500Y-106160000I31J240000D01*
G01*
X166716138Y-106710000D02*
G75*
G02*
X166476138Y-106950038I-240038J0D01*
G01*
X166356138Y-106950000D02*
G75*
G02*
X166116100Y-106710000I-38J240000D01*
G01*
%TO.N,/D+*%
X172200000Y-105100000D02*
X166242183Y-105100000D01*
X181260000Y-121346193D02*
X181502336Y-121346193D01*
X160700000Y-105100000D02*
X165377840Y-105100000D01*
X182000000Y-120848529D02*
X182000000Y-114900000D01*
X182000000Y-114900000D02*
X172200000Y-105100000D01*
X165377840Y-105100000D02*
X166242183Y-105100000D01*
X181502336Y-121346193D02*
X182000000Y-120848529D01*
%TO.N,/STEP_L_UART*%
X142327000Y-98492000D02*
X142327000Y-106275529D01*
X142873000Y-97946000D02*
X142327000Y-98492000D01*
X142873000Y-97173000D02*
X142873000Y-97946000D01*
X143900000Y-107848529D02*
X143900000Y-112600000D01*
X142327000Y-106275529D02*
X143900000Y-107848529D01*
X143900000Y-112600000D02*
X142600000Y-113900000D01*
%TO.N,/STEP_R_UART*%
X159500000Y-90200000D02*
X160200000Y-90900000D01*
X159500000Y-88200000D02*
X159500000Y-90200000D01*
%TO.N,/SDA*%
X162100000Y-97100000D02*
X159300000Y-99900000D01*
X120200000Y-80300000D02*
X120200000Y-79840000D01*
X137851470Y-97900000D02*
X140100000Y-97900000D01*
X159300000Y-99900000D02*
X159300000Y-100800000D01*
X120200000Y-79840000D02*
X122540000Y-77500000D01*
X170350000Y-87850000D02*
X169300000Y-88900000D01*
X162400000Y-97100000D02*
X162100000Y-97100000D01*
X135775735Y-95824265D02*
X137851470Y-97900000D01*
%TO.N,/SCL*%
X143400000Y-99800000D02*
X142950000Y-99350000D01*
X155900000Y-106200000D02*
X155900000Y-102750000D01*
X142950000Y-99350000D02*
X142900000Y-99300000D01*
X170800000Y-90000000D02*
X182500000Y-78300000D01*
X155900000Y-108400000D02*
X155900000Y-108300000D01*
X165700000Y-92950000D02*
X165700000Y-91000000D01*
X165700000Y-91000000D02*
X166700000Y-90000000D01*
X166700000Y-90000000D02*
X170000000Y-90000000D01*
X170000000Y-90000000D02*
X170800000Y-90000000D01*
X182500000Y-78300000D02*
X182500000Y-77500000D01*
X143400000Y-105200000D02*
X143400000Y-99800000D01*
X155900000Y-102750000D02*
X165700000Y-92950000D01*
X157200000Y-109700000D02*
X155900000Y-108400000D01*
%TO.N,/BTN5*%
X155500000Y-107300000D02*
X171600000Y-107300000D01*
X154500000Y-105300000D02*
X154500000Y-106300000D01*
X154500000Y-106300000D02*
X155500000Y-107300000D01*
%TO.N,/BTN6*%
X153200000Y-109600000D02*
X153200000Y-105300000D01*
X171800000Y-117300000D02*
X160900000Y-117300000D01*
X160900000Y-117300000D02*
X153200000Y-109600000D01*
%TO.N,/BTN7*%
X142600000Y-118100000D02*
X152000000Y-108700000D01*
X138200000Y-118100000D02*
X142600000Y-118100000D01*
X152000000Y-108700000D02*
X152000000Y-105300000D01*
%TO.N,/BTN8*%
X150700000Y-108700000D02*
X150700000Y-105300000D01*
X139000000Y-117000000D02*
X142400000Y-117000000D01*
X142400000Y-117000000D02*
X150700000Y-108700000D01*
%TO.N,/BTN9*%
X135751470Y-119100000D02*
X135751471Y-119100000D01*
X135751471Y-119100000D02*
X138951471Y-115900000D01*
X138951471Y-115900000D02*
X142200000Y-115900000D01*
X142200000Y-115900000D02*
X149400000Y-108700000D01*
X149400000Y-108700000D02*
X149400000Y-105300000D01*
%TO.N,/STEP_R_STEP*%
X147100000Y-108500000D02*
X147100000Y-104400000D01*
X145410000Y-110190000D02*
X147100000Y-108500000D01*
X151300000Y-100200000D02*
X151300000Y-99600000D01*
X156600000Y-91000000D02*
X151300000Y-96300000D01*
X144900000Y-110190000D02*
X145410000Y-110190000D01*
X151300000Y-96300000D02*
X151300000Y-99600000D01*
X157209389Y-89200000D02*
X156600000Y-89809389D01*
X156600000Y-89809389D02*
X156600000Y-91000000D01*
X147100000Y-104400000D02*
X151300000Y-100200000D01*
%TO.N,/~{STEP_EN}*%
X152700000Y-83800000D02*
X152551471Y-83800000D01*
X148100000Y-92100000D02*
X145100000Y-95100000D01*
X152551471Y-83800000D02*
X148100000Y-88251471D01*
X145100000Y-97700000D02*
X144400000Y-98400000D01*
X148100000Y-88251471D02*
X148100000Y-92100000D01*
X144400000Y-98400000D02*
X144400000Y-98500000D01*
X145100000Y-95100000D02*
X145100000Y-97700000D01*
%TO.N,/STEP_L_DIR*%
X143800000Y-98251471D02*
X143800000Y-98748529D01*
X146800000Y-84200000D02*
X146800000Y-86800000D01*
X144900000Y-105800000D02*
X143800000Y-106900000D01*
X144700000Y-88900000D02*
X144700000Y-97351471D01*
X143800000Y-98748529D02*
X144900000Y-99848529D01*
X144900000Y-99848529D02*
X144900000Y-105800000D01*
X146800000Y-86800000D02*
X144700000Y-88900000D01*
X144700000Y-97351471D02*
X143800000Y-98251471D01*
%TO.N,/SPREAD*%
X142051470Y-91100000D02*
X140975735Y-90024265D01*
X150400000Y-90100000D02*
X149400000Y-91100000D01*
X141673000Y-105227000D02*
X139600000Y-107300000D01*
X141673000Y-97773000D02*
X141673000Y-105227000D01*
X154300000Y-87900000D02*
X154300000Y-89700000D01*
X154300000Y-89700000D02*
X153900000Y-90100000D01*
X139600000Y-107300000D02*
X139600000Y-112900000D01*
X141000000Y-97100000D02*
X141673000Y-97773000D01*
X143700000Y-91100000D02*
X142051470Y-91100000D01*
X153900000Y-90100000D02*
X150400000Y-90100000D01*
%TO.N,/STEP_R_DIR*%
X147600000Y-108800000D02*
X144900000Y-111500000D01*
X147600000Y-104800000D02*
X147600000Y-108800000D01*
X151900000Y-100500000D02*
X147600000Y-104800000D01*
X151900000Y-96900000D02*
X151900000Y-100500000D01*
%TO.N,/STEP_L_DIAG*%
X142000000Y-107500000D02*
X142800000Y-108300000D01*
X142000000Y-97278710D02*
X142000000Y-107500000D01*
X142073641Y-97205069D02*
X142000000Y-97278710D01*
%TO.N,/STEP_L_STEP*%
X143473000Y-98883977D02*
X143473000Y-98116023D01*
X144573000Y-99983977D02*
X143473000Y-98883977D01*
X144300000Y-97289023D02*
X144300000Y-88800000D01*
X145473000Y-87627000D02*
X145473000Y-86173000D01*
X145473000Y-86173000D02*
X145100000Y-85800000D01*
X143473000Y-98116023D02*
X144300000Y-97289023D01*
X143925735Y-105925735D02*
X144573000Y-105278470D01*
X144573000Y-105278470D02*
X144573000Y-99983977D01*
X144300000Y-88800000D02*
X145473000Y-87627000D01*
%TO.N,/STEP_R_DIAG*%
X158700000Y-88800000D02*
X158000000Y-89500000D01*
X144875735Y-112375735D02*
X145000000Y-112251470D01*
X148800000Y-104400000D02*
X152800000Y-100400000D01*
X152800000Y-100400000D02*
X152800000Y-96900000D01*
X148800000Y-108451470D02*
X148800000Y-104400000D01*
X158000000Y-89500000D02*
X158000000Y-90900000D01*
X145000000Y-112251470D02*
X148800000Y-108451470D01*
%TD*%
%TA.AperFunction,Conductor*%
%TO.N,GND*%
G36*
X167450717Y-117920185D02*
G01*
X167496472Y-117972989D01*
X167506898Y-118010617D01*
X167514630Y-118079249D01*
X167574210Y-118249521D01*
X167574211Y-118249522D01*
X167668760Y-118399996D01*
X167670185Y-118402263D01*
X167672445Y-118405097D01*
X167673334Y-118407275D01*
X167673889Y-118408158D01*
X167673734Y-118408255D01*
X167698855Y-118469783D01*
X167699500Y-118482412D01*
X167699500Y-118799903D01*
X167679815Y-118866942D01*
X167663181Y-118887584D01*
X166287584Y-120263181D01*
X166226261Y-120296666D01*
X166199903Y-120299500D01*
X162400097Y-120299500D01*
X162333058Y-120279815D01*
X162312416Y-120263181D01*
X162130700Y-120081465D01*
X162097215Y-120020142D01*
X162095163Y-120007686D01*
X162085368Y-119920745D01*
X162025789Y-119750478D01*
X161929816Y-119597738D01*
X161929814Y-119597736D01*
X161929813Y-119597734D01*
X161927550Y-119594896D01*
X161926659Y-119592715D01*
X161926111Y-119591842D01*
X161926264Y-119591745D01*
X161901144Y-119530209D01*
X161900500Y-119517587D01*
X161900500Y-118982412D01*
X161920185Y-118915373D01*
X161927555Y-118905097D01*
X161929810Y-118902267D01*
X161929816Y-118902262D01*
X162025789Y-118749522D01*
X162085368Y-118579255D01*
X162085369Y-118579249D01*
X162105565Y-118400003D01*
X162105565Y-118399996D01*
X162085369Y-118220750D01*
X162085367Y-118220742D01*
X162031030Y-118065454D01*
X162027469Y-117995676D01*
X162062198Y-117935048D01*
X162124191Y-117902821D01*
X162148072Y-117900500D01*
X167383678Y-117900500D01*
X167450717Y-117920185D01*
G37*
%TD.AperFunction*%
%TA.AperFunction,Conductor*%
G36*
X165984627Y-87870185D02*
G01*
X165994903Y-87877555D01*
X165997736Y-87879814D01*
X165997738Y-87879816D01*
X166094195Y-87940424D01*
X166141557Y-87970184D01*
X166150478Y-87975789D01*
X166315112Y-88033397D01*
X166320745Y-88035368D01*
X166320750Y-88035369D01*
X166499996Y-88055565D01*
X166500000Y-88055565D01*
X166500004Y-88055565D01*
X166679249Y-88035369D01*
X166679252Y-88035368D01*
X166679255Y-88035368D01*
X166849522Y-87975789D01*
X167002262Y-87879816D01*
X167002267Y-87879810D01*
X167005097Y-87877555D01*
X167007275Y-87876665D01*
X167008158Y-87876111D01*
X167008255Y-87876265D01*
X167069783Y-87851145D01*
X167082412Y-87850500D01*
X169200902Y-87850500D01*
X169267941Y-87870185D01*
X169313696Y-87922989D01*
X169323640Y-87992147D01*
X169294615Y-88055703D01*
X169288577Y-88062187D01*
X169281459Y-88069304D01*
X169220134Y-88102785D01*
X169207668Y-88104837D01*
X169120750Y-88114630D01*
X168950478Y-88174210D01*
X168797737Y-88270184D01*
X168670184Y-88397737D01*
X168574211Y-88550476D01*
X168514631Y-88720745D01*
X168514630Y-88720750D01*
X168494435Y-88899996D01*
X168494435Y-88900003D01*
X168514630Y-89079249D01*
X168514632Y-89079257D01*
X168568970Y-89234546D01*
X168572531Y-89304324D01*
X168537802Y-89364952D01*
X168475809Y-89397179D01*
X168451928Y-89399500D01*
X166786670Y-89399500D01*
X166786654Y-89399499D01*
X166779058Y-89399499D01*
X166620943Y-89399499D01*
X166544579Y-89419961D01*
X166468214Y-89440423D01*
X166468209Y-89440426D01*
X166331290Y-89519475D01*
X166331282Y-89519481D01*
X165219481Y-90631282D01*
X165219479Y-90631285D01*
X165208705Y-90649947D01*
X165179518Y-90700501D01*
X165140423Y-90768215D01*
X165099499Y-90920943D01*
X165099499Y-90920945D01*
X165099499Y-91089046D01*
X165099500Y-91089059D01*
X165099500Y-92649902D01*
X165079815Y-92716941D01*
X165063181Y-92737583D01*
X155419481Y-102381282D01*
X155419480Y-102381284D01*
X155390324Y-102431784D01*
X155340423Y-102518215D01*
X155299499Y-102670943D01*
X155299499Y-102670945D01*
X155299499Y-102839046D01*
X155299500Y-102839059D01*
X155299500Y-104668060D01*
X155279815Y-104735099D01*
X155227011Y-104780854D01*
X155157853Y-104790798D01*
X155094297Y-104761773D01*
X155087819Y-104755741D01*
X155002262Y-104670184D01*
X154849523Y-104574211D01*
X154679254Y-104514631D01*
X154679249Y-104514630D01*
X154500004Y-104494435D01*
X154499996Y-104494435D01*
X154320750Y-104514630D01*
X154320745Y-104514631D01*
X154150476Y-104574211D01*
X153997737Y-104670184D01*
X153937681Y-104730241D01*
X153876358Y-104763726D01*
X153806666Y-104758742D01*
X153762319Y-104730241D01*
X153702262Y-104670184D01*
X153549523Y-104574211D01*
X153379254Y-104514631D01*
X153379249Y-104514630D01*
X153200004Y-104494435D01*
X153199996Y-104494435D01*
X153020750Y-104514630D01*
X153020745Y-104514631D01*
X152850476Y-104574211D01*
X152697737Y-104670184D01*
X152687681Y-104680241D01*
X152626358Y-104713726D01*
X152556666Y-104708742D01*
X152512319Y-104680241D01*
X152502262Y-104670184D01*
X152349523Y-104574211D01*
X152179254Y-104514631D01*
X152179249Y-104514630D01*
X152000004Y-104494435D01*
X151999996Y-104494435D01*
X151820750Y-104514630D01*
X151820745Y-104514631D01*
X151650476Y-104574211D01*
X151497737Y-104670184D01*
X151437681Y-104730241D01*
X151376358Y-104763726D01*
X151306666Y-104758742D01*
X151262319Y-104730241D01*
X151202262Y-104670184D01*
X151049523Y-104574211D01*
X150879254Y-104514631D01*
X150879249Y-104514630D01*
X150700004Y-104494435D01*
X150699996Y-104494435D01*
X150520750Y-104514630D01*
X150520745Y-104514631D01*
X150350476Y-104574211D01*
X150197737Y-104670184D01*
X150137681Y-104730241D01*
X150076358Y-104763726D01*
X150006666Y-104758742D01*
X149962319Y-104730241D01*
X149902262Y-104670184D01*
X149749521Y-104574210D01*
X149732447Y-104568236D01*
X149675671Y-104527514D01*
X149649923Y-104462562D01*
X149663379Y-104394000D01*
X149685717Y-104363516D01*
X153158506Y-100890728D01*
X153158511Y-100890724D01*
X153168714Y-100880520D01*
X153168716Y-100880520D01*
X153280520Y-100768716D01*
X153335857Y-100672868D01*
X153359577Y-100631785D01*
X153400500Y-100479058D01*
X153400500Y-100320943D01*
X153400500Y-97482412D01*
X153420185Y-97415373D01*
X153427555Y-97405097D01*
X153429810Y-97402267D01*
X153429816Y-97402262D01*
X153525789Y-97249522D01*
X153585368Y-97079255D01*
X153585369Y-97079249D01*
X153605565Y-96900003D01*
X153605565Y-96899996D01*
X153585369Y-96720750D01*
X153585368Y-96720745D01*
X153574889Y-96690798D01*
X153525789Y-96550478D01*
X153499581Y-96508769D01*
X153475337Y-96470184D01*
X153429816Y-96397738D01*
X153302262Y-96270184D01*
X153223899Y-96220945D01*
X153149523Y-96174211D01*
X152979254Y-96114631D01*
X152979249Y-96114630D01*
X152800004Y-96094435D01*
X152799996Y-96094435D01*
X152650410Y-96111288D01*
X152581588Y-96099233D01*
X152530209Y-96051884D01*
X152512585Y-95984273D01*
X152534312Y-95917868D01*
X152548841Y-95900392D01*
X156958506Y-91490728D01*
X156958511Y-91490724D01*
X156968714Y-91480520D01*
X156968716Y-91480520D01*
X157080520Y-91368716D01*
X157106238Y-91324169D01*
X157156802Y-91275955D01*
X157225409Y-91262730D01*
X157290274Y-91288697D01*
X157318619Y-91320197D01*
X157370184Y-91402262D01*
X157497738Y-91529816D01*
X157588080Y-91586582D01*
X157642450Y-91620745D01*
X157650478Y-91625789D01*
X157747033Y-91659575D01*
X157820745Y-91685368D01*
X157820750Y-91685369D01*
X157999996Y-91705565D01*
X158000000Y-91705565D01*
X158000004Y-91705565D01*
X158179249Y-91685369D01*
X158179252Y-91685368D01*
X158179255Y-91685368D01*
X158349522Y-91625789D01*
X158502262Y-91529816D01*
X158629816Y-91402262D01*
X158725789Y-91249522D01*
X158785368Y-91079255D01*
X158785390Y-91079060D01*
X158805565Y-90900003D01*
X158805565Y-90899996D01*
X158785369Y-90720750D01*
X158785366Y-90720737D01*
X158726880Y-90553595D01*
X158726466Y-90545504D01*
X158717755Y-90537692D01*
X158677316Y-90473334D01*
X158629816Y-90397738D01*
X158629814Y-90397736D01*
X158629813Y-90397734D01*
X158627550Y-90394896D01*
X158626659Y-90392715D01*
X158626111Y-90391842D01*
X158626264Y-90391745D01*
X158601144Y-90330209D01*
X158600500Y-90317587D01*
X158600500Y-89800097D01*
X158620185Y-89733058D01*
X158636819Y-89712416D01*
X158687819Y-89661416D01*
X158749142Y-89627931D01*
X158818834Y-89632915D01*
X158874767Y-89674787D01*
X158899184Y-89740251D01*
X158899500Y-89749097D01*
X158899500Y-90113330D01*
X158899499Y-90113348D01*
X158899499Y-90120943D01*
X158899499Y-90279057D01*
X158920786Y-90358501D01*
X158942204Y-90438434D01*
X158944683Y-90440370D01*
X158951307Y-90450637D01*
X158962593Y-90470184D01*
X159014204Y-90559577D01*
X159019479Y-90568714D01*
X159019481Y-90568717D01*
X159138349Y-90687585D01*
X159138355Y-90687590D01*
X159369298Y-90918533D01*
X159402783Y-90979856D01*
X159404837Y-90992330D01*
X159414630Y-91079249D01*
X159474210Y-91249521D01*
X159504507Y-91297738D01*
X159570184Y-91402262D01*
X159697738Y-91529816D01*
X159788080Y-91586582D01*
X159842450Y-91620745D01*
X159850478Y-91625789D01*
X159947033Y-91659575D01*
X160020745Y-91685368D01*
X160020750Y-91685369D01*
X160199996Y-91705565D01*
X160200000Y-91705565D01*
X160200004Y-91705565D01*
X160379249Y-91685369D01*
X160379252Y-91685368D01*
X160379255Y-91685368D01*
X160549522Y-91625789D01*
X160702262Y-91529816D01*
X160829816Y-91402262D01*
X160925789Y-91249522D01*
X160985368Y-91079255D01*
X160985390Y-91079060D01*
X161005565Y-90900003D01*
X161005565Y-90899996D01*
X160985369Y-90720750D01*
X160985368Y-90720745D01*
X160956001Y-90636818D01*
X160925789Y-90550478D01*
X160906310Y-90519478D01*
X160876758Y-90472445D01*
X160829816Y-90397738D01*
X160702262Y-90270184D01*
X160621906Y-90219693D01*
X160549521Y-90174210D01*
X160379249Y-90114630D01*
X160292330Y-90104837D01*
X160227916Y-90077770D01*
X160218533Y-90069298D01*
X160136819Y-89987584D01*
X160103334Y-89926261D01*
X160100500Y-89899903D01*
X160100500Y-88782412D01*
X160120185Y-88715373D01*
X160127555Y-88705097D01*
X160129810Y-88702267D01*
X160129816Y-88702262D01*
X160225789Y-88549522D01*
X160285368Y-88379255D01*
X160285369Y-88379249D01*
X160293102Y-88310618D01*
X160320168Y-88246204D01*
X160377763Y-88206649D01*
X160416322Y-88200501D01*
X160579054Y-88200501D01*
X160579057Y-88200501D01*
X160731785Y-88159577D01*
X160781904Y-88130639D01*
X160868716Y-88080520D01*
X160886476Y-88062759D01*
X160947797Y-88029273D01*
X161015112Y-88033397D01*
X161020745Y-88035368D01*
X161080496Y-88042100D01*
X161199996Y-88055565D01*
X161200000Y-88055565D01*
X161200004Y-88055565D01*
X161379249Y-88035369D01*
X161379252Y-88035368D01*
X161379255Y-88035368D01*
X161549522Y-87975789D01*
X161702262Y-87879816D01*
X161702267Y-87879810D01*
X161705097Y-87877555D01*
X161707275Y-87876665D01*
X161708158Y-87876111D01*
X161708255Y-87876265D01*
X161769783Y-87851145D01*
X161782412Y-87850500D01*
X165917588Y-87850500D01*
X165984627Y-87870185D01*
G37*
%TD.AperFunction*%
%TA.AperFunction,Conductor*%
G36*
X143760904Y-80369506D02*
G01*
X143850477Y-80425789D01*
X143850481Y-80425790D01*
X144020737Y-80485366D01*
X144020741Y-80485366D01*
X144020745Y-80485368D01*
X144027974Y-80486182D01*
X144092388Y-80513246D01*
X144101776Y-80521722D01*
X144163181Y-80583127D01*
X144196666Y-80644450D01*
X144199500Y-80670808D01*
X144199500Y-82633308D01*
X144219635Y-82734530D01*
X144224499Y-82758983D01*
X144273535Y-82877366D01*
X144344723Y-82983908D01*
X144344726Y-82983912D01*
X144916087Y-83555273D01*
X144916090Y-83555275D01*
X144916092Y-83555277D01*
X145014073Y-83620745D01*
X145022634Y-83626465D01*
X145141017Y-83675501D01*
X145141021Y-83675501D01*
X145141022Y-83675502D01*
X145266689Y-83700500D01*
X145266692Y-83700500D01*
X145394830Y-83700500D01*
X145951928Y-83700500D01*
X146018967Y-83720185D01*
X146064722Y-83772989D01*
X146074666Y-83842147D01*
X146068970Y-83865454D01*
X146014632Y-84020742D01*
X146014630Y-84020750D01*
X145994435Y-84199996D01*
X145994435Y-84200003D01*
X146014630Y-84379249D01*
X146014631Y-84379254D01*
X146074211Y-84549523D01*
X146170185Y-84702263D01*
X146172445Y-84705097D01*
X146173334Y-84707275D01*
X146173889Y-84708158D01*
X146173734Y-84708255D01*
X146198855Y-84769783D01*
X146199500Y-84782412D01*
X146199500Y-85767559D01*
X146179815Y-85834598D01*
X146127011Y-85880353D01*
X146057853Y-85890297D01*
X145994297Y-85861272D01*
X145968113Y-85829559D01*
X145953522Y-85804287D01*
X145953518Y-85804282D01*
X145930700Y-85781464D01*
X145897215Y-85720141D01*
X145895163Y-85707684D01*
X145885368Y-85620745D01*
X145825789Y-85450478D01*
X145729816Y-85297738D01*
X145602262Y-85170184D01*
X145449523Y-85074211D01*
X145279254Y-85014631D01*
X145279249Y-85014630D01*
X145100004Y-84994435D01*
X145099996Y-84994435D01*
X144920750Y-85014630D01*
X144920745Y-85014631D01*
X144750476Y-85074211D01*
X144597737Y-85170184D01*
X144470184Y-85297737D01*
X144374211Y-85450476D01*
X144314631Y-85620745D01*
X144314630Y-85620750D01*
X144294435Y-85799996D01*
X144294435Y-85800003D01*
X144314630Y-85979249D01*
X144314631Y-85979254D01*
X144374211Y-86149523D01*
X144470184Y-86302262D01*
X144597738Y-86429816D01*
X144688080Y-86486582D01*
X144747966Y-86524211D01*
X144750478Y-86525789D01*
X144789454Y-86539427D01*
X144846230Y-86580149D01*
X144871978Y-86645101D01*
X144872500Y-86656469D01*
X144872500Y-87326902D01*
X144852815Y-87393941D01*
X144836181Y-87414583D01*
X144579102Y-87671662D01*
X144517779Y-87705147D01*
X144448087Y-87700163D01*
X144403740Y-87671662D01*
X144302262Y-87570184D01*
X144149523Y-87474211D01*
X143979254Y-87414631D01*
X143979249Y-87414630D01*
X143800004Y-87394435D01*
X143799996Y-87394435D01*
X143620750Y-87414630D01*
X143620745Y-87414631D01*
X143450476Y-87474211D01*
X143297737Y-87570184D01*
X143170184Y-87697737D01*
X143074210Y-87850478D01*
X143051125Y-87916454D01*
X143010403Y-87973230D01*
X142945451Y-87998978D01*
X142934083Y-87999500D01*
X142082412Y-87999500D01*
X142015373Y-87979815D01*
X142005097Y-87972445D01*
X142002263Y-87970185D01*
X142002262Y-87970184D01*
X141927152Y-87922989D01*
X141849523Y-87874211D01*
X141679254Y-87814631D01*
X141679249Y-87814630D01*
X141500004Y-87794435D01*
X141499996Y-87794435D01*
X141320750Y-87814630D01*
X141320745Y-87814631D01*
X141150476Y-87874211D01*
X140997737Y-87970184D01*
X140870184Y-88097737D01*
X140774210Y-88250478D01*
X140714630Y-88420750D01*
X140704837Y-88507668D01*
X140677770Y-88572082D01*
X140669298Y-88581465D01*
X139561680Y-89689083D01*
X139500357Y-89722568D01*
X139430665Y-89717584D01*
X139374732Y-89675712D01*
X139350315Y-89610248D01*
X139356958Y-89560447D01*
X139385366Y-89479262D01*
X139385369Y-89479249D01*
X139405565Y-89300003D01*
X139405565Y-89299996D01*
X139385369Y-89120750D01*
X139385366Y-89120737D01*
X139325790Y-88950481D01*
X139325789Y-88950478D01*
X139294069Y-88899996D01*
X139269506Y-88860903D01*
X139250500Y-88794931D01*
X139250500Y-81520807D01*
X139270185Y-81453768D01*
X139286815Y-81433130D01*
X140098224Y-80621720D01*
X140159545Y-80588237D01*
X140172019Y-80586183D01*
X140179255Y-80585368D01*
X140349522Y-80525789D01*
X140502262Y-80429816D01*
X140545259Y-80386819D01*
X140606582Y-80353334D01*
X140632940Y-80350500D01*
X143694932Y-80350500D01*
X143760904Y-80369506D01*
G37*
%TD.AperFunction*%
%TA.AperFunction,Conductor*%
G36*
X199442539Y-70520185D02*
G01*
X199488294Y-70572989D01*
X199499500Y-70624500D01*
X199499500Y-129375500D01*
X199479815Y-129442539D01*
X199427011Y-129488294D01*
X199375500Y-129499500D01*
X174224000Y-129499500D01*
X174156961Y-129479815D01*
X174111206Y-129427011D01*
X174100000Y-129375500D01*
X174100000Y-126999998D01*
X194994390Y-126999998D01*
X194994390Y-127000001D01*
X195014804Y-127285433D01*
X195075628Y-127565037D01*
X195175635Y-127833166D01*
X195312770Y-128084309D01*
X195312775Y-128084317D01*
X195484254Y-128313387D01*
X195484270Y-128313405D01*
X195686594Y-128515729D01*
X195686612Y-128515745D01*
X195915682Y-128687224D01*
X195915690Y-128687229D01*
X196166833Y-128824364D01*
X196166832Y-128824364D01*
X196166836Y-128824365D01*
X196166839Y-128824367D01*
X196434954Y-128924369D01*
X196434960Y-128924370D01*
X196434962Y-128924371D01*
X196714566Y-128985195D01*
X196714568Y-128985195D01*
X196714572Y-128985196D01*
X196968220Y-129003337D01*
X196999999Y-129005610D01*
X197000000Y-129005610D01*
X197000001Y-129005610D01*
X197028595Y-129003564D01*
X197285428Y-128985196D01*
X197565046Y-128924369D01*
X197833161Y-128824367D01*
X198084315Y-128687226D01*
X198313395Y-128515739D01*
X198515739Y-128313395D01*
X198687226Y-128084315D01*
X198824367Y-127833161D01*
X198924369Y-127565046D01*
X198985196Y-127285428D01*
X199005610Y-127000000D01*
X198985196Y-126714572D01*
X198924369Y-126434954D01*
X198824367Y-126166839D01*
X198744025Y-126019705D01*
X198687229Y-125915690D01*
X198687224Y-125915682D01*
X198515745Y-125686612D01*
X198515729Y-125686594D01*
X198313405Y-125484270D01*
X198313387Y-125484254D01*
X198084317Y-125312775D01*
X198084309Y-125312770D01*
X197833166Y-125175635D01*
X197833167Y-125175635D01*
X197725915Y-125135632D01*
X197565046Y-125075631D01*
X197565043Y-125075630D01*
X197565037Y-125075628D01*
X197285433Y-125014804D01*
X197000001Y-124994390D01*
X196999999Y-124994390D01*
X196714566Y-125014804D01*
X196434962Y-125075628D01*
X196166833Y-125175635D01*
X195915690Y-125312770D01*
X195915682Y-125312775D01*
X195686612Y-125484254D01*
X195686594Y-125484270D01*
X195484270Y-125686594D01*
X195484254Y-125686612D01*
X195312775Y-125915682D01*
X195312770Y-125915690D01*
X195175635Y-126166833D01*
X195075628Y-126434962D01*
X195014804Y-126714566D01*
X194994390Y-126999998D01*
X174100000Y-126999998D01*
X174100000Y-123624234D01*
X178144500Y-123624234D01*
X178144500Y-123775765D01*
X178183719Y-123922136D01*
X178221602Y-123987750D01*
X178259485Y-124053365D01*
X178366635Y-124160515D01*
X178497865Y-124236281D01*
X178644234Y-124275500D01*
X178644236Y-124275500D01*
X178795764Y-124275500D01*
X178795766Y-124275500D01*
X178942135Y-124236281D01*
X179073365Y-124160515D01*
X179180515Y-124053365D01*
X179256281Y-123922135D01*
X179295500Y-123775766D01*
X179295500Y-123624234D01*
X183924500Y-123624234D01*
X183924500Y-123775765D01*
X183963719Y-123922136D01*
X184001602Y-123987750D01*
X184039485Y-124053365D01*
X184146635Y-124160515D01*
X184277865Y-124236281D01*
X184424234Y-124275500D01*
X184424236Y-124275500D01*
X184575764Y-124275500D01*
X184575766Y-124275500D01*
X184722135Y-124236281D01*
X184853365Y-124160515D01*
X184960515Y-124053365D01*
X185036281Y-123922135D01*
X185075500Y-123775766D01*
X185075500Y-123624234D01*
X185036281Y-123477865D01*
X184960515Y-123346635D01*
X184853365Y-123239485D01*
X184787750Y-123201602D01*
X184722136Y-123163719D01*
X184648950Y-123144109D01*
X184575766Y-123124500D01*
X184424234Y-123124500D01*
X184277863Y-123163719D01*
X184146635Y-123239485D01*
X184146632Y-123239487D01*
X184039487Y-123346632D01*
X184039485Y-123346635D01*
X183963719Y-123477863D01*
X183924500Y-123624234D01*
X179295500Y-123624234D01*
X179256281Y-123477865D01*
X179180515Y-123346635D01*
X179073365Y-123239485D01*
X179007750Y-123201602D01*
X178942136Y-123163719D01*
X178868950Y-123144109D01*
X178795766Y-123124500D01*
X178644234Y-123124500D01*
X178497863Y-123163719D01*
X178366635Y-123239485D01*
X178366632Y-123239487D01*
X178259487Y-123346632D01*
X178259485Y-123346635D01*
X178183719Y-123477863D01*
X178144500Y-123624234D01*
X174100000Y-123624234D01*
X174100000Y-123110000D01*
X126100000Y-123110000D01*
X126100000Y-129375500D01*
X126080315Y-129442539D01*
X126027511Y-129488294D01*
X125976000Y-129499500D01*
X100624500Y-129499500D01*
X100557461Y-129479815D01*
X100511706Y-129427011D01*
X100500500Y-129375500D01*
X100500500Y-126999998D01*
X100994390Y-126999998D01*
X100994390Y-127000001D01*
X101014804Y-127285433D01*
X101075628Y-127565037D01*
X101175635Y-127833166D01*
X101312770Y-128084309D01*
X101312775Y-128084317D01*
X101484254Y-128313387D01*
X101484270Y-128313405D01*
X101686594Y-128515729D01*
X101686612Y-128515745D01*
X101915682Y-128687224D01*
X101915690Y-128687229D01*
X102166833Y-128824364D01*
X102166832Y-128824364D01*
X102166836Y-128824365D01*
X102166839Y-128824367D01*
X102434954Y-128924369D01*
X102434960Y-128924370D01*
X102434962Y-128924371D01*
X102714566Y-128985195D01*
X102714568Y-128985195D01*
X102714572Y-128985196D01*
X102968220Y-129003337D01*
X102999999Y-129005610D01*
X103000000Y-129005610D01*
X103000001Y-129005610D01*
X103028595Y-129003564D01*
X103285428Y-128985196D01*
X103565046Y-128924369D01*
X103833161Y-128824367D01*
X104084315Y-128687226D01*
X104313395Y-128515739D01*
X104515739Y-128313395D01*
X104687226Y-128084315D01*
X104824367Y-127833161D01*
X104924369Y-127565046D01*
X104985196Y-127285428D01*
X105005610Y-127000000D01*
X104985196Y-126714572D01*
X104924369Y-126434954D01*
X104824367Y-126166839D01*
X104744025Y-126019705D01*
X104687229Y-125915690D01*
X104687224Y-125915682D01*
X104515745Y-125686612D01*
X104515729Y-125686594D01*
X104313405Y-125484270D01*
X104313387Y-125484254D01*
X104084317Y-125312775D01*
X104084309Y-125312770D01*
X103833166Y-125175635D01*
X103833167Y-125175635D01*
X103725915Y-125135632D01*
X103565046Y-125075631D01*
X103565043Y-125075630D01*
X103565037Y-125075628D01*
X103285433Y-125014804D01*
X103000001Y-124994390D01*
X102999999Y-124994390D01*
X102714566Y-125014804D01*
X102434962Y-125075628D01*
X102166833Y-125175635D01*
X101915690Y-125312770D01*
X101915682Y-125312775D01*
X101686612Y-125484254D01*
X101686594Y-125484270D01*
X101484270Y-125686594D01*
X101484254Y-125686612D01*
X101312775Y-125915682D01*
X101312770Y-125915690D01*
X101175635Y-126166833D01*
X101075628Y-126434962D01*
X101014804Y-126714566D01*
X100994390Y-126999998D01*
X100500500Y-126999998D01*
X100500500Y-114999994D01*
X127194859Y-114999994D01*
X127194859Y-115000005D01*
X127215385Y-115247729D01*
X127215387Y-115247738D01*
X127276412Y-115488717D01*
X127376267Y-115716367D01*
X127476562Y-115869881D01*
X128217037Y-115129408D01*
X128234075Y-115192993D01*
X128299901Y-115307007D01*
X128392993Y-115400099D01*
X128507007Y-115465925D01*
X128570591Y-115482962D01*
X127829943Y-116223609D01*
X127876768Y-116260055D01*
X127876771Y-116260057D01*
X128095385Y-116378364D01*
X128095396Y-116378369D01*
X128330506Y-116459083D01*
X128575707Y-116500000D01*
X128824293Y-116500000D01*
X129069493Y-116459083D01*
X129304603Y-116378369D01*
X129304614Y-116378364D01*
X129523230Y-116260056D01*
X129523236Y-116260051D01*
X129570055Y-116223610D01*
X129570056Y-116223609D01*
X128829408Y-115482962D01*
X128892993Y-115465925D01*
X129007007Y-115400099D01*
X129100099Y-115307007D01*
X129165925Y-115192993D01*
X129182962Y-115129409D01*
X129923435Y-115869882D01*
X130023733Y-115716364D01*
X130123587Y-115488717D01*
X130184612Y-115247738D01*
X130184614Y-115247729D01*
X130205141Y-115000005D01*
X130205141Y-114999994D01*
X130184614Y-114752270D01*
X130184612Y-114752261D01*
X130123587Y-114511282D01*
X130023732Y-114283632D01*
X129923435Y-114130116D01*
X129182962Y-114870590D01*
X129165925Y-114807007D01*
X129100099Y-114692993D01*
X129007007Y-114599901D01*
X128892993Y-114534075D01*
X128829409Y-114517037D01*
X129570055Y-113776389D01*
X129570055Y-113776388D01*
X129523236Y-113739947D01*
X129523231Y-113739944D01*
X129304614Y-113621635D01*
X129304603Y-113621630D01*
X129069493Y-113540916D01*
X128824293Y-113500000D01*
X128575707Y-113500000D01*
X128330506Y-113540916D01*
X128095396Y-113621630D01*
X128095385Y-113621635D01*
X127876770Y-113739943D01*
X127829943Y-113776389D01*
X128570591Y-114517037D01*
X128507007Y-114534075D01*
X128392993Y-114599901D01*
X128299901Y-114692993D01*
X128234075Y-114807007D01*
X128217037Y-114870591D01*
X127476563Y-114130117D01*
X127376267Y-114283633D01*
X127376265Y-114283637D01*
X127276412Y-114511282D01*
X127215387Y-114752261D01*
X127215385Y-114752270D01*
X127194859Y-114999994D01*
X100500500Y-114999994D01*
X100500500Y-100900000D01*
X135000000Y-100900000D01*
X137400000Y-100900000D01*
X137400000Y-99100000D01*
X135000000Y-99100000D01*
X135000000Y-100900000D01*
X100500500Y-100900000D01*
X100500500Y-76602155D01*
X113570000Y-76602155D01*
X113570000Y-77250000D01*
X114486988Y-77250000D01*
X114454075Y-77307007D01*
X114420000Y-77434174D01*
X114420000Y-77565826D01*
X114454075Y-77692993D01*
X114486988Y-77750000D01*
X113570000Y-77750000D01*
X113570000Y-78397844D01*
X113576401Y-78457372D01*
X113576403Y-78457379D01*
X113626645Y-78592086D01*
X113626649Y-78592093D01*
X113712809Y-78707187D01*
X113712812Y-78707190D01*
X113827906Y-78793350D01*
X113827913Y-78793354D01*
X113962620Y-78843596D01*
X113962627Y-78843598D01*
X114022155Y-78849999D01*
X114022172Y-78850000D01*
X114670000Y-78850000D01*
X114670000Y-77933012D01*
X114727007Y-77965925D01*
X114854174Y-78000000D01*
X114985826Y-78000000D01*
X115112993Y-77965925D01*
X115170000Y-77933012D01*
X115170000Y-78850000D01*
X115817828Y-78850000D01*
X115817844Y-78849999D01*
X115877372Y-78843598D01*
X115877379Y-78843596D01*
X116012086Y-78793354D01*
X116012093Y-78793350D01*
X116127187Y-78707190D01*
X116127190Y-78707187D01*
X116213350Y-78592093D01*
X116213354Y-78592086D01*
X116262422Y-78460529D01*
X116304293Y-78404595D01*
X116369757Y-78380178D01*
X116438030Y-78395030D01*
X116466285Y-78416181D01*
X116588599Y-78538495D01*
X116665135Y-78592086D01*
X116782165Y-78674032D01*
X116782167Y-78674033D01*
X116782170Y-78674035D01*
X116787898Y-78676706D01*
X116840339Y-78722872D01*
X116859500Y-78789090D01*
X116859500Y-81173330D01*
X116859499Y-81173348D01*
X116859499Y-81339054D01*
X116859498Y-81339054D01*
X116859499Y-81339057D01*
X116900423Y-81491785D01*
X116900424Y-81491786D01*
X116913613Y-81514632D01*
X116913614Y-81514633D01*
X116979475Y-81628709D01*
X116979481Y-81628717D01*
X117098349Y-81747585D01*
X117098355Y-81747590D01*
X132415139Y-97064374D01*
X132415149Y-97064385D01*
X132419479Y-97068715D01*
X132419480Y-97068716D01*
X132531284Y-97180520D01*
X132531286Y-97180521D01*
X132531290Y-97180524D01*
X132650800Y-97249522D01*
X132668216Y-97259577D01*
X132707594Y-97270128D01*
X132767253Y-97306491D01*
X132797783Y-97369337D01*
X132799500Y-97389902D01*
X132799500Y-99413330D01*
X132799499Y-99413348D01*
X132799499Y-99579054D01*
X132799498Y-99579054D01*
X132799499Y-99579057D01*
X132839895Y-99729816D01*
X132840424Y-99731787D01*
X132852204Y-99752190D01*
X132852205Y-99752192D01*
X132919477Y-99868712D01*
X132919481Y-99868717D01*
X132956798Y-99906034D01*
X132990283Y-99967357D01*
X132992337Y-99979831D01*
X133002130Y-100066749D01*
X133061710Y-100237021D01*
X133099859Y-100297734D01*
X133157684Y-100389762D01*
X133285238Y-100517316D01*
X133437978Y-100613289D01*
X133608231Y-100672863D01*
X133608245Y-100672868D01*
X133608250Y-100672869D01*
X133787496Y-100693065D01*
X133787500Y-100693065D01*
X133787504Y-100693065D01*
X133966749Y-100672869D01*
X133966752Y-100672868D01*
X133966755Y-100672868D01*
X134137022Y-100613289D01*
X134289762Y-100517316D01*
X134417316Y-100389762D01*
X134513289Y-100237022D01*
X134572868Y-100066755D01*
X134572869Y-100066749D01*
X134593065Y-99887503D01*
X134593065Y-99887496D01*
X134572869Y-99708250D01*
X134572868Y-99708245D01*
X134513288Y-99537976D01*
X134439748Y-99420939D01*
X134417316Y-99385238D01*
X134289762Y-99257684D01*
X134137024Y-99161712D01*
X134137023Y-99161711D01*
X134083544Y-99142998D01*
X134026769Y-99102276D01*
X134001022Y-99037323D01*
X134000500Y-99025957D01*
X134000500Y-97000096D01*
X134020185Y-96933057D01*
X134036815Y-96912419D01*
X134839250Y-96109983D01*
X134900571Y-96076500D01*
X134970262Y-96081484D01*
X135026196Y-96123356D01*
X135043971Y-96156712D01*
X135049945Y-96173786D01*
X135049946Y-96173787D01*
X135145919Y-96326527D01*
X135273473Y-96454081D01*
X135426213Y-96550054D01*
X135596480Y-96609633D01*
X135683404Y-96619426D01*
X135747815Y-96646491D01*
X135757199Y-96654964D01*
X137482754Y-98380520D01*
X137482756Y-98380521D01*
X137482760Y-98380524D01*
X137619679Y-98459573D01*
X137619686Y-98459577D01*
X137772413Y-98500501D01*
X137772415Y-98500501D01*
X137938124Y-98500501D01*
X137938140Y-98500500D01*
X139517588Y-98500500D01*
X139584627Y-98520185D01*
X139594903Y-98527555D01*
X139597736Y-98529814D01*
X139597738Y-98529816D01*
X139750478Y-98625789D01*
X139920745Y-98685368D01*
X139920750Y-98685369D01*
X140099996Y-98705565D01*
X140100000Y-98705565D01*
X140100004Y-98705565D01*
X140279249Y-98685369D01*
X140279252Y-98685368D01*
X140279255Y-98685368D01*
X140449522Y-98625789D01*
X140602262Y-98529816D01*
X140729816Y-98402262D01*
X140825789Y-98249522D01*
X140831458Y-98233322D01*
X140872179Y-98176545D01*
X140937131Y-98150797D01*
X141005693Y-98164253D01*
X141056097Y-98212639D01*
X141072500Y-98274275D01*
X141072500Y-104926902D01*
X141052815Y-104993941D01*
X141036181Y-105014583D01*
X139119482Y-106931281D01*
X139119480Y-106931283D01*
X139119480Y-106931284D01*
X139079513Y-107000509D01*
X139040423Y-107068215D01*
X138999499Y-107220943D01*
X138999499Y-107220945D01*
X138999499Y-107389046D01*
X138999500Y-107389059D01*
X138999500Y-112317587D01*
X138979815Y-112384626D01*
X138972450Y-112394896D01*
X138970186Y-112397734D01*
X138874211Y-112550476D01*
X138814631Y-112720745D01*
X138814630Y-112720750D01*
X138794435Y-112899996D01*
X138794435Y-112900003D01*
X138814630Y-113079249D01*
X138814631Y-113079254D01*
X138874211Y-113249523D01*
X138955654Y-113379138D01*
X138970184Y-113402262D01*
X139097738Y-113529816D01*
X139150722Y-113563108D01*
X139247038Y-113623628D01*
X139250478Y-113625789D01*
X139298104Y-113642454D01*
X139420745Y-113685368D01*
X139420750Y-113685369D01*
X139599996Y-113705565D01*
X139600000Y-113705565D01*
X139600004Y-113705565D01*
X139779249Y-113685369D01*
X139779252Y-113685368D01*
X139779255Y-113685368D01*
X139949522Y-113625789D01*
X140102262Y-113529816D01*
X140229816Y-113402262D01*
X140325789Y-113249522D01*
X140385368Y-113079255D01*
X140386490Y-113069298D01*
X140405565Y-112900003D01*
X140405565Y-112899996D01*
X140385369Y-112720750D01*
X140385368Y-112720745D01*
X140325788Y-112550476D01*
X140278152Y-112474665D01*
X140229816Y-112397738D01*
X140229814Y-112397736D01*
X140229813Y-112397734D01*
X140227550Y-112394896D01*
X140226659Y-112392715D01*
X140226111Y-112391842D01*
X140226264Y-112391745D01*
X140201144Y-112330209D01*
X140200500Y-112317587D01*
X140200500Y-107600097D01*
X140220185Y-107533058D01*
X140236819Y-107512416D01*
X141187819Y-106561416D01*
X141249142Y-106527931D01*
X141318834Y-106532915D01*
X141374767Y-106574787D01*
X141399184Y-106640251D01*
X141399500Y-106649097D01*
X141399500Y-107413330D01*
X141399499Y-107413348D01*
X141399499Y-107579054D01*
X141399498Y-107579054D01*
X141399499Y-107579057D01*
X141438816Y-107725789D01*
X141440424Y-107731787D01*
X141457126Y-107760715D01*
X141457127Y-107760717D01*
X141519477Y-107868712D01*
X141519481Y-107868717D01*
X141638349Y-107987585D01*
X141638355Y-107987590D01*
X141969298Y-108318533D01*
X142002783Y-108379856D01*
X142004837Y-108392330D01*
X142014630Y-108479249D01*
X142074210Y-108649521D01*
X142157948Y-108782789D01*
X142170184Y-108802262D01*
X142297738Y-108929816D01*
X142450478Y-109025789D01*
X142577352Y-109070184D01*
X142620745Y-109085368D01*
X142620750Y-109085369D01*
X142799996Y-109105565D01*
X142800000Y-109105565D01*
X142800004Y-109105565D01*
X142979249Y-109085369D01*
X142979251Y-109085368D01*
X142979255Y-109085368D01*
X142979258Y-109085366D01*
X142979262Y-109085366D01*
X143134545Y-109031030D01*
X143204324Y-109027468D01*
X143264951Y-109062196D01*
X143297179Y-109124190D01*
X143299500Y-109148071D01*
X143299500Y-112299902D01*
X143279815Y-112366941D01*
X143263181Y-112387583D01*
X142581465Y-113069298D01*
X142520142Y-113102783D01*
X142507668Y-113104837D01*
X142420750Y-113114630D01*
X142250478Y-113174210D01*
X142097737Y-113270184D01*
X141970184Y-113397737D01*
X141874211Y-113550476D01*
X141814631Y-113720745D01*
X141814630Y-113720750D01*
X141794435Y-113899996D01*
X141794435Y-113900003D01*
X141814630Y-114079249D01*
X141814631Y-114079254D01*
X141874211Y-114249523D01*
X141943835Y-114360328D01*
X141970184Y-114402262D01*
X142097738Y-114529816D01*
X142250478Y-114625789D01*
X142338659Y-114656645D01*
X142341629Y-114657684D01*
X142398405Y-114698406D01*
X142424153Y-114763358D01*
X142410697Y-114831920D01*
X142388356Y-114862407D01*
X141987584Y-115263181D01*
X141926261Y-115296666D01*
X141899903Y-115299500D01*
X138872411Y-115299500D01*
X138831490Y-115310464D01*
X138831490Y-115310465D01*
X138808367Y-115316661D01*
X138719685Y-115340423D01*
X138719680Y-115340426D01*
X138582761Y-115419475D01*
X138582753Y-115419481D01*
X138470949Y-115531286D01*
X138012180Y-115990054D01*
X137950857Y-116023539D01*
X137881165Y-116018555D01*
X137825232Y-115976683D01*
X137800815Y-115911219D01*
X137800499Y-115902399D01*
X137800499Y-113952128D01*
X137794091Y-113892517D01*
X137759584Y-113800000D01*
X137743797Y-113757671D01*
X137743793Y-113757664D01*
X137657547Y-113642455D01*
X137657544Y-113642452D01*
X137542335Y-113556206D01*
X137542328Y-113556202D01*
X137407482Y-113505908D01*
X137407483Y-113505908D01*
X137347883Y-113499501D01*
X137347881Y-113499500D01*
X137347873Y-113499500D01*
X137347864Y-113499500D01*
X135252129Y-113499500D01*
X135252123Y-113499501D01*
X135192516Y-113505908D01*
X135057671Y-113556202D01*
X135057664Y-113556206D01*
X134942455Y-113642452D01*
X134942452Y-113642455D01*
X134856206Y-113757664D01*
X134856202Y-113757671D01*
X134805908Y-113892517D01*
X134799501Y-113952116D01*
X134799501Y-113952123D01*
X134799500Y-113952135D01*
X134799500Y-116047870D01*
X134799501Y-116047876D01*
X134805908Y-116107483D01*
X134856202Y-116242328D01*
X134856206Y-116242335D01*
X134942452Y-116357544D01*
X134942455Y-116357547D01*
X135057664Y-116443793D01*
X135057671Y-116443797D01*
X135192517Y-116494091D01*
X135192516Y-116494091D01*
X135199444Y-116494835D01*
X135252127Y-116500500D01*
X137202373Y-116500499D01*
X137269412Y-116520184D01*
X137315167Y-116572987D01*
X137325111Y-116642146D01*
X137296086Y-116705702D01*
X137290054Y-116712180D01*
X135732936Y-118269298D01*
X135671613Y-118302783D01*
X135659139Y-118304837D01*
X135572220Y-118314630D01*
X135401948Y-118374210D01*
X135249207Y-118470184D01*
X135121654Y-118597737D01*
X135025681Y-118750476D01*
X134966101Y-118920745D01*
X134966100Y-118920750D01*
X134945905Y-119099996D01*
X134945905Y-119100003D01*
X134966100Y-119279249D01*
X134966101Y-119279254D01*
X135025681Y-119449523D01*
X135114404Y-119590724D01*
X135121654Y-119602262D01*
X135249208Y-119729816D01*
X135339550Y-119786582D01*
X135394235Y-119820943D01*
X135401948Y-119825789D01*
X135572215Y-119885368D01*
X135572220Y-119885369D01*
X135751466Y-119905565D01*
X135751470Y-119905565D01*
X135751474Y-119905565D01*
X135930719Y-119885369D01*
X135930722Y-119885368D01*
X135930725Y-119885368D01*
X136100992Y-119825789D01*
X136253732Y-119729816D01*
X136381286Y-119602262D01*
X136477259Y-119449522D01*
X136536838Y-119279255D01*
X136546631Y-119192329D01*
X136573696Y-119127919D01*
X136582160Y-119118544D01*
X137278202Y-118422502D01*
X137339523Y-118389019D01*
X137409215Y-118394003D01*
X137465148Y-118435875D01*
X137470875Y-118444213D01*
X137486271Y-118468716D01*
X137570184Y-118602262D01*
X137697738Y-118729816D01*
X137850478Y-118825789D01*
X137968087Y-118866942D01*
X138020745Y-118885368D01*
X138020750Y-118885369D01*
X138199996Y-118905565D01*
X138200000Y-118905565D01*
X138200004Y-118905565D01*
X138379249Y-118885369D01*
X138379252Y-118885368D01*
X138379255Y-118885368D01*
X138549522Y-118825789D01*
X138702262Y-118729816D01*
X138702267Y-118729810D01*
X138705097Y-118727555D01*
X138707275Y-118726665D01*
X138708158Y-118726111D01*
X138708255Y-118726265D01*
X138769783Y-118701145D01*
X138782412Y-118700500D01*
X142513331Y-118700500D01*
X142513347Y-118700501D01*
X142520943Y-118700501D01*
X142679054Y-118700501D01*
X142679057Y-118700501D01*
X142831785Y-118659577D01*
X142901233Y-118619481D01*
X142968716Y-118580520D01*
X143080520Y-118468716D01*
X143080520Y-118468714D01*
X143090724Y-118458511D01*
X143090728Y-118458506D01*
X145532574Y-116016660D01*
X150536891Y-116016660D01*
X150550697Y-116025335D01*
X150550701Y-116025337D01*
X150720858Y-116084877D01*
X150720861Y-116084878D01*
X150899997Y-116105062D01*
X150900003Y-116105062D01*
X151079138Y-116084878D01*
X151249307Y-116025333D01*
X151263107Y-116016661D01*
X151263107Y-116016660D01*
X151936891Y-116016660D01*
X151950697Y-116025335D01*
X151950701Y-116025337D01*
X152120858Y-116084877D01*
X152120861Y-116084878D01*
X152299997Y-116105062D01*
X152300003Y-116105062D01*
X152479138Y-116084878D01*
X152649307Y-116025333D01*
X152663107Y-116016661D01*
X152663107Y-116016660D01*
X152300001Y-115653553D01*
X152300000Y-115653553D01*
X151936891Y-116016660D01*
X151263107Y-116016660D01*
X150900001Y-115653553D01*
X150900000Y-115653553D01*
X150536891Y-116016660D01*
X145532574Y-116016660D01*
X146232574Y-115316660D01*
X149836891Y-115316660D01*
X149850697Y-115325335D01*
X149850701Y-115325337D01*
X150020859Y-115384878D01*
X150021644Y-115385057D01*
X150022099Y-115385311D01*
X150027430Y-115387177D01*
X150027103Y-115388110D01*
X150082623Y-115419166D01*
X150111952Y-115472875D01*
X150112823Y-115472571D01*
X150114672Y-115477855D01*
X150114940Y-115478346D01*
X150115120Y-115479137D01*
X150174662Y-115649298D01*
X150174667Y-115649308D01*
X150183338Y-115663108D01*
X150546446Y-115300001D01*
X150546446Y-115299999D01*
X150526556Y-115280109D01*
X150800000Y-115280109D01*
X150800000Y-115319891D01*
X150815224Y-115356645D01*
X150843355Y-115384776D01*
X150880109Y-115400000D01*
X150919891Y-115400000D01*
X150956645Y-115384776D01*
X150984776Y-115356645D01*
X151000000Y-115319891D01*
X151000000Y-115300000D01*
X151253552Y-115300000D01*
X151600000Y-115646446D01*
X151600001Y-115646446D01*
X151946446Y-115300001D01*
X151946446Y-115299999D01*
X151926556Y-115280109D01*
X152200000Y-115280109D01*
X152200000Y-115319891D01*
X152215224Y-115356645D01*
X152243355Y-115384776D01*
X152280109Y-115400000D01*
X152319891Y-115400000D01*
X152356645Y-115384776D01*
X152384776Y-115356645D01*
X152400000Y-115319891D01*
X152400000Y-115300000D01*
X152653553Y-115300000D01*
X153016660Y-115663107D01*
X153016661Y-115663107D01*
X153025333Y-115649307D01*
X153084877Y-115479141D01*
X153085056Y-115478358D01*
X153085310Y-115477902D01*
X153087177Y-115472569D01*
X153088111Y-115472895D01*
X153119164Y-115417379D01*
X153172874Y-115388050D01*
X153172569Y-115387177D01*
X153177871Y-115385321D01*
X153178358Y-115385056D01*
X153179141Y-115384877D01*
X153349307Y-115325333D01*
X153363107Y-115316661D01*
X153363107Y-115316660D01*
X153000000Y-114953553D01*
X152653553Y-115300000D01*
X152400000Y-115300000D01*
X152400000Y-115280109D01*
X152384776Y-115243355D01*
X152356645Y-115215224D01*
X152319891Y-115200000D01*
X152280109Y-115200000D01*
X152243355Y-115215224D01*
X152215224Y-115243355D01*
X152200000Y-115280109D01*
X151926556Y-115280109D01*
X151600000Y-114953553D01*
X151253552Y-115300000D01*
X151000000Y-115300000D01*
X151000000Y-115280109D01*
X150984776Y-115243355D01*
X150956645Y-115215224D01*
X150919891Y-115200000D01*
X150880109Y-115200000D01*
X150843355Y-115215224D01*
X150815224Y-115243355D01*
X150800000Y-115280109D01*
X150526556Y-115280109D01*
X150369670Y-115123223D01*
X150200001Y-114953553D01*
X150200000Y-114953553D01*
X149836891Y-115316660D01*
X146232574Y-115316660D01*
X146949237Y-114599997D01*
X149394938Y-114599997D01*
X149394938Y-114600002D01*
X149415121Y-114779138D01*
X149415122Y-114779141D01*
X149474662Y-114949298D01*
X149474667Y-114949308D01*
X149483338Y-114963108D01*
X149846446Y-114600001D01*
X149846446Y-114599999D01*
X149826556Y-114580109D01*
X150100000Y-114580109D01*
X150100000Y-114619891D01*
X150115224Y-114656645D01*
X150143355Y-114684776D01*
X150180109Y-114700000D01*
X150219891Y-114700000D01*
X150256645Y-114684776D01*
X150284776Y-114656645D01*
X150300000Y-114619891D01*
X150300000Y-114600000D01*
X150553553Y-114600000D01*
X150705815Y-114752262D01*
X150900000Y-114946446D01*
X151094185Y-114752262D01*
X151246446Y-114600000D01*
X151246446Y-114599999D01*
X151226556Y-114580109D01*
X151500000Y-114580109D01*
X151500000Y-114619891D01*
X151515224Y-114656645D01*
X151543355Y-114684776D01*
X151580109Y-114700000D01*
X151619891Y-114700000D01*
X151656645Y-114684776D01*
X151684776Y-114656645D01*
X151700000Y-114619891D01*
X151700000Y-114600000D01*
X151953553Y-114600000D01*
X152105815Y-114752262D01*
X152300000Y-114946446D01*
X152494185Y-114752262D01*
X152646446Y-114600000D01*
X152646446Y-114599999D01*
X152626556Y-114580109D01*
X152900000Y-114580109D01*
X152900000Y-114619891D01*
X152915224Y-114656645D01*
X152943355Y-114684776D01*
X152980109Y-114700000D01*
X153019891Y-114700000D01*
X153056645Y-114684776D01*
X153084776Y-114656645D01*
X153100000Y-114619891D01*
X153100000Y-114599999D01*
X153353553Y-114599999D01*
X153353553Y-114600000D01*
X153716660Y-114963107D01*
X153716661Y-114963107D01*
X153725333Y-114949307D01*
X153784878Y-114779138D01*
X153805062Y-114600002D01*
X153805062Y-114599997D01*
X153784878Y-114420861D01*
X153784877Y-114420858D01*
X153725337Y-114250701D01*
X153725335Y-114250697D01*
X153716660Y-114236891D01*
X153353553Y-114599999D01*
X153100000Y-114599999D01*
X153100000Y-114580109D01*
X153084776Y-114543355D01*
X153056645Y-114515224D01*
X153019891Y-114500000D01*
X152980109Y-114500000D01*
X152943355Y-114515224D01*
X152915224Y-114543355D01*
X152900000Y-114580109D01*
X152626556Y-114580109D01*
X152300000Y-114253553D01*
X151953553Y-114600000D01*
X151700000Y-114600000D01*
X151700000Y-114580109D01*
X151684776Y-114543355D01*
X151656645Y-114515224D01*
X151619891Y-114500000D01*
X151580109Y-114500000D01*
X151543355Y-114515224D01*
X151515224Y-114543355D01*
X151500000Y-114580109D01*
X151226556Y-114580109D01*
X150900000Y-114253553D01*
X150553553Y-114600000D01*
X150300000Y-114600000D01*
X150300000Y-114580109D01*
X150284776Y-114543355D01*
X150256645Y-114515224D01*
X150219891Y-114500000D01*
X150180109Y-114500000D01*
X150143355Y-114515224D01*
X150115224Y-114543355D01*
X150100000Y-114580109D01*
X149826556Y-114580109D01*
X149483338Y-114236890D01*
X149483338Y-114236891D01*
X149474664Y-114250696D01*
X149415122Y-114420858D01*
X149415121Y-114420861D01*
X149394938Y-114599997D01*
X146949237Y-114599997D01*
X147649234Y-113900000D01*
X149853553Y-113900000D01*
X150200000Y-114246446D01*
X150200001Y-114246446D01*
X150373223Y-114073223D01*
X150546446Y-113900000D01*
X150546446Y-113899999D01*
X150526556Y-113880109D01*
X150800000Y-113880109D01*
X150800000Y-113919891D01*
X150815224Y-113956645D01*
X150843355Y-113984776D01*
X150880109Y-114000000D01*
X150919891Y-114000000D01*
X150956645Y-113984776D01*
X150984776Y-113956645D01*
X151000000Y-113919891D01*
X151000000Y-113900000D01*
X151253553Y-113900000D01*
X151426776Y-114073223D01*
X151600000Y-114246446D01*
X151600001Y-114246446D01*
X151773223Y-114073223D01*
X151946446Y-113900000D01*
X151946446Y-113899999D01*
X151926556Y-113880109D01*
X152200000Y-113880109D01*
X152200000Y-113919891D01*
X152215224Y-113956645D01*
X152243355Y-113984776D01*
X152280109Y-114000000D01*
X152319891Y-114000000D01*
X152356645Y-113984776D01*
X152384776Y-113956645D01*
X152400000Y-113919891D01*
X152400000Y-113900000D01*
X152653553Y-113900000D01*
X152826776Y-114073223D01*
X153000000Y-114246446D01*
X153000001Y-114246446D01*
X153346446Y-113900001D01*
X153346446Y-113899999D01*
X153000001Y-113553553D01*
X153000000Y-113553553D01*
X152653553Y-113900000D01*
X152400000Y-113900000D01*
X152400000Y-113880109D01*
X152384776Y-113843355D01*
X152356645Y-113815224D01*
X152319891Y-113800000D01*
X152280109Y-113800000D01*
X152243355Y-113815224D01*
X152215224Y-113843355D01*
X152200000Y-113880109D01*
X151926556Y-113880109D01*
X151600000Y-113553553D01*
X151253553Y-113900000D01*
X151000000Y-113900000D01*
X151000000Y-113880109D01*
X150984776Y-113843355D01*
X150956645Y-113815224D01*
X150919891Y-113800000D01*
X150880109Y-113800000D01*
X150843355Y-113815224D01*
X150815224Y-113843355D01*
X150800000Y-113880109D01*
X150526556Y-113880109D01*
X150200000Y-113553553D01*
X149853553Y-113900000D01*
X147649234Y-113900000D01*
X148349237Y-113199997D01*
X149394938Y-113199997D01*
X149394938Y-113200002D01*
X149415121Y-113379138D01*
X149415122Y-113379141D01*
X149474662Y-113549298D01*
X149474667Y-113549308D01*
X149483338Y-113563108D01*
X149846446Y-113200001D01*
X149846446Y-113199999D01*
X149826556Y-113180109D01*
X150100000Y-113180109D01*
X150100000Y-113219891D01*
X150115224Y-113256645D01*
X150143355Y-113284776D01*
X150180109Y-113300000D01*
X150219891Y-113300000D01*
X150256645Y-113284776D01*
X150284776Y-113256645D01*
X150300000Y-113219891D01*
X150300000Y-113200000D01*
X150553553Y-113200000D01*
X150726776Y-113373223D01*
X150900000Y-113546446D01*
X150900001Y-113546446D01*
X151073223Y-113373223D01*
X151246446Y-113200000D01*
X151246446Y-113199999D01*
X151226556Y-113180109D01*
X151500000Y-113180109D01*
X151500000Y-113219891D01*
X151515224Y-113256645D01*
X151543355Y-113284776D01*
X151580109Y-113300000D01*
X151619891Y-113300000D01*
X151656645Y-113284776D01*
X151684776Y-113256645D01*
X151700000Y-113219891D01*
X151700000Y-113200000D01*
X151953553Y-113200000D01*
X152126776Y-113373223D01*
X152300000Y-113546446D01*
X152300001Y-113546446D01*
X152473223Y-113373223D01*
X152646446Y-113200000D01*
X152646446Y-113199999D01*
X152626556Y-113180109D01*
X152900000Y-113180109D01*
X152900000Y-113219891D01*
X152915224Y-113256645D01*
X152943355Y-113284776D01*
X152980109Y-113300000D01*
X153019891Y-113300000D01*
X153056645Y-113284776D01*
X153084776Y-113256645D01*
X153100000Y-113219891D01*
X153100000Y-113199999D01*
X153353553Y-113199999D01*
X153353553Y-113200000D01*
X153716660Y-113563107D01*
X153716661Y-113563107D01*
X153725333Y-113549307D01*
X153784878Y-113379138D01*
X153805062Y-113200002D01*
X153805062Y-113199997D01*
X153784878Y-113020861D01*
X153784877Y-113020857D01*
X153725337Y-112850701D01*
X153725335Y-112850697D01*
X153716660Y-112836891D01*
X153353553Y-113199999D01*
X153100000Y-113199999D01*
X153100000Y-113180109D01*
X153084776Y-113143355D01*
X153056645Y-113115224D01*
X153019891Y-113100000D01*
X152980109Y-113100000D01*
X152943355Y-113115224D01*
X152915224Y-113143355D01*
X152900000Y-113180109D01*
X152626556Y-113180109D01*
X152300000Y-112853553D01*
X151953553Y-113200000D01*
X151700000Y-113200000D01*
X151700000Y-113180109D01*
X151684776Y-113143355D01*
X151656645Y-113115224D01*
X151619891Y-113100000D01*
X151580109Y-113100000D01*
X151543355Y-113115224D01*
X151515224Y-113143355D01*
X151500000Y-113180109D01*
X151226556Y-113180109D01*
X150900000Y-112853553D01*
X150553553Y-113200000D01*
X150300000Y-113200000D01*
X150300000Y-113180109D01*
X150284776Y-113143355D01*
X150256645Y-113115224D01*
X150219891Y-113100000D01*
X150180109Y-113100000D01*
X150143355Y-113115224D01*
X150115224Y-113143355D01*
X150100000Y-113180109D01*
X149826556Y-113180109D01*
X149483338Y-112836890D01*
X149483338Y-112836891D01*
X149474664Y-112850696D01*
X149415123Y-113020857D01*
X149415121Y-113020861D01*
X149394938Y-113199997D01*
X148349237Y-113199997D01*
X149065896Y-112483338D01*
X149836890Y-112483338D01*
X150200000Y-112846446D01*
X150200001Y-112846446D01*
X150373223Y-112673223D01*
X150546446Y-112500000D01*
X150546446Y-112499999D01*
X150526556Y-112480109D01*
X150800000Y-112480109D01*
X150800000Y-112519891D01*
X150815224Y-112556645D01*
X150843355Y-112584776D01*
X150880109Y-112600000D01*
X150919891Y-112600000D01*
X150956645Y-112584776D01*
X150984776Y-112556645D01*
X151000000Y-112519891D01*
X151000000Y-112500000D01*
X151253553Y-112500000D01*
X151426776Y-112673223D01*
X151600000Y-112846446D01*
X151600001Y-112846446D01*
X151773223Y-112673223D01*
X151946446Y-112500000D01*
X151946446Y-112499999D01*
X151926556Y-112480109D01*
X152200000Y-112480109D01*
X152200000Y-112519891D01*
X152215224Y-112556645D01*
X152243355Y-112584776D01*
X152280109Y-112600000D01*
X152319891Y-112600000D01*
X152356645Y-112584776D01*
X152384776Y-112556645D01*
X152400000Y-112519891D01*
X152400000Y-112499999D01*
X152653553Y-112499999D01*
X152653553Y-112500000D01*
X152826776Y-112673223D01*
X153000000Y-112846446D01*
X153000001Y-112846446D01*
X153363108Y-112483338D01*
X153363108Y-112483337D01*
X153349308Y-112474667D01*
X153349298Y-112474662D01*
X153179137Y-112415120D01*
X153178346Y-112414940D01*
X153177886Y-112414683D01*
X153172571Y-112412823D01*
X153172896Y-112411891D01*
X153117370Y-112380827D01*
X153088049Y-112327124D01*
X153087177Y-112327430D01*
X153085322Y-112322130D01*
X153085057Y-112321644D01*
X153084878Y-112320859D01*
X153025337Y-112150701D01*
X153025335Y-112150697D01*
X153016660Y-112136891D01*
X152653553Y-112499999D01*
X152400000Y-112499999D01*
X152400000Y-112480109D01*
X152384776Y-112443355D01*
X152356645Y-112415224D01*
X152319891Y-112400000D01*
X152280109Y-112400000D01*
X152243355Y-112415224D01*
X152215224Y-112443355D01*
X152200000Y-112480109D01*
X151926556Y-112480109D01*
X151600001Y-112153553D01*
X151600000Y-112153553D01*
X151253553Y-112500000D01*
X151000000Y-112500000D01*
X151000000Y-112480109D01*
X150984776Y-112443355D01*
X150956645Y-112415224D01*
X150919891Y-112400000D01*
X150880109Y-112400000D01*
X150843355Y-112415224D01*
X150815224Y-112443355D01*
X150800000Y-112480109D01*
X150526556Y-112480109D01*
X150183338Y-112136890D01*
X150183338Y-112136891D01*
X150174665Y-112150695D01*
X150115118Y-112320869D01*
X150114939Y-112321656D01*
X150114683Y-112322112D01*
X150112823Y-112327430D01*
X150111890Y-112327103D01*
X150080824Y-112382631D01*
X150027125Y-112411952D01*
X150027430Y-112412823D01*
X150022143Y-112414672D01*
X150021656Y-112414939D01*
X150020869Y-112415118D01*
X149850695Y-112474665D01*
X149836891Y-112483338D01*
X149836890Y-112483338D01*
X149065896Y-112483338D01*
X149765896Y-111783338D01*
X150536890Y-111783338D01*
X150900000Y-112146446D01*
X150900001Y-112146446D01*
X151263108Y-111783338D01*
X151936890Y-111783338D01*
X152300000Y-112146446D01*
X152300001Y-112146446D01*
X152663108Y-111783338D01*
X152663108Y-111783337D01*
X152649308Y-111774667D01*
X152649298Y-111774662D01*
X152479141Y-111715122D01*
X152479138Y-111715121D01*
X152300003Y-111694938D01*
X152299997Y-111694938D01*
X152120861Y-111715121D01*
X152120858Y-111715122D01*
X151950696Y-111774664D01*
X151936891Y-111783338D01*
X151936890Y-111783338D01*
X151263108Y-111783338D01*
X151263108Y-111783337D01*
X151249308Y-111774667D01*
X151249298Y-111774662D01*
X151079141Y-111715122D01*
X151079138Y-111715121D01*
X150900003Y-111694938D01*
X150899997Y-111694938D01*
X150720861Y-111715121D01*
X150720858Y-111715122D01*
X150550696Y-111774664D01*
X150536891Y-111783338D01*
X150536890Y-111783338D01*
X149765896Y-111783338D01*
X152358506Y-109190728D01*
X152358511Y-109190724D01*
X152368715Y-109180520D01*
X152368716Y-109180520D01*
X152387819Y-109161417D01*
X152449142Y-109127932D01*
X152518834Y-109132916D01*
X152574767Y-109174788D01*
X152599184Y-109240252D01*
X152599500Y-109249098D01*
X152599500Y-109513330D01*
X152599499Y-109513348D01*
X152599499Y-109679054D01*
X152599498Y-109679054D01*
X152640422Y-109831783D01*
X152645442Y-109840478D01*
X152719477Y-109968712D01*
X152719481Y-109968717D01*
X152838349Y-110087585D01*
X152838355Y-110087590D01*
X160415139Y-117664374D01*
X160415149Y-117664385D01*
X160419479Y-117668715D01*
X160419480Y-117668716D01*
X160531284Y-117780520D01*
X160575774Y-117806206D01*
X160623989Y-117856772D01*
X160637213Y-117925379D01*
X160618768Y-117979565D01*
X160574211Y-118050476D01*
X160514631Y-118220745D01*
X160514630Y-118220750D01*
X160494435Y-118399996D01*
X160494435Y-118400003D01*
X160514630Y-118579249D01*
X160514631Y-118579254D01*
X160574211Y-118749523D01*
X160622132Y-118825788D01*
X160659569Y-118885369D01*
X160670185Y-118902263D01*
X160672445Y-118905097D01*
X160673334Y-118907275D01*
X160673889Y-118908158D01*
X160673734Y-118908255D01*
X160698855Y-118969783D01*
X160699500Y-118982412D01*
X160699500Y-119517587D01*
X160679815Y-119584626D01*
X160672450Y-119594896D01*
X160670186Y-119597734D01*
X160574210Y-119750478D01*
X160514630Y-119920750D01*
X160504837Y-120007667D01*
X160477770Y-120072081D01*
X160469298Y-120081464D01*
X159187584Y-121363181D01*
X159126261Y-121396666D01*
X159099903Y-121399500D01*
X140900098Y-121399500D01*
X140833059Y-121379815D01*
X140812417Y-121363181D01*
X140130700Y-120681465D01*
X140097215Y-120620142D01*
X140095163Y-120607686D01*
X140085368Y-120520745D01*
X140025789Y-120350478D01*
X139929816Y-120197738D01*
X139802262Y-120070184D01*
X139757941Y-120042335D01*
X139649523Y-119974211D01*
X139479254Y-119914631D01*
X139479249Y-119914630D01*
X139300004Y-119894435D01*
X139299996Y-119894435D01*
X139120750Y-119914630D01*
X139120745Y-119914631D01*
X138950476Y-119974211D01*
X138797737Y-120070184D01*
X138670184Y-120197737D01*
X138574211Y-120350476D01*
X138514631Y-120520745D01*
X138514630Y-120520750D01*
X138494435Y-120699996D01*
X138494435Y-120700003D01*
X138514630Y-120879249D01*
X138514631Y-120879254D01*
X138574211Y-121049523D01*
X138670184Y-121202262D01*
X138797738Y-121329816D01*
X138950478Y-121425789D01*
X139120745Y-121485368D01*
X139207669Y-121495161D01*
X139272080Y-121522226D01*
X139281464Y-121530699D01*
X140231284Y-122480520D01*
X140231286Y-122480521D01*
X140231290Y-122480524D01*
X140368209Y-122559573D01*
X140368216Y-122559577D01*
X140520943Y-122600501D01*
X140520945Y-122600501D01*
X140686654Y-122600501D01*
X140686670Y-122600500D01*
X159313331Y-122600500D01*
X159313347Y-122600501D01*
X159320943Y-122600501D01*
X159479054Y-122600501D01*
X159479057Y-122600501D01*
X159631785Y-122559577D01*
X159681904Y-122530639D01*
X159768716Y-122480520D01*
X159880520Y-122368716D01*
X159880520Y-122368714D01*
X159890728Y-122358507D01*
X159890729Y-122358504D01*
X161212322Y-121036912D01*
X161273641Y-121003430D01*
X161343333Y-121008414D01*
X161387680Y-121036915D01*
X161615139Y-121264374D01*
X161615149Y-121264385D01*
X161619479Y-121268715D01*
X161619480Y-121268716D01*
X161731284Y-121380520D01*
X161809693Y-121425789D01*
X161868215Y-121459577D01*
X162020943Y-121500501D01*
X162020946Y-121500501D01*
X162186653Y-121500501D01*
X162186669Y-121500500D01*
X166413331Y-121500500D01*
X166413347Y-121500501D01*
X166420943Y-121500501D01*
X166579054Y-121500501D01*
X166579057Y-121500501D01*
X166731785Y-121459577D01*
X166790307Y-121425789D01*
X166868716Y-121380520D01*
X166980520Y-121268716D01*
X166980520Y-121268714D01*
X166990724Y-121258511D01*
X166990728Y-121258506D01*
X168658506Y-119590728D01*
X168658511Y-119590724D01*
X168668714Y-119580520D01*
X168668716Y-119580520D01*
X168780520Y-119468716D01*
X168859577Y-119331784D01*
X168900500Y-119179057D01*
X168900500Y-118482412D01*
X168920185Y-118415373D01*
X168927555Y-118405097D01*
X168929810Y-118402267D01*
X168929816Y-118402262D01*
X169025789Y-118249522D01*
X169085368Y-118079255D01*
X169088611Y-118050478D01*
X169093102Y-118010617D01*
X169120168Y-117946203D01*
X169177763Y-117906648D01*
X169216322Y-117900500D01*
X171217588Y-117900500D01*
X171284627Y-117920185D01*
X171294903Y-117927555D01*
X171297736Y-117929814D01*
X171297738Y-117929816D01*
X171450478Y-118025789D01*
X171563834Y-118065454D01*
X171620745Y-118085368D01*
X171620750Y-118085369D01*
X171799996Y-118105565D01*
X171800000Y-118105565D01*
X171800004Y-118105565D01*
X171979249Y-118085369D01*
X171979252Y-118085368D01*
X171979255Y-118085368D01*
X172149522Y-118025789D01*
X172302262Y-117929816D01*
X172429816Y-117802262D01*
X172525789Y-117649522D01*
X172585368Y-117479255D01*
X172599692Y-117352127D01*
X172605565Y-117300003D01*
X172605565Y-117299996D01*
X172585369Y-117120750D01*
X172585368Y-117120745D01*
X172527793Y-116956206D01*
X172525789Y-116950478D01*
X172429816Y-116797738D01*
X172302262Y-116670184D01*
X172257640Y-116642146D01*
X172149523Y-116574211D01*
X171979254Y-116514631D01*
X171979249Y-116514630D01*
X171800004Y-116494435D01*
X171799996Y-116494435D01*
X171620750Y-116514630D01*
X171620745Y-116514631D01*
X171450476Y-116574211D01*
X171297736Y-116670185D01*
X171294903Y-116672445D01*
X171292724Y-116673334D01*
X171291842Y-116673889D01*
X171291744Y-116673734D01*
X171230217Y-116698855D01*
X171217588Y-116699500D01*
X161200097Y-116699500D01*
X161133058Y-116679815D01*
X161112416Y-116663181D01*
X153836819Y-109387584D01*
X153803334Y-109326261D01*
X153800500Y-109299903D01*
X153800500Y-106748627D01*
X153820185Y-106681588D01*
X153872989Y-106635833D01*
X153942147Y-106625889D01*
X154005703Y-106654914D01*
X154013505Y-106663196D01*
X154013733Y-106662969D01*
X154138349Y-106787585D01*
X154138354Y-106787589D01*
X155131284Y-107780520D01*
X155131286Y-107780521D01*
X155137735Y-107785470D01*
X155136638Y-107786899D01*
X155177880Y-107830149D01*
X155191105Y-107898756D01*
X155175864Y-107943548D01*
X155177231Y-107944206D01*
X155174210Y-107950478D01*
X155114633Y-108120737D01*
X155114630Y-108120750D01*
X155094435Y-108299996D01*
X155094435Y-108300003D01*
X155114630Y-108479249D01*
X155114631Y-108479254D01*
X155174211Y-108649523D01*
X155257948Y-108782789D01*
X155270184Y-108802262D01*
X155397738Y-108929816D01*
X155550478Y-109025789D01*
X155717704Y-109084303D01*
X155764428Y-109113663D01*
X156369298Y-109718533D01*
X156402783Y-109779856D01*
X156404837Y-109792330D01*
X156414630Y-109879249D01*
X156474210Y-110049521D01*
X156504507Y-110097738D01*
X156570184Y-110202262D01*
X156697738Y-110329816D01*
X156788080Y-110386582D01*
X156842450Y-110420745D01*
X156850478Y-110425789D01*
X157020745Y-110485368D01*
X157020750Y-110485369D01*
X157199996Y-110505565D01*
X157200000Y-110505565D01*
X157200004Y-110505565D01*
X157379249Y-110485369D01*
X157379252Y-110485368D01*
X157379255Y-110485368D01*
X157549522Y-110425789D01*
X157702262Y-110329816D01*
X157829816Y-110202262D01*
X157925789Y-110049522D01*
X157985368Y-109879255D01*
X157985369Y-109879249D01*
X158005565Y-109700003D01*
X158005565Y-109699996D01*
X157985369Y-109520750D01*
X157985368Y-109520745D01*
X157949666Y-109418715D01*
X157925789Y-109350478D01*
X157910572Y-109326261D01*
X157886582Y-109288080D01*
X157829816Y-109197738D01*
X157702262Y-109070184D01*
X157631608Y-109025789D01*
X157549521Y-108974210D01*
X157379249Y-108914630D01*
X157292330Y-108904837D01*
X157227916Y-108877770D01*
X157218533Y-108869298D01*
X156741884Y-108392649D01*
X156708399Y-108331326D01*
X156705565Y-108304968D01*
X156705565Y-108299997D01*
X156685369Y-108120750D01*
X156685366Y-108120737D01*
X156666022Y-108065455D01*
X156662460Y-107995676D01*
X156697188Y-107935049D01*
X156759182Y-107902821D01*
X156783063Y-107900500D01*
X171017588Y-107900500D01*
X171084627Y-107920185D01*
X171094903Y-107927555D01*
X171097736Y-107929814D01*
X171097738Y-107929816D01*
X171250478Y-108025789D01*
X171363837Y-108065455D01*
X171420745Y-108085368D01*
X171420750Y-108085369D01*
X171599996Y-108105565D01*
X171600000Y-108105565D01*
X171600004Y-108105565D01*
X171779249Y-108085369D01*
X171779252Y-108085368D01*
X171779255Y-108085368D01*
X171949522Y-108025789D01*
X172096433Y-107933478D01*
X172163668Y-107914478D01*
X172230503Y-107934845D01*
X172250085Y-107950791D01*
X180263181Y-115963887D01*
X180296666Y-116025210D01*
X180299500Y-116051568D01*
X180299500Y-119813330D01*
X180299499Y-119813348D01*
X180299499Y-119979054D01*
X180299498Y-119979054D01*
X180299499Y-119979057D01*
X180326939Y-120081464D01*
X180340424Y-120131787D01*
X180357126Y-120160715D01*
X180357127Y-120160717D01*
X180419477Y-120268712D01*
X180419481Y-120268717D01*
X180531284Y-120380520D01*
X180531285Y-120380522D01*
X180569298Y-120418535D01*
X180602783Y-120479858D01*
X180604837Y-120492332D01*
X180614630Y-120579249D01*
X180614631Y-120579254D01*
X180614632Y-120579255D01*
X180628939Y-120620142D01*
X180661537Y-120713302D01*
X180665098Y-120783081D01*
X180634239Y-120838253D01*
X180634528Y-120838483D01*
X180633133Y-120840232D01*
X180632183Y-120841931D01*
X180630185Y-120843928D01*
X180534211Y-120996669D01*
X180474631Y-121166938D01*
X180474630Y-121166943D01*
X180454435Y-121346188D01*
X180454435Y-121346196D01*
X180474630Y-121525442D01*
X180474631Y-121525447D01*
X180534211Y-121695716D01*
X180630182Y-121848452D01*
X180630184Y-121848455D01*
X180757738Y-121976009D01*
X180910478Y-122071982D01*
X181080745Y-122131561D01*
X181080750Y-122131562D01*
X181259996Y-122151758D01*
X181260000Y-122151758D01*
X181260004Y-122151758D01*
X181439249Y-122131562D01*
X181439252Y-122131561D01*
X181439255Y-122131561D01*
X181609522Y-122071982D01*
X181762262Y-121976009D01*
X181889816Y-121848455D01*
X181950864Y-121751295D01*
X181968172Y-121729591D01*
X181982856Y-121714909D01*
X181982856Y-121714906D01*
X181993060Y-121704704D01*
X181993064Y-121704699D01*
X182358506Y-121339257D01*
X182358511Y-121339253D01*
X182368714Y-121329049D01*
X182368716Y-121329049D01*
X182480520Y-121217245D01*
X182539892Y-121114409D01*
X182559577Y-121080314D01*
X182600500Y-120927586D01*
X182600500Y-120769472D01*
X182600500Y-115099995D01*
X193595233Y-115099995D01*
X193595233Y-115100004D01*
X193614273Y-115354079D01*
X193670968Y-115602477D01*
X193670973Y-115602494D01*
X193764058Y-115839671D01*
X193764057Y-115839671D01*
X193891457Y-116060332D01*
X193933452Y-116112993D01*
X194735387Y-115311058D01*
X194740889Y-115331591D01*
X194819881Y-115468408D01*
X194931592Y-115580119D01*
X195068409Y-115659111D01*
X195088940Y-115664612D01*
X194286813Y-116466737D01*
X194447623Y-116576375D01*
X194447624Y-116576376D01*
X194629123Y-116663780D01*
X194680983Y-116710602D01*
X194699296Y-116778029D01*
X194678249Y-116844653D01*
X194624522Y-116889321D01*
X194575322Y-116899500D01*
X194052129Y-116899500D01*
X194052123Y-116899501D01*
X193992516Y-116905908D01*
X193857671Y-116956202D01*
X193857664Y-116956206D01*
X193742455Y-117042452D01*
X193742452Y-117042455D01*
X193656206Y-117157664D01*
X193656202Y-117157671D01*
X193605908Y-117292517D01*
X193599501Y-117352116D01*
X193599501Y-117352123D01*
X193599500Y-117352135D01*
X193599500Y-119847870D01*
X193599501Y-119847876D01*
X193605908Y-119907483D01*
X193656202Y-120042328D01*
X193656206Y-120042335D01*
X193742452Y-120157544D01*
X193742455Y-120157547D01*
X193857664Y-120243793D01*
X193857671Y-120243797D01*
X193992517Y-120294091D01*
X193992516Y-120294091D01*
X193999444Y-120294835D01*
X194052127Y-120300500D01*
X196547872Y-120300499D01*
X196607483Y-120294091D01*
X196742331Y-120243796D01*
X196857546Y-120157546D01*
X196943796Y-120042331D01*
X196994091Y-119907483D01*
X197000500Y-119847873D01*
X197000499Y-117352128D01*
X196994091Y-117292517D01*
X196943796Y-117157669D01*
X196943795Y-117157668D01*
X196943793Y-117157664D01*
X196857547Y-117042455D01*
X196857544Y-117042452D01*
X196742335Y-116956206D01*
X196742328Y-116956202D01*
X196607482Y-116905908D01*
X196607483Y-116905908D01*
X196547883Y-116899501D01*
X196547881Y-116899500D01*
X196547873Y-116899500D01*
X196547865Y-116899500D01*
X196024679Y-116899500D01*
X195957640Y-116879815D01*
X195911885Y-116827011D01*
X195901941Y-116757853D01*
X195930966Y-116694297D01*
X195970878Y-116663780D01*
X196152381Y-116576373D01*
X196313185Y-116466737D01*
X195511059Y-115664612D01*
X195531591Y-115659111D01*
X195668408Y-115580119D01*
X195780119Y-115468408D01*
X195859111Y-115331591D01*
X195864612Y-115311059D01*
X196666545Y-116112993D01*
X196708545Y-116060327D01*
X196835941Y-115839671D01*
X196929026Y-115602494D01*
X196929031Y-115602477D01*
X196985726Y-115354079D01*
X197004767Y-115100004D01*
X197004767Y-115099995D01*
X196985726Y-114845920D01*
X196929031Y-114597522D01*
X196929026Y-114597505D01*
X196835941Y-114360328D01*
X196835942Y-114360328D01*
X196708544Y-114139671D01*
X196666546Y-114087006D01*
X195864612Y-114888939D01*
X195859111Y-114868409D01*
X195780119Y-114731592D01*
X195668408Y-114619881D01*
X195531591Y-114540889D01*
X195511058Y-114535387D01*
X196313185Y-113733261D01*
X196152377Y-113623624D01*
X196152376Y-113623623D01*
X195922823Y-113513078D01*
X195922825Y-113513078D01*
X195679347Y-113437975D01*
X195679341Y-113437973D01*
X195427404Y-113400000D01*
X195172595Y-113400000D01*
X194920658Y-113437973D01*
X194920652Y-113437975D01*
X194677175Y-113513078D01*
X194447624Y-113623623D01*
X194447616Y-113623628D01*
X194286813Y-113733261D01*
X195088940Y-114535387D01*
X195068409Y-114540889D01*
X194931592Y-114619881D01*
X194819881Y-114731592D01*
X194740889Y-114868409D01*
X194735387Y-114888940D01*
X193933453Y-114087006D01*
X193891455Y-114139670D01*
X193764058Y-114360328D01*
X193670973Y-114597505D01*
X193670968Y-114597522D01*
X193614273Y-114845920D01*
X193595233Y-115099995D01*
X182600500Y-115099995D01*
X182600500Y-114989059D01*
X182600501Y-114989046D01*
X182600501Y-114820945D01*
X182600501Y-114820943D01*
X182559577Y-114668215D01*
X182530639Y-114618095D01*
X182480520Y-114531284D01*
X182368716Y-114419480D01*
X182368715Y-114419479D01*
X182364385Y-114415149D01*
X182364374Y-114415139D01*
X178549231Y-110599996D01*
X184594435Y-110599996D01*
X184594435Y-110600003D01*
X184614630Y-110779249D01*
X184614631Y-110779254D01*
X184674211Y-110949523D01*
X184770184Y-111102262D01*
X184897738Y-111229816D01*
X185050478Y-111325789D01*
X185220745Y-111385368D01*
X185220750Y-111385369D01*
X185399996Y-111405565D01*
X185400000Y-111405565D01*
X185400004Y-111405565D01*
X185579249Y-111385369D01*
X185579252Y-111385368D01*
X185579255Y-111385368D01*
X185749522Y-111325789D01*
X185902262Y-111229816D01*
X185902267Y-111229810D01*
X185905097Y-111227555D01*
X185907275Y-111226665D01*
X185908158Y-111226111D01*
X185908255Y-111226265D01*
X185969783Y-111201145D01*
X185982412Y-111200500D01*
X186213331Y-111200500D01*
X186213347Y-111200501D01*
X186220943Y-111200501D01*
X186379054Y-111200501D01*
X186379057Y-111200501D01*
X186531785Y-111159577D01*
X186581904Y-111130639D01*
X186668716Y-111080520D01*
X186780520Y-110968716D01*
X186780520Y-110968714D01*
X186790728Y-110958507D01*
X186790730Y-110958504D01*
X189918535Y-107830698D01*
X189979856Y-107797215D01*
X189992311Y-107795163D01*
X190079255Y-107785368D01*
X190249522Y-107725789D01*
X190402262Y-107629816D01*
X190529816Y-107502262D01*
X190625789Y-107349522D01*
X190685368Y-107179255D01*
X190685369Y-107179249D01*
X190705565Y-107000003D01*
X190705565Y-106999996D01*
X190685369Y-106820750D01*
X190685368Y-106820745D01*
X190660133Y-106748627D01*
X190625789Y-106650478D01*
X190624921Y-106649097D01*
X190569954Y-106561617D01*
X190529816Y-106497738D01*
X190402262Y-106370184D01*
X190341806Y-106332197D01*
X190249523Y-106274211D01*
X190079254Y-106214631D01*
X190079249Y-106214630D01*
X189900004Y-106194435D01*
X189899996Y-106194435D01*
X189720750Y-106214630D01*
X189720745Y-106214631D01*
X189550476Y-106274211D01*
X189397737Y-106370184D01*
X189270184Y-106497737D01*
X189174210Y-106650478D01*
X189114630Y-106820750D01*
X189104837Y-106907668D01*
X189077770Y-106972082D01*
X189069298Y-106981465D01*
X186087584Y-109963181D01*
X186026261Y-109996666D01*
X185999903Y-109999500D01*
X185982412Y-109999500D01*
X185915373Y-109979815D01*
X185905097Y-109972445D01*
X185902263Y-109970185D01*
X185902262Y-109970184D01*
X185845496Y-109934515D01*
X185749523Y-109874211D01*
X185579254Y-109814631D01*
X185579249Y-109814630D01*
X185400004Y-109794435D01*
X185399996Y-109794435D01*
X185220750Y-109814630D01*
X185220745Y-109814631D01*
X185050476Y-109874211D01*
X184897737Y-109970184D01*
X184770184Y-110097737D01*
X184674211Y-110250476D01*
X184614631Y-110420745D01*
X184614630Y-110420750D01*
X184594435Y-110599996D01*
X178549231Y-110599996D01*
X172687590Y-104738355D01*
X172687588Y-104738352D01*
X172568717Y-104619481D01*
X172568709Y-104619475D01*
X172466936Y-104560717D01*
X172466934Y-104560716D01*
X172431790Y-104540425D01*
X172431789Y-104540424D01*
X172419263Y-104537067D01*
X172279057Y-104499499D01*
X172120943Y-104499499D01*
X172113347Y-104499499D01*
X172113331Y-104499500D01*
X161282412Y-104499500D01*
X161215373Y-104479815D01*
X161205097Y-104472445D01*
X161202263Y-104470185D01*
X161202262Y-104470184D01*
X161145496Y-104434515D01*
X161049523Y-104374211D01*
X160879254Y-104314631D01*
X160879249Y-104314630D01*
X160700004Y-104294435D01*
X160699996Y-104294435D01*
X160520750Y-104314630D01*
X160520745Y-104314631D01*
X160350476Y-104374211D01*
X160197737Y-104470184D01*
X160070184Y-104597737D01*
X159974211Y-104750476D01*
X159914631Y-104920745D01*
X159914630Y-104920750D01*
X159894435Y-105099996D01*
X159894435Y-105100003D01*
X159914630Y-105279249D01*
X159914631Y-105279254D01*
X159974211Y-105449523D01*
X160070184Y-105602262D01*
X160130241Y-105662319D01*
X160163726Y-105723642D01*
X160158742Y-105793334D01*
X160130241Y-105837681D01*
X160070184Y-105897737D01*
X159974211Y-106050476D01*
X159914631Y-106220745D01*
X159914630Y-106220750D01*
X159894435Y-106399996D01*
X159894435Y-106400003D01*
X159912644Y-106561617D01*
X159900589Y-106630439D01*
X159853240Y-106681818D01*
X159789424Y-106699500D01*
X156748072Y-106699500D01*
X156681033Y-106679815D01*
X156635278Y-106627011D01*
X156625334Y-106557853D01*
X156631030Y-106534546D01*
X156685367Y-106379257D01*
X156685368Y-106379255D01*
X156685369Y-106379249D01*
X156705565Y-106200003D01*
X156705565Y-106199996D01*
X156685369Y-106020750D01*
X156685368Y-106020745D01*
X156642326Y-105897738D01*
X156625789Y-105850478D01*
X156529816Y-105697738D01*
X156529814Y-105697736D01*
X156529813Y-105697734D01*
X156527550Y-105694896D01*
X156526659Y-105692715D01*
X156526111Y-105691842D01*
X156526264Y-105691745D01*
X156501144Y-105630209D01*
X156500500Y-105617587D01*
X156500500Y-103050096D01*
X156520185Y-102983057D01*
X156536814Y-102962420D01*
X158377665Y-101121568D01*
X158438986Y-101088085D01*
X158508678Y-101093069D01*
X158564611Y-101134941D01*
X158570065Y-101143902D01*
X158570506Y-101143626D01*
X158574211Y-101149522D01*
X158670184Y-101302262D01*
X158797738Y-101429816D01*
X158950478Y-101525789D01*
X159120745Y-101585368D01*
X159120750Y-101585369D01*
X159299996Y-101605565D01*
X159300000Y-101605565D01*
X159300002Y-101605565D01*
X159353829Y-101599500D01*
X159397227Y-101594610D01*
X159466049Y-101606664D01*
X159517428Y-101654013D01*
X159535053Y-101721623D01*
X159516105Y-101783801D01*
X159474212Y-101850474D01*
X159414631Y-102020745D01*
X159414630Y-102020750D01*
X159394435Y-102199996D01*
X159394435Y-102200003D01*
X159414630Y-102379249D01*
X159414631Y-102379254D01*
X159474211Y-102549523D01*
X159550505Y-102670943D01*
X159570184Y-102702262D01*
X159697738Y-102829816D01*
X159850478Y-102925789D01*
X160004878Y-102979816D01*
X160020745Y-102985368D01*
X160020750Y-102985369D01*
X160199996Y-103005565D01*
X160200000Y-103005565D01*
X160200004Y-103005565D01*
X160379249Y-102985369D01*
X160379252Y-102985368D01*
X160379255Y-102985368D01*
X160549522Y-102925789D01*
X160702262Y-102829816D01*
X160702267Y-102829810D01*
X160705097Y-102827555D01*
X160707275Y-102826665D01*
X160708158Y-102826111D01*
X160708255Y-102826265D01*
X160769783Y-102801145D01*
X160782412Y-102800500D01*
X160919190Y-102800500D01*
X160986229Y-102820185D01*
X161016135Y-102847185D01*
X161020183Y-102852261D01*
X161020184Y-102852262D01*
X161147738Y-102979816D01*
X161300478Y-103075789D01*
X161470745Y-103135368D01*
X161470750Y-103135369D01*
X161649996Y-103155565D01*
X161650000Y-103155565D01*
X161650004Y-103155565D01*
X161829249Y-103135369D01*
X161829252Y-103135368D01*
X161829255Y-103135368D01*
X161999522Y-103075789D01*
X162152262Y-102979816D01*
X162279816Y-102852262D01*
X162375789Y-102699522D01*
X162435368Y-102529255D01*
X162446350Y-102431785D01*
X162455565Y-102350003D01*
X162455565Y-102349996D01*
X162435369Y-102170750D01*
X162435368Y-102170745D01*
X162382882Y-102020750D01*
X162375789Y-102000478D01*
X162279816Y-101847738D01*
X162152262Y-101720184D01*
X161999523Y-101624211D01*
X161829254Y-101564631D01*
X161829249Y-101564630D01*
X161650004Y-101544435D01*
X161649996Y-101544435D01*
X161470750Y-101564630D01*
X161470745Y-101564631D01*
X161390983Y-101592542D01*
X161350028Y-101599500D01*
X160782412Y-101599500D01*
X160715373Y-101579815D01*
X160705097Y-101572445D01*
X160702263Y-101570185D01*
X160702262Y-101570184D01*
X160631606Y-101525788D01*
X160549523Y-101474211D01*
X160379254Y-101414631D01*
X160379249Y-101414630D01*
X160200004Y-101394435D01*
X160199996Y-101394435D01*
X160102771Y-101405389D01*
X160033949Y-101393334D01*
X159982570Y-101345985D01*
X159964946Y-101278374D01*
X159983895Y-101216196D01*
X160025788Y-101149524D01*
X160025789Y-101149522D01*
X160085368Y-100979255D01*
X160094298Y-100900000D01*
X162600000Y-100900000D01*
X164900000Y-100900000D01*
X164900000Y-99100000D01*
X162600000Y-99100000D01*
X162600000Y-100900000D01*
X160094298Y-100900000D01*
X160105565Y-100800000D01*
X160102040Y-100768717D01*
X160085369Y-100620750D01*
X160085368Y-100620745D01*
X160082759Y-100613288D01*
X160025789Y-100450478D01*
X159929816Y-100297738D01*
X159929814Y-100297736D01*
X159929813Y-100297734D01*
X159927550Y-100294896D01*
X159926659Y-100292715D01*
X159926111Y-100291842D01*
X159926264Y-100291745D01*
X159901144Y-100230209D01*
X159900500Y-100217587D01*
X159900500Y-100200096D01*
X159920185Y-100133057D01*
X159936814Y-100112420D01*
X162127402Y-97921831D01*
X162188723Y-97888348D01*
X162228964Y-97886294D01*
X162284597Y-97892562D01*
X162399997Y-97905565D01*
X162400000Y-97905565D01*
X162400004Y-97905565D01*
X162579249Y-97885369D01*
X162579252Y-97885368D01*
X162579255Y-97885368D01*
X162749522Y-97825789D01*
X162902262Y-97729816D01*
X163029816Y-97602262D01*
X163125789Y-97449522D01*
X163185368Y-97279255D01*
X163186035Y-97273334D01*
X163205565Y-97100003D01*
X163205565Y-97099996D01*
X163185369Y-96920750D01*
X163185368Y-96920745D01*
X163125787Y-96750473D01*
X163032911Y-96602663D01*
X163013910Y-96535427D01*
X163034277Y-96468592D01*
X163050218Y-96449015D01*
X166058506Y-93440728D01*
X166058511Y-93440724D01*
X166068714Y-93430520D01*
X166068716Y-93430520D01*
X166180520Y-93318716D01*
X166248771Y-93200501D01*
X166259577Y-93181785D01*
X166300501Y-93029057D01*
X166300501Y-92870943D01*
X166300501Y-92863348D01*
X166300500Y-92863330D01*
X166300500Y-92749097D01*
X166320185Y-92682058D01*
X166372989Y-92636303D01*
X166442147Y-92626359D01*
X166505703Y-92655384D01*
X166512181Y-92661416D01*
X166663181Y-92812416D01*
X166696666Y-92873739D01*
X166699500Y-92900097D01*
X166699500Y-94317587D01*
X166679815Y-94384626D01*
X166672450Y-94394896D01*
X166670186Y-94397734D01*
X166574211Y-94550476D01*
X166514631Y-94720745D01*
X166514630Y-94720750D01*
X166494435Y-94899996D01*
X166494435Y-94900003D01*
X166514630Y-95079249D01*
X166514631Y-95079254D01*
X166574211Y-95249523D01*
X166619753Y-95322002D01*
X166670184Y-95402262D01*
X166797738Y-95529816D01*
X166950478Y-95625789D01*
X167120745Y-95685368D01*
X167120750Y-95685369D01*
X167299996Y-95705565D01*
X167300000Y-95705565D01*
X167300004Y-95705565D01*
X167479249Y-95685369D01*
X167479252Y-95685368D01*
X167479255Y-95685368D01*
X167649522Y-95625789D01*
X167802262Y-95529816D01*
X167929816Y-95402262D01*
X168025789Y-95249522D01*
X168085368Y-95079255D01*
X168088464Y-95051779D01*
X168105565Y-94900003D01*
X168105565Y-94899996D01*
X168085369Y-94720750D01*
X168085368Y-94720745D01*
X168025788Y-94550476D01*
X167929813Y-94397734D01*
X167927550Y-94394896D01*
X167926659Y-94392715D01*
X167926111Y-94391842D01*
X167926264Y-94391745D01*
X167901144Y-94330209D01*
X167900500Y-94317587D01*
X167900500Y-92689059D01*
X167900501Y-92689046D01*
X167900501Y-92520945D01*
X167900501Y-92520943D01*
X167859577Y-92368215D01*
X167821499Y-92302262D01*
X167821499Y-92302261D01*
X167780524Y-92231290D01*
X167780521Y-92231286D01*
X167780520Y-92231284D01*
X167668716Y-92119480D01*
X167668715Y-92119479D01*
X167664385Y-92115149D01*
X167664374Y-92115139D01*
X167330700Y-91781465D01*
X167297215Y-91720142D01*
X167295163Y-91707686D01*
X167285368Y-91620745D01*
X167225789Y-91450478D01*
X167129816Y-91297738D01*
X167002262Y-91170184D01*
X166849521Y-91074210D01*
X166758369Y-91042315D01*
X166701592Y-91001593D01*
X166675845Y-90936640D01*
X166689301Y-90868079D01*
X166711635Y-90837600D01*
X166912419Y-90636816D01*
X166973741Y-90603334D01*
X167000098Y-90600500D01*
X169417588Y-90600500D01*
X169484627Y-90620185D01*
X169494903Y-90627555D01*
X169497736Y-90629814D01*
X169497738Y-90629816D01*
X169589677Y-90687585D01*
X169642450Y-90720745D01*
X169650478Y-90725789D01*
X169771719Y-90768213D01*
X169820745Y-90785368D01*
X169820750Y-90785369D01*
X169999996Y-90805565D01*
X170000000Y-90805565D01*
X170000004Y-90805565D01*
X170179249Y-90785369D01*
X170179252Y-90785368D01*
X170179255Y-90785368D01*
X170349522Y-90725789D01*
X170502262Y-90629816D01*
X170502267Y-90629810D01*
X170505097Y-90627555D01*
X170507275Y-90626665D01*
X170508158Y-90626111D01*
X170508255Y-90626265D01*
X170569783Y-90601145D01*
X170582412Y-90600500D01*
X170713331Y-90600500D01*
X170713347Y-90600501D01*
X170720943Y-90600501D01*
X170879054Y-90600501D01*
X170879057Y-90600501D01*
X171031785Y-90559577D01*
X171101233Y-90519481D01*
X171168716Y-90480520D01*
X171280520Y-90368716D01*
X171280520Y-90368714D01*
X171290724Y-90358511D01*
X171290727Y-90358506D01*
X182819509Y-78829725D01*
X182875095Y-78797633D01*
X182963663Y-78773903D01*
X183177830Y-78674035D01*
X183371401Y-78538495D01*
X183538495Y-78371401D01*
X183668425Y-78185842D01*
X183723002Y-78142217D01*
X183792500Y-78135023D01*
X183854855Y-78166546D01*
X183871575Y-78185842D01*
X184001500Y-78371395D01*
X184001505Y-78371401D01*
X184168599Y-78538495D01*
X184245135Y-78592086D01*
X184362165Y-78674032D01*
X184362167Y-78674033D01*
X184362170Y-78674035D01*
X184576337Y-78773903D01*
X184804592Y-78835063D01*
X184975319Y-78850000D01*
X185039999Y-78855659D01*
X185040000Y-78855659D01*
X185040001Y-78855659D01*
X185104681Y-78850000D01*
X185275408Y-78835063D01*
X185503663Y-78773903D01*
X185717830Y-78674035D01*
X185911401Y-78538495D01*
X186078495Y-78371401D01*
X186214035Y-78177830D01*
X186313903Y-77963663D01*
X186375063Y-77735408D01*
X186395659Y-77500000D01*
X186375063Y-77264592D01*
X186313903Y-77036337D01*
X186214035Y-76822171D01*
X186208425Y-76814158D01*
X186078494Y-76628597D01*
X185911402Y-76461506D01*
X185911395Y-76461501D01*
X185717834Y-76325967D01*
X185717830Y-76325965D01*
X185646727Y-76292809D01*
X185503663Y-76226097D01*
X185503659Y-76226096D01*
X185503655Y-76226094D01*
X185275413Y-76164938D01*
X185275403Y-76164936D01*
X185040001Y-76144341D01*
X185039999Y-76144341D01*
X184804596Y-76164936D01*
X184804586Y-76164938D01*
X184576344Y-76226094D01*
X184576335Y-76226098D01*
X184362171Y-76325964D01*
X184362169Y-76325965D01*
X184168597Y-76461505D01*
X184001505Y-76628597D01*
X183871575Y-76814158D01*
X183816998Y-76857783D01*
X183747500Y-76864977D01*
X183685145Y-76833454D01*
X183668425Y-76814158D01*
X183538494Y-76628597D01*
X183371402Y-76461506D01*
X183371395Y-76461501D01*
X183177834Y-76325967D01*
X183177830Y-76325965D01*
X183106727Y-76292809D01*
X182963663Y-76226097D01*
X182963659Y-76226096D01*
X182963655Y-76226094D01*
X182735413Y-76164938D01*
X182735403Y-76164936D01*
X182500001Y-76144341D01*
X182499999Y-76144341D01*
X182264596Y-76164936D01*
X182264586Y-76164938D01*
X182036344Y-76226094D01*
X182036335Y-76226098D01*
X181822171Y-76325964D01*
X181822169Y-76325965D01*
X181628597Y-76461505D01*
X181461505Y-76628597D01*
X181331575Y-76814158D01*
X181276998Y-76857783D01*
X181207500Y-76864977D01*
X181145145Y-76833454D01*
X181128425Y-76814158D01*
X180998494Y-76628597D01*
X180831402Y-76461506D01*
X180831395Y-76461501D01*
X180637834Y-76325967D01*
X180637830Y-76325965D01*
X180566727Y-76292809D01*
X180423663Y-76226097D01*
X180423659Y-76226096D01*
X180423655Y-76226094D01*
X180195413Y-76164938D01*
X180195403Y-76164936D01*
X179960001Y-76144341D01*
X179959999Y-76144341D01*
X179724596Y-76164936D01*
X179724586Y-76164938D01*
X179496344Y-76226094D01*
X179496335Y-76226098D01*
X179282171Y-76325964D01*
X179282169Y-76325965D01*
X179088600Y-76461503D01*
X178966284Y-76583819D01*
X178904961Y-76617303D01*
X178835269Y-76612319D01*
X178779336Y-76570447D01*
X178762421Y-76539470D01*
X178713354Y-76407913D01*
X178713350Y-76407906D01*
X178627190Y-76292812D01*
X178627187Y-76292809D01*
X178512093Y-76206649D01*
X178512086Y-76206645D01*
X178377379Y-76156403D01*
X178377372Y-76156401D01*
X178317844Y-76150000D01*
X177670000Y-76150000D01*
X177670000Y-77066988D01*
X177612993Y-77034075D01*
X177485826Y-77000000D01*
X177354174Y-77000000D01*
X177227007Y-77034075D01*
X177170000Y-77066988D01*
X177170000Y-76150000D01*
X176522155Y-76150000D01*
X176462627Y-76156401D01*
X176462620Y-76156403D01*
X176327913Y-76206645D01*
X176327906Y-76206649D01*
X176212812Y-76292809D01*
X176212809Y-76292812D01*
X176126649Y-76407906D01*
X176126645Y-76407913D01*
X176076403Y-76542620D01*
X176076401Y-76542627D01*
X176070000Y-76602155D01*
X176070000Y-77250000D01*
X176986988Y-77250000D01*
X176954075Y-77307007D01*
X176920000Y-77434174D01*
X176920000Y-77565826D01*
X176954075Y-77692993D01*
X176986988Y-77750000D01*
X176070000Y-77750000D01*
X176070000Y-78397844D01*
X176076401Y-78457372D01*
X176076403Y-78457379D01*
X176126645Y-78592086D01*
X176126649Y-78592093D01*
X176212809Y-78707187D01*
X176212812Y-78707190D01*
X176327906Y-78793350D01*
X176327913Y-78793354D01*
X176462620Y-78843596D01*
X176462627Y-78843598D01*
X176522155Y-78849999D01*
X176522172Y-78850000D01*
X177170000Y-78850000D01*
X177170000Y-77933012D01*
X177227007Y-77965925D01*
X177354174Y-78000000D01*
X177485826Y-78000000D01*
X177612993Y-77965925D01*
X177670000Y-77933012D01*
X177670000Y-78850000D01*
X178317828Y-78850000D01*
X178317844Y-78849999D01*
X178377372Y-78843598D01*
X178377379Y-78843596D01*
X178512086Y-78793354D01*
X178512093Y-78793350D01*
X178627187Y-78707190D01*
X178627190Y-78707187D01*
X178713350Y-78592093D01*
X178713354Y-78592086D01*
X178762422Y-78460529D01*
X178804293Y-78404595D01*
X178869757Y-78380178D01*
X178938030Y-78395030D01*
X178966285Y-78416181D01*
X179088599Y-78538495D01*
X179165135Y-78592086D01*
X179282165Y-78674032D01*
X179282167Y-78674033D01*
X179282170Y-78674035D01*
X179287898Y-78676706D01*
X179340339Y-78722872D01*
X179359500Y-78789090D01*
X179359500Y-80039902D01*
X179339815Y-80106941D01*
X179323181Y-80127583D01*
X172837584Y-86613181D01*
X172776261Y-86646666D01*
X172749903Y-86649500D01*
X167082412Y-86649500D01*
X167015373Y-86629815D01*
X167005097Y-86622445D01*
X167002263Y-86620185D01*
X167002262Y-86620184D01*
X166919985Y-86568486D01*
X166849523Y-86524211D01*
X166679254Y-86464631D01*
X166679249Y-86464630D01*
X166500004Y-86444435D01*
X166499996Y-86444435D01*
X166320750Y-86464630D01*
X166320745Y-86464631D01*
X166150476Y-86524211D01*
X165997736Y-86620185D01*
X165994903Y-86622445D01*
X165992724Y-86623334D01*
X165991842Y-86623889D01*
X165991744Y-86623734D01*
X165930217Y-86648855D01*
X165917588Y-86649500D01*
X161782412Y-86649500D01*
X161715373Y-86629815D01*
X161705097Y-86622445D01*
X161702263Y-86620185D01*
X161702262Y-86620184D01*
X161619985Y-86568486D01*
X161549523Y-86524211D01*
X161379254Y-86464631D01*
X161379249Y-86464630D01*
X161200004Y-86444435D01*
X161199996Y-86444435D01*
X161020750Y-86464630D01*
X161020745Y-86464631D01*
X160850476Y-86524211D01*
X160697734Y-86620186D01*
X160651501Y-86666419D01*
X160624254Y-86684628D01*
X160625254Y-86686359D01*
X160481287Y-86769477D01*
X160481282Y-86769481D01*
X160287583Y-86963181D01*
X160226260Y-86996666D01*
X160199902Y-86999500D01*
X159138140Y-86999500D01*
X159138124Y-86999499D01*
X159130528Y-86999499D01*
X158972414Y-86999499D01*
X158865058Y-87028265D01*
X158819681Y-87040424D01*
X158819680Y-87040425D01*
X158777756Y-87064631D01*
X158777754Y-87064632D01*
X158682761Y-87119475D01*
X158682753Y-87119481D01*
X158570949Y-87231286D01*
X158039055Y-87763181D01*
X157977732Y-87796666D01*
X157951374Y-87799500D01*
X157482412Y-87799500D01*
X157415373Y-87779815D01*
X157405097Y-87772445D01*
X157402263Y-87770185D01*
X157402262Y-87770184D01*
X157345496Y-87734515D01*
X157249523Y-87674211D01*
X157079254Y-87614631D01*
X157079249Y-87614630D01*
X156900004Y-87594435D01*
X156899996Y-87594435D01*
X156720750Y-87614630D01*
X156720745Y-87614631D01*
X156550476Y-87674211D01*
X156397737Y-87770184D01*
X156270184Y-87897737D01*
X156174210Y-88050478D01*
X156114630Y-88220750D01*
X156104837Y-88307666D01*
X156077770Y-88372080D01*
X156069299Y-88381462D01*
X156024237Y-88426524D01*
X156024212Y-88426552D01*
X155919477Y-88531287D01*
X155881887Y-88596397D01*
X155831321Y-88644612D01*
X155762714Y-88657836D01*
X155697849Y-88631868D01*
X155657320Y-88574954D01*
X155650500Y-88534397D01*
X155650500Y-83435928D01*
X155625502Y-83310261D01*
X155625501Y-83310260D01*
X155625501Y-83310256D01*
X155576465Y-83191873D01*
X155561973Y-83170184D01*
X155561973Y-83170183D01*
X155505278Y-83085332D01*
X155505272Y-83085325D01*
X155236819Y-82816872D01*
X155203334Y-82755549D01*
X155200500Y-82729191D01*
X155200500Y-80970807D01*
X155220185Y-80903768D01*
X155236813Y-80883131D01*
X155398225Y-80721719D01*
X155459545Y-80688237D01*
X155472019Y-80686183D01*
X155479255Y-80685368D01*
X155559017Y-80657457D01*
X155599972Y-80650500D01*
X160744932Y-80650500D01*
X160810904Y-80669506D01*
X160900477Y-80725789D01*
X160900481Y-80725790D01*
X161070737Y-80785366D01*
X161070742Y-80785367D01*
X161070745Y-80785368D01*
X161139384Y-80793101D01*
X161203796Y-80820166D01*
X161243352Y-80877760D01*
X161249500Y-80916321D01*
X161249500Y-81794931D01*
X161230494Y-81860903D01*
X161174211Y-81950477D01*
X161174209Y-81950481D01*
X161114633Y-82120737D01*
X161114630Y-82120750D01*
X161094435Y-82299996D01*
X161094435Y-82300003D01*
X161114630Y-82479249D01*
X161114631Y-82479254D01*
X161174211Y-82649523D01*
X161224270Y-82729191D01*
X161270184Y-82802262D01*
X161397738Y-82929816D01*
X161550478Y-83025789D01*
X161720622Y-83085325D01*
X161720745Y-83085368D01*
X161720750Y-83085369D01*
X161899996Y-83105565D01*
X161900000Y-83105565D01*
X161900004Y-83105565D01*
X162079249Y-83085369D01*
X162079252Y-83085368D01*
X162079255Y-83085368D01*
X162249522Y-83025789D01*
X162402262Y-82929816D01*
X162529816Y-82802262D01*
X162625789Y-82649522D01*
X162685368Y-82479255D01*
X162705565Y-82300000D01*
X162700816Y-82257853D01*
X162685369Y-82120750D01*
X162685366Y-82120737D01*
X162625790Y-81950481D01*
X162625789Y-81950478D01*
X162604008Y-81915814D01*
X162569506Y-81860903D01*
X162550500Y-81794931D01*
X162550500Y-76816868D01*
X162570185Y-76749829D01*
X162622989Y-76704074D01*
X162687756Y-76693579D01*
X162692516Y-76694090D01*
X162692517Y-76694091D01*
X162752127Y-76700500D01*
X165247872Y-76700499D01*
X165307483Y-76694091D01*
X165442331Y-76643796D01*
X165557546Y-76557546D01*
X165643796Y-76442331D01*
X165694091Y-76307483D01*
X165700500Y-76247873D01*
X165700499Y-73752128D01*
X165694091Y-73692517D01*
X165684487Y-73666768D01*
X165643797Y-73557671D01*
X165643793Y-73557664D01*
X165557547Y-73442455D01*
X165557544Y-73442452D01*
X165442335Y-73356206D01*
X165442328Y-73356202D01*
X165307482Y-73305908D01*
X165307483Y-73305908D01*
X165247883Y-73299501D01*
X165247881Y-73299500D01*
X165247873Y-73299500D01*
X165247864Y-73299500D01*
X162752129Y-73299500D01*
X162752123Y-73299501D01*
X162692516Y-73305908D01*
X162557671Y-73356202D01*
X162557664Y-73356206D01*
X162442455Y-73442452D01*
X162442452Y-73442455D01*
X162356206Y-73557664D01*
X162356202Y-73557671D01*
X162305908Y-73692517D01*
X162304378Y-73706753D01*
X162299501Y-73752123D01*
X162299500Y-73752135D01*
X162299500Y-74275142D01*
X162279815Y-74342181D01*
X162227011Y-74387936D01*
X162157853Y-74397880D01*
X162094297Y-74368855D01*
X162060072Y-74320445D01*
X162057302Y-74313387D01*
X162036393Y-74260112D01*
X161908959Y-74039388D01*
X161750050Y-73840123D01*
X161563217Y-73666768D01*
X161352634Y-73523195D01*
X161352630Y-73523193D01*
X161352627Y-73523191D01*
X161352626Y-73523190D01*
X161123006Y-73412612D01*
X161123008Y-73412612D01*
X160879466Y-73337489D01*
X160879462Y-73337488D01*
X160879458Y-73337487D01*
X160758231Y-73319214D01*
X160627440Y-73299500D01*
X160627435Y-73299500D01*
X160372565Y-73299500D01*
X160372559Y-73299500D01*
X160215609Y-73323157D01*
X160120542Y-73337487D01*
X160120539Y-73337488D01*
X160120533Y-73337489D01*
X159876992Y-73412612D01*
X159647373Y-73523190D01*
X159647372Y-73523191D01*
X159436782Y-73666768D01*
X159249952Y-73840121D01*
X159249950Y-73840123D01*
X159091041Y-74039388D01*
X158963608Y-74260109D01*
X158870492Y-74497362D01*
X158869122Y-74501804D01*
X158867677Y-74501358D01*
X158836780Y-74556593D01*
X158775117Y-74589449D01*
X158705480Y-74583752D01*
X158649978Y-74541311D01*
X158631805Y-74501517D01*
X158630878Y-74501804D01*
X158629509Y-74497369D01*
X158629508Y-74497363D01*
X158536393Y-74260112D01*
X158408959Y-74039388D01*
X158250050Y-73840123D01*
X158063217Y-73666768D01*
X157852634Y-73523195D01*
X157852630Y-73523193D01*
X157852627Y-73523191D01*
X157852626Y-73523190D01*
X157623006Y-73412612D01*
X157623008Y-73412612D01*
X157379466Y-73337489D01*
X157379462Y-73337488D01*
X157379458Y-73337487D01*
X157258231Y-73319214D01*
X157127440Y-73299500D01*
X157127435Y-73299500D01*
X156872565Y-73299500D01*
X156872559Y-73299500D01*
X156715609Y-73323157D01*
X156620542Y-73337487D01*
X156620539Y-73337488D01*
X156620533Y-73337489D01*
X156376992Y-73412612D01*
X156147373Y-73523190D01*
X156147372Y-73523191D01*
X155936782Y-73666768D01*
X155749952Y-73840121D01*
X155749950Y-73840123D01*
X155591041Y-74039388D01*
X155463608Y-74260109D01*
X155370492Y-74497362D01*
X155369122Y-74501804D01*
X155367677Y-74501358D01*
X155336780Y-74556593D01*
X155275117Y-74589449D01*
X155205480Y-74583752D01*
X155149978Y-74541311D01*
X155131805Y-74501517D01*
X155130878Y-74501804D01*
X155129509Y-74497369D01*
X155129508Y-74497363D01*
X155036393Y-74260112D01*
X154908959Y-74039388D01*
X154750050Y-73840123D01*
X154563217Y-73666768D01*
X154352634Y-73523195D01*
X154352630Y-73523193D01*
X154352627Y-73523191D01*
X154352626Y-73523190D01*
X154123006Y-73412612D01*
X154123008Y-73412612D01*
X153879466Y-73337489D01*
X153879462Y-73337488D01*
X153879458Y-73337487D01*
X153758231Y-73319214D01*
X153627440Y-73299500D01*
X153627435Y-73299500D01*
X153372565Y-73299500D01*
X153372559Y-73299500D01*
X153215609Y-73323157D01*
X153120542Y-73337487D01*
X153120539Y-73337488D01*
X153120533Y-73337489D01*
X152876992Y-73412612D01*
X152647373Y-73523190D01*
X152647372Y-73523191D01*
X152436782Y-73666768D01*
X152249952Y-73840121D01*
X152249950Y-73840123D01*
X152091041Y-74039388D01*
X151963608Y-74260109D01*
X151870492Y-74497362D01*
X151870490Y-74497369D01*
X151813777Y-74745845D01*
X151794732Y-74999995D01*
X151794732Y-75000004D01*
X151813777Y-75254154D01*
X151869543Y-75498482D01*
X151870492Y-75502637D01*
X151963607Y-75739888D01*
X152091041Y-75960612D01*
X152249950Y-76159877D01*
X152436783Y-76333232D01*
X152647366Y-76476805D01*
X152647371Y-76476807D01*
X152647372Y-76476808D01*
X152647373Y-76476809D01*
X152769328Y-76535538D01*
X152876992Y-76587387D01*
X152876993Y-76587387D01*
X152876996Y-76587389D01*
X153120542Y-76662513D01*
X153372565Y-76700500D01*
X153627435Y-76700500D01*
X153879458Y-76662513D01*
X154123004Y-76587389D01*
X154352634Y-76476805D01*
X154563217Y-76333232D01*
X154750050Y-76159877D01*
X154908959Y-75960612D01*
X155036393Y-75739888D01*
X155129508Y-75502637D01*
X155129510Y-75502624D01*
X155130878Y-75498196D01*
X155132324Y-75498642D01*
X155163213Y-75443412D01*
X155224873Y-75410552D01*
X155294510Y-75416243D01*
X155350016Y-75458680D01*
X155368192Y-75498482D01*
X155369122Y-75498196D01*
X155370490Y-75502630D01*
X155370492Y-75502637D01*
X155463607Y-75739888D01*
X155591041Y-75960612D01*
X155749950Y-76159877D01*
X155936783Y-76333232D01*
X156147366Y-76476805D01*
X156147371Y-76476807D01*
X156147372Y-76476808D01*
X156147373Y-76476809D01*
X156269328Y-76535538D01*
X156376992Y-76587387D01*
X156376993Y-76587387D01*
X156376996Y-76587389D01*
X156620542Y-76662513D01*
X156872565Y-76700500D01*
X157127435Y-76700500D01*
X157379458Y-76662513D01*
X157623004Y-76587389D01*
X157852634Y-76476805D01*
X158063217Y-76333232D01*
X158250050Y-76159877D01*
X158408959Y-75960612D01*
X158536393Y-75739888D01*
X158629508Y-75502637D01*
X158629510Y-75502624D01*
X158630878Y-75498196D01*
X158632324Y-75498642D01*
X158663213Y-75443412D01*
X158724873Y-75410552D01*
X158794510Y-75416243D01*
X158850016Y-75458680D01*
X158868192Y-75498482D01*
X158869122Y-75498196D01*
X158870490Y-75502630D01*
X158870492Y-75502637D01*
X158963607Y-75739888D01*
X159091041Y-75960612D01*
X159249950Y-76159877D01*
X159436783Y-76333232D01*
X159647366Y-76476805D01*
X159647371Y-76476807D01*
X159647372Y-76476808D01*
X159647373Y-76476809D01*
X159769328Y-76535538D01*
X159876992Y-76587387D01*
X159876993Y-76587387D01*
X159876996Y-76587389D01*
X160120542Y-76662513D01*
X160372565Y-76700500D01*
X160627435Y-76700500D01*
X160879458Y-76662513D01*
X161085573Y-76598934D01*
X161155431Y-76597985D01*
X161209799Y-76629745D01*
X161213181Y-76633127D01*
X161246666Y-76694450D01*
X161249500Y-76720808D01*
X161249500Y-79083677D01*
X161229815Y-79150716D01*
X161177011Y-79196471D01*
X161139384Y-79206897D01*
X161070750Y-79214630D01*
X160900476Y-79274211D01*
X160810904Y-79330494D01*
X160744932Y-79349500D01*
X155932940Y-79349500D01*
X155865901Y-79329815D01*
X155845259Y-79313181D01*
X155802262Y-79270184D01*
X155649523Y-79174211D01*
X155479254Y-79114631D01*
X155479249Y-79114630D01*
X155300004Y-79094435D01*
X155299996Y-79094435D01*
X155120750Y-79114630D01*
X155120745Y-79114631D01*
X154950476Y-79174211D01*
X154797737Y-79270184D01*
X154670184Y-79397737D01*
X154574210Y-79550478D01*
X154514632Y-79720744D01*
X154514630Y-79720752D01*
X154513815Y-79727988D01*
X154486743Y-79792400D01*
X154478277Y-79801775D01*
X154044725Y-80235328D01*
X154044724Y-80235329D01*
X154044723Y-80235331D01*
X154001512Y-80300003D01*
X153996085Y-80308125D01*
X153996083Y-80308127D01*
X153973539Y-80341864D01*
X153973533Y-80341875D01*
X153924499Y-80460255D01*
X153924497Y-80460261D01*
X153899500Y-80585928D01*
X153899500Y-82275500D01*
X153879815Y-82342539D01*
X153827011Y-82388294D01*
X153775500Y-82399500D01*
X146580581Y-82399500D01*
X146513542Y-82379815D01*
X146467787Y-82327011D01*
X146457843Y-82257853D01*
X146474629Y-82214049D01*
X146473595Y-82213497D01*
X146476464Y-82208129D01*
X146476465Y-82208127D01*
X146525501Y-82089744D01*
X146544252Y-81995477D01*
X146550500Y-81964069D01*
X146550500Y-77835931D01*
X146550500Y-77835928D01*
X146525502Y-77710261D01*
X146525501Y-77710260D01*
X146525501Y-77710256D01*
X146476465Y-77591873D01*
X146415078Y-77500000D01*
X146415078Y-77499999D01*
X146405276Y-77485330D01*
X146405271Y-77485324D01*
X145832126Y-76912180D01*
X145798641Y-76850857D01*
X145803625Y-76781166D01*
X145845496Y-76725232D01*
X145910961Y-76700815D01*
X145919807Y-76700499D01*
X147747871Y-76700499D01*
X147747872Y-76700499D01*
X147807483Y-76694091D01*
X147942331Y-76643796D01*
X148057546Y-76557546D01*
X148143796Y-76442331D01*
X148194091Y-76307483D01*
X148200500Y-76247873D01*
X148200499Y-73752128D01*
X148194091Y-73692517D01*
X148184487Y-73666768D01*
X148143797Y-73557671D01*
X148143793Y-73557664D01*
X148057547Y-73442455D01*
X148057544Y-73442452D01*
X147942335Y-73356206D01*
X147942328Y-73356202D01*
X147807482Y-73305908D01*
X147807483Y-73305908D01*
X147747883Y-73299501D01*
X147747881Y-73299500D01*
X147747873Y-73299500D01*
X147747864Y-73299500D01*
X145252129Y-73299500D01*
X145252123Y-73299501D01*
X145192516Y-73305908D01*
X145057671Y-73356202D01*
X145057664Y-73356206D01*
X144942455Y-73442452D01*
X144942452Y-73442455D01*
X144856206Y-73557664D01*
X144856202Y-73557671D01*
X144805908Y-73692517D01*
X144804378Y-73706753D01*
X144799501Y-73752123D01*
X144799500Y-73752135D01*
X144799500Y-74275142D01*
X144779815Y-74342181D01*
X144727011Y-74387936D01*
X144657853Y-74397880D01*
X144594297Y-74368855D01*
X144560072Y-74320445D01*
X144557302Y-74313387D01*
X144536393Y-74260112D01*
X144408959Y-74039388D01*
X144250050Y-73840123D01*
X144063217Y-73666768D01*
X143852634Y-73523195D01*
X143852630Y-73523193D01*
X143852627Y-73523191D01*
X143852626Y-73523190D01*
X143623006Y-73412612D01*
X143623008Y-73412612D01*
X143379466Y-73337489D01*
X143379462Y-73337488D01*
X143379458Y-73337487D01*
X143258231Y-73319214D01*
X143127440Y-73299500D01*
X143127435Y-73299500D01*
X142872565Y-73299500D01*
X142872559Y-73299500D01*
X142715609Y-73323157D01*
X142620542Y-73337487D01*
X142620539Y-73337488D01*
X142620533Y-73337489D01*
X142376992Y-73412612D01*
X142147373Y-73523190D01*
X142147372Y-73523191D01*
X141936782Y-73666768D01*
X141749952Y-73840121D01*
X141749950Y-73840123D01*
X141591041Y-74039388D01*
X141463608Y-74260109D01*
X141370492Y-74497362D01*
X141369122Y-74501804D01*
X141367677Y-74501358D01*
X141336780Y-74556593D01*
X141275117Y-74589449D01*
X141205480Y-74583752D01*
X141149978Y-74541311D01*
X141131805Y-74501517D01*
X141130878Y-74501804D01*
X141129509Y-74497369D01*
X141129508Y-74497363D01*
X141036393Y-74260112D01*
X140908959Y-74039388D01*
X140750050Y-73840123D01*
X140563217Y-73666768D01*
X140352634Y-73523195D01*
X140352630Y-73523193D01*
X140352627Y-73523191D01*
X140352626Y-73523190D01*
X140123006Y-73412612D01*
X140123008Y-73412612D01*
X139879466Y-73337489D01*
X139879462Y-73337488D01*
X139879458Y-73337487D01*
X139758231Y-73319214D01*
X139627440Y-73299500D01*
X139627435Y-73299500D01*
X139372565Y-73299500D01*
X139372559Y-73299500D01*
X139215609Y-73323157D01*
X139120542Y-73337487D01*
X139120539Y-73337488D01*
X139120533Y-73337489D01*
X138876992Y-73412612D01*
X138647373Y-73523190D01*
X138647372Y-73523191D01*
X138436782Y-73666768D01*
X138249952Y-73840121D01*
X138249950Y-73840123D01*
X138091041Y-74039388D01*
X137963608Y-74260109D01*
X137870492Y-74497362D01*
X137869122Y-74501804D01*
X137867677Y-74501358D01*
X137836780Y-74556593D01*
X137775117Y-74589449D01*
X137705480Y-74583752D01*
X137649978Y-74541311D01*
X137631805Y-74501517D01*
X137630878Y-74501804D01*
X137629509Y-74497369D01*
X137629508Y-74497363D01*
X137536393Y-74260112D01*
X137408959Y-74039388D01*
X137250050Y-73840123D01*
X137063217Y-73666768D01*
X136852634Y-73523195D01*
X136852630Y-73523193D01*
X136852627Y-73523191D01*
X136852626Y-73523190D01*
X136623006Y-73412612D01*
X136623008Y-73412612D01*
X136379466Y-73337489D01*
X136379462Y-73337488D01*
X136379458Y-73337487D01*
X136258231Y-73319214D01*
X136127440Y-73299500D01*
X136127435Y-73299500D01*
X135872565Y-73299500D01*
X135872559Y-73299500D01*
X135715609Y-73323157D01*
X135620542Y-73337487D01*
X135620539Y-73337488D01*
X135620533Y-73337489D01*
X135376992Y-73412612D01*
X135147373Y-73523190D01*
X135147372Y-73523191D01*
X134936782Y-73666768D01*
X134749952Y-73840121D01*
X134749950Y-73840123D01*
X134591041Y-74039388D01*
X134463608Y-74260109D01*
X134370492Y-74497362D01*
X134370490Y-74497369D01*
X134313777Y-74745845D01*
X134294732Y-74999995D01*
X134294732Y-75000004D01*
X134313777Y-75254154D01*
X134369543Y-75498482D01*
X134370492Y-75502637D01*
X134463607Y-75739888D01*
X134591041Y-75960612D01*
X134749950Y-76159877D01*
X134936783Y-76333232D01*
X135147366Y-76476805D01*
X135147371Y-76476807D01*
X135147372Y-76476808D01*
X135147373Y-76476809D01*
X135269328Y-76535538D01*
X135376992Y-76587387D01*
X135376993Y-76587387D01*
X135376996Y-76587389D01*
X135620542Y-76662513D01*
X135872565Y-76700500D01*
X136127435Y-76700500D01*
X136379458Y-76662513D01*
X136623004Y-76587389D01*
X136852634Y-76476805D01*
X137063217Y-76333232D01*
X137250050Y-76159877D01*
X137408959Y-75960612D01*
X137536393Y-75739888D01*
X137629508Y-75502637D01*
X137629510Y-75502624D01*
X137630878Y-75498196D01*
X137632324Y-75498642D01*
X137663213Y-75443412D01*
X137724873Y-75410552D01*
X137794510Y-75416243D01*
X137850016Y-75458680D01*
X137868192Y-75498482D01*
X137869122Y-75498196D01*
X137870490Y-75502630D01*
X137870492Y-75502637D01*
X137963607Y-75739888D01*
X138091041Y-75960612D01*
X138249950Y-76159877D01*
X138436783Y-76333232D01*
X138647366Y-76476805D01*
X138647371Y-76476807D01*
X138647372Y-76476808D01*
X138647373Y-76476809D01*
X138769328Y-76535538D01*
X138876992Y-76587387D01*
X138876993Y-76587387D01*
X138876996Y-76587389D01*
X139120542Y-76662513D01*
X139372565Y-76700500D01*
X139627435Y-76700500D01*
X139879458Y-76662513D01*
X140123004Y-76587389D01*
X140352634Y-76476805D01*
X140563217Y-76333232D01*
X140750050Y-76159877D01*
X140908959Y-75960612D01*
X141036393Y-75739888D01*
X141129508Y-75502637D01*
X141129510Y-75502624D01*
X141130878Y-75498196D01*
X141132324Y-75498642D01*
X141163213Y-75443412D01*
X141224873Y-75410552D01*
X141294510Y-75416243D01*
X141350016Y-75458680D01*
X141368192Y-75498482D01*
X141369122Y-75498196D01*
X141370490Y-75502630D01*
X141370492Y-75502637D01*
X141463607Y-75739888D01*
X141591041Y-75960612D01*
X141749950Y-76159877D01*
X141936783Y-76333232D01*
X142147366Y-76476805D01*
X142147371Y-76476807D01*
X142147372Y-76476808D01*
X142147373Y-76476809D01*
X142269328Y-76535538D01*
X142376992Y-76587387D01*
X142376993Y-76587387D01*
X142376996Y-76587389D01*
X142620542Y-76662513D01*
X142872565Y-76700500D01*
X143127435Y-76700500D01*
X143379458Y-76662513D01*
X143585573Y-76598934D01*
X143655431Y-76597985D01*
X143709799Y-76629745D01*
X145213181Y-78133127D01*
X145246666Y-78194450D01*
X145249500Y-78220808D01*
X145249500Y-79530192D01*
X145229815Y-79597231D01*
X145177011Y-79642986D01*
X145107853Y-79652930D01*
X145044297Y-79623905D01*
X145037819Y-79617873D01*
X145021722Y-79601776D01*
X144988237Y-79540453D01*
X144986182Y-79527973D01*
X144985368Y-79520745D01*
X144925789Y-79350478D01*
X144925174Y-79349500D01*
X144829815Y-79197737D01*
X144702262Y-79070184D01*
X144549523Y-78974211D01*
X144379254Y-78914631D01*
X144379249Y-78914630D01*
X144200004Y-78894435D01*
X144199996Y-78894435D01*
X144020750Y-78914630D01*
X144020737Y-78914633D01*
X143850481Y-78974209D01*
X143850477Y-78974210D01*
X143760904Y-79030494D01*
X143694932Y-79049500D01*
X140299972Y-79049500D01*
X140259017Y-79042542D01*
X140179254Y-79014631D01*
X140179249Y-79014630D01*
X140000004Y-78994435D01*
X139999996Y-78994435D01*
X139820750Y-79014630D01*
X139820745Y-79014631D01*
X139650476Y-79074211D01*
X139497737Y-79170184D01*
X139370184Y-79297737D01*
X139274210Y-79450478D01*
X139214632Y-79620744D01*
X139214630Y-79620752D01*
X139213815Y-79627988D01*
X139186743Y-79692400D01*
X139178277Y-79701775D01*
X138094724Y-80785328D01*
X138045113Y-80859578D01*
X138023535Y-80891871D01*
X137974499Y-81010255D01*
X137974497Y-81010261D01*
X137949500Y-81135928D01*
X137949500Y-88794931D01*
X137930494Y-88860903D01*
X137874211Y-88950477D01*
X137874209Y-88950481D01*
X137814633Y-89120737D01*
X137814630Y-89120750D01*
X137794435Y-89299996D01*
X137794435Y-89300003D01*
X137814630Y-89479249D01*
X137814631Y-89479254D01*
X137874211Y-89649523D01*
X137913730Y-89712416D01*
X137970184Y-89802262D01*
X138097738Y-89929816D01*
X138250478Y-90025789D01*
X138374820Y-90069298D01*
X138420745Y-90085368D01*
X138420750Y-90085369D01*
X138599996Y-90105565D01*
X138600000Y-90105565D01*
X138600004Y-90105565D01*
X138779249Y-90085369D01*
X138779251Y-90085368D01*
X138779255Y-90085368D01*
X138779258Y-90085366D01*
X138779262Y-90085366D01*
X138860447Y-90056958D01*
X138930225Y-90053395D01*
X138990853Y-90088124D01*
X139023080Y-90150117D01*
X139016676Y-90219693D01*
X138989083Y-90261680D01*
X133237680Y-96013083D01*
X133176357Y-96046568D01*
X133106665Y-96041584D01*
X133062318Y-96013083D01*
X118096819Y-81047584D01*
X118063334Y-80986261D01*
X118060500Y-80959903D01*
X118060500Y-78789090D01*
X118080185Y-78722051D01*
X118132101Y-78676706D01*
X118137830Y-78674035D01*
X118331401Y-78538495D01*
X118498495Y-78371401D01*
X118628425Y-78185842D01*
X118683002Y-78142217D01*
X118752500Y-78135023D01*
X118814855Y-78166546D01*
X118831575Y-78185842D01*
X118961500Y-78371395D01*
X118961505Y-78371401D01*
X119128599Y-78538495D01*
X119205135Y-78592086D01*
X119322165Y-78674032D01*
X119322167Y-78674033D01*
X119322170Y-78674035D01*
X119536337Y-78773903D01*
X119764592Y-78835063D01*
X119935319Y-78850000D01*
X119999999Y-78855659D01*
X120000000Y-78855659D01*
X120000001Y-78855659D01*
X120014106Y-78854424D01*
X120027842Y-78853223D01*
X120096342Y-78866989D01*
X120146525Y-78915604D01*
X120162459Y-78983633D01*
X120139084Y-79049476D01*
X120126331Y-79064432D01*
X119831286Y-79359478D01*
X119719481Y-79471282D01*
X119719479Y-79471284D01*
X119699408Y-79506049D01*
X119690924Y-79520745D01*
X119686751Y-79527973D01*
X119640423Y-79608213D01*
X119631106Y-79642986D01*
X119608330Y-79727988D01*
X119605361Y-79739067D01*
X119573273Y-79794649D01*
X119570184Y-79797738D01*
X119474211Y-79950476D01*
X119414631Y-80120745D01*
X119414630Y-80120750D01*
X119394435Y-80299996D01*
X119394435Y-80300003D01*
X119414630Y-80479249D01*
X119414631Y-80479254D01*
X119474211Y-80649523D01*
X119559568Y-80785367D01*
X119570184Y-80802262D01*
X119697738Y-80929816D01*
X119850478Y-81025789D01*
X119912765Y-81047584D01*
X120020745Y-81085368D01*
X120020750Y-81085369D01*
X120199996Y-81105565D01*
X120200000Y-81105565D01*
X120200004Y-81105565D01*
X120379249Y-81085369D01*
X120379252Y-81085368D01*
X120379255Y-81085368D01*
X120549522Y-81025789D01*
X120702262Y-80929816D01*
X120829816Y-80802262D01*
X120925789Y-80649522D01*
X120985368Y-80479255D01*
X120987509Y-80460255D01*
X121005565Y-80300003D01*
X121005565Y-80299996D01*
X120985369Y-80120753D01*
X120985368Y-80120751D01*
X120985368Y-80120745D01*
X120954882Y-80033624D01*
X120951320Y-79963848D01*
X120984241Y-79904992D01*
X122056470Y-78832763D01*
X122117791Y-78799280D01*
X122176238Y-78800670D01*
X122304592Y-78835063D01*
X122475319Y-78850000D01*
X122539999Y-78855659D01*
X122540000Y-78855659D01*
X122540001Y-78855659D01*
X122604681Y-78850000D01*
X122775408Y-78835063D01*
X123003663Y-78773903D01*
X123217830Y-78674035D01*
X123411401Y-78538495D01*
X123578495Y-78371401D01*
X123714035Y-78177830D01*
X123813903Y-77963663D01*
X123875063Y-77735408D01*
X123895659Y-77500000D01*
X123875063Y-77264592D01*
X123813903Y-77036337D01*
X123714035Y-76822171D01*
X123708425Y-76814158D01*
X123578494Y-76628597D01*
X123411402Y-76461506D01*
X123411395Y-76461501D01*
X123217834Y-76325967D01*
X123217830Y-76325965D01*
X123146727Y-76292809D01*
X123003663Y-76226097D01*
X123003659Y-76226096D01*
X123003655Y-76226094D01*
X122775413Y-76164938D01*
X122775403Y-76164936D01*
X122540001Y-76144341D01*
X122539999Y-76144341D01*
X122304596Y-76164936D01*
X122304586Y-76164938D01*
X122076344Y-76226094D01*
X122076335Y-76226098D01*
X121862171Y-76325964D01*
X121862169Y-76325965D01*
X121668597Y-76461505D01*
X121501505Y-76628597D01*
X121371575Y-76814158D01*
X121316998Y-76857783D01*
X121247500Y-76864977D01*
X121185145Y-76833454D01*
X121168425Y-76814158D01*
X121038494Y-76628597D01*
X120871402Y-76461506D01*
X120871395Y-76461501D01*
X120677834Y-76325967D01*
X120677830Y-76325965D01*
X120606727Y-76292809D01*
X120463663Y-76226097D01*
X120463659Y-76226096D01*
X120463655Y-76226094D01*
X120235413Y-76164938D01*
X120235403Y-76164936D01*
X120000001Y-76144341D01*
X119999999Y-76144341D01*
X119764596Y-76164936D01*
X119764586Y-76164938D01*
X119536344Y-76226094D01*
X119536335Y-76226098D01*
X119322171Y-76325964D01*
X119322169Y-76325965D01*
X119128597Y-76461505D01*
X118961505Y-76628597D01*
X118831575Y-76814158D01*
X118776998Y-76857783D01*
X118707500Y-76864977D01*
X118645145Y-76833454D01*
X118628425Y-76814158D01*
X118498494Y-76628597D01*
X118331402Y-76461506D01*
X118331395Y-76461501D01*
X118137834Y-76325967D01*
X118137830Y-76325965D01*
X118066727Y-76292809D01*
X117923663Y-76226097D01*
X117923659Y-76226096D01*
X117923655Y-76226094D01*
X117695413Y-76164938D01*
X117695403Y-76164936D01*
X117460001Y-76144341D01*
X117459999Y-76144341D01*
X117224596Y-76164936D01*
X117224586Y-76164938D01*
X116996344Y-76226094D01*
X116996335Y-76226098D01*
X116782171Y-76325964D01*
X116782169Y-76325965D01*
X116588600Y-76461503D01*
X116466284Y-76583819D01*
X116404961Y-76617303D01*
X116335269Y-76612319D01*
X116279336Y-76570447D01*
X116262421Y-76539470D01*
X116213354Y-76407913D01*
X116213350Y-76407906D01*
X116127190Y-76292812D01*
X116127187Y-76292809D01*
X116012093Y-76206649D01*
X116012086Y-76206645D01*
X115877379Y-76156403D01*
X115877372Y-76156401D01*
X115817844Y-76150000D01*
X115170000Y-76150000D01*
X115170000Y-77066988D01*
X115112993Y-77034075D01*
X114985826Y-77000000D01*
X114854174Y-77000000D01*
X114727007Y-77034075D01*
X114670000Y-77066988D01*
X114670000Y-76150000D01*
X114022155Y-76150000D01*
X113962627Y-76156401D01*
X113962620Y-76156403D01*
X113827913Y-76206645D01*
X113827906Y-76206649D01*
X113712812Y-76292809D01*
X113712809Y-76292812D01*
X113626649Y-76407906D01*
X113626645Y-76407913D01*
X113576403Y-76542620D01*
X113576401Y-76542627D01*
X113570000Y-76602155D01*
X100500500Y-76602155D01*
X100500500Y-72999998D01*
X100994390Y-72999998D01*
X100994390Y-73000001D01*
X101014804Y-73285433D01*
X101075628Y-73565037D01*
X101075630Y-73565043D01*
X101075631Y-73565046D01*
X101145409Y-73752127D01*
X101175635Y-73833166D01*
X101312770Y-74084309D01*
X101312775Y-74084317D01*
X101484254Y-74313387D01*
X101484270Y-74313405D01*
X101686594Y-74515729D01*
X101686612Y-74515745D01*
X101915682Y-74687224D01*
X101915690Y-74687229D01*
X102166833Y-74824364D01*
X102166832Y-74824364D01*
X102166836Y-74824365D01*
X102166839Y-74824367D01*
X102434954Y-74924369D01*
X102434960Y-74924370D01*
X102434962Y-74924371D01*
X102714566Y-74985195D01*
X102714568Y-74985195D01*
X102714572Y-74985196D01*
X102968220Y-75003337D01*
X102999999Y-75005610D01*
X103000000Y-75005610D01*
X103000001Y-75005610D01*
X103028595Y-75003564D01*
X103285428Y-74985196D01*
X103565046Y-74924369D01*
X103833161Y-74824367D01*
X104084315Y-74687226D01*
X104313395Y-74515739D01*
X104515739Y-74313395D01*
X104687226Y-74084315D01*
X104824367Y-73833161D01*
X104924369Y-73565046D01*
X104985196Y-73285428D01*
X105005610Y-73000000D01*
X105005610Y-72999998D01*
X194994390Y-72999998D01*
X194994390Y-73000001D01*
X195014804Y-73285433D01*
X195075628Y-73565037D01*
X195075630Y-73565043D01*
X195075631Y-73565046D01*
X195145409Y-73752127D01*
X195175635Y-73833166D01*
X195312770Y-74084309D01*
X195312775Y-74084317D01*
X195484254Y-74313387D01*
X195484270Y-74313405D01*
X195686594Y-74515729D01*
X195686612Y-74515745D01*
X195915682Y-74687224D01*
X195915690Y-74687229D01*
X196166833Y-74824364D01*
X196166832Y-74824364D01*
X196166836Y-74824365D01*
X196166839Y-74824367D01*
X196434954Y-74924369D01*
X196434960Y-74924370D01*
X196434962Y-74924371D01*
X196714566Y-74985195D01*
X196714568Y-74985195D01*
X196714572Y-74985196D01*
X196968220Y-75003337D01*
X196999999Y-75005610D01*
X197000000Y-75005610D01*
X197000001Y-75005610D01*
X197028595Y-75003564D01*
X197285428Y-74985196D01*
X197565046Y-74924369D01*
X197833161Y-74824367D01*
X198084315Y-74687226D01*
X198313395Y-74515739D01*
X198515739Y-74313395D01*
X198687226Y-74084315D01*
X198824367Y-73833161D01*
X198924369Y-73565046D01*
X198985196Y-73285428D01*
X199005610Y-73000000D01*
X198985196Y-72714572D01*
X198924369Y-72434954D01*
X198824367Y-72166839D01*
X198744025Y-72019705D01*
X198687229Y-71915690D01*
X198687224Y-71915682D01*
X198515745Y-71686612D01*
X198515729Y-71686594D01*
X198313405Y-71484270D01*
X198313387Y-71484254D01*
X198084317Y-71312775D01*
X198084309Y-71312770D01*
X197833166Y-71175635D01*
X197833167Y-71175635D01*
X197725915Y-71135632D01*
X197565046Y-71075631D01*
X197565043Y-71075630D01*
X197565037Y-71075628D01*
X197285433Y-71014804D01*
X197000001Y-70994390D01*
X196999999Y-70994390D01*
X196714566Y-71014804D01*
X196434962Y-71075628D01*
X196166833Y-71175635D01*
X195915690Y-71312770D01*
X195915682Y-71312775D01*
X195686612Y-71484254D01*
X195686594Y-71484270D01*
X195484270Y-71686594D01*
X195484254Y-71686612D01*
X195312775Y-71915682D01*
X195312770Y-71915690D01*
X195175635Y-72166833D01*
X195075628Y-72434962D01*
X195014804Y-72714566D01*
X194994390Y-72999998D01*
X105005610Y-72999998D01*
X104985196Y-72714572D01*
X104924369Y-72434954D01*
X104824367Y-72166839D01*
X104744025Y-72019705D01*
X104687229Y-71915690D01*
X104687224Y-71915682D01*
X104515745Y-71686612D01*
X104515729Y-71686594D01*
X104313405Y-71484270D01*
X104313387Y-71484254D01*
X104084317Y-71312775D01*
X104084309Y-71312770D01*
X103833166Y-71175635D01*
X103833167Y-71175635D01*
X103725915Y-71135632D01*
X103565046Y-71075631D01*
X103565043Y-71075630D01*
X103565037Y-71075628D01*
X103285433Y-71014804D01*
X103000001Y-70994390D01*
X102999999Y-70994390D01*
X102714566Y-71014804D01*
X102434962Y-71075628D01*
X102166833Y-71175635D01*
X101915690Y-71312770D01*
X101915682Y-71312775D01*
X101686612Y-71484254D01*
X101686594Y-71484270D01*
X101484270Y-71686594D01*
X101484254Y-71686612D01*
X101312775Y-71915682D01*
X101312770Y-71915690D01*
X101175635Y-72166833D01*
X101075628Y-72434962D01*
X101014804Y-72714566D01*
X100994390Y-72999998D01*
X100500500Y-72999998D01*
X100500500Y-70624500D01*
X100520185Y-70557461D01*
X100572989Y-70511706D01*
X100624500Y-70500500D01*
X199375500Y-70500500D01*
X199442539Y-70520185D01*
G37*
%TD.AperFunction*%
%TD*%
M02*
