%TF.GenerationSoftware,KiCad,Pcbnew,8.0.8-8.0.8-0~ubuntu22.04.1*%
%TF.CreationDate,2025-02-02T20:21:50-05:00*%
%TF.ProjectId,Electronics,456c6563-7472-46f6-9e69-63732e6b6963,rev?*%
%TF.SameCoordinates,Original*%
%TF.FileFunction,Legend,Top*%
%TF.FilePolarity,Positive*%
%FSLAX46Y46*%
G04 Gerber Fmt 4.6, Leading zero omitted, Abs format (unit mm)*
G04 Created by KiCad (PCBNEW 8.0.8-8.0.8-0~ubuntu22.04.1) date 2025-02-02 20:21:50*
%MOMM*%
%LPD*%
G01*
G04 APERTURE LIST*
%ADD10C,0.150000*%
%ADD11C,0.120000*%
%ADD12C,0.100000*%
G04 APERTURE END LIST*
D10*
X173666667Y-114457200D02*
X173809524Y-114504819D01*
X173809524Y-114504819D02*
X174047619Y-114504819D01*
X174047619Y-114504819D02*
X174142857Y-114457200D01*
X174142857Y-114457200D02*
X174190476Y-114409580D01*
X174190476Y-114409580D02*
X174238095Y-114314342D01*
X174238095Y-114314342D02*
X174238095Y-114219104D01*
X174238095Y-114219104D02*
X174190476Y-114123866D01*
X174190476Y-114123866D02*
X174142857Y-114076247D01*
X174142857Y-114076247D02*
X174047619Y-114028628D01*
X174047619Y-114028628D02*
X173857143Y-113981009D01*
X173857143Y-113981009D02*
X173761905Y-113933390D01*
X173761905Y-113933390D02*
X173714286Y-113885771D01*
X173714286Y-113885771D02*
X173666667Y-113790533D01*
X173666667Y-113790533D02*
X173666667Y-113695295D01*
X173666667Y-113695295D02*
X173714286Y-113600057D01*
X173714286Y-113600057D02*
X173761905Y-113552438D01*
X173761905Y-113552438D02*
X173857143Y-113504819D01*
X173857143Y-113504819D02*
X174095238Y-113504819D01*
X174095238Y-113504819D02*
X174238095Y-113552438D01*
X174571429Y-113504819D02*
X174809524Y-114504819D01*
X174809524Y-114504819D02*
X175000000Y-113790533D01*
X175000000Y-113790533D02*
X175190476Y-114504819D01*
X175190476Y-114504819D02*
X175428572Y-113504819D01*
X175952381Y-113933390D02*
X175857143Y-113885771D01*
X175857143Y-113885771D02*
X175809524Y-113838152D01*
X175809524Y-113838152D02*
X175761905Y-113742914D01*
X175761905Y-113742914D02*
X175761905Y-113695295D01*
X175761905Y-113695295D02*
X175809524Y-113600057D01*
X175809524Y-113600057D02*
X175857143Y-113552438D01*
X175857143Y-113552438D02*
X175952381Y-113504819D01*
X175952381Y-113504819D02*
X176142857Y-113504819D01*
X176142857Y-113504819D02*
X176238095Y-113552438D01*
X176238095Y-113552438D02*
X176285714Y-113600057D01*
X176285714Y-113600057D02*
X176333333Y-113695295D01*
X176333333Y-113695295D02*
X176333333Y-113742914D01*
X176333333Y-113742914D02*
X176285714Y-113838152D01*
X176285714Y-113838152D02*
X176238095Y-113885771D01*
X176238095Y-113885771D02*
X176142857Y-113933390D01*
X176142857Y-113933390D02*
X175952381Y-113933390D01*
X175952381Y-113933390D02*
X175857143Y-113981009D01*
X175857143Y-113981009D02*
X175809524Y-114028628D01*
X175809524Y-114028628D02*
X175761905Y-114123866D01*
X175761905Y-114123866D02*
X175761905Y-114314342D01*
X175761905Y-114314342D02*
X175809524Y-114409580D01*
X175809524Y-114409580D02*
X175857143Y-114457200D01*
X175857143Y-114457200D02*
X175952381Y-114504819D01*
X175952381Y-114504819D02*
X176142857Y-114504819D01*
X176142857Y-114504819D02*
X176238095Y-114457200D01*
X176238095Y-114457200D02*
X176285714Y-114409580D01*
X176285714Y-114409580D02*
X176333333Y-114314342D01*
X176333333Y-114314342D02*
X176333333Y-114123866D01*
X176333333Y-114123866D02*
X176285714Y-114028628D01*
X176285714Y-114028628D02*
X176238095Y-113981009D01*
X176238095Y-113981009D02*
X176142857Y-113933390D01*
X180666667Y-109457200D02*
X180809524Y-109504819D01*
X180809524Y-109504819D02*
X181047619Y-109504819D01*
X181047619Y-109504819D02*
X181142857Y-109457200D01*
X181142857Y-109457200D02*
X181190476Y-109409580D01*
X181190476Y-109409580D02*
X181238095Y-109314342D01*
X181238095Y-109314342D02*
X181238095Y-109219104D01*
X181238095Y-109219104D02*
X181190476Y-109123866D01*
X181190476Y-109123866D02*
X181142857Y-109076247D01*
X181142857Y-109076247D02*
X181047619Y-109028628D01*
X181047619Y-109028628D02*
X180857143Y-108981009D01*
X180857143Y-108981009D02*
X180761905Y-108933390D01*
X180761905Y-108933390D02*
X180714286Y-108885771D01*
X180714286Y-108885771D02*
X180666667Y-108790533D01*
X180666667Y-108790533D02*
X180666667Y-108695295D01*
X180666667Y-108695295D02*
X180714286Y-108600057D01*
X180714286Y-108600057D02*
X180761905Y-108552438D01*
X180761905Y-108552438D02*
X180857143Y-108504819D01*
X180857143Y-108504819D02*
X181095238Y-108504819D01*
X181095238Y-108504819D02*
X181238095Y-108552438D01*
X181571429Y-108504819D02*
X181809524Y-109504819D01*
X181809524Y-109504819D02*
X182000000Y-108790533D01*
X182000000Y-108790533D02*
X182190476Y-109504819D01*
X182190476Y-109504819D02*
X182428572Y-108504819D01*
X183238095Y-108838152D02*
X183238095Y-109504819D01*
X183000000Y-108457200D02*
X182761905Y-109171485D01*
X182761905Y-109171485D02*
X183380952Y-109171485D01*
X134716667Y-108657200D02*
X134859524Y-108704819D01*
X134859524Y-108704819D02*
X135097619Y-108704819D01*
X135097619Y-108704819D02*
X135192857Y-108657200D01*
X135192857Y-108657200D02*
X135240476Y-108609580D01*
X135240476Y-108609580D02*
X135288095Y-108514342D01*
X135288095Y-108514342D02*
X135288095Y-108419104D01*
X135288095Y-108419104D02*
X135240476Y-108323866D01*
X135240476Y-108323866D02*
X135192857Y-108276247D01*
X135192857Y-108276247D02*
X135097619Y-108228628D01*
X135097619Y-108228628D02*
X134907143Y-108181009D01*
X134907143Y-108181009D02*
X134811905Y-108133390D01*
X134811905Y-108133390D02*
X134764286Y-108085771D01*
X134764286Y-108085771D02*
X134716667Y-107990533D01*
X134716667Y-107990533D02*
X134716667Y-107895295D01*
X134716667Y-107895295D02*
X134764286Y-107800057D01*
X134764286Y-107800057D02*
X134811905Y-107752438D01*
X134811905Y-107752438D02*
X134907143Y-107704819D01*
X134907143Y-107704819D02*
X135145238Y-107704819D01*
X135145238Y-107704819D02*
X135288095Y-107752438D01*
X135621429Y-107704819D02*
X135859524Y-108704819D01*
X135859524Y-108704819D02*
X136050000Y-107990533D01*
X136050000Y-107990533D02*
X136240476Y-108704819D01*
X136240476Y-108704819D02*
X136478572Y-107704819D01*
X136811905Y-107800057D02*
X136859524Y-107752438D01*
X136859524Y-107752438D02*
X136954762Y-107704819D01*
X136954762Y-107704819D02*
X137192857Y-107704819D01*
X137192857Y-107704819D02*
X137288095Y-107752438D01*
X137288095Y-107752438D02*
X137335714Y-107800057D01*
X137335714Y-107800057D02*
X137383333Y-107895295D01*
X137383333Y-107895295D02*
X137383333Y-107990533D01*
X137383333Y-107990533D02*
X137335714Y-108133390D01*
X137335714Y-108133390D02*
X136764286Y-108704819D01*
X136764286Y-108704819D02*
X137383333Y-108704819D01*
X162054819Y-118666666D02*
X161578628Y-118999999D01*
X162054819Y-119238094D02*
X161054819Y-119238094D01*
X161054819Y-119238094D02*
X161054819Y-118857142D01*
X161054819Y-118857142D02*
X161102438Y-118761904D01*
X161102438Y-118761904D02*
X161150057Y-118714285D01*
X161150057Y-118714285D02*
X161245295Y-118666666D01*
X161245295Y-118666666D02*
X161388152Y-118666666D01*
X161388152Y-118666666D02*
X161483390Y-118714285D01*
X161483390Y-118714285D02*
X161531009Y-118761904D01*
X161531009Y-118761904D02*
X161578628Y-118857142D01*
X161578628Y-118857142D02*
X161578628Y-119238094D01*
X161054819Y-117761904D02*
X161054819Y-118238094D01*
X161054819Y-118238094D02*
X161531009Y-118285713D01*
X161531009Y-118285713D02*
X161483390Y-118238094D01*
X161483390Y-118238094D02*
X161435771Y-118142856D01*
X161435771Y-118142856D02*
X161435771Y-117904761D01*
X161435771Y-117904761D02*
X161483390Y-117809523D01*
X161483390Y-117809523D02*
X161531009Y-117761904D01*
X161531009Y-117761904D02*
X161626247Y-117714285D01*
X161626247Y-117714285D02*
X161864342Y-117714285D01*
X161864342Y-117714285D02*
X161959580Y-117761904D01*
X161959580Y-117761904D02*
X162007200Y-117809523D01*
X162007200Y-117809523D02*
X162054819Y-117904761D01*
X162054819Y-117904761D02*
X162054819Y-118142856D01*
X162054819Y-118142856D02*
X162007200Y-118238094D01*
X162007200Y-118238094D02*
X161959580Y-118285713D01*
X157288095Y-80157319D02*
X157288095Y-80966842D01*
X157288095Y-80966842D02*
X157335714Y-81062080D01*
X157335714Y-81062080D02*
X157383333Y-81109700D01*
X157383333Y-81109700D02*
X157478571Y-81157319D01*
X157478571Y-81157319D02*
X157669047Y-81157319D01*
X157669047Y-81157319D02*
X157764285Y-81109700D01*
X157764285Y-81109700D02*
X157811904Y-81062080D01*
X157811904Y-81062080D02*
X157859523Y-80966842D01*
X157859523Y-80966842D02*
X157859523Y-80157319D01*
X158764285Y-80490652D02*
X158764285Y-81157319D01*
X158526190Y-80109700D02*
X158288095Y-80823985D01*
X158288095Y-80823985D02*
X158907142Y-80823985D01*
X148704819Y-97738094D02*
X147704819Y-97738094D01*
X147704819Y-97738094D02*
X147704819Y-97499999D01*
X147704819Y-97499999D02*
X147752438Y-97357142D01*
X147752438Y-97357142D02*
X147847676Y-97261904D01*
X147847676Y-97261904D02*
X147942914Y-97214285D01*
X147942914Y-97214285D02*
X148133390Y-97166666D01*
X148133390Y-97166666D02*
X148276247Y-97166666D01*
X148276247Y-97166666D02*
X148466723Y-97214285D01*
X148466723Y-97214285D02*
X148561961Y-97261904D01*
X148561961Y-97261904D02*
X148657200Y-97357142D01*
X148657200Y-97357142D02*
X148704819Y-97499999D01*
X148704819Y-97499999D02*
X148704819Y-97738094D01*
X148704819Y-96214285D02*
X148704819Y-96785713D01*
X148704819Y-96499999D02*
X147704819Y-96499999D01*
X147704819Y-96499999D02*
X147847676Y-96595237D01*
X147847676Y-96595237D02*
X147942914Y-96690475D01*
X147942914Y-96690475D02*
X147990533Y-96785713D01*
X173666667Y-104457200D02*
X173809524Y-104504819D01*
X173809524Y-104504819D02*
X174047619Y-104504819D01*
X174047619Y-104504819D02*
X174142857Y-104457200D01*
X174142857Y-104457200D02*
X174190476Y-104409580D01*
X174190476Y-104409580D02*
X174238095Y-104314342D01*
X174238095Y-104314342D02*
X174238095Y-104219104D01*
X174238095Y-104219104D02*
X174190476Y-104123866D01*
X174190476Y-104123866D02*
X174142857Y-104076247D01*
X174142857Y-104076247D02*
X174047619Y-104028628D01*
X174047619Y-104028628D02*
X173857143Y-103981009D01*
X173857143Y-103981009D02*
X173761905Y-103933390D01*
X173761905Y-103933390D02*
X173714286Y-103885771D01*
X173714286Y-103885771D02*
X173666667Y-103790533D01*
X173666667Y-103790533D02*
X173666667Y-103695295D01*
X173666667Y-103695295D02*
X173714286Y-103600057D01*
X173714286Y-103600057D02*
X173761905Y-103552438D01*
X173761905Y-103552438D02*
X173857143Y-103504819D01*
X173857143Y-103504819D02*
X174095238Y-103504819D01*
X174095238Y-103504819D02*
X174238095Y-103552438D01*
X174571429Y-103504819D02*
X174809524Y-104504819D01*
X174809524Y-104504819D02*
X175000000Y-103790533D01*
X175000000Y-103790533D02*
X175190476Y-104504819D01*
X175190476Y-104504819D02*
X175428572Y-103504819D01*
X175714286Y-103504819D02*
X176380952Y-103504819D01*
X176380952Y-103504819D02*
X175952381Y-104504819D01*
X190457142Y-125059580D02*
X190409523Y-125107200D01*
X190409523Y-125107200D02*
X190266666Y-125154819D01*
X190266666Y-125154819D02*
X190171428Y-125154819D01*
X190171428Y-125154819D02*
X190028571Y-125107200D01*
X190028571Y-125107200D02*
X189933333Y-125011961D01*
X189933333Y-125011961D02*
X189885714Y-124916723D01*
X189885714Y-124916723D02*
X189838095Y-124726247D01*
X189838095Y-124726247D02*
X189838095Y-124583390D01*
X189838095Y-124583390D02*
X189885714Y-124392914D01*
X189885714Y-124392914D02*
X189933333Y-124297676D01*
X189933333Y-124297676D02*
X190028571Y-124202438D01*
X190028571Y-124202438D02*
X190171428Y-124154819D01*
X190171428Y-124154819D02*
X190266666Y-124154819D01*
X190266666Y-124154819D02*
X190409523Y-124202438D01*
X190409523Y-124202438D02*
X190457142Y-124250057D01*
X191409523Y-125154819D02*
X190838095Y-125154819D01*
X191123809Y-125154819D02*
X191123809Y-124154819D01*
X191123809Y-124154819D02*
X191028571Y-124297676D01*
X191028571Y-124297676D02*
X190933333Y-124392914D01*
X190933333Y-124392914D02*
X190838095Y-124440533D01*
X191790476Y-124250057D02*
X191838095Y-124202438D01*
X191838095Y-124202438D02*
X191933333Y-124154819D01*
X191933333Y-124154819D02*
X192171428Y-124154819D01*
X192171428Y-124154819D02*
X192266666Y-124202438D01*
X192266666Y-124202438D02*
X192314285Y-124250057D01*
X192314285Y-124250057D02*
X192361904Y-124345295D01*
X192361904Y-124345295D02*
X192361904Y-124440533D01*
X192361904Y-124440533D02*
X192314285Y-124583390D01*
X192314285Y-124583390D02*
X191742857Y-125154819D01*
X191742857Y-125154819D02*
X192361904Y-125154819D01*
X151254819Y-100142857D02*
X150778628Y-100476190D01*
X151254819Y-100714285D02*
X150254819Y-100714285D01*
X150254819Y-100714285D02*
X150254819Y-100333333D01*
X150254819Y-100333333D02*
X150302438Y-100238095D01*
X150302438Y-100238095D02*
X150350057Y-100190476D01*
X150350057Y-100190476D02*
X150445295Y-100142857D01*
X150445295Y-100142857D02*
X150588152Y-100142857D01*
X150588152Y-100142857D02*
X150683390Y-100190476D01*
X150683390Y-100190476D02*
X150731009Y-100238095D01*
X150731009Y-100238095D02*
X150778628Y-100333333D01*
X150778628Y-100333333D02*
X150778628Y-100714285D01*
X151254819Y-99190476D02*
X151254819Y-99761904D01*
X151254819Y-99476190D02*
X150254819Y-99476190D01*
X150254819Y-99476190D02*
X150397676Y-99571428D01*
X150397676Y-99571428D02*
X150492914Y-99666666D01*
X150492914Y-99666666D02*
X150540533Y-99761904D01*
X150254819Y-98333333D02*
X150254819Y-98523809D01*
X150254819Y-98523809D02*
X150302438Y-98619047D01*
X150302438Y-98619047D02*
X150350057Y-98666666D01*
X150350057Y-98666666D02*
X150492914Y-98761904D01*
X150492914Y-98761904D02*
X150683390Y-98809523D01*
X150683390Y-98809523D02*
X151064342Y-98809523D01*
X151064342Y-98809523D02*
X151159580Y-98761904D01*
X151159580Y-98761904D02*
X151207200Y-98714285D01*
X151207200Y-98714285D02*
X151254819Y-98619047D01*
X151254819Y-98619047D02*
X151254819Y-98428571D01*
X151254819Y-98428571D02*
X151207200Y-98333333D01*
X151207200Y-98333333D02*
X151159580Y-98285714D01*
X151159580Y-98285714D02*
X151064342Y-98238095D01*
X151064342Y-98238095D02*
X150826247Y-98238095D01*
X150826247Y-98238095D02*
X150731009Y-98285714D01*
X150731009Y-98285714D02*
X150683390Y-98333333D01*
X150683390Y-98333333D02*
X150635771Y-98428571D01*
X150635771Y-98428571D02*
X150635771Y-98619047D01*
X150635771Y-98619047D02*
X150683390Y-98714285D01*
X150683390Y-98714285D02*
X150731009Y-98761904D01*
X150731009Y-98761904D02*
X150826247Y-98809523D01*
X173666667Y-109457200D02*
X173809524Y-109504819D01*
X173809524Y-109504819D02*
X174047619Y-109504819D01*
X174047619Y-109504819D02*
X174142857Y-109457200D01*
X174142857Y-109457200D02*
X174190476Y-109409580D01*
X174190476Y-109409580D02*
X174238095Y-109314342D01*
X174238095Y-109314342D02*
X174238095Y-109219104D01*
X174238095Y-109219104D02*
X174190476Y-109123866D01*
X174190476Y-109123866D02*
X174142857Y-109076247D01*
X174142857Y-109076247D02*
X174047619Y-109028628D01*
X174047619Y-109028628D02*
X173857143Y-108981009D01*
X173857143Y-108981009D02*
X173761905Y-108933390D01*
X173761905Y-108933390D02*
X173714286Y-108885771D01*
X173714286Y-108885771D02*
X173666667Y-108790533D01*
X173666667Y-108790533D02*
X173666667Y-108695295D01*
X173666667Y-108695295D02*
X173714286Y-108600057D01*
X173714286Y-108600057D02*
X173761905Y-108552438D01*
X173761905Y-108552438D02*
X173857143Y-108504819D01*
X173857143Y-108504819D02*
X174095238Y-108504819D01*
X174095238Y-108504819D02*
X174238095Y-108552438D01*
X174571429Y-108504819D02*
X174809524Y-109504819D01*
X174809524Y-109504819D02*
X175000000Y-108790533D01*
X175000000Y-108790533D02*
X175190476Y-109504819D01*
X175190476Y-109504819D02*
X175428572Y-108504819D01*
X175714286Y-108504819D02*
X176333333Y-108504819D01*
X176333333Y-108504819D02*
X176000000Y-108885771D01*
X176000000Y-108885771D02*
X176142857Y-108885771D01*
X176142857Y-108885771D02*
X176238095Y-108933390D01*
X176238095Y-108933390D02*
X176285714Y-108981009D01*
X176285714Y-108981009D02*
X176333333Y-109076247D01*
X176333333Y-109076247D02*
X176333333Y-109314342D01*
X176333333Y-109314342D02*
X176285714Y-109409580D01*
X176285714Y-109409580D02*
X176238095Y-109457200D01*
X176238095Y-109457200D02*
X176142857Y-109504819D01*
X176142857Y-109504819D02*
X175857143Y-109504819D01*
X175857143Y-109504819D02*
X175761905Y-109457200D01*
X175761905Y-109457200D02*
X175714286Y-109409580D01*
X138819580Y-85466666D02*
X138867200Y-85514285D01*
X138867200Y-85514285D02*
X138914819Y-85657142D01*
X138914819Y-85657142D02*
X138914819Y-85752380D01*
X138914819Y-85752380D02*
X138867200Y-85895237D01*
X138867200Y-85895237D02*
X138771961Y-85990475D01*
X138771961Y-85990475D02*
X138676723Y-86038094D01*
X138676723Y-86038094D02*
X138486247Y-86085713D01*
X138486247Y-86085713D02*
X138343390Y-86085713D01*
X138343390Y-86085713D02*
X138152914Y-86038094D01*
X138152914Y-86038094D02*
X138057676Y-85990475D01*
X138057676Y-85990475D02*
X137962438Y-85895237D01*
X137962438Y-85895237D02*
X137914819Y-85752380D01*
X137914819Y-85752380D02*
X137914819Y-85657142D01*
X137914819Y-85657142D02*
X137962438Y-85514285D01*
X137962438Y-85514285D02*
X138010057Y-85466666D01*
X138010057Y-85085713D02*
X137962438Y-85038094D01*
X137962438Y-85038094D02*
X137914819Y-84942856D01*
X137914819Y-84942856D02*
X137914819Y-84704761D01*
X137914819Y-84704761D02*
X137962438Y-84609523D01*
X137962438Y-84609523D02*
X138010057Y-84561904D01*
X138010057Y-84561904D02*
X138105295Y-84514285D01*
X138105295Y-84514285D02*
X138200533Y-84514285D01*
X138200533Y-84514285D02*
X138343390Y-84561904D01*
X138343390Y-84561904D02*
X138914819Y-85133332D01*
X138914819Y-85133332D02*
X138914819Y-84514285D01*
X197129580Y-102117857D02*
X197177200Y-102165476D01*
X197177200Y-102165476D02*
X197224819Y-102308333D01*
X197224819Y-102308333D02*
X197224819Y-102403571D01*
X197224819Y-102403571D02*
X197177200Y-102546428D01*
X197177200Y-102546428D02*
X197081961Y-102641666D01*
X197081961Y-102641666D02*
X196986723Y-102689285D01*
X196986723Y-102689285D02*
X196796247Y-102736904D01*
X196796247Y-102736904D02*
X196653390Y-102736904D01*
X196653390Y-102736904D02*
X196462914Y-102689285D01*
X196462914Y-102689285D02*
X196367676Y-102641666D01*
X196367676Y-102641666D02*
X196272438Y-102546428D01*
X196272438Y-102546428D02*
X196224819Y-102403571D01*
X196224819Y-102403571D02*
X196224819Y-102308333D01*
X196224819Y-102308333D02*
X196272438Y-102165476D01*
X196272438Y-102165476D02*
X196320057Y-102117857D01*
X197224819Y-101165476D02*
X197224819Y-101736904D01*
X197224819Y-101451190D02*
X196224819Y-101451190D01*
X196224819Y-101451190D02*
X196367676Y-101546428D01*
X196367676Y-101546428D02*
X196462914Y-101641666D01*
X196462914Y-101641666D02*
X196510533Y-101736904D01*
X196224819Y-100260714D02*
X196224819Y-100736904D01*
X196224819Y-100736904D02*
X196701009Y-100784523D01*
X196701009Y-100784523D02*
X196653390Y-100736904D01*
X196653390Y-100736904D02*
X196605771Y-100641666D01*
X196605771Y-100641666D02*
X196605771Y-100403571D01*
X196605771Y-100403571D02*
X196653390Y-100308333D01*
X196653390Y-100308333D02*
X196701009Y-100260714D01*
X196701009Y-100260714D02*
X196796247Y-100213095D01*
X196796247Y-100213095D02*
X197034342Y-100213095D01*
X197034342Y-100213095D02*
X197129580Y-100260714D01*
X197129580Y-100260714D02*
X197177200Y-100308333D01*
X197177200Y-100308333D02*
X197224819Y-100403571D01*
X197224819Y-100403571D02*
X197224819Y-100641666D01*
X197224819Y-100641666D02*
X197177200Y-100736904D01*
X197177200Y-100736904D02*
X197129580Y-100784523D01*
X162254819Y-109566666D02*
X161778628Y-109899999D01*
X162254819Y-110138094D02*
X161254819Y-110138094D01*
X161254819Y-110138094D02*
X161254819Y-109757142D01*
X161254819Y-109757142D02*
X161302438Y-109661904D01*
X161302438Y-109661904D02*
X161350057Y-109614285D01*
X161350057Y-109614285D02*
X161445295Y-109566666D01*
X161445295Y-109566666D02*
X161588152Y-109566666D01*
X161588152Y-109566666D02*
X161683390Y-109614285D01*
X161683390Y-109614285D02*
X161731009Y-109661904D01*
X161731009Y-109661904D02*
X161778628Y-109757142D01*
X161778628Y-109757142D02*
X161778628Y-110138094D01*
X161254819Y-109233332D02*
X161254819Y-108614285D01*
X161254819Y-108614285D02*
X161635771Y-108947618D01*
X161635771Y-108947618D02*
X161635771Y-108804761D01*
X161635771Y-108804761D02*
X161683390Y-108709523D01*
X161683390Y-108709523D02*
X161731009Y-108661904D01*
X161731009Y-108661904D02*
X161826247Y-108614285D01*
X161826247Y-108614285D02*
X162064342Y-108614285D01*
X162064342Y-108614285D02*
X162159580Y-108661904D01*
X162159580Y-108661904D02*
X162207200Y-108709523D01*
X162207200Y-108709523D02*
X162254819Y-108804761D01*
X162254819Y-108804761D02*
X162254819Y-109090475D01*
X162254819Y-109090475D02*
X162207200Y-109185713D01*
X162207200Y-109185713D02*
X162159580Y-109233332D01*
X117190476Y-114157200D02*
X117333333Y-114204819D01*
X117333333Y-114204819D02*
X117571428Y-114204819D01*
X117571428Y-114204819D02*
X117666666Y-114157200D01*
X117666666Y-114157200D02*
X117714285Y-114109580D01*
X117714285Y-114109580D02*
X117761904Y-114014342D01*
X117761904Y-114014342D02*
X117761904Y-113919104D01*
X117761904Y-113919104D02*
X117714285Y-113823866D01*
X117714285Y-113823866D02*
X117666666Y-113776247D01*
X117666666Y-113776247D02*
X117571428Y-113728628D01*
X117571428Y-113728628D02*
X117380952Y-113681009D01*
X117380952Y-113681009D02*
X117285714Y-113633390D01*
X117285714Y-113633390D02*
X117238095Y-113585771D01*
X117238095Y-113585771D02*
X117190476Y-113490533D01*
X117190476Y-113490533D02*
X117190476Y-113395295D01*
X117190476Y-113395295D02*
X117238095Y-113300057D01*
X117238095Y-113300057D02*
X117285714Y-113252438D01*
X117285714Y-113252438D02*
X117380952Y-113204819D01*
X117380952Y-113204819D02*
X117619047Y-113204819D01*
X117619047Y-113204819D02*
X117761904Y-113252438D01*
X118095238Y-113204819D02*
X118333333Y-114204819D01*
X118333333Y-114204819D02*
X118523809Y-113490533D01*
X118523809Y-113490533D02*
X118714285Y-114204819D01*
X118714285Y-114204819D02*
X118952381Y-113204819D01*
X119857142Y-114204819D02*
X119285714Y-114204819D01*
X119571428Y-114204819D02*
X119571428Y-113204819D01*
X119571428Y-113204819D02*
X119476190Y-113347676D01*
X119476190Y-113347676D02*
X119380952Y-113442914D01*
X119380952Y-113442914D02*
X119285714Y-113490533D01*
X120476190Y-113204819D02*
X120571428Y-113204819D01*
X120571428Y-113204819D02*
X120666666Y-113252438D01*
X120666666Y-113252438D02*
X120714285Y-113300057D01*
X120714285Y-113300057D02*
X120761904Y-113395295D01*
X120761904Y-113395295D02*
X120809523Y-113585771D01*
X120809523Y-113585771D02*
X120809523Y-113823866D01*
X120809523Y-113823866D02*
X120761904Y-114014342D01*
X120761904Y-114014342D02*
X120714285Y-114109580D01*
X120714285Y-114109580D02*
X120666666Y-114157200D01*
X120666666Y-114157200D02*
X120571428Y-114204819D01*
X120571428Y-114204819D02*
X120476190Y-114204819D01*
X120476190Y-114204819D02*
X120380952Y-114157200D01*
X120380952Y-114157200D02*
X120333333Y-114109580D01*
X120333333Y-114109580D02*
X120285714Y-114014342D01*
X120285714Y-114014342D02*
X120238095Y-113823866D01*
X120238095Y-113823866D02*
X120238095Y-113585771D01*
X120238095Y-113585771D02*
X120285714Y-113395295D01*
X120285714Y-113395295D02*
X120333333Y-113300057D01*
X120333333Y-113300057D02*
X120380952Y-113252438D01*
X120380952Y-113252438D02*
X120476190Y-113204819D01*
X150054819Y-100142857D02*
X149578628Y-100476190D01*
X150054819Y-100714285D02*
X149054819Y-100714285D01*
X149054819Y-100714285D02*
X149054819Y-100333333D01*
X149054819Y-100333333D02*
X149102438Y-100238095D01*
X149102438Y-100238095D02*
X149150057Y-100190476D01*
X149150057Y-100190476D02*
X149245295Y-100142857D01*
X149245295Y-100142857D02*
X149388152Y-100142857D01*
X149388152Y-100142857D02*
X149483390Y-100190476D01*
X149483390Y-100190476D02*
X149531009Y-100238095D01*
X149531009Y-100238095D02*
X149578628Y-100333333D01*
X149578628Y-100333333D02*
X149578628Y-100714285D01*
X150054819Y-99190476D02*
X150054819Y-99761904D01*
X150054819Y-99476190D02*
X149054819Y-99476190D01*
X149054819Y-99476190D02*
X149197676Y-99571428D01*
X149197676Y-99571428D02*
X149292914Y-99666666D01*
X149292914Y-99666666D02*
X149340533Y-99761904D01*
X149054819Y-98857142D02*
X149054819Y-98190476D01*
X149054819Y-98190476D02*
X150054819Y-98619047D01*
X166616667Y-109457200D02*
X166759524Y-109504819D01*
X166759524Y-109504819D02*
X166997619Y-109504819D01*
X166997619Y-109504819D02*
X167092857Y-109457200D01*
X167092857Y-109457200D02*
X167140476Y-109409580D01*
X167140476Y-109409580D02*
X167188095Y-109314342D01*
X167188095Y-109314342D02*
X167188095Y-109219104D01*
X167188095Y-109219104D02*
X167140476Y-109123866D01*
X167140476Y-109123866D02*
X167092857Y-109076247D01*
X167092857Y-109076247D02*
X166997619Y-109028628D01*
X166997619Y-109028628D02*
X166807143Y-108981009D01*
X166807143Y-108981009D02*
X166711905Y-108933390D01*
X166711905Y-108933390D02*
X166664286Y-108885771D01*
X166664286Y-108885771D02*
X166616667Y-108790533D01*
X166616667Y-108790533D02*
X166616667Y-108695295D01*
X166616667Y-108695295D02*
X166664286Y-108600057D01*
X166664286Y-108600057D02*
X166711905Y-108552438D01*
X166711905Y-108552438D02*
X166807143Y-108504819D01*
X166807143Y-108504819D02*
X167045238Y-108504819D01*
X167045238Y-108504819D02*
X167188095Y-108552438D01*
X167521429Y-108504819D02*
X167759524Y-109504819D01*
X167759524Y-109504819D02*
X167950000Y-108790533D01*
X167950000Y-108790533D02*
X168140476Y-109504819D01*
X168140476Y-109504819D02*
X168378572Y-108504819D01*
X169235714Y-108504819D02*
X168759524Y-108504819D01*
X168759524Y-108504819D02*
X168711905Y-108981009D01*
X168711905Y-108981009D02*
X168759524Y-108933390D01*
X168759524Y-108933390D02*
X168854762Y-108885771D01*
X168854762Y-108885771D02*
X169092857Y-108885771D01*
X169092857Y-108885771D02*
X169188095Y-108933390D01*
X169188095Y-108933390D02*
X169235714Y-108981009D01*
X169235714Y-108981009D02*
X169283333Y-109076247D01*
X169283333Y-109076247D02*
X169283333Y-109314342D01*
X169283333Y-109314342D02*
X169235714Y-109409580D01*
X169235714Y-109409580D02*
X169188095Y-109457200D01*
X169188095Y-109457200D02*
X169092857Y-109504819D01*
X169092857Y-109504819D02*
X168854762Y-109504819D01*
X168854762Y-109504819D02*
X168759524Y-109457200D01*
X168759524Y-109457200D02*
X168711905Y-109409580D01*
X135475595Y-96967319D02*
X135475595Y-97776842D01*
X135475595Y-97776842D02*
X135523214Y-97872080D01*
X135523214Y-97872080D02*
X135570833Y-97919700D01*
X135570833Y-97919700D02*
X135666071Y-97967319D01*
X135666071Y-97967319D02*
X135856547Y-97967319D01*
X135856547Y-97967319D02*
X135951785Y-97919700D01*
X135951785Y-97919700D02*
X135999404Y-97872080D01*
X135999404Y-97872080D02*
X136047023Y-97776842D01*
X136047023Y-97776842D02*
X136047023Y-96967319D01*
X136475595Y-97062557D02*
X136523214Y-97014938D01*
X136523214Y-97014938D02*
X136618452Y-96967319D01*
X136618452Y-96967319D02*
X136856547Y-96967319D01*
X136856547Y-96967319D02*
X136951785Y-97014938D01*
X136951785Y-97014938D02*
X136999404Y-97062557D01*
X136999404Y-97062557D02*
X137047023Y-97157795D01*
X137047023Y-97157795D02*
X137047023Y-97253033D01*
X137047023Y-97253033D02*
X136999404Y-97395890D01*
X136999404Y-97395890D02*
X136427976Y-97967319D01*
X136427976Y-97967319D02*
X137047023Y-97967319D01*
X162357142Y-114454819D02*
X162023809Y-113978628D01*
X161785714Y-114454819D02*
X161785714Y-113454819D01*
X161785714Y-113454819D02*
X162166666Y-113454819D01*
X162166666Y-113454819D02*
X162261904Y-113502438D01*
X162261904Y-113502438D02*
X162309523Y-113550057D01*
X162309523Y-113550057D02*
X162357142Y-113645295D01*
X162357142Y-113645295D02*
X162357142Y-113788152D01*
X162357142Y-113788152D02*
X162309523Y-113883390D01*
X162309523Y-113883390D02*
X162261904Y-113931009D01*
X162261904Y-113931009D02*
X162166666Y-113978628D01*
X162166666Y-113978628D02*
X161785714Y-113978628D01*
X163309523Y-114454819D02*
X162738095Y-114454819D01*
X163023809Y-114454819D02*
X163023809Y-113454819D01*
X163023809Y-113454819D02*
X162928571Y-113597676D01*
X162928571Y-113597676D02*
X162833333Y-113692914D01*
X162833333Y-113692914D02*
X162738095Y-113740533D01*
X164261904Y-114454819D02*
X163690476Y-114454819D01*
X163976190Y-114454819D02*
X163976190Y-113454819D01*
X163976190Y-113454819D02*
X163880952Y-113597676D01*
X163880952Y-113597676D02*
X163785714Y-113692914D01*
X163785714Y-113692914D02*
X163690476Y-113740533D01*
X174544819Y-78261904D02*
X175354342Y-78261904D01*
X175354342Y-78261904D02*
X175449580Y-78214285D01*
X175449580Y-78214285D02*
X175497200Y-78166666D01*
X175497200Y-78166666D02*
X175544819Y-78071428D01*
X175544819Y-78071428D02*
X175544819Y-77880952D01*
X175544819Y-77880952D02*
X175497200Y-77785714D01*
X175497200Y-77785714D02*
X175449580Y-77738095D01*
X175449580Y-77738095D02*
X175354342Y-77690476D01*
X175354342Y-77690476D02*
X174544819Y-77690476D01*
X174544819Y-76738095D02*
X174544819Y-77214285D01*
X174544819Y-77214285D02*
X175021009Y-77261904D01*
X175021009Y-77261904D02*
X174973390Y-77214285D01*
X174973390Y-77214285D02*
X174925771Y-77119047D01*
X174925771Y-77119047D02*
X174925771Y-76880952D01*
X174925771Y-76880952D02*
X174973390Y-76785714D01*
X174973390Y-76785714D02*
X175021009Y-76738095D01*
X175021009Y-76738095D02*
X175116247Y-76690476D01*
X175116247Y-76690476D02*
X175354342Y-76690476D01*
X175354342Y-76690476D02*
X175449580Y-76738095D01*
X175449580Y-76738095D02*
X175497200Y-76785714D01*
X175497200Y-76785714D02*
X175544819Y-76880952D01*
X175544819Y-76880952D02*
X175544819Y-77119047D01*
X175544819Y-77119047D02*
X175497200Y-77214285D01*
X175497200Y-77214285D02*
X175449580Y-77261904D01*
X158416666Y-78614819D02*
X158416666Y-79329104D01*
X158416666Y-79329104D02*
X158369047Y-79471961D01*
X158369047Y-79471961D02*
X158273809Y-79567200D01*
X158273809Y-79567200D02*
X158130952Y-79614819D01*
X158130952Y-79614819D02*
X158035714Y-79614819D01*
X159416666Y-79614819D02*
X158845238Y-79614819D01*
X159130952Y-79614819D02*
X159130952Y-78614819D01*
X159130952Y-78614819D02*
X159035714Y-78757676D01*
X159035714Y-78757676D02*
X158940476Y-78852914D01*
X158940476Y-78852914D02*
X158845238Y-78900533D01*
X139233333Y-103754819D02*
X138900000Y-103278628D01*
X138661905Y-103754819D02*
X138661905Y-102754819D01*
X138661905Y-102754819D02*
X139042857Y-102754819D01*
X139042857Y-102754819D02*
X139138095Y-102802438D01*
X139138095Y-102802438D02*
X139185714Y-102850057D01*
X139185714Y-102850057D02*
X139233333Y-102945295D01*
X139233333Y-102945295D02*
X139233333Y-103088152D01*
X139233333Y-103088152D02*
X139185714Y-103183390D01*
X139185714Y-103183390D02*
X139138095Y-103231009D01*
X139138095Y-103231009D02*
X139042857Y-103278628D01*
X139042857Y-103278628D02*
X138661905Y-103278628D01*
X139804762Y-103183390D02*
X139709524Y-103135771D01*
X139709524Y-103135771D02*
X139661905Y-103088152D01*
X139661905Y-103088152D02*
X139614286Y-102992914D01*
X139614286Y-102992914D02*
X139614286Y-102945295D01*
X139614286Y-102945295D02*
X139661905Y-102850057D01*
X139661905Y-102850057D02*
X139709524Y-102802438D01*
X139709524Y-102802438D02*
X139804762Y-102754819D01*
X139804762Y-102754819D02*
X139995238Y-102754819D01*
X139995238Y-102754819D02*
X140090476Y-102802438D01*
X140090476Y-102802438D02*
X140138095Y-102850057D01*
X140138095Y-102850057D02*
X140185714Y-102945295D01*
X140185714Y-102945295D02*
X140185714Y-102992914D01*
X140185714Y-102992914D02*
X140138095Y-103088152D01*
X140138095Y-103088152D02*
X140090476Y-103135771D01*
X140090476Y-103135771D02*
X139995238Y-103183390D01*
X139995238Y-103183390D02*
X139804762Y-103183390D01*
X139804762Y-103183390D02*
X139709524Y-103231009D01*
X139709524Y-103231009D02*
X139661905Y-103278628D01*
X139661905Y-103278628D02*
X139614286Y-103373866D01*
X139614286Y-103373866D02*
X139614286Y-103564342D01*
X139614286Y-103564342D02*
X139661905Y-103659580D01*
X139661905Y-103659580D02*
X139709524Y-103707200D01*
X139709524Y-103707200D02*
X139804762Y-103754819D01*
X139804762Y-103754819D02*
X139995238Y-103754819D01*
X139995238Y-103754819D02*
X140090476Y-103707200D01*
X140090476Y-103707200D02*
X140138095Y-103659580D01*
X140138095Y-103659580D02*
X140185714Y-103564342D01*
X140185714Y-103564342D02*
X140185714Y-103373866D01*
X140185714Y-103373866D02*
X140138095Y-103278628D01*
X140138095Y-103278628D02*
X140090476Y-103231009D01*
X140090476Y-103231009D02*
X139995238Y-103183390D01*
X180871905Y-121744819D02*
X180871905Y-120744819D01*
X180871905Y-120744819D02*
X181252857Y-120744819D01*
X181252857Y-120744819D02*
X181348095Y-120792438D01*
X181348095Y-120792438D02*
X181395714Y-120840057D01*
X181395714Y-120840057D02*
X181443333Y-120935295D01*
X181443333Y-120935295D02*
X181443333Y-121078152D01*
X181443333Y-121078152D02*
X181395714Y-121173390D01*
X181395714Y-121173390D02*
X181348095Y-121221009D01*
X181348095Y-121221009D02*
X181252857Y-121268628D01*
X181252857Y-121268628D02*
X180871905Y-121268628D01*
X182395714Y-121744819D02*
X181824286Y-121744819D01*
X182110000Y-121744819D02*
X182110000Y-120744819D01*
X182110000Y-120744819D02*
X182014762Y-120887676D01*
X182014762Y-120887676D02*
X181919524Y-120982914D01*
X181919524Y-120982914D02*
X181824286Y-121030533D01*
X110190476Y-119457200D02*
X110333333Y-119504819D01*
X110333333Y-119504819D02*
X110571428Y-119504819D01*
X110571428Y-119504819D02*
X110666666Y-119457200D01*
X110666666Y-119457200D02*
X110714285Y-119409580D01*
X110714285Y-119409580D02*
X110761904Y-119314342D01*
X110761904Y-119314342D02*
X110761904Y-119219104D01*
X110761904Y-119219104D02*
X110714285Y-119123866D01*
X110714285Y-119123866D02*
X110666666Y-119076247D01*
X110666666Y-119076247D02*
X110571428Y-119028628D01*
X110571428Y-119028628D02*
X110380952Y-118981009D01*
X110380952Y-118981009D02*
X110285714Y-118933390D01*
X110285714Y-118933390D02*
X110238095Y-118885771D01*
X110238095Y-118885771D02*
X110190476Y-118790533D01*
X110190476Y-118790533D02*
X110190476Y-118695295D01*
X110190476Y-118695295D02*
X110238095Y-118600057D01*
X110238095Y-118600057D02*
X110285714Y-118552438D01*
X110285714Y-118552438D02*
X110380952Y-118504819D01*
X110380952Y-118504819D02*
X110619047Y-118504819D01*
X110619047Y-118504819D02*
X110761904Y-118552438D01*
X111095238Y-118504819D02*
X111333333Y-119504819D01*
X111333333Y-119504819D02*
X111523809Y-118790533D01*
X111523809Y-118790533D02*
X111714285Y-119504819D01*
X111714285Y-119504819D02*
X111952381Y-118504819D01*
X112857142Y-119504819D02*
X112285714Y-119504819D01*
X112571428Y-119504819D02*
X112571428Y-118504819D01*
X112571428Y-118504819D02*
X112476190Y-118647676D01*
X112476190Y-118647676D02*
X112380952Y-118742914D01*
X112380952Y-118742914D02*
X112285714Y-118790533D01*
X113809523Y-119504819D02*
X113238095Y-119504819D01*
X113523809Y-119504819D02*
X113523809Y-118504819D01*
X113523809Y-118504819D02*
X113428571Y-118647676D01*
X113428571Y-118647676D02*
X113333333Y-118742914D01*
X113333333Y-118742914D02*
X113238095Y-118790533D01*
X186338095Y-111954819D02*
X186338095Y-112764342D01*
X186338095Y-112764342D02*
X186385714Y-112859580D01*
X186385714Y-112859580D02*
X186433333Y-112907200D01*
X186433333Y-112907200D02*
X186528571Y-112954819D01*
X186528571Y-112954819D02*
X186719047Y-112954819D01*
X186719047Y-112954819D02*
X186814285Y-112907200D01*
X186814285Y-112907200D02*
X186861904Y-112859580D01*
X186861904Y-112859580D02*
X186909523Y-112764342D01*
X186909523Y-112764342D02*
X186909523Y-111954819D01*
X187814285Y-111954819D02*
X187623809Y-111954819D01*
X187623809Y-111954819D02*
X187528571Y-112002438D01*
X187528571Y-112002438D02*
X187480952Y-112050057D01*
X187480952Y-112050057D02*
X187385714Y-112192914D01*
X187385714Y-112192914D02*
X187338095Y-112383390D01*
X187338095Y-112383390D02*
X187338095Y-112764342D01*
X187338095Y-112764342D02*
X187385714Y-112859580D01*
X187385714Y-112859580D02*
X187433333Y-112907200D01*
X187433333Y-112907200D02*
X187528571Y-112954819D01*
X187528571Y-112954819D02*
X187719047Y-112954819D01*
X187719047Y-112954819D02*
X187814285Y-112907200D01*
X187814285Y-112907200D02*
X187861904Y-112859580D01*
X187861904Y-112859580D02*
X187909523Y-112764342D01*
X187909523Y-112764342D02*
X187909523Y-112526247D01*
X187909523Y-112526247D02*
X187861904Y-112431009D01*
X187861904Y-112431009D02*
X187814285Y-112383390D01*
X187814285Y-112383390D02*
X187719047Y-112335771D01*
X187719047Y-112335771D02*
X187528571Y-112335771D01*
X187528571Y-112335771D02*
X187433333Y-112383390D01*
X187433333Y-112383390D02*
X187385714Y-112431009D01*
X187385714Y-112431009D02*
X187338095Y-112526247D01*
X156554819Y-99066666D02*
X156078628Y-99399999D01*
X156554819Y-99638094D02*
X155554819Y-99638094D01*
X155554819Y-99638094D02*
X155554819Y-99257142D01*
X155554819Y-99257142D02*
X155602438Y-99161904D01*
X155602438Y-99161904D02*
X155650057Y-99114285D01*
X155650057Y-99114285D02*
X155745295Y-99066666D01*
X155745295Y-99066666D02*
X155888152Y-99066666D01*
X155888152Y-99066666D02*
X155983390Y-99114285D01*
X155983390Y-99114285D02*
X156031009Y-99161904D01*
X156031009Y-99161904D02*
X156078628Y-99257142D01*
X156078628Y-99257142D02*
X156078628Y-99638094D01*
X155554819Y-98733332D02*
X155554819Y-98066666D01*
X155554819Y-98066666D02*
X156554819Y-98495237D01*
X171219580Y-100262857D02*
X171267200Y-100310476D01*
X171267200Y-100310476D02*
X171314819Y-100453333D01*
X171314819Y-100453333D02*
X171314819Y-100548571D01*
X171314819Y-100548571D02*
X171267200Y-100691428D01*
X171267200Y-100691428D02*
X171171961Y-100786666D01*
X171171961Y-100786666D02*
X171076723Y-100834285D01*
X171076723Y-100834285D02*
X170886247Y-100881904D01*
X170886247Y-100881904D02*
X170743390Y-100881904D01*
X170743390Y-100881904D02*
X170552914Y-100834285D01*
X170552914Y-100834285D02*
X170457676Y-100786666D01*
X170457676Y-100786666D02*
X170362438Y-100691428D01*
X170362438Y-100691428D02*
X170314819Y-100548571D01*
X170314819Y-100548571D02*
X170314819Y-100453333D01*
X170314819Y-100453333D02*
X170362438Y-100310476D01*
X170362438Y-100310476D02*
X170410057Y-100262857D01*
X171314819Y-99310476D02*
X171314819Y-99881904D01*
X171314819Y-99596190D02*
X170314819Y-99596190D01*
X170314819Y-99596190D02*
X170457676Y-99691428D01*
X170457676Y-99691428D02*
X170552914Y-99786666D01*
X170552914Y-99786666D02*
X170600533Y-99881904D01*
X171314819Y-98834285D02*
X171314819Y-98643809D01*
X171314819Y-98643809D02*
X171267200Y-98548571D01*
X171267200Y-98548571D02*
X171219580Y-98500952D01*
X171219580Y-98500952D02*
X171076723Y-98405714D01*
X171076723Y-98405714D02*
X170886247Y-98358095D01*
X170886247Y-98358095D02*
X170505295Y-98358095D01*
X170505295Y-98358095D02*
X170410057Y-98405714D01*
X170410057Y-98405714D02*
X170362438Y-98453333D01*
X170362438Y-98453333D02*
X170314819Y-98548571D01*
X170314819Y-98548571D02*
X170314819Y-98739047D01*
X170314819Y-98739047D02*
X170362438Y-98834285D01*
X170362438Y-98834285D02*
X170410057Y-98881904D01*
X170410057Y-98881904D02*
X170505295Y-98929523D01*
X170505295Y-98929523D02*
X170743390Y-98929523D01*
X170743390Y-98929523D02*
X170838628Y-98881904D01*
X170838628Y-98881904D02*
X170886247Y-98834285D01*
X170886247Y-98834285D02*
X170933866Y-98739047D01*
X170933866Y-98739047D02*
X170933866Y-98548571D01*
X170933866Y-98548571D02*
X170886247Y-98453333D01*
X170886247Y-98453333D02*
X170838628Y-98405714D01*
X170838628Y-98405714D02*
X170743390Y-98358095D01*
X162733333Y-117254819D02*
X162400000Y-116778628D01*
X162161905Y-117254819D02*
X162161905Y-116254819D01*
X162161905Y-116254819D02*
X162542857Y-116254819D01*
X162542857Y-116254819D02*
X162638095Y-116302438D01*
X162638095Y-116302438D02*
X162685714Y-116350057D01*
X162685714Y-116350057D02*
X162733333Y-116445295D01*
X162733333Y-116445295D02*
X162733333Y-116588152D01*
X162733333Y-116588152D02*
X162685714Y-116683390D01*
X162685714Y-116683390D02*
X162638095Y-116731009D01*
X162638095Y-116731009D02*
X162542857Y-116778628D01*
X162542857Y-116778628D02*
X162161905Y-116778628D01*
X163209524Y-117254819D02*
X163400000Y-117254819D01*
X163400000Y-117254819D02*
X163495238Y-117207200D01*
X163495238Y-117207200D02*
X163542857Y-117159580D01*
X163542857Y-117159580D02*
X163638095Y-117016723D01*
X163638095Y-117016723D02*
X163685714Y-116826247D01*
X163685714Y-116826247D02*
X163685714Y-116445295D01*
X163685714Y-116445295D02*
X163638095Y-116350057D01*
X163638095Y-116350057D02*
X163590476Y-116302438D01*
X163590476Y-116302438D02*
X163495238Y-116254819D01*
X163495238Y-116254819D02*
X163304762Y-116254819D01*
X163304762Y-116254819D02*
X163209524Y-116302438D01*
X163209524Y-116302438D02*
X163161905Y-116350057D01*
X163161905Y-116350057D02*
X163114286Y-116445295D01*
X163114286Y-116445295D02*
X163114286Y-116683390D01*
X163114286Y-116683390D02*
X163161905Y-116778628D01*
X163161905Y-116778628D02*
X163209524Y-116826247D01*
X163209524Y-116826247D02*
X163304762Y-116873866D01*
X163304762Y-116873866D02*
X163495238Y-116873866D01*
X163495238Y-116873866D02*
X163590476Y-116826247D01*
X163590476Y-116826247D02*
X163638095Y-116778628D01*
X163638095Y-116778628D02*
X163685714Y-116683390D01*
X155219580Y-85466666D02*
X155267200Y-85514285D01*
X155267200Y-85514285D02*
X155314819Y-85657142D01*
X155314819Y-85657142D02*
X155314819Y-85752380D01*
X155314819Y-85752380D02*
X155267200Y-85895237D01*
X155267200Y-85895237D02*
X155171961Y-85990475D01*
X155171961Y-85990475D02*
X155076723Y-86038094D01*
X155076723Y-86038094D02*
X154886247Y-86085713D01*
X154886247Y-86085713D02*
X154743390Y-86085713D01*
X154743390Y-86085713D02*
X154552914Y-86038094D01*
X154552914Y-86038094D02*
X154457676Y-85990475D01*
X154457676Y-85990475D02*
X154362438Y-85895237D01*
X154362438Y-85895237D02*
X154314819Y-85752380D01*
X154314819Y-85752380D02*
X154314819Y-85657142D01*
X154314819Y-85657142D02*
X154362438Y-85514285D01*
X154362438Y-85514285D02*
X154410057Y-85466666D01*
X154648152Y-84609523D02*
X155314819Y-84609523D01*
X154267200Y-84847618D02*
X154981485Y-85085713D01*
X154981485Y-85085713D02*
X154981485Y-84466666D01*
X140775595Y-80144819D02*
X140775595Y-80954342D01*
X140775595Y-80954342D02*
X140823214Y-81049580D01*
X140823214Y-81049580D02*
X140870833Y-81097200D01*
X140870833Y-81097200D02*
X140966071Y-81144819D01*
X140966071Y-81144819D02*
X141156547Y-81144819D01*
X141156547Y-81144819D02*
X141251785Y-81097200D01*
X141251785Y-81097200D02*
X141299404Y-81049580D01*
X141299404Y-81049580D02*
X141347023Y-80954342D01*
X141347023Y-80954342D02*
X141347023Y-80144819D01*
X141727976Y-80144819D02*
X142347023Y-80144819D01*
X142347023Y-80144819D02*
X142013690Y-80525771D01*
X142013690Y-80525771D02*
X142156547Y-80525771D01*
X142156547Y-80525771D02*
X142251785Y-80573390D01*
X142251785Y-80573390D02*
X142299404Y-80621009D01*
X142299404Y-80621009D02*
X142347023Y-80716247D01*
X142347023Y-80716247D02*
X142347023Y-80954342D01*
X142347023Y-80954342D02*
X142299404Y-81049580D01*
X142299404Y-81049580D02*
X142251785Y-81097200D01*
X142251785Y-81097200D02*
X142156547Y-81144819D01*
X142156547Y-81144819D02*
X141870833Y-81144819D01*
X141870833Y-81144819D02*
X141775595Y-81097200D01*
X141775595Y-81097200D02*
X141727976Y-81049580D01*
X153854819Y-100147857D02*
X153378628Y-100481190D01*
X153854819Y-100719285D02*
X152854819Y-100719285D01*
X152854819Y-100719285D02*
X152854819Y-100338333D01*
X152854819Y-100338333D02*
X152902438Y-100243095D01*
X152902438Y-100243095D02*
X152950057Y-100195476D01*
X152950057Y-100195476D02*
X153045295Y-100147857D01*
X153045295Y-100147857D02*
X153188152Y-100147857D01*
X153188152Y-100147857D02*
X153283390Y-100195476D01*
X153283390Y-100195476D02*
X153331009Y-100243095D01*
X153331009Y-100243095D02*
X153378628Y-100338333D01*
X153378628Y-100338333D02*
X153378628Y-100719285D01*
X153854819Y-99195476D02*
X153854819Y-99766904D01*
X153854819Y-99481190D02*
X152854819Y-99481190D01*
X152854819Y-99481190D02*
X152997676Y-99576428D01*
X152997676Y-99576428D02*
X153092914Y-99671666D01*
X153092914Y-99671666D02*
X153140533Y-99766904D01*
X153188152Y-98338333D02*
X153854819Y-98338333D01*
X152807200Y-98576428D02*
X153521485Y-98814523D01*
X153521485Y-98814523D02*
X153521485Y-98195476D01*
X162357142Y-115704819D02*
X162023809Y-115228628D01*
X161785714Y-115704819D02*
X161785714Y-114704819D01*
X161785714Y-114704819D02*
X162166666Y-114704819D01*
X162166666Y-114704819D02*
X162261904Y-114752438D01*
X162261904Y-114752438D02*
X162309523Y-114800057D01*
X162309523Y-114800057D02*
X162357142Y-114895295D01*
X162357142Y-114895295D02*
X162357142Y-115038152D01*
X162357142Y-115038152D02*
X162309523Y-115133390D01*
X162309523Y-115133390D02*
X162261904Y-115181009D01*
X162261904Y-115181009D02*
X162166666Y-115228628D01*
X162166666Y-115228628D02*
X161785714Y-115228628D01*
X163309523Y-115704819D02*
X162738095Y-115704819D01*
X163023809Y-115704819D02*
X163023809Y-114704819D01*
X163023809Y-114704819D02*
X162928571Y-114847676D01*
X162928571Y-114847676D02*
X162833333Y-114942914D01*
X162833333Y-114942914D02*
X162738095Y-114990533D01*
X163928571Y-114704819D02*
X164023809Y-114704819D01*
X164023809Y-114704819D02*
X164119047Y-114752438D01*
X164119047Y-114752438D02*
X164166666Y-114800057D01*
X164166666Y-114800057D02*
X164214285Y-114895295D01*
X164214285Y-114895295D02*
X164261904Y-115085771D01*
X164261904Y-115085771D02*
X164261904Y-115323866D01*
X164261904Y-115323866D02*
X164214285Y-115514342D01*
X164214285Y-115514342D02*
X164166666Y-115609580D01*
X164166666Y-115609580D02*
X164119047Y-115657200D01*
X164119047Y-115657200D02*
X164023809Y-115704819D01*
X164023809Y-115704819D02*
X163928571Y-115704819D01*
X163928571Y-115704819D02*
X163833333Y-115657200D01*
X163833333Y-115657200D02*
X163785714Y-115609580D01*
X163785714Y-115609580D02*
X163738095Y-115514342D01*
X163738095Y-115514342D02*
X163690476Y-115323866D01*
X163690476Y-115323866D02*
X163690476Y-115085771D01*
X163690476Y-115085771D02*
X163738095Y-114895295D01*
X163738095Y-114895295D02*
X163785714Y-114800057D01*
X163785714Y-114800057D02*
X163833333Y-114752438D01*
X163833333Y-114752438D02*
X163928571Y-114704819D01*
X197414285Y-121131009D02*
X197557142Y-121178628D01*
X197557142Y-121178628D02*
X197604761Y-121226247D01*
X197604761Y-121226247D02*
X197652380Y-121321485D01*
X197652380Y-121321485D02*
X197652380Y-121464342D01*
X197652380Y-121464342D02*
X197604761Y-121559580D01*
X197604761Y-121559580D02*
X197557142Y-121607200D01*
X197557142Y-121607200D02*
X197461904Y-121654819D01*
X197461904Y-121654819D02*
X197080952Y-121654819D01*
X197080952Y-121654819D02*
X197080952Y-120654819D01*
X197080952Y-120654819D02*
X197414285Y-120654819D01*
X197414285Y-120654819D02*
X197509523Y-120702438D01*
X197509523Y-120702438D02*
X197557142Y-120750057D01*
X197557142Y-120750057D02*
X197604761Y-120845295D01*
X197604761Y-120845295D02*
X197604761Y-120940533D01*
X197604761Y-120940533D02*
X197557142Y-121035771D01*
X197557142Y-121035771D02*
X197509523Y-121083390D01*
X197509523Y-121083390D02*
X197414285Y-121131009D01*
X197414285Y-121131009D02*
X197080952Y-121131009D01*
X197938095Y-120654819D02*
X198509523Y-120654819D01*
X198223809Y-121654819D02*
X198223809Y-120654819D01*
X199366666Y-121654819D02*
X198795238Y-121654819D01*
X199080952Y-121654819D02*
X199080952Y-120654819D01*
X199080952Y-120654819D02*
X198985714Y-120797676D01*
X198985714Y-120797676D02*
X198890476Y-120892914D01*
X198890476Y-120892914D02*
X198795238Y-120940533D01*
X136499580Y-88766666D02*
X136547200Y-88814285D01*
X136547200Y-88814285D02*
X136594819Y-88957142D01*
X136594819Y-88957142D02*
X136594819Y-89052380D01*
X136594819Y-89052380D02*
X136547200Y-89195237D01*
X136547200Y-89195237D02*
X136451961Y-89290475D01*
X136451961Y-89290475D02*
X136356723Y-89338094D01*
X136356723Y-89338094D02*
X136166247Y-89385713D01*
X136166247Y-89385713D02*
X136023390Y-89385713D01*
X136023390Y-89385713D02*
X135832914Y-89338094D01*
X135832914Y-89338094D02*
X135737676Y-89290475D01*
X135737676Y-89290475D02*
X135642438Y-89195237D01*
X135642438Y-89195237D02*
X135594819Y-89052380D01*
X135594819Y-89052380D02*
X135594819Y-88957142D01*
X135594819Y-88957142D02*
X135642438Y-88814285D01*
X135642438Y-88814285D02*
X135690057Y-88766666D01*
X136594819Y-87814285D02*
X136594819Y-88385713D01*
X136594819Y-88099999D02*
X135594819Y-88099999D01*
X135594819Y-88099999D02*
X135737676Y-88195237D01*
X135737676Y-88195237D02*
X135832914Y-88290475D01*
X135832914Y-88290475D02*
X135880533Y-88385713D01*
X144433333Y-99259580D02*
X144385714Y-99307200D01*
X144385714Y-99307200D02*
X144242857Y-99354819D01*
X144242857Y-99354819D02*
X144147619Y-99354819D01*
X144147619Y-99354819D02*
X144004762Y-99307200D01*
X144004762Y-99307200D02*
X143909524Y-99211961D01*
X143909524Y-99211961D02*
X143861905Y-99116723D01*
X143861905Y-99116723D02*
X143814286Y-98926247D01*
X143814286Y-98926247D02*
X143814286Y-98783390D01*
X143814286Y-98783390D02*
X143861905Y-98592914D01*
X143861905Y-98592914D02*
X143909524Y-98497676D01*
X143909524Y-98497676D02*
X144004762Y-98402438D01*
X144004762Y-98402438D02*
X144147619Y-98354819D01*
X144147619Y-98354819D02*
X144242857Y-98354819D01*
X144242857Y-98354819D02*
X144385714Y-98402438D01*
X144385714Y-98402438D02*
X144433333Y-98450057D01*
X145338095Y-98354819D02*
X144861905Y-98354819D01*
X144861905Y-98354819D02*
X144814286Y-98831009D01*
X144814286Y-98831009D02*
X144861905Y-98783390D01*
X144861905Y-98783390D02*
X144957143Y-98735771D01*
X144957143Y-98735771D02*
X145195238Y-98735771D01*
X145195238Y-98735771D02*
X145290476Y-98783390D01*
X145290476Y-98783390D02*
X145338095Y-98831009D01*
X145338095Y-98831009D02*
X145385714Y-98926247D01*
X145385714Y-98926247D02*
X145385714Y-99164342D01*
X145385714Y-99164342D02*
X145338095Y-99259580D01*
X145338095Y-99259580D02*
X145290476Y-99307200D01*
X145290476Y-99307200D02*
X145195238Y-99354819D01*
X145195238Y-99354819D02*
X144957143Y-99354819D01*
X144957143Y-99354819D02*
X144861905Y-99307200D01*
X144861905Y-99307200D02*
X144814286Y-99259580D01*
X194238095Y-101954819D02*
X194238095Y-102764342D01*
X194238095Y-102764342D02*
X194285714Y-102859580D01*
X194285714Y-102859580D02*
X194333333Y-102907200D01*
X194333333Y-102907200D02*
X194428571Y-102954819D01*
X194428571Y-102954819D02*
X194619047Y-102954819D01*
X194619047Y-102954819D02*
X194714285Y-102907200D01*
X194714285Y-102907200D02*
X194761904Y-102859580D01*
X194761904Y-102859580D02*
X194809523Y-102764342D01*
X194809523Y-102764342D02*
X194809523Y-101954819D01*
X195190476Y-101954819D02*
X195857142Y-101954819D01*
X195857142Y-101954819D02*
X195428571Y-102954819D01*
X144133333Y-102654819D02*
X143800000Y-102178628D01*
X143561905Y-102654819D02*
X143561905Y-101654819D01*
X143561905Y-101654819D02*
X143942857Y-101654819D01*
X143942857Y-101654819D02*
X144038095Y-101702438D01*
X144038095Y-101702438D02*
X144085714Y-101750057D01*
X144085714Y-101750057D02*
X144133333Y-101845295D01*
X144133333Y-101845295D02*
X144133333Y-101988152D01*
X144133333Y-101988152D02*
X144085714Y-102083390D01*
X144085714Y-102083390D02*
X144038095Y-102131009D01*
X144038095Y-102131009D02*
X143942857Y-102178628D01*
X143942857Y-102178628D02*
X143561905Y-102178628D01*
X145085714Y-102654819D02*
X144514286Y-102654819D01*
X144800000Y-102654819D02*
X144800000Y-101654819D01*
X144800000Y-101654819D02*
X144704762Y-101797676D01*
X144704762Y-101797676D02*
X144609524Y-101892914D01*
X144609524Y-101892914D02*
X144514286Y-101940533D01*
X152554819Y-98297857D02*
X152078628Y-98631190D01*
X152554819Y-98869285D02*
X151554819Y-98869285D01*
X151554819Y-98869285D02*
X151554819Y-98488333D01*
X151554819Y-98488333D02*
X151602438Y-98393095D01*
X151602438Y-98393095D02*
X151650057Y-98345476D01*
X151650057Y-98345476D02*
X151745295Y-98297857D01*
X151745295Y-98297857D02*
X151888152Y-98297857D01*
X151888152Y-98297857D02*
X151983390Y-98345476D01*
X151983390Y-98345476D02*
X152031009Y-98393095D01*
X152031009Y-98393095D02*
X152078628Y-98488333D01*
X152078628Y-98488333D02*
X152078628Y-98869285D01*
X152554819Y-97345476D02*
X152554819Y-97916904D01*
X152554819Y-97631190D02*
X151554819Y-97631190D01*
X151554819Y-97631190D02*
X151697676Y-97726428D01*
X151697676Y-97726428D02*
X151792914Y-97821666D01*
X151792914Y-97821666D02*
X151840533Y-97916904D01*
X151554819Y-96440714D02*
X151554819Y-96916904D01*
X151554819Y-96916904D02*
X152031009Y-96964523D01*
X152031009Y-96964523D02*
X151983390Y-96916904D01*
X151983390Y-96916904D02*
X151935771Y-96821666D01*
X151935771Y-96821666D02*
X151935771Y-96583571D01*
X151935771Y-96583571D02*
X151983390Y-96488333D01*
X151983390Y-96488333D02*
X152031009Y-96440714D01*
X152031009Y-96440714D02*
X152126247Y-96393095D01*
X152126247Y-96393095D02*
X152364342Y-96393095D01*
X152364342Y-96393095D02*
X152459580Y-96440714D01*
X152459580Y-96440714D02*
X152507200Y-96488333D01*
X152507200Y-96488333D02*
X152554819Y-96583571D01*
X152554819Y-96583571D02*
X152554819Y-96821666D01*
X152554819Y-96821666D02*
X152507200Y-96916904D01*
X152507200Y-96916904D02*
X152459580Y-96964523D01*
X152199580Y-88666666D02*
X152247200Y-88714285D01*
X152247200Y-88714285D02*
X152294819Y-88857142D01*
X152294819Y-88857142D02*
X152294819Y-88952380D01*
X152294819Y-88952380D02*
X152247200Y-89095237D01*
X152247200Y-89095237D02*
X152151961Y-89190475D01*
X152151961Y-89190475D02*
X152056723Y-89238094D01*
X152056723Y-89238094D02*
X151866247Y-89285713D01*
X151866247Y-89285713D02*
X151723390Y-89285713D01*
X151723390Y-89285713D02*
X151532914Y-89238094D01*
X151532914Y-89238094D02*
X151437676Y-89190475D01*
X151437676Y-89190475D02*
X151342438Y-89095237D01*
X151342438Y-89095237D02*
X151294819Y-88952380D01*
X151294819Y-88952380D02*
X151294819Y-88857142D01*
X151294819Y-88857142D02*
X151342438Y-88714285D01*
X151342438Y-88714285D02*
X151390057Y-88666666D01*
X151294819Y-88333332D02*
X151294819Y-87714285D01*
X151294819Y-87714285D02*
X151675771Y-88047618D01*
X151675771Y-88047618D02*
X151675771Y-87904761D01*
X151675771Y-87904761D02*
X151723390Y-87809523D01*
X151723390Y-87809523D02*
X151771009Y-87761904D01*
X151771009Y-87761904D02*
X151866247Y-87714285D01*
X151866247Y-87714285D02*
X152104342Y-87714285D01*
X152104342Y-87714285D02*
X152199580Y-87761904D01*
X152199580Y-87761904D02*
X152247200Y-87809523D01*
X152247200Y-87809523D02*
X152294819Y-87904761D01*
X152294819Y-87904761D02*
X152294819Y-88190475D01*
X152294819Y-88190475D02*
X152247200Y-88285713D01*
X152247200Y-88285713D02*
X152199580Y-88333332D01*
X110616667Y-114157200D02*
X110759524Y-114204819D01*
X110759524Y-114204819D02*
X110997619Y-114204819D01*
X110997619Y-114204819D02*
X111092857Y-114157200D01*
X111092857Y-114157200D02*
X111140476Y-114109580D01*
X111140476Y-114109580D02*
X111188095Y-114014342D01*
X111188095Y-114014342D02*
X111188095Y-113919104D01*
X111188095Y-113919104D02*
X111140476Y-113823866D01*
X111140476Y-113823866D02*
X111092857Y-113776247D01*
X111092857Y-113776247D02*
X110997619Y-113728628D01*
X110997619Y-113728628D02*
X110807143Y-113681009D01*
X110807143Y-113681009D02*
X110711905Y-113633390D01*
X110711905Y-113633390D02*
X110664286Y-113585771D01*
X110664286Y-113585771D02*
X110616667Y-113490533D01*
X110616667Y-113490533D02*
X110616667Y-113395295D01*
X110616667Y-113395295D02*
X110664286Y-113300057D01*
X110664286Y-113300057D02*
X110711905Y-113252438D01*
X110711905Y-113252438D02*
X110807143Y-113204819D01*
X110807143Y-113204819D02*
X111045238Y-113204819D01*
X111045238Y-113204819D02*
X111188095Y-113252438D01*
X111521429Y-113204819D02*
X111759524Y-114204819D01*
X111759524Y-114204819D02*
X111950000Y-113490533D01*
X111950000Y-113490533D02*
X112140476Y-114204819D01*
X112140476Y-114204819D02*
X112378572Y-113204819D01*
X112807143Y-114204819D02*
X112997619Y-114204819D01*
X112997619Y-114204819D02*
X113092857Y-114157200D01*
X113092857Y-114157200D02*
X113140476Y-114109580D01*
X113140476Y-114109580D02*
X113235714Y-113966723D01*
X113235714Y-113966723D02*
X113283333Y-113776247D01*
X113283333Y-113776247D02*
X113283333Y-113395295D01*
X113283333Y-113395295D02*
X113235714Y-113300057D01*
X113235714Y-113300057D02*
X113188095Y-113252438D01*
X113188095Y-113252438D02*
X113092857Y-113204819D01*
X113092857Y-113204819D02*
X112902381Y-113204819D01*
X112902381Y-113204819D02*
X112807143Y-113252438D01*
X112807143Y-113252438D02*
X112759524Y-113300057D01*
X112759524Y-113300057D02*
X112711905Y-113395295D01*
X112711905Y-113395295D02*
X112711905Y-113633390D01*
X112711905Y-113633390D02*
X112759524Y-113728628D01*
X112759524Y-113728628D02*
X112807143Y-113776247D01*
X112807143Y-113776247D02*
X112902381Y-113823866D01*
X112902381Y-113823866D02*
X113092857Y-113823866D01*
X113092857Y-113823866D02*
X113188095Y-113776247D01*
X113188095Y-113776247D02*
X113235714Y-113728628D01*
X113235714Y-113728628D02*
X113283333Y-113633390D01*
X142519580Y-100942857D02*
X142567200Y-100990476D01*
X142567200Y-100990476D02*
X142614819Y-101133333D01*
X142614819Y-101133333D02*
X142614819Y-101228571D01*
X142614819Y-101228571D02*
X142567200Y-101371428D01*
X142567200Y-101371428D02*
X142471961Y-101466666D01*
X142471961Y-101466666D02*
X142376723Y-101514285D01*
X142376723Y-101514285D02*
X142186247Y-101561904D01*
X142186247Y-101561904D02*
X142043390Y-101561904D01*
X142043390Y-101561904D02*
X141852914Y-101514285D01*
X141852914Y-101514285D02*
X141757676Y-101466666D01*
X141757676Y-101466666D02*
X141662438Y-101371428D01*
X141662438Y-101371428D02*
X141614819Y-101228571D01*
X141614819Y-101228571D02*
X141614819Y-101133333D01*
X141614819Y-101133333D02*
X141662438Y-100990476D01*
X141662438Y-100990476D02*
X141710057Y-100942857D01*
X142614819Y-99990476D02*
X142614819Y-100561904D01*
X142614819Y-100276190D02*
X141614819Y-100276190D01*
X141614819Y-100276190D02*
X141757676Y-100371428D01*
X141757676Y-100371428D02*
X141852914Y-100466666D01*
X141852914Y-100466666D02*
X141900533Y-100561904D01*
X141614819Y-99133333D02*
X141614819Y-99323809D01*
X141614819Y-99323809D02*
X141662438Y-99419047D01*
X141662438Y-99419047D02*
X141710057Y-99466666D01*
X141710057Y-99466666D02*
X141852914Y-99561904D01*
X141852914Y-99561904D02*
X142043390Y-99609523D01*
X142043390Y-99609523D02*
X142424342Y-99609523D01*
X142424342Y-99609523D02*
X142519580Y-99561904D01*
X142519580Y-99561904D02*
X142567200Y-99514285D01*
X142567200Y-99514285D02*
X142614819Y-99419047D01*
X142614819Y-99419047D02*
X142614819Y-99228571D01*
X142614819Y-99228571D02*
X142567200Y-99133333D01*
X142567200Y-99133333D02*
X142519580Y-99085714D01*
X142519580Y-99085714D02*
X142424342Y-99038095D01*
X142424342Y-99038095D02*
X142186247Y-99038095D01*
X142186247Y-99038095D02*
X142091009Y-99085714D01*
X142091009Y-99085714D02*
X142043390Y-99133333D01*
X142043390Y-99133333D02*
X141995771Y-99228571D01*
X141995771Y-99228571D02*
X141995771Y-99419047D01*
X141995771Y-99419047D02*
X142043390Y-99514285D01*
X142043390Y-99514285D02*
X142091009Y-99561904D01*
X142091009Y-99561904D02*
X142186247Y-99609523D01*
X169533333Y-120519580D02*
X169485714Y-120567200D01*
X169485714Y-120567200D02*
X169342857Y-120614819D01*
X169342857Y-120614819D02*
X169247619Y-120614819D01*
X169247619Y-120614819D02*
X169104762Y-120567200D01*
X169104762Y-120567200D02*
X169009524Y-120471961D01*
X169009524Y-120471961D02*
X168961905Y-120376723D01*
X168961905Y-120376723D02*
X168914286Y-120186247D01*
X168914286Y-120186247D02*
X168914286Y-120043390D01*
X168914286Y-120043390D02*
X168961905Y-119852914D01*
X168961905Y-119852914D02*
X169009524Y-119757676D01*
X169009524Y-119757676D02*
X169104762Y-119662438D01*
X169104762Y-119662438D02*
X169247619Y-119614819D01*
X169247619Y-119614819D02*
X169342857Y-119614819D01*
X169342857Y-119614819D02*
X169485714Y-119662438D01*
X169485714Y-119662438D02*
X169533333Y-119710057D01*
X170390476Y-119614819D02*
X170200000Y-119614819D01*
X170200000Y-119614819D02*
X170104762Y-119662438D01*
X170104762Y-119662438D02*
X170057143Y-119710057D01*
X170057143Y-119710057D02*
X169961905Y-119852914D01*
X169961905Y-119852914D02*
X169914286Y-120043390D01*
X169914286Y-120043390D02*
X169914286Y-120424342D01*
X169914286Y-120424342D02*
X169961905Y-120519580D01*
X169961905Y-120519580D02*
X170009524Y-120567200D01*
X170009524Y-120567200D02*
X170104762Y-120614819D01*
X170104762Y-120614819D02*
X170295238Y-120614819D01*
X170295238Y-120614819D02*
X170390476Y-120567200D01*
X170390476Y-120567200D02*
X170438095Y-120519580D01*
X170438095Y-120519580D02*
X170485714Y-120424342D01*
X170485714Y-120424342D02*
X170485714Y-120186247D01*
X170485714Y-120186247D02*
X170438095Y-120091009D01*
X170438095Y-120091009D02*
X170390476Y-120043390D01*
X170390476Y-120043390D02*
X170295238Y-119995771D01*
X170295238Y-119995771D02*
X170104762Y-119995771D01*
X170104762Y-119995771D02*
X170009524Y-120043390D01*
X170009524Y-120043390D02*
X169961905Y-120091009D01*
X169961905Y-120091009D02*
X169914286Y-120186247D01*
X163616667Y-122657200D02*
X163759524Y-122704819D01*
X163759524Y-122704819D02*
X163997619Y-122704819D01*
X163997619Y-122704819D02*
X164092857Y-122657200D01*
X164092857Y-122657200D02*
X164140476Y-122609580D01*
X164140476Y-122609580D02*
X164188095Y-122514342D01*
X164188095Y-122514342D02*
X164188095Y-122419104D01*
X164188095Y-122419104D02*
X164140476Y-122323866D01*
X164140476Y-122323866D02*
X164092857Y-122276247D01*
X164092857Y-122276247D02*
X163997619Y-122228628D01*
X163997619Y-122228628D02*
X163807143Y-122181009D01*
X163807143Y-122181009D02*
X163711905Y-122133390D01*
X163711905Y-122133390D02*
X163664286Y-122085771D01*
X163664286Y-122085771D02*
X163616667Y-121990533D01*
X163616667Y-121990533D02*
X163616667Y-121895295D01*
X163616667Y-121895295D02*
X163664286Y-121800057D01*
X163664286Y-121800057D02*
X163711905Y-121752438D01*
X163711905Y-121752438D02*
X163807143Y-121704819D01*
X163807143Y-121704819D02*
X164045238Y-121704819D01*
X164045238Y-121704819D02*
X164188095Y-121752438D01*
X164521429Y-121704819D02*
X164759524Y-122704819D01*
X164759524Y-122704819D02*
X164950000Y-121990533D01*
X164950000Y-121990533D02*
X165140476Y-122704819D01*
X165140476Y-122704819D02*
X165378572Y-121704819D01*
X166283333Y-122704819D02*
X165711905Y-122704819D01*
X165997619Y-122704819D02*
X165997619Y-121704819D01*
X165997619Y-121704819D02*
X165902381Y-121847676D01*
X165902381Y-121847676D02*
X165807143Y-121942914D01*
X165807143Y-121942914D02*
X165711905Y-121990533D01*
X155254819Y-97032857D02*
X154778628Y-97366190D01*
X155254819Y-97604285D02*
X154254819Y-97604285D01*
X154254819Y-97604285D02*
X154254819Y-97223333D01*
X154254819Y-97223333D02*
X154302438Y-97128095D01*
X154302438Y-97128095D02*
X154350057Y-97080476D01*
X154350057Y-97080476D02*
X154445295Y-97032857D01*
X154445295Y-97032857D02*
X154588152Y-97032857D01*
X154588152Y-97032857D02*
X154683390Y-97080476D01*
X154683390Y-97080476D02*
X154731009Y-97128095D01*
X154731009Y-97128095D02*
X154778628Y-97223333D01*
X154778628Y-97223333D02*
X154778628Y-97604285D01*
X155254819Y-96080476D02*
X155254819Y-96651904D01*
X155254819Y-96366190D02*
X154254819Y-96366190D01*
X154254819Y-96366190D02*
X154397676Y-96461428D01*
X154397676Y-96461428D02*
X154492914Y-96556666D01*
X154492914Y-96556666D02*
X154540533Y-96651904D01*
X154254819Y-95747142D02*
X154254819Y-95128095D01*
X154254819Y-95128095D02*
X154635771Y-95461428D01*
X154635771Y-95461428D02*
X154635771Y-95318571D01*
X154635771Y-95318571D02*
X154683390Y-95223333D01*
X154683390Y-95223333D02*
X154731009Y-95175714D01*
X154731009Y-95175714D02*
X154826247Y-95128095D01*
X154826247Y-95128095D02*
X155064342Y-95128095D01*
X155064342Y-95128095D02*
X155159580Y-95175714D01*
X155159580Y-95175714D02*
X155207200Y-95223333D01*
X155207200Y-95223333D02*
X155254819Y-95318571D01*
X155254819Y-95318571D02*
X155254819Y-95604285D01*
X155254819Y-95604285D02*
X155207200Y-95699523D01*
X155207200Y-95699523D02*
X155159580Y-95747142D01*
X132257142Y-101499580D02*
X132209523Y-101547200D01*
X132209523Y-101547200D02*
X132066666Y-101594819D01*
X132066666Y-101594819D02*
X131971428Y-101594819D01*
X131971428Y-101594819D02*
X131828571Y-101547200D01*
X131828571Y-101547200D02*
X131733333Y-101451961D01*
X131733333Y-101451961D02*
X131685714Y-101356723D01*
X131685714Y-101356723D02*
X131638095Y-101166247D01*
X131638095Y-101166247D02*
X131638095Y-101023390D01*
X131638095Y-101023390D02*
X131685714Y-100832914D01*
X131685714Y-100832914D02*
X131733333Y-100737676D01*
X131733333Y-100737676D02*
X131828571Y-100642438D01*
X131828571Y-100642438D02*
X131971428Y-100594819D01*
X131971428Y-100594819D02*
X132066666Y-100594819D01*
X132066666Y-100594819D02*
X132209523Y-100642438D01*
X132209523Y-100642438D02*
X132257142Y-100690057D01*
X133209523Y-101594819D02*
X132638095Y-101594819D01*
X132923809Y-101594819D02*
X132923809Y-100594819D01*
X132923809Y-100594819D02*
X132828571Y-100737676D01*
X132828571Y-100737676D02*
X132733333Y-100832914D01*
X132733333Y-100832914D02*
X132638095Y-100880533D01*
X133780952Y-101023390D02*
X133685714Y-100975771D01*
X133685714Y-100975771D02*
X133638095Y-100928152D01*
X133638095Y-100928152D02*
X133590476Y-100832914D01*
X133590476Y-100832914D02*
X133590476Y-100785295D01*
X133590476Y-100785295D02*
X133638095Y-100690057D01*
X133638095Y-100690057D02*
X133685714Y-100642438D01*
X133685714Y-100642438D02*
X133780952Y-100594819D01*
X133780952Y-100594819D02*
X133971428Y-100594819D01*
X133971428Y-100594819D02*
X134066666Y-100642438D01*
X134066666Y-100642438D02*
X134114285Y-100690057D01*
X134114285Y-100690057D02*
X134161904Y-100785295D01*
X134161904Y-100785295D02*
X134161904Y-100832914D01*
X134161904Y-100832914D02*
X134114285Y-100928152D01*
X134114285Y-100928152D02*
X134066666Y-100975771D01*
X134066666Y-100975771D02*
X133971428Y-101023390D01*
X133971428Y-101023390D02*
X133780952Y-101023390D01*
X133780952Y-101023390D02*
X133685714Y-101071009D01*
X133685714Y-101071009D02*
X133638095Y-101118628D01*
X133638095Y-101118628D02*
X133590476Y-101213866D01*
X133590476Y-101213866D02*
X133590476Y-101404342D01*
X133590476Y-101404342D02*
X133638095Y-101499580D01*
X133638095Y-101499580D02*
X133685714Y-101547200D01*
X133685714Y-101547200D02*
X133780952Y-101594819D01*
X133780952Y-101594819D02*
X133971428Y-101594819D01*
X133971428Y-101594819D02*
X134066666Y-101547200D01*
X134066666Y-101547200D02*
X134114285Y-101499580D01*
X134114285Y-101499580D02*
X134161904Y-101404342D01*
X134161904Y-101404342D02*
X134161904Y-101213866D01*
X134161904Y-101213866D02*
X134114285Y-101118628D01*
X134114285Y-101118628D02*
X134066666Y-101071009D01*
X134066666Y-101071009D02*
X133971428Y-101023390D01*
X163000595Y-96954819D02*
X163000595Y-97764342D01*
X163000595Y-97764342D02*
X163048214Y-97859580D01*
X163048214Y-97859580D02*
X163095833Y-97907200D01*
X163095833Y-97907200D02*
X163191071Y-97954819D01*
X163191071Y-97954819D02*
X163381547Y-97954819D01*
X163381547Y-97954819D02*
X163476785Y-97907200D01*
X163476785Y-97907200D02*
X163524404Y-97859580D01*
X163524404Y-97859580D02*
X163572023Y-97764342D01*
X163572023Y-97764342D02*
X163572023Y-96954819D01*
X164191071Y-97383390D02*
X164095833Y-97335771D01*
X164095833Y-97335771D02*
X164048214Y-97288152D01*
X164048214Y-97288152D02*
X164000595Y-97192914D01*
X164000595Y-97192914D02*
X164000595Y-97145295D01*
X164000595Y-97145295D02*
X164048214Y-97050057D01*
X164048214Y-97050057D02*
X164095833Y-97002438D01*
X164095833Y-97002438D02*
X164191071Y-96954819D01*
X164191071Y-96954819D02*
X164381547Y-96954819D01*
X164381547Y-96954819D02*
X164476785Y-97002438D01*
X164476785Y-97002438D02*
X164524404Y-97050057D01*
X164524404Y-97050057D02*
X164572023Y-97145295D01*
X164572023Y-97145295D02*
X164572023Y-97192914D01*
X164572023Y-97192914D02*
X164524404Y-97288152D01*
X164524404Y-97288152D02*
X164476785Y-97335771D01*
X164476785Y-97335771D02*
X164381547Y-97383390D01*
X164381547Y-97383390D02*
X164191071Y-97383390D01*
X164191071Y-97383390D02*
X164095833Y-97431009D01*
X164095833Y-97431009D02*
X164048214Y-97478628D01*
X164048214Y-97478628D02*
X164000595Y-97573866D01*
X164000595Y-97573866D02*
X164000595Y-97764342D01*
X164000595Y-97764342D02*
X164048214Y-97859580D01*
X164048214Y-97859580D02*
X164095833Y-97907200D01*
X164095833Y-97907200D02*
X164191071Y-97954819D01*
X164191071Y-97954819D02*
X164381547Y-97954819D01*
X164381547Y-97954819D02*
X164476785Y-97907200D01*
X164476785Y-97907200D02*
X164524404Y-97859580D01*
X164524404Y-97859580D02*
X164572023Y-97764342D01*
X164572023Y-97764342D02*
X164572023Y-97573866D01*
X164572023Y-97573866D02*
X164524404Y-97478628D01*
X164524404Y-97478628D02*
X164476785Y-97431009D01*
X164476785Y-97431009D02*
X164381547Y-97383390D01*
X188257142Y-111189580D02*
X188209523Y-111237200D01*
X188209523Y-111237200D02*
X188066666Y-111284819D01*
X188066666Y-111284819D02*
X187971428Y-111284819D01*
X187971428Y-111284819D02*
X187828571Y-111237200D01*
X187828571Y-111237200D02*
X187733333Y-111141961D01*
X187733333Y-111141961D02*
X187685714Y-111046723D01*
X187685714Y-111046723D02*
X187638095Y-110856247D01*
X187638095Y-110856247D02*
X187638095Y-110713390D01*
X187638095Y-110713390D02*
X187685714Y-110522914D01*
X187685714Y-110522914D02*
X187733333Y-110427676D01*
X187733333Y-110427676D02*
X187828571Y-110332438D01*
X187828571Y-110332438D02*
X187971428Y-110284819D01*
X187971428Y-110284819D02*
X188066666Y-110284819D01*
X188066666Y-110284819D02*
X188209523Y-110332438D01*
X188209523Y-110332438D02*
X188257142Y-110380057D01*
X189209523Y-111284819D02*
X188638095Y-111284819D01*
X188923809Y-111284819D02*
X188923809Y-110284819D01*
X188923809Y-110284819D02*
X188828571Y-110427676D01*
X188828571Y-110427676D02*
X188733333Y-110522914D01*
X188733333Y-110522914D02*
X188638095Y-110570533D01*
X190066666Y-110618152D02*
X190066666Y-111284819D01*
X189828571Y-110237200D02*
X189590476Y-110951485D01*
X189590476Y-110951485D02*
X190209523Y-110951485D01*
X176957142Y-119859580D02*
X176909523Y-119907200D01*
X176909523Y-119907200D02*
X176766666Y-119954819D01*
X176766666Y-119954819D02*
X176671428Y-119954819D01*
X176671428Y-119954819D02*
X176528571Y-119907200D01*
X176528571Y-119907200D02*
X176433333Y-119811961D01*
X176433333Y-119811961D02*
X176385714Y-119716723D01*
X176385714Y-119716723D02*
X176338095Y-119526247D01*
X176338095Y-119526247D02*
X176338095Y-119383390D01*
X176338095Y-119383390D02*
X176385714Y-119192914D01*
X176385714Y-119192914D02*
X176433333Y-119097676D01*
X176433333Y-119097676D02*
X176528571Y-119002438D01*
X176528571Y-119002438D02*
X176671428Y-118954819D01*
X176671428Y-118954819D02*
X176766666Y-118954819D01*
X176766666Y-118954819D02*
X176909523Y-119002438D01*
X176909523Y-119002438D02*
X176957142Y-119050057D01*
X177909523Y-119954819D02*
X177338095Y-119954819D01*
X177623809Y-119954819D02*
X177623809Y-118954819D01*
X177623809Y-118954819D02*
X177528571Y-119097676D01*
X177528571Y-119097676D02*
X177433333Y-119192914D01*
X177433333Y-119192914D02*
X177338095Y-119240533D01*
X178242857Y-118954819D02*
X178861904Y-118954819D01*
X178861904Y-118954819D02*
X178528571Y-119335771D01*
X178528571Y-119335771D02*
X178671428Y-119335771D01*
X178671428Y-119335771D02*
X178766666Y-119383390D01*
X178766666Y-119383390D02*
X178814285Y-119431009D01*
X178814285Y-119431009D02*
X178861904Y-119526247D01*
X178861904Y-119526247D02*
X178861904Y-119764342D01*
X178861904Y-119764342D02*
X178814285Y-119859580D01*
X178814285Y-119859580D02*
X178766666Y-119907200D01*
X178766666Y-119907200D02*
X178671428Y-119954819D01*
X178671428Y-119954819D02*
X178385714Y-119954819D01*
X178385714Y-119954819D02*
X178290476Y-119907200D01*
X178290476Y-119907200D02*
X178242857Y-119859580D01*
X158933333Y-102654819D02*
X158600000Y-102178628D01*
X158361905Y-102654819D02*
X158361905Y-101654819D01*
X158361905Y-101654819D02*
X158742857Y-101654819D01*
X158742857Y-101654819D02*
X158838095Y-101702438D01*
X158838095Y-101702438D02*
X158885714Y-101750057D01*
X158885714Y-101750057D02*
X158933333Y-101845295D01*
X158933333Y-101845295D02*
X158933333Y-101988152D01*
X158933333Y-101988152D02*
X158885714Y-102083390D01*
X158885714Y-102083390D02*
X158838095Y-102131009D01*
X158838095Y-102131009D02*
X158742857Y-102178628D01*
X158742857Y-102178628D02*
X158361905Y-102178628D01*
X159790476Y-101988152D02*
X159790476Y-102654819D01*
X159552381Y-101607200D02*
X159314286Y-102321485D01*
X159314286Y-102321485D02*
X159933333Y-102321485D01*
X162357142Y-108204819D02*
X162023809Y-107728628D01*
X161785714Y-108204819D02*
X161785714Y-107204819D01*
X161785714Y-107204819D02*
X162166666Y-107204819D01*
X162166666Y-107204819D02*
X162261904Y-107252438D01*
X162261904Y-107252438D02*
X162309523Y-107300057D01*
X162309523Y-107300057D02*
X162357142Y-107395295D01*
X162357142Y-107395295D02*
X162357142Y-107538152D01*
X162357142Y-107538152D02*
X162309523Y-107633390D01*
X162309523Y-107633390D02*
X162261904Y-107681009D01*
X162261904Y-107681009D02*
X162166666Y-107728628D01*
X162166666Y-107728628D02*
X161785714Y-107728628D01*
X163309523Y-108204819D02*
X162738095Y-108204819D01*
X163023809Y-108204819D02*
X163023809Y-107204819D01*
X163023809Y-107204819D02*
X162928571Y-107347676D01*
X162928571Y-107347676D02*
X162833333Y-107442914D01*
X162833333Y-107442914D02*
X162738095Y-107490533D01*
X163690476Y-107300057D02*
X163738095Y-107252438D01*
X163738095Y-107252438D02*
X163833333Y-107204819D01*
X163833333Y-107204819D02*
X164071428Y-107204819D01*
X164071428Y-107204819D02*
X164166666Y-107252438D01*
X164166666Y-107252438D02*
X164214285Y-107300057D01*
X164214285Y-107300057D02*
X164261904Y-107395295D01*
X164261904Y-107395295D02*
X164261904Y-107490533D01*
X164261904Y-107490533D02*
X164214285Y-107633390D01*
X164214285Y-107633390D02*
X163642857Y-108204819D01*
X163642857Y-108204819D02*
X164261904Y-108204819D01*
X112044819Y-78261904D02*
X112854342Y-78261904D01*
X112854342Y-78261904D02*
X112949580Y-78214285D01*
X112949580Y-78214285D02*
X112997200Y-78166666D01*
X112997200Y-78166666D02*
X113044819Y-78071428D01*
X113044819Y-78071428D02*
X113044819Y-77880952D01*
X113044819Y-77880952D02*
X112997200Y-77785714D01*
X112997200Y-77785714D02*
X112949580Y-77738095D01*
X112949580Y-77738095D02*
X112854342Y-77690476D01*
X112854342Y-77690476D02*
X112044819Y-77690476D01*
X113044819Y-77166666D02*
X113044819Y-76976190D01*
X113044819Y-76976190D02*
X112997200Y-76880952D01*
X112997200Y-76880952D02*
X112949580Y-76833333D01*
X112949580Y-76833333D02*
X112806723Y-76738095D01*
X112806723Y-76738095D02*
X112616247Y-76690476D01*
X112616247Y-76690476D02*
X112235295Y-76690476D01*
X112235295Y-76690476D02*
X112140057Y-76738095D01*
X112140057Y-76738095D02*
X112092438Y-76785714D01*
X112092438Y-76785714D02*
X112044819Y-76880952D01*
X112044819Y-76880952D02*
X112044819Y-77071428D01*
X112044819Y-77071428D02*
X112092438Y-77166666D01*
X112092438Y-77166666D02*
X112140057Y-77214285D01*
X112140057Y-77214285D02*
X112235295Y-77261904D01*
X112235295Y-77261904D02*
X112473390Y-77261904D01*
X112473390Y-77261904D02*
X112568628Y-77214285D01*
X112568628Y-77214285D02*
X112616247Y-77166666D01*
X112616247Y-77166666D02*
X112663866Y-77071428D01*
X112663866Y-77071428D02*
X112663866Y-76880952D01*
X112663866Y-76880952D02*
X112616247Y-76785714D01*
X112616247Y-76785714D02*
X112568628Y-76738095D01*
X112568628Y-76738095D02*
X112473390Y-76690476D01*
X147354819Y-102142857D02*
X146878628Y-102476190D01*
X147354819Y-102714285D02*
X146354819Y-102714285D01*
X146354819Y-102714285D02*
X146354819Y-102333333D01*
X146354819Y-102333333D02*
X146402438Y-102238095D01*
X146402438Y-102238095D02*
X146450057Y-102190476D01*
X146450057Y-102190476D02*
X146545295Y-102142857D01*
X146545295Y-102142857D02*
X146688152Y-102142857D01*
X146688152Y-102142857D02*
X146783390Y-102190476D01*
X146783390Y-102190476D02*
X146831009Y-102238095D01*
X146831009Y-102238095D02*
X146878628Y-102333333D01*
X146878628Y-102333333D02*
X146878628Y-102714285D01*
X147354819Y-101190476D02*
X147354819Y-101761904D01*
X147354819Y-101476190D02*
X146354819Y-101476190D01*
X146354819Y-101476190D02*
X146497676Y-101571428D01*
X146497676Y-101571428D02*
X146592914Y-101666666D01*
X146592914Y-101666666D02*
X146640533Y-101761904D01*
X146783390Y-100619047D02*
X146735771Y-100714285D01*
X146735771Y-100714285D02*
X146688152Y-100761904D01*
X146688152Y-100761904D02*
X146592914Y-100809523D01*
X146592914Y-100809523D02*
X146545295Y-100809523D01*
X146545295Y-100809523D02*
X146450057Y-100761904D01*
X146450057Y-100761904D02*
X146402438Y-100714285D01*
X146402438Y-100714285D02*
X146354819Y-100619047D01*
X146354819Y-100619047D02*
X146354819Y-100428571D01*
X146354819Y-100428571D02*
X146402438Y-100333333D01*
X146402438Y-100333333D02*
X146450057Y-100285714D01*
X146450057Y-100285714D02*
X146545295Y-100238095D01*
X146545295Y-100238095D02*
X146592914Y-100238095D01*
X146592914Y-100238095D02*
X146688152Y-100285714D01*
X146688152Y-100285714D02*
X146735771Y-100333333D01*
X146735771Y-100333333D02*
X146783390Y-100428571D01*
X146783390Y-100428571D02*
X146783390Y-100619047D01*
X146783390Y-100619047D02*
X146831009Y-100714285D01*
X146831009Y-100714285D02*
X146878628Y-100761904D01*
X146878628Y-100761904D02*
X146973866Y-100809523D01*
X146973866Y-100809523D02*
X147164342Y-100809523D01*
X147164342Y-100809523D02*
X147259580Y-100761904D01*
X147259580Y-100761904D02*
X147307200Y-100714285D01*
X147307200Y-100714285D02*
X147354819Y-100619047D01*
X147354819Y-100619047D02*
X147354819Y-100428571D01*
X147354819Y-100428571D02*
X147307200Y-100333333D01*
X147307200Y-100333333D02*
X147259580Y-100285714D01*
X147259580Y-100285714D02*
X147164342Y-100238095D01*
X147164342Y-100238095D02*
X146973866Y-100238095D01*
X146973866Y-100238095D02*
X146878628Y-100285714D01*
X146878628Y-100285714D02*
X146831009Y-100333333D01*
X146831009Y-100333333D02*
X146783390Y-100428571D01*
X161145180Y-104198095D02*
X160335657Y-104198095D01*
X160335657Y-104198095D02*
X160240419Y-104245714D01*
X160240419Y-104245714D02*
X160192800Y-104293333D01*
X160192800Y-104293333D02*
X160145180Y-104388571D01*
X160145180Y-104388571D02*
X160145180Y-104579047D01*
X160145180Y-104579047D02*
X160192800Y-104674285D01*
X160192800Y-104674285D02*
X160240419Y-104721904D01*
X160240419Y-104721904D02*
X160335657Y-104769523D01*
X160335657Y-104769523D02*
X161145180Y-104769523D01*
X160145180Y-105769523D02*
X160145180Y-105198095D01*
X160145180Y-105483809D02*
X161145180Y-105483809D01*
X161145180Y-105483809D02*
X161002323Y-105388571D01*
X161002323Y-105388571D02*
X160907085Y-105293333D01*
X160907085Y-105293333D02*
X160859466Y-105198095D01*
X117666667Y-119457200D02*
X117809524Y-119504819D01*
X117809524Y-119504819D02*
X118047619Y-119504819D01*
X118047619Y-119504819D02*
X118142857Y-119457200D01*
X118142857Y-119457200D02*
X118190476Y-119409580D01*
X118190476Y-119409580D02*
X118238095Y-119314342D01*
X118238095Y-119314342D02*
X118238095Y-119219104D01*
X118238095Y-119219104D02*
X118190476Y-119123866D01*
X118190476Y-119123866D02*
X118142857Y-119076247D01*
X118142857Y-119076247D02*
X118047619Y-119028628D01*
X118047619Y-119028628D02*
X117857143Y-118981009D01*
X117857143Y-118981009D02*
X117761905Y-118933390D01*
X117761905Y-118933390D02*
X117714286Y-118885771D01*
X117714286Y-118885771D02*
X117666667Y-118790533D01*
X117666667Y-118790533D02*
X117666667Y-118695295D01*
X117666667Y-118695295D02*
X117714286Y-118600057D01*
X117714286Y-118600057D02*
X117761905Y-118552438D01*
X117761905Y-118552438D02*
X117857143Y-118504819D01*
X117857143Y-118504819D02*
X118095238Y-118504819D01*
X118095238Y-118504819D02*
X118238095Y-118552438D01*
X118571429Y-118504819D02*
X118809524Y-119504819D01*
X118809524Y-119504819D02*
X119000000Y-118790533D01*
X119000000Y-118790533D02*
X119190476Y-119504819D01*
X119190476Y-119504819D02*
X119428572Y-118504819D01*
X120238095Y-118504819D02*
X120047619Y-118504819D01*
X120047619Y-118504819D02*
X119952381Y-118552438D01*
X119952381Y-118552438D02*
X119904762Y-118600057D01*
X119904762Y-118600057D02*
X119809524Y-118742914D01*
X119809524Y-118742914D02*
X119761905Y-118933390D01*
X119761905Y-118933390D02*
X119761905Y-119314342D01*
X119761905Y-119314342D02*
X119809524Y-119409580D01*
X119809524Y-119409580D02*
X119857143Y-119457200D01*
X119857143Y-119457200D02*
X119952381Y-119504819D01*
X119952381Y-119504819D02*
X120142857Y-119504819D01*
X120142857Y-119504819D02*
X120238095Y-119457200D01*
X120238095Y-119457200D02*
X120285714Y-119409580D01*
X120285714Y-119409580D02*
X120333333Y-119314342D01*
X120333333Y-119314342D02*
X120333333Y-119076247D01*
X120333333Y-119076247D02*
X120285714Y-118981009D01*
X120285714Y-118981009D02*
X120238095Y-118933390D01*
X120238095Y-118933390D02*
X120142857Y-118885771D01*
X120142857Y-118885771D02*
X119952381Y-118885771D01*
X119952381Y-118885771D02*
X119857143Y-118933390D01*
X119857143Y-118933390D02*
X119809524Y-118981009D01*
X119809524Y-118981009D02*
X119761905Y-119076247D01*
X163657142Y-105759580D02*
X163609523Y-105807200D01*
X163609523Y-105807200D02*
X163466666Y-105854819D01*
X163466666Y-105854819D02*
X163371428Y-105854819D01*
X163371428Y-105854819D02*
X163228571Y-105807200D01*
X163228571Y-105807200D02*
X163133333Y-105711961D01*
X163133333Y-105711961D02*
X163085714Y-105616723D01*
X163085714Y-105616723D02*
X163038095Y-105426247D01*
X163038095Y-105426247D02*
X163038095Y-105283390D01*
X163038095Y-105283390D02*
X163085714Y-105092914D01*
X163085714Y-105092914D02*
X163133333Y-104997676D01*
X163133333Y-104997676D02*
X163228571Y-104902438D01*
X163228571Y-104902438D02*
X163371428Y-104854819D01*
X163371428Y-104854819D02*
X163466666Y-104854819D01*
X163466666Y-104854819D02*
X163609523Y-104902438D01*
X163609523Y-104902438D02*
X163657142Y-104950057D01*
X164609523Y-105854819D02*
X164038095Y-105854819D01*
X164323809Y-105854819D02*
X164323809Y-104854819D01*
X164323809Y-104854819D02*
X164228571Y-104997676D01*
X164228571Y-104997676D02*
X164133333Y-105092914D01*
X164133333Y-105092914D02*
X164038095Y-105140533D01*
X164942857Y-104854819D02*
X165609523Y-104854819D01*
X165609523Y-104854819D02*
X165180952Y-105854819D01*
X140916666Y-78614819D02*
X140916666Y-79329104D01*
X140916666Y-79329104D02*
X140869047Y-79471961D01*
X140869047Y-79471961D02*
X140773809Y-79567200D01*
X140773809Y-79567200D02*
X140630952Y-79614819D01*
X140630952Y-79614819D02*
X140535714Y-79614819D01*
X141297619Y-78614819D02*
X141916666Y-78614819D01*
X141916666Y-78614819D02*
X141583333Y-78995771D01*
X141583333Y-78995771D02*
X141726190Y-78995771D01*
X141726190Y-78995771D02*
X141821428Y-79043390D01*
X141821428Y-79043390D02*
X141869047Y-79091009D01*
X141869047Y-79091009D02*
X141916666Y-79186247D01*
X141916666Y-79186247D02*
X141916666Y-79424342D01*
X141916666Y-79424342D02*
X141869047Y-79519580D01*
X141869047Y-79519580D02*
X141821428Y-79567200D01*
X141821428Y-79567200D02*
X141726190Y-79614819D01*
X141726190Y-79614819D02*
X141440476Y-79614819D01*
X141440476Y-79614819D02*
X141345238Y-79567200D01*
X141345238Y-79567200D02*
X141297619Y-79519580D01*
X139154819Y-116966666D02*
X138678628Y-117299999D01*
X139154819Y-117538094D02*
X138154819Y-117538094D01*
X138154819Y-117538094D02*
X138154819Y-117157142D01*
X138154819Y-117157142D02*
X138202438Y-117061904D01*
X138202438Y-117061904D02*
X138250057Y-117014285D01*
X138250057Y-117014285D02*
X138345295Y-116966666D01*
X138345295Y-116966666D02*
X138488152Y-116966666D01*
X138488152Y-116966666D02*
X138583390Y-117014285D01*
X138583390Y-117014285D02*
X138631009Y-117061904D01*
X138631009Y-117061904D02*
X138678628Y-117157142D01*
X138678628Y-117157142D02*
X138678628Y-117538094D01*
X138250057Y-116585713D02*
X138202438Y-116538094D01*
X138202438Y-116538094D02*
X138154819Y-116442856D01*
X138154819Y-116442856D02*
X138154819Y-116204761D01*
X138154819Y-116204761D02*
X138202438Y-116109523D01*
X138202438Y-116109523D02*
X138250057Y-116061904D01*
X138250057Y-116061904D02*
X138345295Y-116014285D01*
X138345295Y-116014285D02*
X138440533Y-116014285D01*
X138440533Y-116014285D02*
X138583390Y-116061904D01*
X138583390Y-116061904D02*
X139154819Y-116633332D01*
X139154819Y-116633332D02*
X139154819Y-116014285D01*
X160733333Y-121644819D02*
X160400000Y-121168628D01*
X160161905Y-121644819D02*
X160161905Y-120644819D01*
X160161905Y-120644819D02*
X160542857Y-120644819D01*
X160542857Y-120644819D02*
X160638095Y-120692438D01*
X160638095Y-120692438D02*
X160685714Y-120740057D01*
X160685714Y-120740057D02*
X160733333Y-120835295D01*
X160733333Y-120835295D02*
X160733333Y-120978152D01*
X160733333Y-120978152D02*
X160685714Y-121073390D01*
X160685714Y-121073390D02*
X160638095Y-121121009D01*
X160638095Y-121121009D02*
X160542857Y-121168628D01*
X160542857Y-121168628D02*
X160161905Y-121168628D01*
X161590476Y-120644819D02*
X161400000Y-120644819D01*
X161400000Y-120644819D02*
X161304762Y-120692438D01*
X161304762Y-120692438D02*
X161257143Y-120740057D01*
X161257143Y-120740057D02*
X161161905Y-120882914D01*
X161161905Y-120882914D02*
X161114286Y-121073390D01*
X161114286Y-121073390D02*
X161114286Y-121454342D01*
X161114286Y-121454342D02*
X161161905Y-121549580D01*
X161161905Y-121549580D02*
X161209524Y-121597200D01*
X161209524Y-121597200D02*
X161304762Y-121644819D01*
X161304762Y-121644819D02*
X161495238Y-121644819D01*
X161495238Y-121644819D02*
X161590476Y-121597200D01*
X161590476Y-121597200D02*
X161638095Y-121549580D01*
X161638095Y-121549580D02*
X161685714Y-121454342D01*
X161685714Y-121454342D02*
X161685714Y-121216247D01*
X161685714Y-121216247D02*
X161638095Y-121121009D01*
X161638095Y-121121009D02*
X161590476Y-121073390D01*
X161590476Y-121073390D02*
X161495238Y-121025771D01*
X161495238Y-121025771D02*
X161304762Y-121025771D01*
X161304762Y-121025771D02*
X161209524Y-121073390D01*
X161209524Y-121073390D02*
X161161905Y-121121009D01*
X161161905Y-121121009D02*
X161114286Y-121216247D01*
X130832142Y-104199580D02*
X130784523Y-104247200D01*
X130784523Y-104247200D02*
X130641666Y-104294819D01*
X130641666Y-104294819D02*
X130546428Y-104294819D01*
X130546428Y-104294819D02*
X130403571Y-104247200D01*
X130403571Y-104247200D02*
X130308333Y-104151961D01*
X130308333Y-104151961D02*
X130260714Y-104056723D01*
X130260714Y-104056723D02*
X130213095Y-103866247D01*
X130213095Y-103866247D02*
X130213095Y-103723390D01*
X130213095Y-103723390D02*
X130260714Y-103532914D01*
X130260714Y-103532914D02*
X130308333Y-103437676D01*
X130308333Y-103437676D02*
X130403571Y-103342438D01*
X130403571Y-103342438D02*
X130546428Y-103294819D01*
X130546428Y-103294819D02*
X130641666Y-103294819D01*
X130641666Y-103294819D02*
X130784523Y-103342438D01*
X130784523Y-103342438D02*
X130832142Y-103390057D01*
X131784523Y-104294819D02*
X131213095Y-104294819D01*
X131498809Y-104294819D02*
X131498809Y-103294819D01*
X131498809Y-103294819D02*
X131403571Y-103437676D01*
X131403571Y-103437676D02*
X131308333Y-103532914D01*
X131308333Y-103532914D02*
X131213095Y-103580533D01*
X132736904Y-104294819D02*
X132165476Y-104294819D01*
X132451190Y-104294819D02*
X132451190Y-103294819D01*
X132451190Y-103294819D02*
X132355952Y-103437676D01*
X132355952Y-103437676D02*
X132260714Y-103532914D01*
X132260714Y-103532914D02*
X132165476Y-103580533D01*
X131619047Y-122131009D02*
X131761904Y-122178628D01*
X131761904Y-122178628D02*
X131809523Y-122226247D01*
X131809523Y-122226247D02*
X131857142Y-122321485D01*
X131857142Y-122321485D02*
X131857142Y-122464342D01*
X131857142Y-122464342D02*
X131809523Y-122559580D01*
X131809523Y-122559580D02*
X131761904Y-122607200D01*
X131761904Y-122607200D02*
X131666666Y-122654819D01*
X131666666Y-122654819D02*
X131285714Y-122654819D01*
X131285714Y-122654819D02*
X131285714Y-121654819D01*
X131285714Y-121654819D02*
X131619047Y-121654819D01*
X131619047Y-121654819D02*
X131714285Y-121702438D01*
X131714285Y-121702438D02*
X131761904Y-121750057D01*
X131761904Y-121750057D02*
X131809523Y-121845295D01*
X131809523Y-121845295D02*
X131809523Y-121940533D01*
X131809523Y-121940533D02*
X131761904Y-122035771D01*
X131761904Y-122035771D02*
X131714285Y-122083390D01*
X131714285Y-122083390D02*
X131619047Y-122131009D01*
X131619047Y-122131009D02*
X131285714Y-122131009D01*
X132190476Y-121654819D02*
X132857142Y-121654819D01*
X132857142Y-121654819D02*
X132190476Y-122654819D01*
X132190476Y-122654819D02*
X132857142Y-122654819D01*
X133761904Y-122654819D02*
X133190476Y-122654819D01*
X133476190Y-122654819D02*
X133476190Y-121654819D01*
X133476190Y-121654819D02*
X133380952Y-121797676D01*
X133380952Y-121797676D02*
X133285714Y-121892914D01*
X133285714Y-121892914D02*
X133190476Y-121940533D01*
X135929048Y-117613866D02*
X136690953Y-117613866D01*
X136310000Y-117994819D02*
X136310000Y-117232914D01*
D11*
%TO.C,SW8*%
X172800000Y-116550000D02*
X172800000Y-116450000D01*
X172800000Y-118050000D02*
X177200000Y-118050000D01*
X177200000Y-114950000D02*
X172800000Y-114950000D01*
X177200000Y-116550000D02*
X177200000Y-116450000D01*
%TO.C,SW4*%
X179800000Y-111550000D02*
X179800000Y-111450000D01*
X179800000Y-113050000D02*
X184200000Y-113050000D01*
X184200000Y-109950000D02*
X179800000Y-109950000D01*
X184200000Y-111550000D02*
X184200000Y-111450000D01*
%TO.C,SW2*%
X133850000Y-105750000D02*
X133850000Y-105850000D01*
X133850000Y-107350000D02*
X138250000Y-107350000D01*
X138250000Y-104250000D02*
X133850000Y-104250000D01*
X138250000Y-105750000D02*
X138250000Y-105850000D01*
%TO.C,U4*%
X155440000Y-82627500D02*
X155440000Y-82142500D01*
X155440000Y-87122500D02*
X155440000Y-86397500D01*
X156165000Y-81902500D02*
X155740000Y-81902500D01*
X156165000Y-87122500D02*
X155440000Y-87122500D01*
X159935000Y-81902500D02*
X160660000Y-81902500D01*
X159935000Y-87122500D02*
X160660000Y-87122500D01*
X160660000Y-81902500D02*
X160660000Y-82627500D01*
X160660000Y-87122500D02*
X160660000Y-86397500D01*
X155440000Y-81902500D02*
X155200000Y-81572500D01*
X155680000Y-81572500D01*
X155440000Y-81902500D01*
G36*
X155440000Y-81902500D02*
G01*
X155200000Y-81572500D01*
X155680000Y-81572500D01*
X155440000Y-81902500D01*
G37*
%TO.C,D1*%
X147465000Y-98102500D02*
X147465000Y-100387500D01*
X148935000Y-98102500D02*
X147465000Y-98102500D01*
X148935000Y-100387500D02*
X148935000Y-98102500D01*
%TO.C,SW7*%
X172800000Y-106550000D02*
X172800000Y-106450000D01*
X172800000Y-108050000D02*
X177200000Y-108050000D01*
X177200000Y-104950000D02*
X172800000Y-104950000D01*
X177200000Y-106550000D02*
X177200000Y-106450000D01*
%TO.C,C12*%
X189790000Y-122259420D02*
X189790000Y-122540580D01*
X190810000Y-122259420D02*
X190810000Y-122540580D01*
%TO.C,SW3*%
X172800000Y-111550000D02*
X172800000Y-111450000D01*
X172800000Y-113050000D02*
X177200000Y-113050000D01*
X177200000Y-109950000D02*
X172800000Y-109950000D01*
X177200000Y-111550000D02*
X177200000Y-111450000D01*
%TO.C,C2*%
X136940000Y-85192164D02*
X136940000Y-85407836D01*
X137660000Y-85192164D02*
X137660000Y-85407836D01*
%TO.C,C15*%
X197690000Y-101615580D02*
X197690000Y-101334420D01*
X198710000Y-101615580D02*
X198710000Y-101334420D01*
%TO.C,SW10*%
X116800000Y-116250000D02*
X116800000Y-116150000D01*
X116800000Y-117750000D02*
X121200000Y-117750000D01*
X121200000Y-114650000D02*
X116800000Y-114650000D01*
X121200000Y-116250000D02*
X121200000Y-116150000D01*
%TO.C,SW5*%
X165750000Y-111550000D02*
X165750000Y-111450000D01*
X165750000Y-113050000D02*
X170150000Y-113050000D01*
X170150000Y-109950000D02*
X165750000Y-109950000D01*
X170150000Y-111550000D02*
X170150000Y-111450000D01*
D12*
%TO.C,U2*%
X134637500Y-101362500D02*
X134637500Y-101142500D01*
X134637500Y-101362500D02*
X135357500Y-101362500D01*
X134837500Y-98662500D02*
X135357500Y-98662500D01*
X137117500Y-98662500D02*
X137837500Y-98662500D01*
X137837500Y-98662500D02*
X137837500Y-98882500D01*
X137837500Y-101142500D02*
X137837500Y-101362500D01*
X137837500Y-101362500D02*
X137117500Y-101362500D01*
X134637500Y-98662500D02*
X134277500Y-98662500D01*
X134637500Y-98302500D01*
X134637500Y-98662500D01*
G36*
X134637500Y-98662500D02*
G01*
X134277500Y-98662500D01*
X134637500Y-98302500D01*
X134637500Y-98662500D01*
G37*
D11*
%TO.C,U5*%
X176090000Y-78830000D02*
X176090000Y-77500000D01*
X177420000Y-78830000D02*
X176090000Y-78830000D01*
X178690000Y-76170000D02*
X186370000Y-76170000D01*
X178690000Y-78830000D02*
X178690000Y-76170000D01*
X178690000Y-78830000D02*
X186370000Y-78830000D01*
X186370000Y-78830000D02*
X186370000Y-76170000D01*
%TO.C,J1*%
X151690000Y-78160000D02*
X151690000Y-70440000D01*
X152225000Y-76069000D02*
X152354000Y-75941000D01*
X152430000Y-76275000D02*
X152524000Y-76181000D01*
X154475000Y-73819000D02*
X154569000Y-73726000D01*
X154645000Y-74059000D02*
X154774000Y-73931000D01*
X155725000Y-76069000D02*
X155854000Y-75941000D01*
X155930000Y-76275000D02*
X156024000Y-76181000D01*
X157975000Y-73819000D02*
X158069000Y-73726000D01*
X158145000Y-74059000D02*
X158274000Y-73931000D01*
X159225000Y-76069000D02*
X159354000Y-75941000D01*
X159430000Y-76275000D02*
X159524000Y-76181000D01*
X161475000Y-73819000D02*
X161569000Y-73726000D01*
X161645000Y-74059000D02*
X161774000Y-73931000D01*
X165810000Y-70440000D02*
X151690000Y-70440000D01*
X165810000Y-70900000D02*
X151690000Y-70900000D01*
X165810000Y-72000000D02*
X151690000Y-72000000D01*
X165810000Y-78160000D02*
X151690000Y-78160000D01*
X165810000Y-78160000D02*
X165810000Y-70440000D01*
X166050000Y-70200000D02*
X165650000Y-70200000D01*
X166050000Y-70840000D02*
X166050000Y-70200000D01*
X162574496Y-75890193D02*
G75*
G02*
X162575000Y-74109000I1425507J890193D01*
G01*
X163109736Y-73575279D02*
G75*
G02*
X164000000Y-73320000I890261J-1424711D01*
G01*
X163971326Y-73319901D02*
G75*
G02*
X164866000Y-73560000I28671J-1680113D01*
G01*
X164889894Y-76425358D02*
G75*
G02*
X163134000Y-76440000I-889894J1425356D01*
G01*
X165425358Y-74110106D02*
G75*
G02*
X165440000Y-75866000I-1425356J-889894D01*
G01*
X155180000Y-75000000D02*
G75*
G02*
X151820000Y-75000000I-1680000J0D01*
G01*
X151820000Y-75000000D02*
G75*
G02*
X155180000Y-75000000I1680000J0D01*
G01*
X158680000Y-75000000D02*
G75*
G02*
X155320000Y-75000000I-1680000J0D01*
G01*
X155320000Y-75000000D02*
G75*
G02*
X158680000Y-75000000I1680000J0D01*
G01*
X162180000Y-75000000D02*
G75*
G02*
X158820000Y-75000000I-1680000J0D01*
G01*
X158820000Y-75000000D02*
G75*
G02*
X162180000Y-75000000I1680000J0D01*
G01*
%TO.C,P1*%
X177030000Y-125870000D02*
X177030000Y-124460000D01*
X177850000Y-121790000D02*
X177850000Y-121940000D01*
X178650000Y-121790000D02*
X177850000Y-121790000D01*
X186190000Y-125870000D02*
X186190000Y-124460000D01*
%TO.C,SW11*%
X109800000Y-121550000D02*
X109800000Y-121450000D01*
X109800000Y-123050000D02*
X114200000Y-123050000D01*
X114200000Y-119950000D02*
X109800000Y-119950000D01*
X114200000Y-121550000D02*
X114200000Y-121450000D01*
%TO.C,U6*%
X185250000Y-113590000D02*
X189010000Y-113590000D01*
X185250000Y-120410000D02*
X189010000Y-120410000D01*
X189010000Y-113590000D02*
X189010000Y-114850000D01*
X189010000Y-120410000D02*
X189010000Y-119150000D01*
X183970000Y-113690000D02*
X183730000Y-113360000D01*
X184210000Y-113360000D01*
X183970000Y-113690000D01*
G36*
X183970000Y-113690000D02*
G01*
X183730000Y-113360000D01*
X184210000Y-113360000D01*
X183970000Y-113690000D01*
G37*
%TO.C,C19*%
X169340000Y-99512164D02*
X169340000Y-99727836D01*
X170060000Y-99512164D02*
X170060000Y-99727836D01*
%TO.C,C4*%
X153340000Y-85192164D02*
X153340000Y-85407836D01*
X154060000Y-85192164D02*
X154060000Y-85407836D01*
%TO.C,U3*%
X138927500Y-82615000D02*
X138927500Y-82130000D01*
X138927500Y-87110000D02*
X138927500Y-86385000D01*
X139652500Y-81890000D02*
X139227500Y-81890000D01*
X139652500Y-87110000D02*
X138927500Y-87110000D01*
X143422500Y-81890000D02*
X144147500Y-81890000D01*
X143422500Y-87110000D02*
X144147500Y-87110000D01*
X144147500Y-81890000D02*
X144147500Y-82615000D01*
X144147500Y-87110000D02*
X144147500Y-86385000D01*
X138927500Y-81890000D02*
X138687500Y-81560000D01*
X139167500Y-81560000D01*
X138927500Y-81890000D01*
G36*
X138927500Y-81890000D02*
G01*
X138687500Y-81560000D01*
X139167500Y-81560000D01*
X138927500Y-81890000D01*
G37*
%TO.C,BT1*%
X192140000Y-113290000D02*
X199860000Y-113290000D01*
X192140000Y-120410000D02*
X192140000Y-113290000D01*
X192140000Y-120410000D02*
X199860000Y-120410000D01*
X194025000Y-114030000D02*
X194119000Y-114124000D01*
X194231000Y-113825000D02*
X194359000Y-113954000D01*
X196241000Y-116245000D02*
X196369000Y-116374000D01*
X196481000Y-116075000D02*
X196574000Y-116169000D01*
X198300000Y-120410000D02*
X198300000Y-113290000D01*
X199400000Y-120410000D02*
X199400000Y-113290000D01*
X199460000Y-120650000D02*
X200100000Y-120650000D01*
X199860000Y-120410000D02*
X199860000Y-113290000D01*
X200100000Y-120650000D02*
X200100000Y-120250000D01*
X193874642Y-119489894D02*
G75*
G02*
X193860000Y-117734000I1425356J889894D01*
G01*
X194409807Y-117174496D02*
G75*
G02*
X196191000Y-117175000I890193J-1425507D01*
G01*
X196189894Y-120025358D02*
G75*
G02*
X194434000Y-120040000I-889894J1425356D01*
G01*
X196724721Y-117709736D02*
G75*
G02*
X196980000Y-118600000I-1424711J-890261D01*
G01*
X196980099Y-118571326D02*
G75*
G02*
X196740000Y-119466000I-1680113J-28671D01*
G01*
X196980000Y-115100000D02*
G75*
G02*
X193620000Y-115100000I-1680000J0D01*
G01*
X193620000Y-115100000D02*
G75*
G02*
X196980000Y-115100000I1680000J0D01*
G01*
%TO.C,C1*%
X136940000Y-88707836D02*
X136940000Y-88492164D01*
X137660000Y-88707836D02*
X137660000Y-88492164D01*
%TO.C,C5*%
X144840580Y-99690000D02*
X144559420Y-99690000D01*
X144840580Y-100710000D02*
X144559420Y-100710000D01*
%TO.C,U7*%
X193150000Y-103590000D02*
X196910000Y-103590000D01*
X193150000Y-110410000D02*
X196910000Y-110410000D01*
X196910000Y-103590000D02*
X196910000Y-104850000D01*
X196910000Y-110410000D02*
X196910000Y-109150000D01*
X191870000Y-103690000D02*
X191630000Y-103360000D01*
X192110000Y-103360000D01*
X191870000Y-103690000D01*
G36*
X191870000Y-103690000D02*
G01*
X191630000Y-103360000D01*
X192110000Y-103360000D01*
X191870000Y-103690000D01*
G37*
%TO.C,C3*%
X152640000Y-88607836D02*
X152640000Y-88392164D01*
X153360000Y-88607836D02*
X153360000Y-88392164D01*
%TO.C,SW9*%
X109750000Y-116250000D02*
X109750000Y-116150000D01*
X109750000Y-117750000D02*
X114150000Y-117750000D01*
X114150000Y-114650000D02*
X109750000Y-114650000D01*
X114150000Y-116250000D02*
X114150000Y-116150000D01*
%TO.C,C16*%
X140640000Y-100192164D02*
X140640000Y-100407836D01*
X141360000Y-100192164D02*
X141360000Y-100407836D01*
%TO.C,C6*%
X169807836Y-118640000D02*
X169592164Y-118640000D01*
X169807836Y-119360000D02*
X169592164Y-119360000D01*
%TO.C,SW1*%
X162750000Y-119750000D02*
X162750000Y-119850000D01*
X162750000Y-121350000D02*
X167150000Y-121350000D01*
X167150000Y-118250000D02*
X162750000Y-118250000D01*
X167150000Y-119750000D02*
X167150000Y-119850000D01*
%TO.C,C18*%
X132792164Y-101940000D02*
X133007836Y-101940000D01*
X132792164Y-102660000D02*
X133007836Y-102660000D01*
D12*
%TO.C,U8*%
X162162500Y-101350000D02*
X162162500Y-101130000D01*
X162162500Y-101350000D02*
X162882500Y-101350000D01*
X162362500Y-98650000D02*
X162882500Y-98650000D01*
X164642500Y-98650000D02*
X165362500Y-98650000D01*
X165362500Y-98650000D02*
X165362500Y-98870000D01*
X165362500Y-101130000D02*
X165362500Y-101350000D01*
X165362500Y-101350000D02*
X164642500Y-101350000D01*
X162162500Y-98650000D02*
X161802500Y-98650000D01*
X162162500Y-98290000D01*
X162162500Y-98650000D01*
G36*
X162162500Y-98650000D02*
G01*
X161802500Y-98650000D01*
X162162500Y-98290000D01*
X162162500Y-98650000D01*
G37*
D11*
%TO.C,C14*%
X189040580Y-108890000D02*
X188759420Y-108890000D01*
X189040580Y-109910000D02*
X188759420Y-109910000D01*
%TO.C,C13*%
X180740580Y-118790000D02*
X180459420Y-118790000D01*
X180740580Y-119810000D02*
X180459420Y-119810000D01*
%TO.C,U9*%
X113590000Y-78830000D02*
X113590000Y-77500000D01*
X114920000Y-78830000D02*
X113590000Y-78830000D01*
X116190000Y-76170000D02*
X123870000Y-76170000D01*
X116190000Y-78830000D02*
X116190000Y-76170000D01*
X116190000Y-78830000D02*
X123870000Y-78830000D01*
X123870000Y-78830000D02*
X123870000Y-76170000D01*
%TO.C,U1*%
X140900000Y-103410000D02*
X140900000Y-104410000D01*
X140900000Y-103410000D02*
X142400000Y-103410000D01*
X140900000Y-129260000D02*
X140900000Y-123060000D01*
X159300000Y-103410000D02*
X157800000Y-103410000D01*
X159300000Y-104410000D02*
X159300000Y-103410000D01*
X159300000Y-129260000D02*
X140900000Y-129260000D01*
X159300000Y-129260000D02*
X159300000Y-123060000D01*
X159300000Y-122885000D02*
X159300000Y-122385000D01*
X159800000Y-122385000D01*
X159300000Y-122885000D01*
G36*
X159300000Y-122885000D02*
G01*
X159300000Y-122385000D01*
X159800000Y-122385000D01*
X159300000Y-122885000D01*
G37*
%TO.C,SW6*%
X116800000Y-121550000D02*
X116800000Y-121450000D01*
X116800000Y-123050000D02*
X121200000Y-123050000D01*
X121200000Y-119950000D02*
X116800000Y-119950000D01*
X121200000Y-121550000D02*
X121200000Y-121450000D01*
%TO.C,C17*%
X163807836Y-103840000D02*
X163592164Y-103840000D01*
X163807836Y-104560000D02*
X163592164Y-104560000D01*
%TO.C,J3*%
X134190000Y-78160000D02*
X134190000Y-70440000D01*
X134725000Y-76069000D02*
X134854000Y-75941000D01*
X134930000Y-76275000D02*
X135024000Y-76181000D01*
X136975000Y-73819000D02*
X137069000Y-73726000D01*
X137145000Y-74059000D02*
X137274000Y-73931000D01*
X138225000Y-76069000D02*
X138354000Y-75941000D01*
X138430000Y-76275000D02*
X138524000Y-76181000D01*
X140475000Y-73819000D02*
X140569000Y-73726000D01*
X140645000Y-74059000D02*
X140774000Y-73931000D01*
X141725000Y-76069000D02*
X141854000Y-75941000D01*
X141930000Y-76275000D02*
X142024000Y-76181000D01*
X143975000Y-73819000D02*
X144069000Y-73726000D01*
X144145000Y-74059000D02*
X144274000Y-73931000D01*
X148310000Y-70440000D02*
X134190000Y-70440000D01*
X148310000Y-70900000D02*
X134190000Y-70900000D01*
X148310000Y-72000000D02*
X134190000Y-72000000D01*
X148310000Y-78160000D02*
X134190000Y-78160000D01*
X148310000Y-78160000D02*
X148310000Y-70440000D01*
X148550000Y-70200000D02*
X148150000Y-70200000D01*
X148550000Y-70840000D02*
X148550000Y-70200000D01*
X145074496Y-75890193D02*
G75*
G02*
X145075000Y-74109000I1425507J890193D01*
G01*
X145609736Y-73575279D02*
G75*
G02*
X146500000Y-73320000I890261J-1424711D01*
G01*
X146471326Y-73319901D02*
G75*
G02*
X147366000Y-73560000I28671J-1680113D01*
G01*
X147389894Y-76425358D02*
G75*
G02*
X145634000Y-76440000I-889894J1425356D01*
G01*
X147925358Y-74110106D02*
G75*
G02*
X147940000Y-75866000I-1425356J-889894D01*
G01*
X137680000Y-75000000D02*
G75*
G02*
X134320000Y-75000000I-1680000J0D01*
G01*
X134320000Y-75000000D02*
G75*
G02*
X137680000Y-75000000I1680000J0D01*
G01*
X141180000Y-75000000D02*
G75*
G02*
X137820000Y-75000000I-1680000J0D01*
G01*
X137820000Y-75000000D02*
G75*
G02*
X141180000Y-75000000I1680000J0D01*
G01*
X144680000Y-75000000D02*
G75*
G02*
X141320000Y-75000000I-1680000J0D01*
G01*
X141320000Y-75000000D02*
G75*
G02*
X144680000Y-75000000I1680000J0D01*
G01*
%TO.C,C11*%
X131367164Y-104640000D02*
X131582836Y-104640000D01*
X131367164Y-105360000D02*
X131582836Y-105360000D01*
%TO.C,BZ1*%
X138600000Y-115000000D02*
G75*
G02*
X126400000Y-115000000I-6100000J0D01*
G01*
X126400000Y-115000000D02*
G75*
G02*
X138600000Y-115000000I6100000J0D01*
G01*
%TD*%
M02*
