M48
; DRILL file {KiCad 8.0.8-8.0.8-0~ubuntu22.04.1} date 2025-01-31T00:32:09-0500
; FORMAT={-:-/ absolute / inch / decimal}
; #@! TF.CreationDate,2025-01-31T00:32:09-05:00
; #@! TF.GenerationSoftware,Kicad,Pcbnew,8.0.8-8.0.8-0~ubuntu22.04.1
; #@! TF.FileFunction,Plated,1,2,PTH
FMAT,2
INCH
; #@! TA.AperFunction,Plated,PTH,ComponentDrill
T1C0.0079
; #@! TA.AperFunction,Plated,PTH,ViaDrill
T2C0.0118
; #@! TA.AperFunction,Plated,PTH,ComponentDrill
T3C0.0236
; #@! TA.AperFunction,Plated,PTH,ComponentDrill
T4C0.0394
; #@! TA.AperFunction,Plated,PTH,ComponentDrill
T5C0.0472
; #@! TA.AperFunction,Plated,PTH,ComponentDrill
T6C0.0709
%
G90
G05
T1
X5.9134Y-4.4567
X5.9134Y-4.5118
X5.9409Y-4.4291
X5.9409Y-4.4843
X5.9409Y-4.5394
X5.9685Y-4.4567
X5.9685Y-4.5118
X5.9961Y-4.4291
X5.9961Y-4.4843
X5.9961Y-4.5394
X6.0236Y-4.4567
X6.0236Y-4.5118
T2
X4.7008Y-3.1732
X5.2672Y-3.9326
X5.2874Y-3.8543
X5.3445Y-4.689
X5.376Y-4.0295
X5.4409Y-4.6496
X5.4567Y-3.5157
X5.4724Y-4.6063
X5.4843Y-4.752
X5.4961Y-4.4449
X5.5118Y-3.1417
X5.5157Y-3.8543
X5.5157Y-4.0276
X5.5197Y-3.4803
X5.5236Y-3.1772
X5.5502Y-3.5443
X5.5512Y-3.8228
X5.5709Y-3.4882
X5.5728Y-3.3268
X5.5935Y-3.827
X5.6142Y-4.4843
X5.622Y-4.2638
X5.624Y-3.1791
X5.6249Y-3.8257
X5.628Y-3.9114
X5.6457Y-4.1417
X5.6575Y-3.5866
X5.6614Y-3.4724
X5.6614Y-4.2087
X5.6664Y-4.1703
X5.6772Y-3.1378
X5.685Y-3.878
X5.7038Y-4.4242
X5.7047Y-4.3382
X5.7047Y-4.3898
X5.7126Y-3.378
X5.7283Y-3.2402
X5.7283Y-3.9016
X5.7441Y-3.3307
X5.7795Y-3.315
X5.8543Y-3.4843
X5.8819Y-3.5866
X5.8819Y-4.1457
X5.9213Y-3.5906
X5.9331Y-4.1457
X5.9803Y-3.815
X5.9843Y-4.1457
X6.0118Y-3.2992
X6.0157Y-3.815
X6.0315Y-4.1457
X6.0551Y-3.878
X6.0748Y-3.4606
X6.0827Y-4.1457
X6.0945Y-4.7795
X6.1024Y-3.5118
X6.1063Y-3.878
X6.1142Y-3.1457
X6.128Y-3.4528
X6.1378Y-4.1811
X6.1378Y-4.2638
X6.1732Y-3.1772
X6.1772Y-3.4803
X6.189Y-4.3189
X6.1893Y-3.5118
X6.1969Y-4.1614
X6.2047Y-3.9213
X6.2205Y-3.5787
X6.2224Y-3.3273
X6.248Y-3.4961
X6.2795Y-3.1811
X6.2795Y-3.4724
X6.3071Y-3.5787
X6.3071Y-4.0236
X6.3268Y-4.1378
X6.3268Y-4.189
X6.3465Y-3.435
X6.3465Y-3.878
X6.3484Y-3.1496
X6.3504Y-4.6614
X6.3504Y-4.7283
X6.3642Y-4.0295
X6.374Y-3.2402
X6.378Y-4.1614
X6.3819Y-4.4528
X6.3937Y-4.5472
X6.4016Y-3.3386
X6.4016Y-3.8504
X6.4016Y-3.8819
X6.4449Y-3.9449
X6.4567Y-4.378
X6.4862Y-4.6575
X6.4882Y-4.7283
X6.5039Y-3.3858
X6.5039Y-3.4724
X6.5551Y-3.435
X6.5551Y-3.6142
X6.5866Y-3.7362
X6.626Y-4.6417
X6.6654Y-3.5
X6.6929Y-3.5433
X6.7067Y-3.4587
X6.7559Y-4.2244
X6.7638Y-4.6181
X6.9803Y-4.4882
X7.0551Y-4.6024
X7.126Y-4.7441
X7.1496Y-4.7953
X7.2992Y-4.3543
X7.3228Y-4.7835
X7.4764Y-4.2126
T4
X4.5244Y-3.0512
X4.6244Y-3.0512
X4.7244Y-3.0512
X4.8244Y-3.0512
X5.0669Y-4.5276
X5.3661Y-4.5276
X6.985Y-3.0512
X7.085Y-3.0512
X7.185Y-3.0512
X7.285Y-3.0512
T5
X5.3543Y-2.9528
X5.4921Y-2.9528
X5.6299Y-2.9528
X5.7677Y-2.9528
X6.0433Y-2.9528
X6.1811Y-2.9528
X6.3189Y-2.9528
X6.4567Y-2.9528
T6
X7.7362Y-4.5276
X7.7362Y-4.7244
T3
G00X6.9882Y-4.8969
M15
G01X6.9882Y-4.8535
M16
G05
G00X6.9882Y-5.0551
M15
G01X6.9882Y-5.0236
M16
G05
G00X7.3283Y-4.8969
M15
G01X7.3283Y-4.8535
M16
G05
G00X7.3283Y-5.0551
M15
G01X7.3283Y-5.0236
M16
G05
M30
