%TF.GenerationSoftware,KiCad,Pcbnew,8.0.8-8.0.8-0~ubuntu22.04.1*%
%TF.CreationDate,2025-01-31T00:32:11-05:00*%
%TF.ProjectId,Electronics,456c6563-7472-46f6-9e69-63732e6b6963,rev?*%
%TF.SameCoordinates,Original*%
%TF.FileFunction,Soldermask,Top*%
%TF.FilePolarity,Negative*%
%FSLAX46Y46*%
G04 Gerber Fmt 4.6, Leading zero omitted, Abs format (unit mm)*
G04 Created by KiCad (PCBNEW 8.0.8-8.0.8-0~ubuntu22.04.1) date 2025-01-31 00:32:11*
%MOMM*%
%LPD*%
G01*
G04 APERTURE LIST*
G04 Aperture macros list*
%AMRoundRect*
0 Rectangle with rounded corners*
0 $1 Rounding radius*
0 $2 $3 $4 $5 $6 $7 $8 $9 X,Y pos of 4 corners*
0 Add a 4 corners polygon primitive as box body*
4,1,4,$2,$3,$4,$5,$6,$7,$8,$9,$2,$3,0*
0 Add four circle primitives for the rounded corners*
1,1,$1+$1,$2,$3*
1,1,$1+$1,$4,$5*
1,1,$1+$1,$6,$7*
1,1,$1+$1,$8,$9*
0 Add four rect primitives between the rounded corners*
20,1,$1+$1,$2,$3,$4,$5,0*
20,1,$1+$1,$4,$5,$6,$7,0*
20,1,$1+$1,$6,$7,$8,$9,0*
20,1,$1+$1,$8,$9,$2,$3,0*%
G04 Aperture macros list end*
%ADD10R,0.900000X1.000000*%
%ADD11RoundRect,0.100000X-0.100000X0.130000X-0.100000X-0.130000X0.100000X-0.130000X0.100000X0.130000X0*%
%ADD12RoundRect,0.062500X-0.325000X-0.062500X0.325000X-0.062500X0.325000X0.062500X-0.325000X0.062500X0*%
%ADD13RoundRect,0.062500X-0.062500X-0.325000X0.062500X-0.325000X0.062500X0.325000X-0.062500X0.325000X0*%
%ADD14R,3.750000X3.750000*%
%ADD15RoundRect,0.218750X-0.256250X0.218750X-0.256250X-0.218750X0.256250X-0.218750X0.256250X0.218750X0*%
%ADD16RoundRect,0.225000X-0.250000X0.225000X-0.250000X-0.225000X0.250000X-0.225000X0.250000X0.225000X0*%
%ADD17RoundRect,0.100000X0.100000X-0.130000X0.100000X0.130000X-0.100000X0.130000X-0.100000X-0.130000X0*%
%ADD18RoundRect,0.225000X0.250000X-0.225000X0.250000X0.225000X-0.250000X0.225000X-0.250000X-0.225000X0*%
%ADD19R,0.675000X0.250000*%
%ADD20R,0.250000X0.675000*%
%ADD21RoundRect,0.100000X-0.130000X-0.100000X0.130000X-0.100000X0.130000X0.100000X-0.130000X0.100000X0*%
%ADD22R,1.700000X1.700000*%
%ADD23O,1.700000X1.700000*%
%ADD24R,2.400000X2.400000*%
%ADD25C,2.400000*%
%ADD26C,0.600000*%
%ADD27R,0.600000X1.160000*%
%ADD28R,0.300000X1.160000*%
%ADD29O,0.900000X2.000000*%
%ADD30O,0.900000X1.700000*%
%ADD31RoundRect,0.375000X-0.625000X-0.375000X0.625000X-0.375000X0.625000X0.375000X-0.625000X0.375000X0*%
%ADD32RoundRect,0.500000X-0.500000X-1.400000X0.500000X-1.400000X0.500000X1.400000X-0.500000X1.400000X0*%
%ADD33RoundRect,0.225000X0.225000X0.250000X-0.225000X0.250000X-0.225000X-0.250000X0.225000X-0.250000X0*%
%ADD34R,3.000000X3.000000*%
%ADD35C,3.000000*%
%ADD36RoundRect,0.225000X-0.225000X-0.250000X0.225000X-0.250000X0.225000X0.250000X-0.225000X0.250000X0*%
%ADD37R,1.500000X0.900000*%
%ADD38R,0.900000X1.500000*%
%ADD39R,3.900000X3.900000*%
%ADD40R,2.000000X2.000000*%
%ADD41C,2.000000*%
G04 APERTURE END LIST*
D10*
%TO.C,SW8*%
X172950000Y-115700000D03*
X177050000Y-115700000D03*
X172950000Y-117300000D03*
X177050000Y-117300000D03*
%TD*%
%TO.C,SW4*%
X179950000Y-110700000D03*
X184050000Y-110700000D03*
X179950000Y-112300000D03*
X184050000Y-112300000D03*
%TD*%
%TO.C,SW2*%
X138100000Y-106600000D03*
X134000000Y-106600000D03*
X138100000Y-105000000D03*
X134000000Y-105000000D03*
%TD*%
D11*
%TO.C,R5*%
X160400000Y-117780000D03*
X160400000Y-118420000D03*
%TD*%
D12*
%TO.C,U4*%
X155587500Y-83012500D03*
X155587500Y-83512500D03*
X155587500Y-84012500D03*
X155587500Y-84512500D03*
X155587500Y-85012500D03*
X155587500Y-85512500D03*
X155587500Y-86012500D03*
D13*
X156550000Y-86975000D03*
X157050000Y-86975000D03*
X157550000Y-86975000D03*
X158050000Y-86975000D03*
X158550000Y-86975000D03*
X159050000Y-86975000D03*
X159550000Y-86975000D03*
D12*
X160512500Y-86012500D03*
X160512500Y-85512500D03*
X160512500Y-85012500D03*
X160512500Y-84512500D03*
X160512500Y-84012500D03*
X160512500Y-83512500D03*
X160512500Y-83012500D03*
D13*
X159550000Y-82050000D03*
X159050000Y-82050000D03*
X158550000Y-82050000D03*
X158050000Y-82050000D03*
X157550000Y-82050000D03*
X157050000Y-82050000D03*
X156550000Y-82050000D03*
D14*
X158050000Y-84512500D03*
%TD*%
D15*
%TO.C,D1*%
X148200000Y-98800000D03*
X148200000Y-100375000D03*
%TD*%
D10*
%TO.C,SW7*%
X172950000Y-105700000D03*
X177050000Y-105700000D03*
X172950000Y-107300000D03*
X177050000Y-107300000D03*
%TD*%
D16*
%TO.C,C12*%
X192300000Y-121525000D03*
X192300000Y-123075000D03*
%TD*%
D17*
%TO.C,R16*%
X150750000Y-102165000D03*
X150750000Y-101525000D03*
%TD*%
D10*
%TO.C,SW3*%
X172950000Y-110700000D03*
X177050000Y-110700000D03*
X172950000Y-112300000D03*
X177050000Y-112300000D03*
%TD*%
D16*
%TO.C,C2*%
X137300000Y-84525000D03*
X137300000Y-86075000D03*
%TD*%
D18*
%TO.C,C15*%
X198200000Y-102250000D03*
X198200000Y-100700000D03*
%TD*%
D17*
%TO.C,R3*%
X160600000Y-109600000D03*
X160600000Y-108960000D03*
%TD*%
D10*
%TO.C,SW10*%
X116950000Y-115400000D03*
X121050000Y-115400000D03*
X116950000Y-117000000D03*
X121050000Y-117000000D03*
%TD*%
D17*
%TO.C,R17*%
X149500000Y-102320000D03*
X149500000Y-101680000D03*
%TD*%
D10*
%TO.C,SW5*%
X165900000Y-110700000D03*
X170000000Y-110700000D03*
X165900000Y-112300000D03*
X170000000Y-112300000D03*
%TD*%
D19*
%TO.C,U2*%
X134975000Y-99262500D03*
X134975000Y-99762500D03*
X134975000Y-100262500D03*
X134975000Y-100762500D03*
D20*
X135737500Y-101025000D03*
X136237500Y-101025000D03*
X136737500Y-101025000D03*
D19*
X137500000Y-100762500D03*
X137500000Y-100262500D03*
X137500000Y-99762500D03*
X137500000Y-99262500D03*
D20*
X136737500Y-99000000D03*
X136237500Y-99000000D03*
X135737500Y-99000000D03*
%TD*%
D21*
%TO.C,R11*%
X160500000Y-114000000D03*
X161140000Y-114000000D03*
%TD*%
D22*
%TO.C,U5*%
X177420000Y-77500000D03*
D23*
X179960000Y-77500000D03*
X182500000Y-77500000D03*
X185040000Y-77500000D03*
%TD*%
D24*
%TO.C,J1*%
X164000000Y-75000000D03*
D25*
X160500000Y-75000000D03*
X157000000Y-75000000D03*
X153500000Y-75000000D03*
%TD*%
D11*
%TO.C,R8*%
X139700000Y-104360000D03*
X139700000Y-105000000D03*
%TD*%
D26*
%TO.C,P1*%
X178930000Y-124310000D03*
X184710000Y-124310000D03*
D27*
X178620000Y-123250000D03*
X179420000Y-123250000D03*
D28*
X180570000Y-123250000D03*
X181570000Y-123250000D03*
X182070000Y-123250000D03*
X183070000Y-123250000D03*
D27*
X184220000Y-123250000D03*
X185020000Y-123250000D03*
X185020000Y-123250000D03*
X184220000Y-123250000D03*
D28*
X183570000Y-123250000D03*
X182570000Y-123250000D03*
X181070000Y-123250000D03*
X180070000Y-123250000D03*
D27*
X179420000Y-123250000D03*
X178620000Y-123250000D03*
D29*
X177500000Y-123830000D03*
D30*
X177500000Y-128000000D03*
D29*
X186140000Y-123830000D03*
D30*
X186140000Y-128000000D03*
%TD*%
D10*
%TO.C,SW11*%
X109950000Y-120700000D03*
X114050000Y-120700000D03*
X109950000Y-122300000D03*
X114050000Y-122300000D03*
%TD*%
D31*
%TO.C,U6*%
X185850000Y-114700000D03*
X185850000Y-117000000D03*
D32*
X192150000Y-117000000D03*
D31*
X185850000Y-119300000D03*
%TD*%
D17*
%TO.C,R7*%
X155800000Y-101065000D03*
X155800000Y-100425000D03*
%TD*%
D33*
%TO.C,C19*%
X168250000Y-100800000D03*
X166700000Y-100800000D03*
%TD*%
D11*
%TO.C,R9*%
X161700000Y-116535000D03*
X161700000Y-117175000D03*
%TD*%
D16*
%TO.C,C4*%
X153900000Y-84525000D03*
X153900000Y-86075000D03*
%TD*%
D12*
%TO.C,U3*%
X139075000Y-83000000D03*
X139075000Y-83500000D03*
X139075000Y-84000000D03*
X139075000Y-84500000D03*
X139075000Y-85000000D03*
X139075000Y-85500000D03*
X139075000Y-86000000D03*
D13*
X140037500Y-86962500D03*
X140537500Y-86962500D03*
X141037500Y-86962500D03*
X141537500Y-86962500D03*
X142037500Y-86962500D03*
X142537500Y-86962500D03*
X143037500Y-86962500D03*
D12*
X144000000Y-86000000D03*
X144000000Y-85500000D03*
X144000000Y-85000000D03*
X144000000Y-84500000D03*
X144000000Y-84000000D03*
X144000000Y-83500000D03*
X144000000Y-83000000D03*
D13*
X143037500Y-82037500D03*
X142537500Y-82037500D03*
X142037500Y-82037500D03*
X141537500Y-82037500D03*
X141037500Y-82037500D03*
X140537500Y-82037500D03*
X140037500Y-82037500D03*
D14*
X141537500Y-84500000D03*
%TD*%
D17*
%TO.C,R14*%
X153300000Y-102175000D03*
X153300000Y-101535000D03*
%TD*%
D21*
%TO.C,R10*%
X160500000Y-115250000D03*
X161140000Y-115250000D03*
%TD*%
D34*
%TO.C,BT1*%
X196500000Y-115000000D03*
D35*
X196500000Y-120000000D03*
%TD*%
D18*
%TO.C,C1*%
X137300000Y-89375000D03*
X137300000Y-87825000D03*
%TD*%
D33*
%TO.C,C5*%
X145475000Y-100200000D03*
X143925000Y-100200000D03*
%TD*%
D31*
%TO.C,U7*%
X191850000Y-104700000D03*
X191850000Y-107000000D03*
D32*
X198150000Y-107000000D03*
D31*
X191850000Y-109300000D03*
%TD*%
D17*
%TO.C,R1*%
X145600000Y-102365000D03*
X145600000Y-101725000D03*
%TD*%
%TO.C,R15*%
X152000000Y-100320000D03*
X152000000Y-99680000D03*
%TD*%
D18*
%TO.C,C3*%
X153000000Y-89275000D03*
X153000000Y-87725000D03*
%TD*%
D10*
%TO.C,SW9*%
X109900000Y-115400000D03*
X114000000Y-115400000D03*
X109900000Y-117000000D03*
X114000000Y-117000000D03*
%TD*%
D33*
%TO.C,C16*%
X140550000Y-100800000D03*
X139000000Y-100800000D03*
%TD*%
%TO.C,C6*%
X170475000Y-119000000D03*
X168925000Y-119000000D03*
%TD*%
D10*
%TO.C,SW1*%
X167000000Y-120600000D03*
X162900000Y-120600000D03*
X167000000Y-119000000D03*
X162900000Y-119000000D03*
%TD*%
D17*
%TO.C,R13*%
X154500000Y-99065000D03*
X154500000Y-98425000D03*
%TD*%
D36*
%TO.C,C18*%
X131800000Y-102300000D03*
X133350000Y-102300000D03*
%TD*%
D19*
%TO.C,U8*%
X162500000Y-99250000D03*
X162500000Y-99750000D03*
X162500000Y-100250000D03*
X162500000Y-100750000D03*
D20*
X163262500Y-101012500D03*
X163762500Y-101012500D03*
X164262500Y-101012500D03*
D19*
X165025000Y-100750000D03*
X165025000Y-100250000D03*
X165025000Y-99750000D03*
X165025000Y-99250000D03*
D20*
X164262500Y-98987500D03*
X163762500Y-98987500D03*
X163262500Y-98987500D03*
%TD*%
D33*
%TO.C,C14*%
X189675000Y-109400000D03*
X188125000Y-109400000D03*
%TD*%
%TO.C,C13*%
X183675000Y-119300000D03*
X182125000Y-119300000D03*
%TD*%
D21*
%TO.C,R4*%
X157080000Y-102200000D03*
X157720000Y-102200000D03*
%TD*%
%TO.C,R12*%
X160360000Y-107750000D03*
X161000000Y-107750000D03*
%TD*%
D22*
%TO.C,U9*%
X114920000Y-77500000D03*
D23*
X117460000Y-77500000D03*
X120000000Y-77500000D03*
X122540000Y-77500000D03*
%TD*%
D17*
%TO.C,R18*%
X148200000Y-102320000D03*
X148200000Y-101680000D03*
%TD*%
D37*
%TO.C,U1*%
X158850000Y-121620000D03*
X158850000Y-120350000D03*
X158850000Y-119080000D03*
X158850000Y-117810000D03*
X158850000Y-116540000D03*
X158850000Y-115270000D03*
X158850000Y-114000000D03*
X158850000Y-112730000D03*
X158850000Y-111460000D03*
X158850000Y-110190000D03*
X158850000Y-108920000D03*
X158850000Y-107650000D03*
X158850000Y-106380000D03*
X158850000Y-105110000D03*
D38*
X157085000Y-103860000D03*
X155815000Y-103860000D03*
X154545000Y-103860000D03*
X153275000Y-103860000D03*
X152005000Y-103860000D03*
X150735000Y-103860000D03*
X149465000Y-103860000D03*
X148195000Y-103860000D03*
X146925000Y-103860000D03*
X145655000Y-103860000D03*
X144385000Y-103860000D03*
X143115000Y-103860000D03*
D37*
X141350000Y-105110000D03*
X141350000Y-106380000D03*
X141350000Y-107650000D03*
X141350000Y-108920000D03*
X141350000Y-110190000D03*
X141350000Y-111460000D03*
X141350000Y-112730000D03*
X141350000Y-114000000D03*
X141350000Y-115270000D03*
X141350000Y-116540000D03*
X141350000Y-117810000D03*
X141350000Y-119080000D03*
X141350000Y-120350000D03*
X141350000Y-121620000D03*
D26*
X153000000Y-114600000D03*
X153000000Y-113200000D03*
X152300000Y-115300000D03*
X152300000Y-113900000D03*
X152300000Y-112500000D03*
X151600000Y-114600000D03*
D39*
X151600000Y-113900000D03*
D26*
X151600000Y-113200000D03*
X150900000Y-115300000D03*
X150900000Y-113900000D03*
X150900000Y-112500000D03*
X150200000Y-114600000D03*
X150200000Y-113200000D03*
%TD*%
D10*
%TO.C,SW6*%
X116950000Y-120700000D03*
X121050000Y-120700000D03*
X116950000Y-122300000D03*
X121050000Y-122300000D03*
%TD*%
D18*
%TO.C,C17*%
X163200000Y-104000000D03*
X163200000Y-102450000D03*
%TD*%
D24*
%TO.C,J3*%
X146500000Y-75000000D03*
D25*
X143000000Y-75000000D03*
X139500000Y-75000000D03*
X136000000Y-75000000D03*
%TD*%
D17*
%TO.C,R2*%
X139800000Y-117220000D03*
X139800000Y-116580000D03*
%TD*%
D11*
%TO.C,R6*%
X160400000Y-119425000D03*
X160400000Y-120065000D03*
%TD*%
D36*
%TO.C,C11*%
X130700000Y-105000000D03*
X132250000Y-105000000D03*
%TD*%
D40*
%TO.C,BZ1*%
X136300000Y-115000000D03*
D41*
X128700000Y-115000000D03*
%TD*%
M02*
